version 1
nodes
0 "weapon_bone" -1
end
skeleton
time 0
0  0.000000 0.000000 0.000000  0.000000 -0.000000 0.000000
end
triangles
c_invasion_wrangler_laser
0  105.000000 0.000000 0.000000  0.499732 0.032754 0.865561  0.000000 0.000000 0
0  96.665878 12.726301 4.330127  0.499732 0.032754 0.865561  0.000000 0.000000 0
0  97.500000 0.000000 4.330127  0.499732 0.032754 0.865561  0.000000 0.000000 0
c_invasion_wrangler_laser
0  97.500000 0.000000 4.330127  -0.997859 -0.065403 0.000000  0.000000 0.000000 0
0  96.665878 12.726301 -4.330127  -0.997859 -0.065403 0.000000  0.000000 0.000000 0
0  97.500000 0.000000 -4.330127  -0.997859 -0.065403 0.000000  0.000000 0.000000 0
c_invasion_wrangler_laser
0  97.500000 0.000000 -4.330127  0.499732 0.032754 -0.865561  0.000000 0.000000 0
0  104.101715 13.705248 0.000000  0.499732 0.032754 -0.865561  0.000000 0.000000 0
0  105.000000 0.000000 0.000000  0.499732 0.032754 -0.865561  0.000000 0.000000 0
c_invasion_wrangler_laser
0  104.101715 13.705248 0.000000  0.491181 0.097702 0.865561  0.000000 0.000000 0
0  94.177765 25.234852 4.330127  0.491181 0.097702 0.865561  0.000000 0.000000 0
0  96.665878 12.726301 4.330127  0.491181 0.097702 0.865561  0.000000 0.000000 0
c_invasion_wrangler_laser
0  96.665878 12.726301 4.330127  -0.980785 -0.195091 0.000000  0.000000 0.000000 0
0  94.177765 25.234852 -4.330127  -0.980785 -0.195091 0.000000  0.000000 0.000000 0
0  96.665878 12.726301 -4.330127  -0.980785 -0.195091 0.000000  0.000000 0.000000 0
c_invasion_wrangler_laser
0  96.665878 12.726301 -4.330127  0.491181 0.097702 -0.865561  0.000000 0.000000 0
0  101.422211 27.175993 0.000000  0.491181 0.097702 -0.865561  0.000000 0.000000 0
0  104.101715 13.705248 0.000000  0.491181 0.097702 -0.865561  0.000000 0.000000 0
c_invasion_wrangler_laser
0  101.422211 27.175993 0.000000  0.474226 0.160978 0.865561  0.000000 0.000000 0
0  90.078255 37.311626 4.330127  0.474226 0.160978 0.865561  0.000000 0.000000 0
0  94.177765 25.234852 4.330127  0.474226 0.160978 0.865561  0.000000 0.000000 0
c_invasion_wrangler_laser
0  94.177765 25.234852 4.330127  -0.946930 -0.321439 0.000000  0.000000 0.000000 0
0  90.078255 37.311626 -4.330127  -0.946930 -0.321439 0.000000  0.000000 0.000000 0
0  94.177765 25.234852 -4.330127  -0.946930 -0.321439 0.000000  0.000000 0.000000 0
c_invasion_wrangler_laser
0  94.177765 25.234852 -4.330127  0.474226 0.160978 -0.865561  0.000000 0.000000 0
0  97.007355 40.181755 0.000000  0.474226 0.160978 -0.865561  0.000000 0.000000 0
0  101.422211 27.175993 0.000000  0.474226 0.160978 -0.865561  0.000000 0.000000 0
c_invasion_wrangler_laser
0  97.007355 40.181755 0.000000  0.449157 0.221499 0.865561  0.000000 0.000000 0
0  84.437469 48.750011 4.330127  0.449157 0.221499 0.865561  0.000000 0.000000 0
0  90.078255 37.311626 4.330127  0.449157 0.221499 0.865561  0.000000 0.000000 0
c_invasion_wrangler_laser
0  90.078255 37.311626 4.330127  -0.896873 -0.442289 0.000000  0.000000 0.000000 0
0  84.437469 48.750011 -4.330127  -0.896873 -0.442289 0.000000  0.000000 0.000000 0
0  90.078255 37.311626 -4.330127  -0.896873 -0.442289 0.000000  0.000000 0.000000 0
c_invasion_wrangler_laser
0  90.078255 37.311626 -4.330127  0.449157 0.221499 -0.865561  0.000000 0.000000 0
0  90.932663 52.500011 0.000000  0.449157 0.221499 -0.865561  0.000000 0.000000 0
0  97.007355 40.181755 0.000000  0.449157 0.221499 -0.865561  0.000000 0.000000 0
c_invasion_wrangler_laser
0  90.932663 52.500011 0.000000  0.416403 0.278232 0.865561  0.000000 0.000000 0
0  77.351959 59.354229 4.330127  0.416403 0.278232 0.865561  0.000000 0.000000 0
0  84.437469 48.750011 4.330127  0.416403 0.278232 0.865561  0.000000 0.000000 0
c_invasion_wrangler_laser
0  84.437469 48.750011 4.330127  -0.831469 -0.555571 0.000000  0.000000 0.000000 0
0  77.351959 59.354229 -4.330127  -0.831469 -0.555571 0.000000  0.000000 0.000000 0
0  84.437469 48.750011 -4.330127  -0.831469 -0.555571 0.000000  0.000000 0.000000 0
c_invasion_wrangler_laser
0  84.437469 48.750011 -4.330127  0.416403 0.278232 -0.865561  0.000000 0.000000 0
0  83.302109 63.919937 0.000000  0.416403 0.278232 -0.865561  0.000000 0.000000 0
0  90.932663 52.500011 0.000000  0.416403 0.278232 -0.865561  0.000000 0.000000 0
c_invasion_wrangler_laser
0  83.302109 63.919937 0.000000  0.376525 0.330203 0.865561  0.000000 0.000000 0
0  68.942902 68.942917 4.330127  0.376525 0.330203 0.865561  0.000000 0.000000 0
0  77.351959 59.354229 4.330127  0.376525 0.330203 0.865561  0.000000 0.000000 0
c_invasion_wrangler_laser
0  77.351959 59.354229 4.330127  -0.751840 -0.659346 0.000000  0.000000 0.000000 0
0  68.942902 68.942917 -4.330127  -0.751840 -0.659346 0.000000  0.000000 0.000000 0
0  77.351959 59.354229 -4.330127  -0.751840 -0.659346 0.000000  0.000000 0.000000 0
c_invasion_wrangler_laser
0  77.351959 59.354229 -4.330127  0.376524 0.330202 -0.865561  0.000000 0.000000 0
0  74.246208 74.246216 0.000000  0.376524 0.330202 -0.865561  0.000000 0.000000 0
0  83.302109 63.919937 0.000000  0.376524 0.330202 -0.865561  0.000000 0.000000 0
c_invasion_wrangler_laser
0  74.246208 74.246216 0.000000  0.330203 0.376525 0.865561  0.000000 0.000000 0
0  59.354252 77.351936 4.330127  0.330203 0.376525 0.865561  0.000000 0.000000 0
0  68.942902 68.942917 4.330127  0.330203 0.376525 0.865561  0.000000 0.000000 0
c_invasion_wrangler_laser
0  68.942902 68.942917 4.330127  -0.659346 -0.751840 0.000000  0.000000 0.000000 0
0  59.354252 77.351936 -4.330127  -0.659346 -0.751840 0.000000  0.000000 0.000000 0
0  68.942902 68.942917 -4.330127  -0.659346 -0.751840 0.000000  0.000000 0.000000 0
c_invasion_wrangler_laser
0  68.942902 68.942917 -4.330127  0.330203 0.376524 -0.865561  0.000000 0.000000 0
0  63.919964 83.302086 0.000000  0.330203 0.376524 -0.865561  0.000000 0.000000 0
0  74.246208 74.246216 0.000000  0.330203 0.376524 -0.865561  0.000000 0.000000 0
c_invasion_wrangler_laser
0  63.919964 83.302086 0.000000  0.278233 0.416404 0.865560  0.000000 0.000000 0
0  48.749996 84.437485 4.330127  0.278233 0.416404 0.865560  0.000000 0.000000 0
0  59.354252 77.351936 4.330127  0.278233 0.416404 0.865560  0.000000 0.000000 0
c_invasion_wrangler_laser
0  59.354252 77.351936 4.330127  -0.555571 -0.831469 0.000000  0.000000 0.000000 0
0  48.749996 84.437485 -4.330127  -0.555571 -0.831469 0.000000  0.000000 0.000000 0
0  59.354252 77.351936 -4.330127  -0.555571 -0.831469 0.000000  0.000000 0.000000 0
c_invasion_wrangler_laser
0  59.354252 77.351936 -4.330127  0.278232 0.416403 -0.865561  0.000000 0.000000 0
0  52.499996 90.932671 0.000000  0.278232 0.416403 -0.865561  0.000000 0.000000 0
0  63.919964 83.302086 0.000000  0.278232 0.416403 -0.865561  0.000000 0.000000 0
c_invasion_wrangler_laser
0  52.499996 90.932671 0.000000  0.221500 0.449158 0.865561  0.000000 0.000000 0
0  37.311657 90.078247 4.330127  0.221500 0.449158 0.865561  0.000000 0.000000 0
0  48.749996 84.437485 4.330127  0.221500 0.449158 0.865561  0.000000 0.000000 0
c_invasion_wrangler_laser
0  48.749996 84.437485 4.330127  -0.442288 -0.896873 0.000000  0.000000 0.000000 0
0  37.311657 90.078247 -4.330127  -0.442288 -0.896873 0.000000  0.000000 0.000000 0
0  48.749996 84.437485 -4.330127  -0.442288 -0.896873 0.000000  0.000000 0.000000 0
c_invasion_wrangler_laser
0  48.749996 84.437485 -4.330127  0.221500 0.449158 -0.865560  0.000000 0.000000 0
0  40.181786 97.007339 0.000000  0.221500 0.449158 -0.865560  0.000000 0.000000 0
0  52.499996 90.932671 0.000000  0.221500 0.449158 -0.865560  0.000000 0.000000 0
c_invasion_wrangler_laser
0  40.181786 97.007339 0.000000  0.160978 0.474227 0.865560  0.000000 0.000000 0
0  25.234859 94.177765 4.330127  0.160978 0.474227 0.865560  0.000000 0.000000 0
0  37.311657 90.078247 4.330127  0.160978 0.474227 0.865560  0.000000 0.000000 0
c_invasion_wrangler_laser
0  37.311657 90.078247 4.330127  -0.321439 -0.946930 0.000000  0.000000 0.000000 0
0  25.234859 94.177765 -4.330127  -0.321439 -0.946930 0.000000  0.000000 0.000000 0
0  37.311657 90.078247 -4.330127  -0.321439 -0.946930 0.000000  0.000000 0.000000 0
c_invasion_wrangler_laser
0  37.311657 90.078247 -4.330127  0.160978 0.474227 -0.865561  0.000000 0.000000 0
0  27.176003 101.422211 0.000000  0.160978 0.474227 -0.865561  0.000000 0.000000 0
0  40.181786 97.007339 0.000000  0.160978 0.474227 -0.865561  0.000000 0.000000 0
c_invasion_wrangler_laser
0  27.176003 101.422211 0.000000  0.097702 0.491181 0.865561  0.000000 0.000000 0
0  12.726286 96.665878 4.330127  0.097702 0.491181 0.865561  0.000000 0.000000 0
0  25.234859 94.177765 4.330127  0.097702 0.491181 0.865561  0.000000 0.000000 0
c_invasion_wrangler_laser
0  25.234859 94.177765 4.330127  -0.195091 -0.980785 0.000000  0.000000 0.000000 0
0  12.726286 96.665878 -4.330127  -0.195091 -0.980785 0.000000  0.000000 0.000000 0
0  25.234859 94.177765 -4.330127  -0.195091 -0.980785 0.000000  0.000000 0.000000 0
c_invasion_wrangler_laser
0  25.234859 94.177765 -4.330127  0.097702 0.491181 -0.865561  0.000000 0.000000 0
0  13.705231 104.101715 0.000000  0.097702 0.491181 -0.865561  0.000000 0.000000 0
0  27.176003 101.422211 0.000000  0.097702 0.491181 -0.865561  0.000000 0.000000 0
c_invasion_wrangler_laser
0  13.705231 104.101715 0.000000  0.032754 0.499731 0.865561  0.000000 0.000000 0
0  0.000000 97.500000 4.330127  0.032754 0.499731 0.865561  0.000000 0.000000 0
0  12.726286 96.665878 4.330127  0.032754 0.499731 0.865561  0.000000 0.000000 0
c_invasion_wrangler_laser
0  12.726286 96.665878 4.330127  -0.065403 -0.997859 0.000000  0.000000 0.000000 0
0  0.000000 97.500000 -4.330127  -0.065403 -0.997859 0.000000  0.000000 0.000000 0
0  12.726286 96.665878 -4.330127  -0.065403 -0.997859 0.000000  0.000000 0.000000 0
c_invasion_wrangler_laser
0  12.726286 96.665878 -4.330127  0.032754 0.499731 -0.865561  0.000000 0.000000 0
0  0.000000 105.000000 0.000000  0.032754 0.499731 -0.865561  0.000000 0.000000 0
0  13.705231 104.101715 0.000000  0.032754 0.499731 -0.865561  0.000000 0.000000 0
c_invasion_wrangler_laser
0  -105.000000 0.000000 0.000000  -0.499732 0.032754 0.865561  0.000000 0.000000 0
0  -96.665878 12.726301 4.330127  -0.499732 0.032754 0.865561  0.000000 0.000000 0
0  -104.101715 13.705248 0.000000  -0.499732 0.032754 0.865561  0.000000 0.000000 0
c_invasion_wrangler_laser
0  -97.500000 0.000000 4.330127  0.997859 -0.065402 0.000000  0.000000 0.000000 0
0  -96.665878 12.726301 -4.330127  0.997859 -0.065402 0.000000  0.000000 0.000000 0
0  -96.665878 12.726301 4.330127  0.997859 -0.065402 0.000000  0.000000 0.000000 0
c_invasion_wrangler_laser
0  -97.500000 0.000000 -4.330127  -0.499732 0.032754 -0.865561  0.000000 0.000000 0
0  -104.101715 13.705248 0.000000  -0.499732 0.032754 -0.865561  0.000000 0.000000 0
0  -96.665878 12.726301 -4.330127  -0.499732 0.032754 -0.865561  0.000000 0.000000 0
c_invasion_wrangler_laser
0  -104.101715 13.705248 0.000000  -0.491181 0.097702 0.865561  0.000000 0.000000 0
0  -94.177765 25.234852 4.330127  -0.491181 0.097702 0.865561  0.000000 0.000000 0
0  -101.422211 27.175993 0.000000  -0.491181 0.097702 0.865561  0.000000 0.000000 0
c_invasion_wrangler_laser
0  -96.665878 12.726301 4.330127  0.980785 -0.195091 0.000000  0.000000 0.000000 0
0  -94.177765 25.234852 -4.330127  0.980785 -0.195091 0.000000  0.000000 0.000000 0
0  -94.177765 25.234852 4.330127  0.980785 -0.195091 0.000000  0.000000 0.000000 0
c_invasion_wrangler_laser
0  -96.665878 12.726301 -4.330127  -0.491181 0.097702 -0.865561  0.000000 0.000000 0
0  -101.422211 27.175993 0.000000  -0.491181 0.097702 -0.865561  0.000000 0.000000 0
0  -94.177765 25.234852 -4.330127  -0.491181 0.097702 -0.865561  0.000000 0.000000 0
c_invasion_wrangler_laser
0  -101.422211 27.175993 0.000000  -0.474226 0.160978 0.865561  0.000000 0.000000 0
0  -90.078255 37.311626 4.330127  -0.474226 0.160978 0.865561  0.000000 0.000000 0
0  -97.007355 40.181755 0.000000  -0.474226 0.160978 0.865561  0.000000 0.000000 0
c_invasion_wrangler_laser
0  -94.177765 25.234852 4.330127  0.946930 -0.321439 0.000000  0.000000 0.000000 0
0  -90.078255 37.311626 -4.330127  0.946930 -0.321439 0.000000  0.000000 0.000000 0
0  -90.078255 37.311626 4.330127  0.946930 -0.321439 0.000000  0.000000 0.000000 0
c_invasion_wrangler_laser
0  -94.177765 25.234852 -4.330127  -0.474226 0.160979 -0.865561  0.000000 0.000000 0
0  -97.007355 40.181755 0.000000  -0.474226 0.160979 -0.865561  0.000000 0.000000 0
0  -90.078255 37.311626 -4.330127  -0.474226 0.160979 -0.865561  0.000000 0.000000 0
c_invasion_wrangler_laser
0  -97.007355 40.181755 0.000000  -0.449157 0.221500 0.865561  0.000000 0.000000 0
0  -84.437469 48.750011 4.330127  -0.449157 0.221500 0.865561  0.000000 0.000000 0
0  -90.932663 52.500011 0.000000  -0.449157 0.221500 0.865561  0.000000 0.000000 0
c_invasion_wrangler_laser
0  -90.078255 37.311626 4.330127  0.896873 -0.442287 0.000000  0.000000 0.000000 0
0  -84.437469 48.750011 -4.330127  0.896873 -0.442287 0.000000  0.000000 0.000000 0
0  -84.437469 48.750011 4.330127  0.896873 -0.442287 0.000000  0.000000 0.000000 0
c_invasion_wrangler_laser
0  -90.078255 37.311626 -4.330127  -0.449157 0.221500 -0.865561  0.000000 0.000000 0
0  -90.932663 52.500011 0.000000  -0.449157 0.221500 -0.865561  0.000000 0.000000 0
0  -84.437469 48.750011 -4.330127  -0.449157 0.221500 -0.865561  0.000000 0.000000 0
c_invasion_wrangler_laser
0  -90.932663 52.500011 0.000000  -0.416403 0.278232 0.865561  0.000000 0.000000 0
0  -77.351959 59.354229 4.330127  -0.416403 0.278232 0.865561  0.000000 0.000000 0
0  -83.302109 63.919937 0.000000  -0.416403 0.278232 0.865561  0.000000 0.000000 0
c_invasion_wrangler_laser
0  -84.437469 48.750011 4.330127  0.831470 -0.555570 0.000000  0.000000 0.000000 0
0  -77.351959 59.354229 -4.330127  0.831470 -0.555570 0.000000  0.000000 0.000000 0
0  -77.351959 59.354229 4.330127  0.831470 -0.555570 0.000000  0.000000 0.000000 0
c_invasion_wrangler_laser
0  -84.437469 48.750011 -4.330127  -0.416403 0.278232 -0.865561  0.000000 0.000000 0
0  -83.302109 63.919937 0.000000  -0.416403 0.278232 -0.865561  0.000000 0.000000 0
0  -77.351959 59.354229 -4.330127  -0.416403 0.278232 -0.865561  0.000000 0.000000 0
c_invasion_wrangler_laser
0  -83.302109 63.919937 0.000000  -0.376524 0.330203 0.865561  0.000000 0.000000 0
0  -68.942902 68.942917 4.330127  -0.376524 0.330203 0.865561  0.000000 0.000000 0
0  -74.246208 74.246216 0.000000  -0.376524 0.330203 0.865561  0.000000 0.000000 0
c_invasion_wrangler_laser
0  -77.351959 59.354229 4.330127  0.751840 -0.659346 0.000000  0.000000 0.000000 0
0  -68.942902 68.942917 -4.330127  0.751840 -0.659346 0.000000  0.000000 0.000000 0
0  -68.942902 68.942917 4.330127  0.751840 -0.659346 0.000000  0.000000 0.000000 0
c_invasion_wrangler_laser
0  -77.351959 59.354229 -4.330127  -0.376524 0.330203 -0.865561  0.000000 0.000000 0
0  -74.246208 74.246216 0.000000  -0.376524 0.330203 -0.865561  0.000000 0.000000 0
0  -68.942902 68.942917 -4.330127  -0.376524 0.330203 -0.865561  0.000000 0.000000 0
c_invasion_wrangler_laser
0  -74.246208 74.246216 0.000000  -0.330203 0.376524 0.865561  0.000000 0.000000 0
0  -59.354252 77.351936 4.330127  -0.330203 0.376524 0.865561  0.000000 0.000000 0
0  -63.919964 83.302086 0.000000  -0.330203 0.376524 0.865561  0.000000 0.000000 0
c_invasion_wrangler_laser
0  -68.942902 68.942917 4.330127  0.659346 -0.751839 0.000000  0.000000 0.000000 0
0  -59.354252 77.351936 -4.330127  0.659346 -0.751839 0.000000  0.000000 0.000000 0
0  -59.354252 77.351936 4.330127  0.659346 -0.751839 0.000000  0.000000 0.000000 0
c_invasion_wrangler_laser
0  -68.942902 68.942917 -4.330127  -0.330203 0.376525 -0.865561  0.000000 0.000000 0
0  -63.919964 83.302086 0.000000  -0.330203 0.376525 -0.865561  0.000000 0.000000 0
0  -59.354252 77.351936 -4.330127  -0.330203 0.376525 -0.865561  0.000000 0.000000 0
c_invasion_wrangler_laser
0  -63.919964 83.302086 0.000000  -0.278232 0.416403 0.865561  0.000000 0.000000 0
0  -48.749996 84.437485 4.330127  -0.278232 0.416403 0.865561  0.000000 0.000000 0
0  -52.499996 90.932671 0.000000  -0.278232 0.416403 0.865561  0.000000 0.000000 0
c_invasion_wrangler_laser
0  -59.354252 77.351936 4.330127  0.555571 -0.831469 0.000000  0.000000 0.000000 0
0  -48.749996 84.437485 -4.330127  0.555571 -0.831469 0.000000  0.000000 0.000000 0
0  -48.749996 84.437485 4.330127  0.555571 -0.831469 0.000000  0.000000 0.000000 0
c_invasion_wrangler_laser
0  -59.354252 77.351936 -4.330127  -0.278233 0.416404 -0.865560  0.000000 0.000000 0
0  -52.499996 90.932671 0.000000  -0.278233 0.416404 -0.865560  0.000000 0.000000 0
0  -48.749996 84.437485 -4.330127  -0.278233 0.416404 -0.865560  0.000000 0.000000 0
c_invasion_wrangler_laser
0  -52.499996 90.932671 0.000000  -0.221500 0.449158 0.865560  0.000000 0.000000 0
0  -37.311657 90.078247 4.330127  -0.221500 0.449158 0.865560  0.000000 0.000000 0
0  -40.181786 97.007339 0.000000  -0.221500 0.449158 0.865560  0.000000 0.000000 0
c_invasion_wrangler_laser
0  -48.749996 84.437485 4.330127  0.442289 -0.896873 0.000000  0.000000 0.000000 0
0  -37.311657 90.078247 -4.330127  0.442289 -0.896873 0.000000  0.000000 0.000000 0
0  -37.311657 90.078247 4.330127  0.442289 -0.896873 0.000000  0.000000 0.000000 0
c_invasion_wrangler_laser
0  -48.749996 84.437485 -4.330127  -0.221500 0.449158 -0.865561  0.000000 0.000000 0
0  -40.181786 97.007339 0.000000  -0.221500 0.449158 -0.865561  0.000000 0.000000 0
0  -37.311657 90.078247 -4.330127  -0.221500 0.449158 -0.865561  0.000000 0.000000 0
c_invasion_wrangler_laser
0  -40.181786 97.007339 0.000000  -0.160978 0.474226 0.865561  0.000000 0.000000 0
0  -25.234859 94.177765 4.330127  -0.160978 0.474226 0.865561  0.000000 0.000000 0
0  -27.176003 101.422211 0.000000  -0.160978 0.474226 0.865561  0.000000 0.000000 0
c_invasion_wrangler_laser
0  -37.311657 90.078247 4.330127  0.321439 -0.946930 0.000000  0.000000 0.000000 0
0  -25.234859 94.177765 -4.330127  0.321439 -0.946930 0.000000  0.000000 0.000000 0
0  -25.234859 94.177765 4.330127  0.321439 -0.946930 0.000000  0.000000 0.000000 0
c_invasion_wrangler_laser
0  -37.311657 90.078247 -4.330127  -0.160978 0.474227 -0.865560  0.000000 0.000000 0
0  -27.176003 101.422211 0.000000  -0.160978 0.474227 -0.865560  0.000000 0.000000 0
0  -25.234859 94.177765 -4.330127  -0.160978 0.474227 -0.865560  0.000000 0.000000 0
c_invasion_wrangler_laser
0  -27.176003 101.422211 0.000000  -0.097702 0.491181 0.865561  0.000000 0.000000 0
0  -12.726286 96.665878 4.330127  -0.097702 0.491181 0.865561  0.000000 0.000000 0
0  -13.705231 104.101715 0.000000  -0.097702 0.491181 0.865561  0.000000 0.000000 0
c_invasion_wrangler_laser
0  -25.234859 94.177765 4.330127  0.195091 -0.980785 0.000000  0.000000 0.000000 0
0  -12.726286 96.665878 -4.330127  0.195091 -0.980785 0.000000  0.000000 0.000000 0
0  -12.726286 96.665878 4.330127  0.195091 -0.980785 0.000000  0.000000 0.000000 0
c_invasion_wrangler_laser
0  -25.234859 94.177765 -4.330127  -0.097702 0.491180 -0.865561  0.000000 0.000000 0
0  -13.705231 104.101715 0.000000  -0.097702 0.491180 -0.865561  0.000000 0.000000 0
0  -12.726286 96.665878 -4.330127  -0.097702 0.491180 -0.865561  0.000000 0.000000 0
c_invasion_wrangler_laser
0  -13.705231 104.101715 0.000000  -0.032754 0.499731 0.865561  0.000000 0.000000 0
0  0.000000 97.500000 4.330127  -0.032754 0.499731 0.865561  0.000000 0.000000 0
0  0.000000 105.000000 0.000000  -0.032754 0.499731 0.865561  0.000000 0.000000 0
c_invasion_wrangler_laser
0  -12.726286 96.665878 4.330127  0.065403 -0.997859 0.000000  0.000000 0.000000 0
0  0.000000 97.500000 -4.330127  0.065403 -0.997859 0.000000  0.000000 0.000000 0
0  0.000000 97.500000 4.330127  0.065403 -0.997859 0.000000  0.000000 0.000000 0
c_invasion_wrangler_laser
0  -12.726286 96.665878 -4.330127  -0.032754 0.499732 -0.865560  0.000000 0.000000 0
0  0.000000 105.000000 0.000000  -0.032754 0.499732 -0.865560  0.000000 0.000000 0
0  0.000000 97.500000 -4.330127  -0.032754 0.499732 -0.865560  0.000000 0.000000 0
c_invasion_wrangler_laser
0  105.000000 0.000000 0.000000  0.499732 -0.032754 0.865561  0.000000 0.000000 0
0  96.665878 -12.726301 4.330127  0.499732 -0.032754 0.865561  0.000000 0.000000 0
0  104.101715 -13.705248 0.000000  0.499732 -0.032754 0.865561  0.000000 0.000000 0
c_invasion_wrangler_laser
0  97.500000 0.000000 4.330127  -0.997859 0.065402 0.000000  0.000000 0.000000 0
0  96.665878 -12.726301 -4.330127  -0.997859 0.065402 0.000000  0.000000 0.000000 0
0  96.665878 -12.726301 4.330127  -0.997859 0.065402 0.000000  0.000000 0.000000 0
c_invasion_wrangler_laser
0  97.500000 0.000000 -4.330127  0.499732 -0.032754 -0.865561  0.000000 0.000000 0
0  104.101715 -13.705248 0.000000  0.499732 -0.032754 -0.865561  0.000000 0.000000 0
0  96.665878 -12.726301 -4.330127  0.499732 -0.032754 -0.865561  0.000000 0.000000 0
c_invasion_wrangler_laser
0  104.101715 -13.705248 0.000000  0.491181 -0.097702 0.865561  0.000000 0.000000 0
0  94.177765 -25.234852 4.330127  0.491181 -0.097702 0.865561  0.000000 0.000000 0
0  101.422211 -27.175993 0.000000  0.491181 -0.097702 0.865561  0.000000 0.000000 0
c_invasion_wrangler_laser
0  96.665878 -12.726301 4.330127  -0.980785 0.195091 0.000000  0.000000 0.000000 0
0  94.177765 -25.234852 -4.330127  -0.980785 0.195091 0.000000  0.000000 0.000000 0
0  94.177765 -25.234852 4.330127  -0.980785 0.195091 0.000000  0.000000 0.000000 0
c_invasion_wrangler_laser
0  96.665878 -12.726301 -4.330127  0.491181 -0.097702 -0.865561  0.000000 0.000000 0
0  101.422211 -27.175993 0.000000  0.491181 -0.097702 -0.865561  0.000000 0.000000 0
0  94.177765 -25.234852 -4.330127  0.491181 -0.097702 -0.865561  0.000000 0.000000 0
c_invasion_wrangler_laser
0  101.422211 -27.175993 0.000000  0.474226 -0.160978 0.865561  0.000000 0.000000 0
0  90.078255 -37.311626 4.330127  0.474226 -0.160978 0.865561  0.000000 0.000000 0
0  97.007355 -40.181755 0.000000  0.474226 -0.160978 0.865561  0.000000 0.000000 0
c_invasion_wrangler_laser
0  94.177765 -25.234852 4.330127  -0.946930 0.321439 0.000000  0.000000 0.000000 0
0  90.078255 -37.311626 -4.330127  -0.946930 0.321439 0.000000  0.000000 0.000000 0
0  90.078255 -37.311626 4.330127  -0.946930 0.321439 0.000000  0.000000 0.000000 0
c_invasion_wrangler_laser
0  94.177765 -25.234852 -4.330127  0.474226 -0.160979 -0.865561  0.000000 0.000000 0
0  97.007355 -40.181755 0.000000  0.474226 -0.160979 -0.865561  0.000000 0.000000 0
0  90.078255 -37.311626 -4.330127  0.474226 -0.160979 -0.865561  0.000000 0.000000 0
c_invasion_wrangler_laser
0  97.007355 -40.181755 0.000000  0.449157 -0.221500 0.865561  0.000000 0.000000 0
0  84.437469 -48.750011 4.330127  0.449157 -0.221500 0.865561  0.000000 0.000000 0
0  90.932663 -52.500011 0.000000  0.449157 -0.221500 0.865561  0.000000 0.000000 0
c_invasion_wrangler_laser
0  90.078255 -37.311626 4.330127  -0.896873 0.442287 0.000000  0.000000 0.000000 0
0  84.437469 -48.750011 -4.330127  -0.896873 0.442287 0.000000  0.000000 0.000000 0
0  84.437469 -48.750011 4.330127  -0.896873 0.442287 0.000000  0.000000 0.000000 0
c_invasion_wrangler_laser
0  90.078255 -37.311626 -4.330127  0.449157 -0.221500 -0.865561  0.000000 0.000000 0
0  90.932663 -52.500011 0.000000  0.449157 -0.221500 -0.865561  0.000000 0.000000 0
0  84.437469 -48.750011 -4.330127  0.449157 -0.221500 -0.865561  0.000000 0.000000 0
c_invasion_wrangler_laser
0  90.932663 -52.500011 0.000000  0.416403 -0.278232 0.865561  0.000000 0.000000 0
0  77.351959 -59.354229 4.330127  0.416403 -0.278232 0.865561  0.000000 0.000000 0
0  83.302109 -63.919937 0.000000  0.416403 -0.278232 0.865561  0.000000 0.000000 0
c_invasion_wrangler_laser
0  84.437469 -48.750011 4.330127  -0.831470 0.555570 0.000000  0.000000 0.000000 0
0  77.351959 -59.354229 -4.330127  -0.831470 0.555570 0.000000  0.000000 0.000000 0
0  77.351959 -59.354229 4.330127  -0.831470 0.555570 0.000000  0.000000 0.000000 0
c_invasion_wrangler_laser
0  84.437469 -48.750011 -4.330127  0.416403 -0.278232 -0.865561  0.000000 0.000000 0
0  83.302109 -63.919937 0.000000  0.416403 -0.278232 -0.865561  0.000000 0.000000 0
0  77.351959 -59.354229 -4.330127  0.416403 -0.278232 -0.865561  0.000000 0.000000 0
c_invasion_wrangler_laser
0  83.302109 -63.919937 0.000000  0.376524 -0.330203 0.865561  0.000000 0.000000 0
0  68.942902 -68.942917 4.330127  0.376524 -0.330203 0.865561  0.000000 0.000000 0
0  74.246208 -74.246216 0.000000  0.376524 -0.330203 0.865561  0.000000 0.000000 0
c_invasion_wrangler_laser
0  77.351959 -59.354229 4.330127  -0.751840 0.659346 0.000000  0.000000 0.000000 0
0  68.942902 -68.942917 -4.330127  -0.751840 0.659346 0.000000  0.000000 0.000000 0
0  68.942902 -68.942917 4.330127  -0.751840 0.659346 0.000000  0.000000 0.000000 0
c_invasion_wrangler_laser
0  77.351959 -59.354229 -4.330127  0.376524 -0.330203 -0.865561  0.000000 0.000000 0
0  74.246208 -74.246216 0.000000  0.376524 -0.330203 -0.865561  0.000000 0.000000 0
0  68.942902 -68.942917 -4.330127  0.376524 -0.330203 -0.865561  0.000000 0.000000 0
c_invasion_wrangler_laser
0  74.246208 -74.246216 0.000000  0.330203 -0.376524 0.865561  0.000000 0.000000 0
0  59.354252 -77.351936 4.330127  0.330203 -0.376524 0.865561  0.000000 0.000000 0
0  63.919964 -83.302086 0.000000  0.330203 -0.376524 0.865561  0.000000 0.000000 0
c_invasion_wrangler_laser
0  68.942902 -68.942917 4.330127  -0.659346 0.751839 0.000000  0.000000 0.000000 0
0  59.354252 -77.351936 -4.330127  -0.659346 0.751839 0.000000  0.000000 0.000000 0
0  59.354252 -77.351936 4.330127  -0.659346 0.751839 0.000000  0.000000 0.000000 0
c_invasion_wrangler_laser
0  68.942902 -68.942917 -4.330127  0.330203 -0.376525 -0.865561  0.000000 0.000000 0
0  63.919964 -83.302086 0.000000  0.330203 -0.376525 -0.865561  0.000000 0.000000 0
0  59.354252 -77.351936 -4.330127  0.330203 -0.376525 -0.865561  0.000000 0.000000 0
c_invasion_wrangler_laser
0  63.919964 -83.302086 0.000000  0.278232 -0.416403 0.865561  0.000000 0.000000 0
0  48.749996 -84.437485 4.330127  0.278232 -0.416403 0.865561  0.000000 0.000000 0
0  52.499996 -90.932671 0.000000  0.278232 -0.416403 0.865561  0.000000 0.000000 0
c_invasion_wrangler_laser
0  59.354252 -77.351936 4.330127  -0.555571 0.831469 0.000000  0.000000 0.000000 0
0  48.749996 -84.437485 -4.330127  -0.555571 0.831469 0.000000  0.000000 0.000000 0
0  48.749996 -84.437485 4.330127  -0.555571 0.831469 0.000000  0.000000 0.000000 0
c_invasion_wrangler_laser
0  59.354252 -77.351936 -4.330127  0.278233 -0.416404 -0.865560  0.000000 0.000000 0
0  52.499996 -90.932671 0.000000  0.278233 -0.416404 -0.865560  0.000000 0.000000 0
0  48.749996 -84.437485 -4.330127  0.278233 -0.416404 -0.865560  0.000000 0.000000 0
c_invasion_wrangler_laser
0  52.499996 -90.932671 0.000000  0.221500 -0.449158 0.865560  0.000000 0.000000 0
0  37.311657 -90.078247 4.330127  0.221500 -0.449158 0.865560  0.000000 0.000000 0
0  40.181786 -97.007339 0.000000  0.221500 -0.449158 0.865560  0.000000 0.000000 0
c_invasion_wrangler_laser
0  48.749996 -84.437485 4.330127  -0.442289 0.896873 0.000000  0.000000 0.000000 0
0  37.311657 -90.078247 -4.330127  -0.442289 0.896873 0.000000  0.000000 0.000000 0
0  37.311657 -90.078247 4.330127  -0.442289 0.896873 0.000000  0.000000 0.000000 0
c_invasion_wrangler_laser
0  48.749996 -84.437485 -4.330127  0.221500 -0.449158 -0.865561  0.000000 0.000000 0
0  40.181786 -97.007339 0.000000  0.221500 -0.449158 -0.865561  0.000000 0.000000 0
0  37.311657 -90.078247 -4.330127  0.221500 -0.449158 -0.865561  0.000000 0.000000 0
c_invasion_wrangler_laser
0  40.181786 -97.007339 0.000000  0.160978 -0.474226 0.865561  0.000000 0.000000 0
0  25.234859 -94.177765 4.330127  0.160978 -0.474226 0.865561  0.000000 0.000000 0
0  27.176003 -101.422211 0.000000  0.160978 -0.474226 0.865561  0.000000 0.000000 0
c_invasion_wrangler_laser
0  37.311657 -90.078247 4.330127  -0.321439 0.946930 0.000000  0.000000 0.000000 0
0  25.234859 -94.177765 -4.330127  -0.321439 0.946930 0.000000  0.000000 0.000000 0
0  25.234859 -94.177765 4.330127  -0.321439 0.946930 0.000000  0.000000 0.000000 0
c_invasion_wrangler_laser
0  37.311657 -90.078247 -4.330127  0.160978 -0.474227 -0.865560  0.000000 0.000000 0
0  27.176003 -101.422211 0.000000  0.160978 -0.474227 -0.865560  0.000000 0.000000 0
0  25.234859 -94.177765 -4.330127  0.160978 -0.474227 -0.865560  0.000000 0.000000 0
c_invasion_wrangler_laser
0  27.176003 -101.422211 0.000000  0.097702 -0.491181 0.865561  0.000000 0.000000 0
0  12.726286 -96.665878 4.330127  0.097702 -0.491181 0.865561  0.000000 0.000000 0
0  13.705231 -104.101715 0.000000  0.097702 -0.491181 0.865561  0.000000 0.000000 0
c_invasion_wrangler_laser
0  25.234859 -94.177765 4.330127  -0.195091 0.980785 0.000000  0.000000 0.000000 0
0  12.726286 -96.665878 -4.330127  -0.195091 0.980785 0.000000  0.000000 0.000000 0
0  12.726286 -96.665878 4.330127  -0.195091 0.980785 0.000000  0.000000 0.000000 0
c_invasion_wrangler_laser
0  25.234859 -94.177765 -4.330127  0.097702 -0.491180 -0.865561  0.000000 0.000000 0
0  13.705231 -104.101715 0.000000  0.097702 -0.491180 -0.865561  0.000000 0.000000 0
0  12.726286 -96.665878 -4.330127  0.097702 -0.491180 -0.865561  0.000000 0.000000 0
c_invasion_wrangler_laser
0  13.705231 -104.101715 0.000000  0.032754 -0.499731 0.865561  0.000000 0.000000 0
0  0.000000 -97.500000 4.330127  0.032754 -0.499731 0.865561  0.000000 0.000000 0
0  0.000000 -105.000000 0.000000  0.032754 -0.499731 0.865561  0.000000 0.000000 0
c_invasion_wrangler_laser
0  12.726286 -96.665878 4.330127  -0.065403 0.997859 0.000000  0.000000 0.000000 0
0  0.000000 -97.500000 -4.330127  -0.065403 0.997859 0.000000  0.000000 0.000000 0
0  0.000000 -97.500000 4.330127  -0.065403 0.997859 0.000000  0.000000 0.000000 0
c_invasion_wrangler_laser
0  12.726286 -96.665878 -4.330127  0.032754 -0.499732 -0.865560  0.000000 0.000000 0
0  0.000000 -105.000000 0.000000  0.032754 -0.499732 -0.865560  0.000000 0.000000 0
0  0.000000 -97.500000 -4.330127  0.032754 -0.499732 -0.865560  0.000000 0.000000 0
c_invasion_wrangler_laser
0  -105.000000 0.000000 0.000000  -0.499732 -0.032754 0.865561  0.000000 0.000000 0
0  -96.665878 -12.726301 4.330127  -0.499732 -0.032754 0.865561  0.000000 0.000000 0
0  -97.500000 0.000000 4.330127  -0.499732 -0.032754 0.865561  0.000000 0.000000 0
c_invasion_wrangler_laser
0  -97.500000 0.000000 4.330127  0.997859 0.065403 0.000000  0.000000 0.000000 0
0  -96.665878 -12.726301 -4.330127  0.997859 0.065403 0.000000  0.000000 0.000000 0
0  -97.500000 0.000000 -4.330127  0.997859 0.065403 0.000000  0.000000 0.000000 0
c_invasion_wrangler_laser
0  -97.500000 0.000000 -4.330127  -0.499732 -0.032754 -0.865561  0.000000 0.000000 0
0  -104.101715 -13.705248 0.000000  -0.499732 -0.032754 -0.865561  0.000000 0.000000 0
0  -105.000000 0.000000 0.000000  -0.499732 -0.032754 -0.865561  0.000000 0.000000 0
c_invasion_wrangler_laser
0  -104.101715 -13.705248 0.000000  -0.491181 -0.097702 0.865561  0.000000 0.000000 0
0  -94.177765 -25.234852 4.330127  -0.491181 -0.097702 0.865561  0.000000 0.000000 0
0  -96.665878 -12.726301 4.330127  -0.491181 -0.097702 0.865561  0.000000 0.000000 0
c_invasion_wrangler_laser
0  -96.665878 -12.726301 4.330127  0.980785 0.195091 0.000000  0.000000 0.000000 0
0  -94.177765 -25.234852 -4.330127  0.980785 0.195091 0.000000  0.000000 0.000000 0
0  -96.665878 -12.726301 -4.330127  0.980785 0.195091 0.000000  0.000000 0.000000 0
c_invasion_wrangler_laser
0  -96.665878 -12.726301 -4.330127  -0.491181 -0.097702 -0.865561  0.000000 0.000000 0
0  -101.422211 -27.175993 0.000000  -0.491181 -0.097702 -0.865561  0.000000 0.000000 0
0  -104.101715 -13.705248 0.000000  -0.491181 -0.097702 -0.865561  0.000000 0.000000 0
c_invasion_wrangler_laser
0  -101.422211 -27.175993 0.000000  -0.474226 -0.160978 0.865561  0.000000 0.000000 0
0  -90.078255 -37.311626 4.330127  -0.474226 -0.160978 0.865561  0.000000 0.000000 0
0  -94.177765 -25.234852 4.330127  -0.474226 -0.160978 0.865561  0.000000 0.000000 0
c_invasion_wrangler_laser
0  -94.177765 -25.234852 4.330127  0.946930 0.321439 0.000000  0.000000 0.000000 0
0  -90.078255 -37.311626 -4.330127  0.946930 0.321439 0.000000  0.000000 0.000000 0
0  -94.177765 -25.234852 -4.330127  0.946930 0.321439 0.000000  0.000000 0.000000 0
c_invasion_wrangler_laser
0  -94.177765 -25.234852 -4.330127  -0.474226 -0.160978 -0.865561  0.000000 0.000000 0
0  -97.007355 -40.181755 0.000000  -0.474226 -0.160978 -0.865561  0.000000 0.000000 0
0  -101.422211 -27.175993 0.000000  -0.474226 -0.160978 -0.865561  0.000000 0.000000 0
c_invasion_wrangler_laser
0  -97.007355 -40.181755 0.000000  -0.449157 -0.221499 0.865561  0.000000 0.000000 0
0  -84.437469 -48.750011 4.330127  -0.449157 -0.221499 0.865561  0.000000 0.000000 0
0  -90.078255 -37.311626 4.330127  -0.449157 -0.221499 0.865561  0.000000 0.000000 0
c_invasion_wrangler_laser
0  -90.078255 -37.311626 4.330127  0.896873 0.442289 0.000000  0.000000 0.000000 0
0  -84.437469 -48.750011 -4.330127  0.896873 0.442289 0.000000  0.000000 0.000000 0
0  -90.078255 -37.311626 -4.330127  0.896873 0.442289 0.000000  0.000000 0.000000 0
c_invasion_wrangler_laser
0  -90.078255 -37.311626 -4.330127  -0.449157 -0.221499 -0.865561  0.000000 0.000000 0
0  -90.932663 -52.500011 0.000000  -0.449157 -0.221499 -0.865561  0.000000 0.000000 0
0  -97.007355 -40.181755 0.000000  -0.449157 -0.221499 -0.865561  0.000000 0.000000 0
c_invasion_wrangler_laser
0  -90.932663 -52.500011 0.000000  -0.416403 -0.278232 0.865561  0.000000 0.000000 0
0  -77.351959 -59.354229 4.330127  -0.416403 -0.278232 0.865561  0.000000 0.000000 0
0  -84.437469 -48.750011 4.330127  -0.416403 -0.278232 0.865561  0.000000 0.000000 0
c_invasion_wrangler_laser
0  -84.437469 -48.750011 4.330127  0.831469 0.555571 0.000000  0.000000 0.000000 0
0  -77.351959 -59.354229 -4.330127  0.831469 0.555571 0.000000  0.000000 0.000000 0
0  -84.437469 -48.750011 -4.330127  0.831469 0.555571 0.000000  0.000000 0.000000 0
c_invasion_wrangler_laser
0  -84.437469 -48.750011 -4.330127  -0.416403 -0.278232 -0.865561  0.000000 0.000000 0
0  -83.302109 -63.919937 0.000000  -0.416403 -0.278232 -0.865561  0.000000 0.000000 0
0  -90.932663 -52.500011 0.000000  -0.416403 -0.278232 -0.865561  0.000000 0.000000 0
c_invasion_wrangler_laser
0  -83.302109 -63.919937 0.000000  -0.376525 -0.330203 0.865561  0.000000 0.000000 0
0  -68.942902 -68.942917 4.330127  -0.376525 -0.330203 0.865561  0.000000 0.000000 0
0  -77.351959 -59.354229 4.330127  -0.376525 -0.330203 0.865561  0.000000 0.000000 0
c_invasion_wrangler_laser
0  -77.351959 -59.354229 4.330127  0.751840 0.659346 0.000000  0.000000 0.000000 0
0  -68.942902 -68.942917 -4.330127  0.751840 0.659346 0.000000  0.000000 0.000000 0
0  -77.351959 -59.354229 -4.330127  0.751840 0.659346 0.000000  0.000000 0.000000 0
c_invasion_wrangler_laser
0  -77.351959 -59.354229 -4.330127  -0.376524 -0.330202 -0.865561  0.000000 0.000000 0
0  -74.246208 -74.246216 0.000000  -0.376524 -0.330202 -0.865561  0.000000 0.000000 0
0  -83.302109 -63.919937 0.000000  -0.376524 -0.330202 -0.865561  0.000000 0.000000 0
c_invasion_wrangler_laser
0  -74.246208 -74.246216 0.000000  -0.330203 -0.376525 0.865561  0.000000 0.000000 0
0  -59.354252 -77.351936 4.330127  -0.330203 -0.376525 0.865561  0.000000 0.000000 0
0  -68.942902 -68.942917 4.330127  -0.330203 -0.376525 0.865561  0.000000 0.000000 0
c_invasion_wrangler_laser
0  -68.942902 -68.942917 4.330127  0.659346 0.751840 0.000000  0.000000 0.000000 0
0  -59.354252 -77.351936 -4.330127  0.659346 0.751840 0.000000  0.000000 0.000000 0
0  -68.942902 -68.942917 -4.330127  0.659346 0.751840 0.000000  0.000000 0.000000 0
c_invasion_wrangler_laser
0  -68.942902 -68.942917 -4.330127  -0.330203 -0.376524 -0.865561  0.000000 0.000000 0
0  -63.919964 -83.302086 0.000000  -0.330203 -0.376524 -0.865561  0.000000 0.000000 0
0  -74.246208 -74.246216 0.000000  -0.330203 -0.376524 -0.865561  0.000000 0.000000 0
c_invasion_wrangler_laser
0  -63.919964 -83.302086 0.000000  -0.278233 -0.416404 0.865560  0.000000 0.000000 0
0  -48.749996 -84.437485 4.330127  -0.278233 -0.416404 0.865560  0.000000 0.000000 0
0  -59.354252 -77.351936 4.330127  -0.278233 -0.416404 0.865560  0.000000 0.000000 0
c_invasion_wrangler_laser
0  -59.354252 -77.351936 4.330127  0.555571 0.831469 0.000000  0.000000 0.000000 0
0  -48.749996 -84.437485 -4.330127  0.555571 0.831469 0.000000  0.000000 0.000000 0
0  -59.354252 -77.351936 -4.330127  0.555571 0.831469 0.000000  0.000000 0.000000 0
c_invasion_wrangler_laser
0  -59.354252 -77.351936 -4.330127  -0.278232 -0.416403 -0.865561  0.000000 0.000000 0
0  -52.499996 -90.932671 0.000000  -0.278232 -0.416403 -0.865561  0.000000 0.000000 0
0  -63.919964 -83.302086 0.000000  -0.278232 -0.416403 -0.865561  0.000000 0.000000 0
c_invasion_wrangler_laser
0  -52.499996 -90.932671 0.000000  -0.221500 -0.449158 0.865561  0.000000 0.000000 0
0  -37.311657 -90.078247 4.330127  -0.221500 -0.449158 0.865561  0.000000 0.000000 0
0  -48.749996 -84.437485 4.330127  -0.221500 -0.449158 0.865561  0.000000 0.000000 0
c_invasion_wrangler_laser
0  -48.749996 -84.437485 4.330127  0.442288 0.896873 0.000000  0.000000 0.000000 0
0  -37.311657 -90.078247 -4.330127  0.442288 0.896873 0.000000  0.000000 0.000000 0
0  -48.749996 -84.437485 -4.330127  0.442288 0.896873 0.000000  0.000000 0.000000 0
c_invasion_wrangler_laser
0  -48.749996 -84.437485 -4.330127  -0.221500 -0.449158 -0.865560  0.000000 0.000000 0
0  -40.181786 -97.007339 0.000000  -0.221500 -0.449158 -0.865560  0.000000 0.000000 0
0  -52.499996 -90.932671 0.000000  -0.221500 -0.449158 -0.865560  0.000000 0.000000 0
c_invasion_wrangler_laser
0  -40.181786 -97.007339 0.000000  -0.160978 -0.474227 0.865560  0.000000 0.000000 0
0  -25.234859 -94.177765 4.330127  -0.160978 -0.474227 0.865560  0.000000 0.000000 0
0  -37.311657 -90.078247 4.330127  -0.160978 -0.474227 0.865560  0.000000 0.000000 0
c_invasion_wrangler_laser
0  -37.311657 -90.078247 4.330127  0.321439 0.946930 0.000000  0.000000 0.000000 0
0  -25.234859 -94.177765 -4.330127  0.321439 0.946930 0.000000  0.000000 0.000000 0
0  -37.311657 -90.078247 -4.330127  0.321439 0.946930 0.000000  0.000000 0.000000 0
c_invasion_wrangler_laser
0  -37.311657 -90.078247 -4.330127  -0.160978 -0.474227 -0.865561  0.000000 0.000000 0
0  -27.176003 -101.422211 0.000000  -0.160978 -0.474227 -0.865561  0.000000 0.000000 0
0  -40.181786 -97.007339 0.000000  -0.160978 -0.474227 -0.865561  0.000000 0.000000 0
c_invasion_wrangler_laser
0  -27.176003 -101.422211 0.000000  -0.097702 -0.491181 0.865561  0.000000 0.000000 0
0  -12.726286 -96.665878 4.330127  -0.097702 -0.491181 0.865561  0.000000 0.000000 0
0  -25.234859 -94.177765 4.330127  -0.097702 -0.491181 0.865561  0.000000 0.000000 0
c_invasion_wrangler_laser
0  -25.234859 -94.177765 4.330127  0.195091 0.980785 0.000000  0.000000 0.000000 0
0  -12.726286 -96.665878 -4.330127  0.195091 0.980785 0.000000  0.000000 0.000000 0
0  -25.234859 -94.177765 -4.330127  0.195091 0.980785 0.000000  0.000000 0.000000 0
c_invasion_wrangler_laser
0  -25.234859 -94.177765 -4.330127  -0.097702 -0.491181 -0.865561  0.000000 0.000000 0
0  -13.705231 -104.101715 0.000000  -0.097702 -0.491181 -0.865561  0.000000 0.000000 0
0  -27.176003 -101.422211 0.000000  -0.097702 -0.491181 -0.865561  0.000000 0.000000 0
c_invasion_wrangler_laser
0  -13.705231 -104.101715 0.000000  -0.032754 -0.499731 0.865561  0.000000 0.000000 0
0  0.000000 -97.500000 4.330127  -0.032754 -0.499731 0.865561  0.000000 0.000000 0
0  -12.726286 -96.665878 4.330127  -0.032754 -0.499731 0.865561  0.000000 0.000000 0
c_invasion_wrangler_laser
0  -12.726286 -96.665878 4.330127  0.065403 0.997859 0.000000  0.000000 0.000000 0
0  0.000000 -97.500000 -4.330127  0.065403 0.997859 0.000000  0.000000 0.000000 0
0  -12.726286 -96.665878 -4.330127  0.065403 0.997859 0.000000  0.000000 0.000000 0
c_invasion_wrangler_laser
0  -12.726286 -96.665878 -4.330127  -0.032754 -0.499731 -0.865561  0.000000 0.000000 0
0  0.000000 -105.000000 0.000000  -0.032754 -0.499731 -0.865561  0.000000 0.000000 0
0  -13.705231 -104.101715 0.000000  -0.032754 -0.499731 -0.865561  0.000000 0.000000 0
c_invasion_wrangler_laser
0  105.000000 0.000000 0.000000  0.499732 0.032754 0.865561  0.000000 0.000000 0
0  104.101715 13.705248 0.000000  0.499732 0.032754 0.865561  0.000000 0.000000 0
0  96.665878 12.726301 4.330127  0.499732 0.032754 0.865561  0.000000 0.000000 0
c_invasion_wrangler_laser
0  97.500000 0.000000 4.330127  -0.997859 -0.065402 0.000000  0.000000 0.000000 0
0  96.665878 12.726301 4.330127  -0.997859 -0.065402 0.000000  0.000000 0.000000 0
0  96.665878 12.726301 -4.330127  -0.997859 -0.065402 0.000000  0.000000 0.000000 0
c_invasion_wrangler_laser
0  97.500000 0.000000 -4.330127  0.499732 0.032754 -0.865561  0.000000 0.000000 0
0  96.665878 12.726301 -4.330127  0.499732 0.032754 -0.865561  0.000000 0.000000 0
0  104.101715 13.705248 0.000000  0.499732 0.032754 -0.865561  0.000000 0.000000 0
c_invasion_wrangler_laser
0  104.101715 13.705248 0.000000  0.491181 0.097702 0.865561  0.000000 0.000000 0
0  101.422211 27.175993 0.000000  0.491181 0.097702 0.865561  0.000000 0.000000 0
0  94.177765 25.234852 4.330127  0.491181 0.097702 0.865561  0.000000 0.000000 0
c_invasion_wrangler_laser
0  96.665878 12.726301 4.330127  -0.980785 -0.195091 0.000000  0.000000 0.000000 0
0  94.177765 25.234852 4.330127  -0.980785 -0.195091 0.000000  0.000000 0.000000 0
0  94.177765 25.234852 -4.330127  -0.980785 -0.195091 0.000000  0.000000 0.000000 0
c_invasion_wrangler_laser
0  96.665878 12.726301 -4.330127  0.491181 0.097702 -0.865561  0.000000 0.000000 0
0  94.177765 25.234852 -4.330127  0.491181 0.097702 -0.865561  0.000000 0.000000 0
0  101.422211 27.175993 0.000000  0.491181 0.097702 -0.865561  0.000000 0.000000 0
c_invasion_wrangler_laser
0  101.422211 27.175993 0.000000  0.474226 0.160978 0.865561  0.000000 0.000000 0
0  97.007355 40.181755 0.000000  0.474226 0.160978 0.865561  0.000000 0.000000 0
0  90.078255 37.311626 4.330127  0.474226 0.160978 0.865561  0.000000 0.000000 0
c_invasion_wrangler_laser
0  94.177765 25.234852 4.330127  -0.946930 -0.321439 0.000000  0.000000 0.000000 0
0  90.078255 37.311626 4.330127  -0.946930 -0.321439 0.000000  0.000000 0.000000 0
0  90.078255 37.311626 -4.330127  -0.946930 -0.321439 0.000000  0.000000 0.000000 0
c_invasion_wrangler_laser
0  94.177765 25.234852 -4.330127  0.474226 0.160979 -0.865561  0.000000 0.000000 0
0  90.078255 37.311626 -4.330127  0.474226 0.160979 -0.865561  0.000000 0.000000 0
0  97.007355 40.181755 0.000000  0.474226 0.160979 -0.865561  0.000000 0.000000 0
c_invasion_wrangler_laser
0  97.007355 40.181755 0.000000  0.449157 0.221500 0.865561  0.000000 0.000000 0
0  90.932663 52.500011 0.000000  0.449157 0.221500 0.865561  0.000000 0.000000 0
0  84.437469 48.750011 4.330127  0.449157 0.221500 0.865561  0.000000 0.000000 0
c_invasion_wrangler_laser
0  90.078255 37.311626 4.330127  -0.896873 -0.442287 0.000000  0.000000 0.000000 0
0  84.437469 48.750011 4.330127  -0.896873 -0.442287 0.000000  0.000000 0.000000 0
0  84.437469 48.750011 -4.330127  -0.896873 -0.442287 0.000000  0.000000 0.000000 0
c_invasion_wrangler_laser
0  90.078255 37.311626 -4.330127  0.449157 0.221500 -0.865561  0.000000 0.000000 0
0  84.437469 48.750011 -4.330127  0.449157 0.221500 -0.865561  0.000000 0.000000 0
0  90.932663 52.500011 0.000000  0.449157 0.221500 -0.865561  0.000000 0.000000 0
c_invasion_wrangler_laser
0  90.932663 52.500011 0.000000  0.416403 0.278232 0.865561  0.000000 0.000000 0
0  83.302109 63.919937 0.000000  0.416403 0.278232 0.865561  0.000000 0.000000 0
0  77.351959 59.354229 4.330127  0.416403 0.278232 0.865561  0.000000 0.000000 0
c_invasion_wrangler_laser
0  84.437469 48.750011 4.330127  -0.831470 -0.555570 0.000000  0.000000 0.000000 0
0  77.351959 59.354229 4.330127  -0.831470 -0.555570 0.000000  0.000000 0.000000 0
0  77.351959 59.354229 -4.330127  -0.831470 -0.555570 0.000000  0.000000 0.000000 0
c_invasion_wrangler_laser
0  84.437469 48.750011 -4.330127  0.416403 0.278232 -0.865561  0.000000 0.000000 0
0  77.351959 59.354229 -4.330127  0.416403 0.278232 -0.865561  0.000000 0.000000 0
0  83.302109 63.919937 0.000000  0.416403 0.278232 -0.865561  0.000000 0.000000 0
c_invasion_wrangler_laser
0  83.302109 63.919937 0.000000  0.376524 0.330203 0.865561  0.000000 0.000000 0
0  74.246208 74.246216 0.000000  0.376524 0.330203 0.865561  0.000000 0.000000 0
0  68.942902 68.942917 4.330127  0.376524 0.330203 0.865561  0.000000 0.000000 0
c_invasion_wrangler_laser
0  77.351959 59.354229 4.330127  -0.751840 -0.659346 0.000000  0.000000 0.000000 0
0  68.942902 68.942917 4.330127  -0.751840 -0.659346 0.000000  0.000000 0.000000 0
0  68.942902 68.942917 -4.330127  -0.751840 -0.659346 0.000000  0.000000 0.000000 0
c_invasion_wrangler_laser
0  77.351959 59.354229 -4.330127  0.376524 0.330203 -0.865561  0.000000 0.000000 0
0  68.942902 68.942917 -4.330127  0.376524 0.330203 -0.865561  0.000000 0.000000 0
0  74.246208 74.246216 0.000000  0.376524 0.330203 -0.865561  0.000000 0.000000 0
c_invasion_wrangler_laser
0  74.246208 74.246216 0.000000  0.330203 0.376524 0.865561  0.000000 0.000000 0
0  63.919964 83.302086 0.000000  0.330203 0.376524 0.865561  0.000000 0.000000 0
0  59.354252 77.351936 4.330127  0.330203 0.376524 0.865561  0.000000 0.000000 0
c_invasion_wrangler_laser
0  68.942902 68.942917 4.330127  -0.659346 -0.751839 0.000000  0.000000 0.000000 0
0  59.354252 77.351936 4.330127  -0.659346 -0.751839 0.000000  0.000000 0.000000 0
0  59.354252 77.351936 -4.330127  -0.659346 -0.751839 0.000000  0.000000 0.000000 0
c_invasion_wrangler_laser
0  68.942902 68.942917 -4.330127  0.330203 0.376525 -0.865561  0.000000 0.000000 0
0  59.354252 77.351936 -4.330127  0.330203 0.376525 -0.865561  0.000000 0.000000 0
0  63.919964 83.302086 0.000000  0.330203 0.376525 -0.865561  0.000000 0.000000 0
c_invasion_wrangler_laser
0  63.919964 83.302086 0.000000  0.278232 0.416403 0.865561  0.000000 0.000000 0
0  52.499996 90.932671 0.000000  0.278232 0.416403 0.865561  0.000000 0.000000 0
0  48.749996 84.437485 4.330127  0.278232 0.416403 0.865561  0.000000 0.000000 0
c_invasion_wrangler_laser
0  59.354252 77.351936 4.330127  -0.555571 -0.831469 0.000000  0.000000 0.000000 0
0  48.749996 84.437485 4.330127  -0.555571 -0.831469 0.000000  0.000000 0.000000 0
0  48.749996 84.437485 -4.330127  -0.555571 -0.831469 0.000000  0.000000 0.000000 0
c_invasion_wrangler_laser
0  59.354252 77.351936 -4.330127  0.278233 0.416404 -0.865560  0.000000 0.000000 0
0  48.749996 84.437485 -4.330127  0.278233 0.416404 -0.865560  0.000000 0.000000 0
0  52.499996 90.932671 0.000000  0.278233 0.416404 -0.865560  0.000000 0.000000 0
c_invasion_wrangler_laser
0  52.499996 90.932671 0.000000  0.221500 0.449158 0.865560  0.000000 0.000000 0
0  40.181786 97.007339 0.000000  0.221500 0.449158 0.865560  0.000000 0.000000 0
0  37.311657 90.078247 4.330127  0.221500 0.449158 0.865560  0.000000 0.000000 0
c_invasion_wrangler_laser
0  48.749996 84.437485 4.330127  -0.442289 -0.896873 0.000000  0.000000 0.000000 0
0  37.311657 90.078247 4.330127  -0.442289 -0.896873 0.000000  0.000000 0.000000 0
0  37.311657 90.078247 -4.330127  -0.442289 -0.896873 0.000000  0.000000 0.000000 0
c_invasion_wrangler_laser
0  48.749996 84.437485 -4.330127  0.221500 0.449158 -0.865561  0.000000 0.000000 0
0  37.311657 90.078247 -4.330127  0.221500 0.449158 -0.865561  0.000000 0.000000 0
0  40.181786 97.007339 0.000000  0.221500 0.449158 -0.865561  0.000000 0.000000 0
c_invasion_wrangler_laser
0  40.181786 97.007339 0.000000  0.160978 0.474226 0.865561  0.000000 0.000000 0
0  27.176003 101.422211 0.000000  0.160978 0.474226 0.865561  0.000000 0.000000 0
0  25.234859 94.177765 4.330127  0.160978 0.474226 0.865561  0.000000 0.000000 0
c_invasion_wrangler_laser
0  37.311657 90.078247 4.330127  -0.321439 -0.946930 0.000000  0.000000 0.000000 0
0  25.234859 94.177765 4.330127  -0.321439 -0.946930 0.000000  0.000000 0.000000 0
0  25.234859 94.177765 -4.330127  -0.321439 -0.946930 0.000000  0.000000 0.000000 0
c_invasion_wrangler_laser
0  37.311657 90.078247 -4.330127  0.160978 0.474227 -0.865560  0.000000 0.000000 0
0  25.234859 94.177765 -4.330127  0.160978 0.474227 -0.865560  0.000000 0.000000 0
0  27.176003 101.422211 0.000000  0.160978 0.474227 -0.865560  0.000000 0.000000 0
c_invasion_wrangler_laser
0  27.176003 101.422211 0.000000  0.097702 0.491181 0.865561  0.000000 0.000000 0
0  13.705231 104.101715 0.000000  0.097702 0.491181 0.865561  0.000000 0.000000 0
0  12.726286 96.665878 4.330127  0.097702 0.491181 0.865561  0.000000 0.000000 0
c_invasion_wrangler_laser
0  25.234859 94.177765 4.330127  -0.195091 -0.980785 0.000000  0.000000 0.000000 0
0  12.726286 96.665878 4.330127  -0.195091 -0.980785 0.000000  0.000000 0.000000 0
0  12.726286 96.665878 -4.330127  -0.195091 -0.980785 0.000000  0.000000 0.000000 0
c_invasion_wrangler_laser
0  25.234859 94.177765 -4.330127  0.097702 0.491180 -0.865561  0.000000 0.000000 0
0  12.726286 96.665878 -4.330127  0.097702 0.491180 -0.865561  0.000000 0.000000 0
0  13.705231 104.101715 0.000000  0.097702 0.491180 -0.865561  0.000000 0.000000 0
c_invasion_wrangler_laser
0  13.705231 104.101715 0.000000  0.032754 0.499731 0.865561  0.000000 0.000000 0
0  0.000000 105.000000 0.000000  0.032754 0.499731 0.865561  0.000000 0.000000 0
0  0.000000 97.500000 4.330127  0.032754 0.499731 0.865561  0.000000 0.000000 0
c_invasion_wrangler_laser
0  12.726286 96.665878 4.330127  -0.065403 -0.997859 0.000000  0.000000 0.000000 0
0  0.000000 97.500000 4.330127  -0.065403 -0.997859 0.000000  0.000000 0.000000 0
0  0.000000 97.500000 -4.330127  -0.065403 -0.997859 0.000000  0.000000 0.000000 0
c_invasion_wrangler_laser
0  12.726286 96.665878 -4.330127  0.032754 0.499732 -0.865560  0.000000 0.000000 0
0  0.000000 97.500000 -4.330127  0.032754 0.499732 -0.865560  0.000000 0.000000 0
0  0.000000 105.000000 0.000000  0.032754 0.499732 -0.865560  0.000000 0.000000 0
c_invasion_wrangler_laser
0  -105.000000 0.000000 0.000000  -0.499732 0.032754 0.865561  0.000000 0.000000 0
0  -97.500000 0.000000 4.330127  -0.499732 0.032754 0.865561  0.000000 0.000000 0
0  -96.665878 12.726301 4.330127  -0.499732 0.032754 0.865561  0.000000 0.000000 0
c_invasion_wrangler_laser
0  -97.500000 0.000000 4.330127  0.997859 -0.065403 0.000000  0.000000 0.000000 0
0  -97.500000 0.000000 -4.330127  0.997859 -0.065403 0.000000  0.000000 0.000000 0
0  -96.665878 12.726301 -4.330127  0.997859 -0.065403 0.000000  0.000000 0.000000 0
c_invasion_wrangler_laser
0  -97.500000 0.000000 -4.330127  -0.499732 0.032754 -0.865561  0.000000 0.000000 0
0  -105.000000 0.000000 0.000000  -0.499732 0.032754 -0.865561  0.000000 0.000000 0
0  -104.101715 13.705248 0.000000  -0.499732 0.032754 -0.865561  0.000000 0.000000 0
c_invasion_wrangler_laser
0  -104.101715 13.705248 0.000000  -0.491181 0.097702 0.865561  0.000000 0.000000 0
0  -96.665878 12.726301 4.330127  -0.491181 0.097702 0.865561  0.000000 0.000000 0
0  -94.177765 25.234852 4.330127  -0.491181 0.097702 0.865561  0.000000 0.000000 0
c_invasion_wrangler_laser
0  -96.665878 12.726301 4.330127  0.980785 -0.195091 0.000000  0.000000 0.000000 0
0  -96.665878 12.726301 -4.330127  0.980785 -0.195091 0.000000  0.000000 0.000000 0
0  -94.177765 25.234852 -4.330127  0.980785 -0.195091 0.000000  0.000000 0.000000 0
c_invasion_wrangler_laser
0  -96.665878 12.726301 -4.330127  -0.491181 0.097702 -0.865561  0.000000 0.000000 0
0  -104.101715 13.705248 0.000000  -0.491181 0.097702 -0.865561  0.000000 0.000000 0
0  -101.422211 27.175993 0.000000  -0.491181 0.097702 -0.865561  0.000000 0.000000 0
c_invasion_wrangler_laser
0  -101.422211 27.175993 0.000000  -0.474226 0.160978 0.865561  0.000000 0.000000 0
0  -94.177765 25.234852 4.330127  -0.474226 0.160978 0.865561  0.000000 0.000000 0
0  -90.078255 37.311626 4.330127  -0.474226 0.160978 0.865561  0.000000 0.000000 0
c_invasion_wrangler_laser
0  -94.177765 25.234852 4.330127  0.946930 -0.321439 0.000000  0.000000 0.000000 0
0  -94.177765 25.234852 -4.330127  0.946930 -0.321439 0.000000  0.000000 0.000000 0
0  -90.078255 37.311626 -4.330127  0.946930 -0.321439 0.000000  0.000000 0.000000 0
c_invasion_wrangler_laser
0  -94.177765 25.234852 -4.330127  -0.474226 0.160978 -0.865561  0.000000 0.000000 0
0  -101.422211 27.175993 0.000000  -0.474226 0.160978 -0.865561  0.000000 0.000000 0
0  -97.007355 40.181755 0.000000  -0.474226 0.160978 -0.865561  0.000000 0.000000 0
c_invasion_wrangler_laser
0  -97.007355 40.181755 0.000000  -0.449157 0.221499 0.865561  0.000000 0.000000 0
0  -90.078255 37.311626 4.330127  -0.449157 0.221499 0.865561  0.000000 0.000000 0
0  -84.437469 48.750011 4.330127  -0.449157 0.221499 0.865561  0.000000 0.000000 0
c_invasion_wrangler_laser
0  -90.078255 37.311626 4.330127  0.896873 -0.442289 0.000000  0.000000 0.000000 0
0  -90.078255 37.311626 -4.330127  0.896873 -0.442289 0.000000  0.000000 0.000000 0
0  -84.437469 48.750011 -4.330127  0.896873 -0.442289 0.000000  0.000000 0.000000 0
c_invasion_wrangler_laser
0  -90.078255 37.311626 -4.330127  -0.449157 0.221499 -0.865561  0.000000 0.000000 0
0  -97.007355 40.181755 0.000000  -0.449157 0.221499 -0.865561  0.000000 0.000000 0
0  -90.932663 52.500011 0.000000  -0.449157 0.221499 -0.865561  0.000000 0.000000 0
c_invasion_wrangler_laser
0  -90.932663 52.500011 0.000000  -0.416403 0.278232 0.865561  0.000000 0.000000 0
0  -84.437469 48.750011 4.330127  -0.416403 0.278232 0.865561  0.000000 0.000000 0
0  -77.351959 59.354229 4.330127  -0.416403 0.278232 0.865561  0.000000 0.000000 0
c_invasion_wrangler_laser
0  -84.437469 48.750011 4.330127  0.831469 -0.555571 0.000000  0.000000 0.000000 0
0  -84.437469 48.750011 -4.330127  0.831469 -0.555571 0.000000  0.000000 0.000000 0
0  -77.351959 59.354229 -4.330127  0.831469 -0.555571 0.000000  0.000000 0.000000 0
c_invasion_wrangler_laser
0  -84.437469 48.750011 -4.330127  -0.416403 0.278232 -0.865561  0.000000 0.000000 0
0  -90.932663 52.500011 0.000000  -0.416403 0.278232 -0.865561  0.000000 0.000000 0
0  -83.302109 63.919937 0.000000  -0.416403 0.278232 -0.865561  0.000000 0.000000 0
c_invasion_wrangler_laser
0  -83.302109 63.919937 0.000000  -0.376525 0.330203 0.865561  0.000000 0.000000 0
0  -77.351959 59.354229 4.330127  -0.376525 0.330203 0.865561  0.000000 0.000000 0
0  -68.942902 68.942917 4.330127  -0.376525 0.330203 0.865561  0.000000 0.000000 0
c_invasion_wrangler_laser
0  -77.351959 59.354229 4.330127  0.751840 -0.659346 0.000000  0.000000 0.000000 0
0  -77.351959 59.354229 -4.330127  0.751840 -0.659346 0.000000  0.000000 0.000000 0
0  -68.942902 68.942917 -4.330127  0.751840 -0.659346 0.000000  0.000000 0.000000 0
c_invasion_wrangler_laser
0  -77.351959 59.354229 -4.330127  -0.376524 0.330202 -0.865561  0.000000 0.000000 0
0  -83.302109 63.919937 0.000000  -0.376524 0.330202 -0.865561  0.000000 0.000000 0
0  -74.246208 74.246216 0.000000  -0.376524 0.330202 -0.865561  0.000000 0.000000 0
c_invasion_wrangler_laser
0  -74.246208 74.246216 0.000000  -0.330203 0.376525 0.865561  0.000000 0.000000 0
0  -68.942902 68.942917 4.330127  -0.330203 0.376525 0.865561  0.000000 0.000000 0
0  -59.354252 77.351936 4.330127  -0.330203 0.376525 0.865561  0.000000 0.000000 0
c_invasion_wrangler_laser
0  -68.942902 68.942917 4.330127  0.659346 -0.751840 0.000000  0.000000 0.000000 0
0  -68.942902 68.942917 -4.330127  0.659346 -0.751840 0.000000  0.000000 0.000000 0
0  -59.354252 77.351936 -4.330127  0.659346 -0.751840 0.000000  0.000000 0.000000 0
c_invasion_wrangler_laser
0  -68.942902 68.942917 -4.330127  -0.330203 0.376524 -0.865561  0.000000 0.000000 0
0  -74.246208 74.246216 0.000000  -0.330203 0.376524 -0.865561  0.000000 0.000000 0
0  -63.919964 83.302086 0.000000  -0.330203 0.376524 -0.865561  0.000000 0.000000 0
c_invasion_wrangler_laser
0  -63.919964 83.302086 0.000000  -0.278233 0.416404 0.865560  0.000000 0.000000 0
0  -59.354252 77.351936 4.330127  -0.278233 0.416404 0.865560  0.000000 0.000000 0
0  -48.749996 84.437485 4.330127  -0.278233 0.416404 0.865560  0.000000 0.000000 0
c_invasion_wrangler_laser
0  -59.354252 77.351936 4.330127  0.555571 -0.831469 0.000000  0.000000 0.000000 0
0  -59.354252 77.351936 -4.330127  0.555571 -0.831469 0.000000  0.000000 0.000000 0
0  -48.749996 84.437485 -4.330127  0.555571 -0.831469 0.000000  0.000000 0.000000 0
c_invasion_wrangler_laser
0  -59.354252 77.351936 -4.330127  -0.278232 0.416403 -0.865561  0.000000 0.000000 0
0  -63.919964 83.302086 0.000000  -0.278232 0.416403 -0.865561  0.000000 0.000000 0
0  -52.499996 90.932671 0.000000  -0.278232 0.416403 -0.865561  0.000000 0.000000 0
c_invasion_wrangler_laser
0  -52.499996 90.932671 0.000000  -0.221500 0.449158 0.865561  0.000000 0.000000 0
0  -48.749996 84.437485 4.330127  -0.221500 0.449158 0.865561  0.000000 0.000000 0
0  -37.311657 90.078247 4.330127  -0.221500 0.449158 0.865561  0.000000 0.000000 0
c_invasion_wrangler_laser
0  -48.749996 84.437485 4.330127  0.442288 -0.896873 0.000000  0.000000 0.000000 0
0  -48.749996 84.437485 -4.330127  0.442288 -0.896873 0.000000  0.000000 0.000000 0
0  -37.311657 90.078247 -4.330127  0.442288 -0.896873 0.000000  0.000000 0.000000 0
c_invasion_wrangler_laser
0  -48.749996 84.437485 -4.330127  -0.221500 0.449158 -0.865560  0.000000 0.000000 0
0  -52.499996 90.932671 0.000000  -0.221500 0.449158 -0.865560  0.000000 0.000000 0
0  -40.181786 97.007339 0.000000  -0.221500 0.449158 -0.865560  0.000000 0.000000 0
c_invasion_wrangler_laser
0  -40.181786 97.007339 0.000000  -0.160978 0.474227 0.865560  0.000000 0.000000 0
0  -37.311657 90.078247 4.330127  -0.160978 0.474227 0.865560  0.000000 0.000000 0
0  -25.234859 94.177765 4.330127  -0.160978 0.474227 0.865560  0.000000 0.000000 0
c_invasion_wrangler_laser
0  -37.311657 90.078247 4.330127  0.321439 -0.946930 0.000000  0.000000 0.000000 0
0  -37.311657 90.078247 -4.330127  0.321439 -0.946930 0.000000  0.000000 0.000000 0
0  -25.234859 94.177765 -4.330127  0.321439 -0.946930 0.000000  0.000000 0.000000 0
c_invasion_wrangler_laser
0  -37.311657 90.078247 -4.330127  -0.160978 0.474227 -0.865561  0.000000 0.000000 0
0  -40.181786 97.007339 0.000000  -0.160978 0.474227 -0.865561  0.000000 0.000000 0
0  -27.176003 101.422211 0.000000  -0.160978 0.474227 -0.865561  0.000000 0.000000 0
c_invasion_wrangler_laser
0  -27.176003 101.422211 0.000000  -0.097702 0.491181 0.865561  0.000000 0.000000 0
0  -25.234859 94.177765 4.330127  -0.097702 0.491181 0.865561  0.000000 0.000000 0
0  -12.726286 96.665878 4.330127  -0.097702 0.491181 0.865561  0.000000 0.000000 0
c_invasion_wrangler_laser
0  -25.234859 94.177765 4.330127  0.195091 -0.980785 0.000000  0.000000 0.000000 0
0  -25.234859 94.177765 -4.330127  0.195091 -0.980785 0.000000  0.000000 0.000000 0
0  -12.726286 96.665878 -4.330127  0.195091 -0.980785 0.000000  0.000000 0.000000 0
c_invasion_wrangler_laser
0  -25.234859 94.177765 -4.330127  -0.097702 0.491181 -0.865561  0.000000 0.000000 0
0  -27.176003 101.422211 0.000000  -0.097702 0.491181 -0.865561  0.000000 0.000000 0
0  -13.705231 104.101715 0.000000  -0.097702 0.491181 -0.865561  0.000000 0.000000 0
c_invasion_wrangler_laser
0  -13.705231 104.101715 0.000000  -0.032754 0.499731 0.865561  0.000000 0.000000 0
0  -12.726286 96.665878 4.330127  -0.032754 0.499731 0.865561  0.000000 0.000000 0
0  0.000000 97.500000 4.330127  -0.032754 0.499731 0.865561  0.000000 0.000000 0
c_invasion_wrangler_laser
0  -12.726286 96.665878 4.330127  0.065403 -0.997859 0.000000  0.000000 0.000000 0
0  -12.726286 96.665878 -4.330127  0.065403 -0.997859 0.000000  0.000000 0.000000 0
0  0.000000 97.500000 -4.330127  0.065403 -0.997859 0.000000  0.000000 0.000000 0
c_invasion_wrangler_laser
0  -12.726286 96.665878 -4.330127  -0.032754 0.499731 -0.865561  0.000000 0.000000 0
0  -13.705231 104.101715 0.000000  -0.032754 0.499731 -0.865561  0.000000 0.000000 0
0  0.000000 105.000000 0.000000  -0.032754 0.499731 -0.865561  0.000000 0.000000 0
c_invasion_wrangler_laser
0  105.000000 0.000000 0.000000  0.499732 -0.032754 0.865561  0.000000 0.000000 0
0  97.500000 0.000000 4.330127  0.499732 -0.032754 0.865561  0.000000 0.000000 0
0  96.665878 -12.726301 4.330127  0.499732 -0.032754 0.865561  0.000000 0.000000 0
c_invasion_wrangler_laser
0  97.500000 0.000000 4.330127  -0.997859 0.065403 0.000000  0.000000 0.000000 0
0  97.500000 0.000000 -4.330127  -0.997859 0.065403 0.000000  0.000000 0.000000 0
0  96.665878 -12.726301 -4.330127  -0.997859 0.065403 0.000000  0.000000 0.000000 0
c_invasion_wrangler_laser
0  97.500000 0.000000 -4.330127  0.499732 -0.032754 -0.865561  0.000000 0.000000 0
0  105.000000 0.000000 0.000000  0.499732 -0.032754 -0.865561  0.000000 0.000000 0
0  104.101715 -13.705248 0.000000  0.499732 -0.032754 -0.865561  0.000000 0.000000 0
c_invasion_wrangler_laser
0  104.101715 -13.705248 0.000000  0.491181 -0.097702 0.865561  0.000000 0.000000 0
0  96.665878 -12.726301 4.330127  0.491181 -0.097702 0.865561  0.000000 0.000000 0
0  94.177765 -25.234852 4.330127  0.491181 -0.097702 0.865561  0.000000 0.000000 0
c_invasion_wrangler_laser
0  96.665878 -12.726301 4.330127  -0.980785 0.195091 0.000000  0.000000 0.000000 0
0  96.665878 -12.726301 -4.330127  -0.980785 0.195091 0.000000  0.000000 0.000000 0
0  94.177765 -25.234852 -4.330127  -0.980785 0.195091 0.000000  0.000000 0.000000 0
c_invasion_wrangler_laser
0  96.665878 -12.726301 -4.330127  0.491181 -0.097702 -0.865561  0.000000 0.000000 0
0  104.101715 -13.705248 0.000000  0.491181 -0.097702 -0.865561  0.000000 0.000000 0
0  101.422211 -27.175993 0.000000  0.491181 -0.097702 -0.865561  0.000000 0.000000 0
c_invasion_wrangler_laser
0  101.422211 -27.175993 0.000000  0.474226 -0.160978 0.865561  0.000000 0.000000 0
0  94.177765 -25.234852 4.330127  0.474226 -0.160978 0.865561  0.000000 0.000000 0
0  90.078255 -37.311626 4.330127  0.474226 -0.160978 0.865561  0.000000 0.000000 0
c_invasion_wrangler_laser
0  94.177765 -25.234852 4.330127  -0.946930 0.321439 0.000000  0.000000 0.000000 0
0  94.177765 -25.234852 -4.330127  -0.946930 0.321439 0.000000  0.000000 0.000000 0
0  90.078255 -37.311626 -4.330127  -0.946930 0.321439 0.000000  0.000000 0.000000 0
c_invasion_wrangler_laser
0  94.177765 -25.234852 -4.330127  0.474226 -0.160978 -0.865561  0.000000 0.000000 0
0  101.422211 -27.175993 0.000000  0.474226 -0.160978 -0.865561  0.000000 0.000000 0
0  97.007355 -40.181755 0.000000  0.474226 -0.160978 -0.865561  0.000000 0.000000 0
c_invasion_wrangler_laser
0  97.007355 -40.181755 0.000000  0.449157 -0.221499 0.865561  0.000000 0.000000 0
0  90.078255 -37.311626 4.330127  0.449157 -0.221499 0.865561  0.000000 0.000000 0
0  84.437469 -48.750011 4.330127  0.449157 -0.221499 0.865561  0.000000 0.000000 0
c_invasion_wrangler_laser
0  90.078255 -37.311626 4.330127  -0.896873 0.442289 0.000000  0.000000 0.000000 0
0  90.078255 -37.311626 -4.330127  -0.896873 0.442289 0.000000  0.000000 0.000000 0
0  84.437469 -48.750011 -4.330127  -0.896873 0.442289 0.000000  0.000000 0.000000 0
c_invasion_wrangler_laser
0  90.078255 -37.311626 -4.330127  0.449157 -0.221499 -0.865561  0.000000 0.000000 0
0  97.007355 -40.181755 0.000000  0.449157 -0.221499 -0.865561  0.000000 0.000000 0
0  90.932663 -52.500011 0.000000  0.449157 -0.221499 -0.865561  0.000000 0.000000 0
c_invasion_wrangler_laser
0  90.932663 -52.500011 0.000000  0.416403 -0.278232 0.865561  0.000000 0.000000 0
0  84.437469 -48.750011 4.330127  0.416403 -0.278232 0.865561  0.000000 0.000000 0
0  77.351959 -59.354229 4.330127  0.416403 -0.278232 0.865561  0.000000 0.000000 0
c_invasion_wrangler_laser
0  84.437469 -48.750011 4.330127  -0.831469 0.555571 0.000000  0.000000 0.000000 0
0  84.437469 -48.750011 -4.330127  -0.831469 0.555571 0.000000  0.000000 0.000000 0
0  77.351959 -59.354229 -4.330127  -0.831469 0.555571 0.000000  0.000000 0.000000 0
c_invasion_wrangler_laser
0  84.437469 -48.750011 -4.330127  0.416403 -0.278232 -0.865561  0.000000 0.000000 0
0  90.932663 -52.500011 0.000000  0.416403 -0.278232 -0.865561  0.000000 0.000000 0
0  83.302109 -63.919937 0.000000  0.416403 -0.278232 -0.865561  0.000000 0.000000 0
c_invasion_wrangler_laser
0  83.302109 -63.919937 0.000000  0.376525 -0.330203 0.865561  0.000000 0.000000 0
0  77.351959 -59.354229 4.330127  0.376525 -0.330203 0.865561  0.000000 0.000000 0
0  68.942902 -68.942917 4.330127  0.376525 -0.330203 0.865561  0.000000 0.000000 0
c_invasion_wrangler_laser
0  77.351959 -59.354229 4.330127  -0.751840 0.659346 0.000000  0.000000 0.000000 0
0  77.351959 -59.354229 -4.330127  -0.751840 0.659346 0.000000  0.000000 0.000000 0
0  68.942902 -68.942917 -4.330127  -0.751840 0.659346 0.000000  0.000000 0.000000 0
c_invasion_wrangler_laser
0  77.351959 -59.354229 -4.330127  0.376524 -0.330202 -0.865561  0.000000 0.000000 0
0  83.302109 -63.919937 0.000000  0.376524 -0.330202 -0.865561  0.000000 0.000000 0
0  74.246208 -74.246216 0.000000  0.376524 -0.330202 -0.865561  0.000000 0.000000 0
c_invasion_wrangler_laser
0  74.246208 -74.246216 0.000000  0.330203 -0.376525 0.865561  0.000000 0.000000 0
0  68.942902 -68.942917 4.330127  0.330203 -0.376525 0.865561  0.000000 0.000000 0
0  59.354252 -77.351936 4.330127  0.330203 -0.376525 0.865561  0.000000 0.000000 0
c_invasion_wrangler_laser
0  68.942902 -68.942917 4.330127  -0.659346 0.751840 0.000000  0.000000 0.000000 0
0  68.942902 -68.942917 -4.330127  -0.659346 0.751840 0.000000  0.000000 0.000000 0
0  59.354252 -77.351936 -4.330127  -0.659346 0.751840 0.000000  0.000000 0.000000 0
c_invasion_wrangler_laser
0  68.942902 -68.942917 -4.330127  0.330203 -0.376524 -0.865561  0.000000 0.000000 0
0  74.246208 -74.246216 0.000000  0.330203 -0.376524 -0.865561  0.000000 0.000000 0
0  63.919964 -83.302086 0.000000  0.330203 -0.376524 -0.865561  0.000000 0.000000 0
c_invasion_wrangler_laser
0  63.919964 -83.302086 0.000000  0.278233 -0.416404 0.865560  0.000000 0.000000 0
0  59.354252 -77.351936 4.330127  0.278233 -0.416404 0.865560  0.000000 0.000000 0
0  48.749996 -84.437485 4.330127  0.278233 -0.416404 0.865560  0.000000 0.000000 0
c_invasion_wrangler_laser
0  59.354252 -77.351936 4.330127  -0.555571 0.831469 0.000000  0.000000 0.000000 0
0  59.354252 -77.351936 -4.330127  -0.555571 0.831469 0.000000  0.000000 0.000000 0
0  48.749996 -84.437485 -4.330127  -0.555571 0.831469 0.000000  0.000000 0.000000 0
c_invasion_wrangler_laser
0  59.354252 -77.351936 -4.330127  0.278232 -0.416403 -0.865561  0.000000 0.000000 0
0  63.919964 -83.302086 0.000000  0.278232 -0.416403 -0.865561  0.000000 0.000000 0
0  52.499996 -90.932671 0.000000  0.278232 -0.416403 -0.865561  0.000000 0.000000 0
c_invasion_wrangler_laser
0  52.499996 -90.932671 0.000000  0.221500 -0.449158 0.865561  0.000000 0.000000 0
0  48.749996 -84.437485 4.330127  0.221500 -0.449158 0.865561  0.000000 0.000000 0
0  37.311657 -90.078247 4.330127  0.221500 -0.449158 0.865561  0.000000 0.000000 0
c_invasion_wrangler_laser
0  48.749996 -84.437485 4.330127  -0.442288 0.896873 0.000000  0.000000 0.000000 0
0  48.749996 -84.437485 -4.330127  -0.442288 0.896873 0.000000  0.000000 0.000000 0
0  37.311657 -90.078247 -4.330127  -0.442288 0.896873 0.000000  0.000000 0.000000 0
c_invasion_wrangler_laser
0  48.749996 -84.437485 -4.330127  0.221500 -0.449158 -0.865560  0.000000 0.000000 0
0  52.499996 -90.932671 0.000000  0.221500 -0.449158 -0.865560  0.000000 0.000000 0
0  40.181786 -97.007339 0.000000  0.221500 -0.449158 -0.865560  0.000000 0.000000 0
c_invasion_wrangler_laser
0  40.181786 -97.007339 0.000000  0.160978 -0.474227 0.865560  0.000000 0.000000 0
0  37.311657 -90.078247 4.330127  0.160978 -0.474227 0.865560  0.000000 0.000000 0
0  25.234859 -94.177765 4.330127  0.160978 -0.474227 0.865560  0.000000 0.000000 0
c_invasion_wrangler_laser
0  37.311657 -90.078247 4.330127  -0.321439 0.946930 0.000000  0.000000 0.000000 0
0  37.311657 -90.078247 -4.330127  -0.321439 0.946930 0.000000  0.000000 0.000000 0
0  25.234859 -94.177765 -4.330127  -0.321439 0.946930 0.000000  0.000000 0.000000 0
c_invasion_wrangler_laser
0  37.311657 -90.078247 -4.330127  0.160978 -0.474227 -0.865561  0.000000 0.000000 0
0  40.181786 -97.007339 0.000000  0.160978 -0.474227 -0.865561  0.000000 0.000000 0
0  27.176003 -101.422211 0.000000  0.160978 -0.474227 -0.865561  0.000000 0.000000 0
c_invasion_wrangler_laser
0  27.176003 -101.422211 0.000000  0.097702 -0.491181 0.865561  0.000000 0.000000 0
0  25.234859 -94.177765 4.330127  0.097702 -0.491181 0.865561  0.000000 0.000000 0
0  12.726286 -96.665878 4.330127  0.097702 -0.491181 0.865561  0.000000 0.000000 0
c_invasion_wrangler_laser
0  25.234859 -94.177765 4.330127  -0.195091 0.980785 0.000000  0.000000 0.000000 0
0  25.234859 -94.177765 -4.330127  -0.195091 0.980785 0.000000  0.000000 0.000000 0
0  12.726286 -96.665878 -4.330127  -0.195091 0.980785 0.000000  0.000000 0.000000 0
c_invasion_wrangler_laser
0  25.234859 -94.177765 -4.330127  0.097702 -0.491181 -0.865561  0.000000 0.000000 0
0  27.176003 -101.422211 0.000000  0.097702 -0.491181 -0.865561  0.000000 0.000000 0
0  13.705231 -104.101715 0.000000  0.097702 -0.491181 -0.865561  0.000000 0.000000 0
c_invasion_wrangler_laser
0  13.705231 -104.101715 0.000000  0.032754 -0.499731 0.865561  0.000000 0.000000 0
0  12.726286 -96.665878 4.330127  0.032754 -0.499731 0.865561  0.000000 0.000000 0
0  0.000000 -97.500000 4.330127  0.032754 -0.499731 0.865561  0.000000 0.000000 0
c_invasion_wrangler_laser
0  12.726286 -96.665878 4.330127  -0.065403 0.997859 0.000000  0.000000 0.000000 0
0  12.726286 -96.665878 -4.330127  -0.065403 0.997859 0.000000  0.000000 0.000000 0
0  0.000000 -97.500000 -4.330127  -0.065403 0.997859 0.000000  0.000000 0.000000 0
c_invasion_wrangler_laser
0  12.726286 -96.665878 -4.330127  0.032754 -0.499731 -0.865561  0.000000 0.000000 0
0  13.705231 -104.101715 0.000000  0.032754 -0.499731 -0.865561  0.000000 0.000000 0
0  0.000000 -105.000000 0.000000  0.032754 -0.499731 -0.865561  0.000000 0.000000 0
c_invasion_wrangler_laser
0  -105.000000 0.000000 0.000000  -0.499732 -0.032754 0.865561  0.000000 0.000000 0
0  -104.101715 -13.705248 0.000000  -0.499732 -0.032754 0.865561  0.000000 0.000000 0
0  -96.665878 -12.726301 4.330127  -0.499732 -0.032754 0.865561  0.000000 0.000000 0
c_invasion_wrangler_laser
0  -97.500000 0.000000 4.330127  0.997859 0.065402 0.000000  0.000000 0.000000 0
0  -96.665878 -12.726301 4.330127  0.997859 0.065402 0.000000  0.000000 0.000000 0
0  -96.665878 -12.726301 -4.330127  0.997859 0.065402 0.000000  0.000000 0.000000 0
c_invasion_wrangler_laser
0  -97.500000 0.000000 -4.330127  -0.499732 -0.032754 -0.865561  0.000000 0.000000 0
0  -96.665878 -12.726301 -4.330127  -0.499732 -0.032754 -0.865561  0.000000 0.000000 0
0  -104.101715 -13.705248 0.000000  -0.499732 -0.032754 -0.865561  0.000000 0.000000 0
c_invasion_wrangler_laser
0  -104.101715 -13.705248 0.000000  -0.491181 -0.097702 0.865561  0.000000 0.000000 0
0  -101.422211 -27.175993 0.000000  -0.491181 -0.097702 0.865561  0.000000 0.000000 0
0  -94.177765 -25.234852 4.330127  -0.491181 -0.097702 0.865561  0.000000 0.000000 0
c_invasion_wrangler_laser
0  -96.665878 -12.726301 4.330127  0.980785 0.195091 0.000000  0.000000 0.000000 0
0  -94.177765 -25.234852 4.330127  0.980785 0.195091 0.000000  0.000000 0.000000 0
0  -94.177765 -25.234852 -4.330127  0.980785 0.195091 0.000000  0.000000 0.000000 0
c_invasion_wrangler_laser
0  -96.665878 -12.726301 -4.330127  -0.491181 -0.097702 -0.865561  0.000000 0.000000 0
0  -94.177765 -25.234852 -4.330127  -0.491181 -0.097702 -0.865561  0.000000 0.000000 0
0  -101.422211 -27.175993 0.000000  -0.491181 -0.097702 -0.865561  0.000000 0.000000 0
c_invasion_wrangler_laser
0  -101.422211 -27.175993 0.000000  -0.474226 -0.160978 0.865561  0.000000 0.000000 0
0  -97.007355 -40.181755 0.000000  -0.474226 -0.160978 0.865561  0.000000 0.000000 0
0  -90.078255 -37.311626 4.330127  -0.474226 -0.160978 0.865561  0.000000 0.000000 0
c_invasion_wrangler_laser
0  -94.177765 -25.234852 4.330127  0.946930 0.321439 0.000000  0.000000 0.000000 0
0  -90.078255 -37.311626 4.330127  0.946930 0.321439 0.000000  0.000000 0.000000 0
0  -90.078255 -37.311626 -4.330127  0.946930 0.321439 0.000000  0.000000 0.000000 0
c_invasion_wrangler_laser
0  -94.177765 -25.234852 -4.330127  -0.474226 -0.160979 -0.865561  0.000000 0.000000 0
0  -90.078255 -37.311626 -4.330127  -0.474226 -0.160979 -0.865561  0.000000 0.000000 0
0  -97.007355 -40.181755 0.000000  -0.474226 -0.160979 -0.865561  0.000000 0.000000 0
c_invasion_wrangler_laser
0  -97.007355 -40.181755 0.000000  -0.449157 -0.221500 0.865561  0.000000 0.000000 0
0  -90.932663 -52.500011 0.000000  -0.449157 -0.221500 0.865561  0.000000 0.000000 0
0  -84.437469 -48.750011 4.330127  -0.449157 -0.221500 0.865561  0.000000 0.000000 0
c_invasion_wrangler_laser
0  -90.078255 -37.311626 4.330127  0.896873 0.442287 0.000000  0.000000 0.000000 0
0  -84.437469 -48.750011 4.330127  0.896873 0.442287 0.000000  0.000000 0.000000 0
0  -84.437469 -48.750011 -4.330127  0.896873 0.442287 0.000000  0.000000 0.000000 0
c_invasion_wrangler_laser
0  -90.078255 -37.311626 -4.330127  -0.449157 -0.221500 -0.865561  0.000000 0.000000 0
0  -84.437469 -48.750011 -4.330127  -0.449157 -0.221500 -0.865561  0.000000 0.000000 0
0  -90.932663 -52.500011 0.000000  -0.449157 -0.221500 -0.865561  0.000000 0.000000 0
c_invasion_wrangler_laser
0  -90.932663 -52.500011 0.000000  -0.416403 -0.278232 0.865561  0.000000 0.000000 0
0  -83.302109 -63.919937 0.000000  -0.416403 -0.278232 0.865561  0.000000 0.000000 0
0  -77.351959 -59.354229 4.330127  -0.416403 -0.278232 0.865561  0.000000 0.000000 0
c_invasion_wrangler_laser
0  -84.437469 -48.750011 4.330127  0.831470 0.555570 0.000000  0.000000 0.000000 0
0  -77.351959 -59.354229 4.330127  0.831470 0.555570 0.000000  0.000000 0.000000 0
0  -77.351959 -59.354229 -4.330127  0.831470 0.555570 0.000000  0.000000 0.000000 0
c_invasion_wrangler_laser
0  -84.437469 -48.750011 -4.330127  -0.416403 -0.278232 -0.865561  0.000000 0.000000 0
0  -77.351959 -59.354229 -4.330127  -0.416403 -0.278232 -0.865561  0.000000 0.000000 0
0  -83.302109 -63.919937 0.000000  -0.416403 -0.278232 -0.865561  0.000000 0.000000 0
c_invasion_wrangler_laser
0  -83.302109 -63.919937 0.000000  -0.376524 -0.330203 0.865561  0.000000 0.000000 0
0  -74.246208 -74.246216 0.000000  -0.376524 -0.330203 0.865561  0.000000 0.000000 0
0  -68.942902 -68.942917 4.330127  -0.376524 -0.330203 0.865561  0.000000 0.000000 0
c_invasion_wrangler_laser
0  -77.351959 -59.354229 4.330127  0.751840 0.659346 0.000000  0.000000 0.000000 0
0  -68.942902 -68.942917 4.330127  0.751840 0.659346 0.000000  0.000000 0.000000 0
0  -68.942902 -68.942917 -4.330127  0.751840 0.659346 0.000000  0.000000 0.000000 0
c_invasion_wrangler_laser
0  -77.351959 -59.354229 -4.330127  -0.376524 -0.330203 -0.865561  0.000000 0.000000 0
0  -68.942902 -68.942917 -4.330127  -0.376524 -0.330203 -0.865561  0.000000 0.000000 0
0  -74.246208 -74.246216 0.000000  -0.376524 -0.330203 -0.865561  0.000000 0.000000 0
c_invasion_wrangler_laser
0  -74.246208 -74.246216 0.000000  -0.330203 -0.376524 0.865561  0.000000 0.000000 0
0  -63.919964 -83.302086 0.000000  -0.330203 -0.376524 0.865561  0.000000 0.000000 0
0  -59.354252 -77.351936 4.330127  -0.330203 -0.376524 0.865561  0.000000 0.000000 0
c_invasion_wrangler_laser
0  -68.942902 -68.942917 4.330127  0.659346 0.751839 0.000000  0.000000 0.000000 0
0  -59.354252 -77.351936 4.330127  0.659346 0.751839 0.000000  0.000000 0.000000 0
0  -59.354252 -77.351936 -4.330127  0.659346 0.751839 0.000000  0.000000 0.000000 0
c_invasion_wrangler_laser
0  -68.942902 -68.942917 -4.330127  -0.330203 -0.376525 -0.865561  0.000000 0.000000 0
0  -59.354252 -77.351936 -4.330127  -0.330203 -0.376525 -0.865561  0.000000 0.000000 0
0  -63.919964 -83.302086 0.000000  -0.330203 -0.376525 -0.865561  0.000000 0.000000 0
c_invasion_wrangler_laser
0  -63.919964 -83.302086 0.000000  -0.278232 -0.416403 0.865561  0.000000 0.000000 0
0  -52.499996 -90.932671 0.000000  -0.278232 -0.416403 0.865561  0.000000 0.000000 0
0  -48.749996 -84.437485 4.330127  -0.278232 -0.416403 0.865561  0.000000 0.000000 0
c_invasion_wrangler_laser
0  -59.354252 -77.351936 4.330127  0.555571 0.831469 0.000000  0.000000 0.000000 0
0  -48.749996 -84.437485 4.330127  0.555571 0.831469 0.000000  0.000000 0.000000 0
0  -48.749996 -84.437485 -4.330127  0.555571 0.831469 0.000000  0.000000 0.000000 0
c_invasion_wrangler_laser
0  -59.354252 -77.351936 -4.330127  -0.278233 -0.416404 -0.865560  0.000000 0.000000 0
0  -48.749996 -84.437485 -4.330127  -0.278233 -0.416404 -0.865560  0.000000 0.000000 0
0  -52.499996 -90.932671 0.000000  -0.278233 -0.416404 -0.865560  0.000000 0.000000 0
c_invasion_wrangler_laser
0  -52.499996 -90.932671 0.000000  -0.221500 -0.449158 0.865560  0.000000 0.000000 0
0  -40.181786 -97.007339 0.000000  -0.221500 -0.449158 0.865560  0.000000 0.000000 0
0  -37.311657 -90.078247 4.330127  -0.221500 -0.449158 0.865560  0.000000 0.000000 0
c_invasion_wrangler_laser
0  -48.749996 -84.437485 4.330127  0.442289 0.896873 0.000000  0.000000 0.000000 0
0  -37.311657 -90.078247 4.330127  0.442289 0.896873 0.000000  0.000000 0.000000 0
0  -37.311657 -90.078247 -4.330127  0.442289 0.896873 0.000000  0.000000 0.000000 0
c_invasion_wrangler_laser
0  -48.749996 -84.437485 -4.330127  -0.221500 -0.449158 -0.865561  0.000000 0.000000 0
0  -37.311657 -90.078247 -4.330127  -0.221500 -0.449158 -0.865561  0.000000 0.000000 0
0  -40.181786 -97.007339 0.000000  -0.221500 -0.449158 -0.865561  0.000000 0.000000 0
c_invasion_wrangler_laser
0  -40.181786 -97.007339 0.000000  -0.160978 -0.474226 0.865561  0.000000 0.000000 0
0  -27.176003 -101.422211 0.000000  -0.160978 -0.474226 0.865561  0.000000 0.000000 0
0  -25.234859 -94.177765 4.330127  -0.160978 -0.474226 0.865561  0.000000 0.000000 0
c_invasion_wrangler_laser
0  -37.311657 -90.078247 4.330127  0.321439 0.946930 0.000000  0.000000 0.000000 0
0  -25.234859 -94.177765 4.330127  0.321439 0.946930 0.000000  0.000000 0.000000 0
0  -25.234859 -94.177765 -4.330127  0.321439 0.946930 0.000000  0.000000 0.000000 0
c_invasion_wrangler_laser
0  -37.311657 -90.078247 -4.330127  -0.160978 -0.474227 -0.865560  0.000000 0.000000 0
0  -25.234859 -94.177765 -4.330127  -0.160978 -0.474227 -0.865560  0.000000 0.000000 0
0  -27.176003 -101.422211 0.000000  -0.160978 -0.474227 -0.865560  0.000000 0.000000 0
c_invasion_wrangler_laser
0  -27.176003 -101.422211 0.000000  -0.097702 -0.491181 0.865561  0.000000 0.000000 0
0  -13.705231 -104.101715 0.000000  -0.097702 -0.491181 0.865561  0.000000 0.000000 0
0  -12.726286 -96.665878 4.330127  -0.097702 -0.491181 0.865561  0.000000 0.000000 0
c_invasion_wrangler_laser
0  -25.234859 -94.177765 4.330127  0.195091 0.980785 0.000000  0.000000 0.000000 0
0  -12.726286 -96.665878 4.330127  0.195091 0.980785 0.000000  0.000000 0.000000 0
0  -12.726286 -96.665878 -4.330127  0.195091 0.980785 0.000000  0.000000 0.000000 0
c_invasion_wrangler_laser
0  -25.234859 -94.177765 -4.330127  -0.097702 -0.491180 -0.865561  0.000000 0.000000 0
0  -12.726286 -96.665878 -4.330127  -0.097702 -0.491180 -0.865561  0.000000 0.000000 0
0  -13.705231 -104.101715 0.000000  -0.097702 -0.491180 -0.865561  0.000000 0.000000 0
c_invasion_wrangler_laser
0  -13.705231 -104.101715 0.000000  -0.032754 -0.499731 0.865561  0.000000 0.000000 0
0  0.000000 -105.000000 0.000000  -0.032754 -0.499731 0.865561  0.000000 0.000000 0
0  0.000000 -97.500000 4.330127  -0.032754 -0.499731 0.865561  0.000000 0.000000 0
c_invasion_wrangler_laser
0  -12.726286 -96.665878 4.330127  0.065403 0.997859 0.000000  0.000000 0.000000 0
0  0.000000 -97.500000 4.330127  0.065403 0.997859 0.000000  0.000000 0.000000 0
0  0.000000 -97.500000 -4.330127  0.065403 0.997859 0.000000  0.000000 0.000000 0
c_invasion_wrangler_laser
0  -12.726286 -96.665878 -4.330127  -0.032754 -0.499732 -0.865560  0.000000 0.000000 0
0  0.000000 -97.500000 -4.330127  -0.032754 -0.499732 -0.865560  0.000000 0.000000 0
0  0.000000 -105.000000 0.000000  -0.032754 -0.499732 -0.865560  0.000000 0.000000 0
end
