version 1
nodes
0 "weapon_bone" -1
end
skeleton
time 0
0  0.000000 0.000000 0.000000  0.000000 -0.000000 0.000000
end
triangles
c_invasion_wrangler_laser
0  -0.525357 0.525357 0.000000  -0.980785 -0.000000 0.195090  0.000000 0.000000 0
0  -0.485367 -0.922737 0.201046  -0.980785 -0.000000 0.195090  0.000000 0.000000 0
0  -0.485367 0.525357 0.201046  -0.980785 -0.000000 0.195090  0.000000 0.000000 0
c_invasion_wrangler_laser
0  -0.485367 0.525357 0.201046  -0.831470 -0.000000 0.555570  0.000000 0.000000 0
0  -0.371484 -0.922737 0.371484  -0.831470 -0.000000 0.555570  0.000000 0.000000 0
0  -0.371484 0.525357 0.371484  -0.831470 -0.000000 0.555570  0.000000 0.000000 0
c_invasion_wrangler_laser
0  -0.371484 0.525357 0.371484  -0.555570 -0.000000 0.831470  0.000000 0.000000 0
0  -0.201046 -0.922737 0.485367  -0.555570 -0.000000 0.831470  0.000000 0.000000 0
0  -0.201046 0.525357 0.485367  -0.555570 -0.000000 0.831470  0.000000 0.000000 0
c_invasion_wrangler_laser
0  -0.201046 0.525357 0.485367  -0.195091 -0.000000 0.980785  0.000000 0.000000 0
0  0.000000 -0.922737 0.525357  -0.195091 -0.000000 0.980785  0.000000 0.000000 0
0  0.000000 0.525357 0.525357  -0.195091 -0.000000 0.980785  0.000000 0.000000 0
c_invasion_wrangler_laser
0  -0.201046 -0.922737 0.485367  -0.554712 -0.055561 0.830185  0.000000 0.000000 0
0  -0.252441 -3.889977 0.252441  -0.554712 -0.055561 0.830185  0.000000 0.000000 0
0  -0.136620 -3.889977 0.329830  -0.554712 -0.055561 0.830185  0.000000 0.000000 0
c_invasion_wrangler_laser
0  -0.485367 -0.922737 0.201046  -0.979270 -0.055561 0.194789  0.000000 0.000000 0
0  -0.357005 -3.889977 0.000000  -0.979270 -0.055561 0.194789  0.000000 0.000000 0
0  -0.329830 -3.889977 0.136620  -0.979270 -0.055561 0.194789  0.000000 0.000000 0
c_invasion_wrangler_laser
0  0.000000 -0.922737 0.525357  -0.194789 -0.055561 0.979270  0.000000 0.000000 0
0  -0.136620 -3.889977 0.329830  -0.194789 -0.055561 0.979270  0.000000 0.000000 0
0  0.000000 -3.889977 0.357005  -0.194789 -0.055561 0.979270  0.000000 0.000000 0
c_invasion_wrangler_laser
0  -0.371484 -0.922737 0.371484  -0.830185 -0.055561 0.554712  0.000000 0.000000 0
0  -0.329830 -3.889977 0.136620  -0.830185 -0.055561 0.554712  0.000000 0.000000 0
0  -0.252441 -3.889977 0.252441  -0.830185 -0.055561 0.554712  0.000000 0.000000 0
c_invasion_wrangler_laser
0  -0.329830 -3.889977 0.136620  -0.975962 -0.099056 0.194131  0.000000 0.000000 0
0  -0.197025 -5.466202 0.000000  -0.975962 -0.099056 0.194131  0.000000 0.000000 0
0  -0.182027 -5.466202 0.075398  -0.975962 -0.099056 0.194131  0.000000 0.000000 0
c_invasion_wrangler_laser
0  -0.252441 -3.889977 0.252441  -0.827380 -0.099056 0.552838  0.000000 0.000000 0
0  -0.182027 -5.466202 0.075398  -0.827380 -0.099056 0.552838  0.000000 0.000000 0
0  -0.139317 -5.466202 0.139317  -0.827380 -0.099056 0.552838  0.000000 0.000000 0
c_invasion_wrangler_laser
0  -0.136620 -3.889977 0.329830  -0.552838 -0.099056 0.827380  0.000000 0.000000 0
0  -0.139317 -5.466202 0.139317  -0.552838 -0.099056 0.827380  0.000000 0.000000 0
0  -0.075398 -5.466202 0.182027  -0.552838 -0.099056 0.827380  0.000000 0.000000 0
c_invasion_wrangler_laser
0  0.000000 -3.889977 0.357005  -0.194131 -0.099056 0.975962  0.000000 0.000000 0
0  -0.075398 -5.466202 0.182027  -0.194131 -0.099056 0.975962  0.000000 0.000000 0
0  0.000000 -5.466202 0.197025  -0.194131 -0.099056 0.975962  0.000000 0.000000 0
c_invasion_wrangler_laser
0  -0.053916 -7.624652 0.053916  -0.828857 -0.079238 0.553821  0.000000 0.000000 0
0  -0.070445 -7.624652 0.029179  -0.828857 -0.079238 0.553821  0.000000 0.000000 0
0  0.000000 -8.565478 0.000000  -0.828857 -0.079238 0.553821  0.000000 0.000000 0
c_invasion_wrangler_laser
0  -0.343793 3.512153 0.343793  0.555568 0.000000 -0.831471  0.000000 0.000000 0
0  -0.259426 3.784914 0.400165  0.555568 0.000000 -0.831471  0.000000 0.000000 0
0  -0.343793 3.462647 0.343793  0.555568 0.000000 -0.831471  0.000000 0.000000 0
c_invasion_wrangler_laser
0  -0.182027 -5.466202 0.075398  -0.979312 -0.054797 0.194797  0.000000 0.000000 0
0  -0.076249 -7.624652 0.000000  -0.979312 -0.054797 0.194797  0.000000 0.000000 0
0  -0.070445 -7.624652 0.029179  -0.979312 -0.054797 0.194797  0.000000 0.000000 0
c_invasion_wrangler_laser
0  -0.139317 -5.466202 0.139317  -0.830220 -0.054797 0.554736  0.000000 0.000000 0
0  -0.070445 -7.624652 0.029179  -0.830220 -0.054797 0.554736  0.000000 0.000000 0
0  -0.053916 -7.624652 0.053916  -0.830220 -0.054797 0.554736  0.000000 0.000000 0
c_invasion_wrangler_laser
0  -0.075398 -5.466202 0.182027  -0.554735 -0.054797 0.830220  0.000000 0.000000 0
0  -0.053916 -7.624652 0.053916  -0.554735 -0.054797 0.830220  0.000000 0.000000 0
0  -0.029179 -7.624652 0.070445  -0.554735 -0.054797 0.830220  0.000000 0.000000 0
c_invasion_wrangler_laser
0  0.000000 -5.466202 0.197025  -0.194796 -0.054797 0.979312  0.000000 0.000000 0
0  -0.029179 -7.624652 0.070445  -0.194796 -0.054797 0.979312  0.000000 0.000000 0
0  0.000000 -7.624652 0.076249  -0.194796 -0.054797 0.979312  0.000000 0.000000 0
c_invasion_wrangler_laser
0  0.000000 -8.565478 0.000000  -0.865832 0.000000 -0.500334  0.000000 0.000000 0
0  -0.114462 -7.533190 0.198080  -0.865832 0.000000 -0.500334  0.000000 0.000000 0
0  0.000000 -8.474016 0.000000  -0.865832 0.000000 -0.500334  0.000000 0.000000 0
c_invasion_wrangler_laser
0  0.029179 -7.624652 0.070445  0.194477 -0.079237 0.977701  0.000000 0.000000 0
0  0.000000 -7.624652 0.076249  0.194477 -0.079237 0.977701  0.000000 0.000000 0
0  0.000000 -8.565478 0.000000  0.194477 -0.079237 0.977701  0.000000 0.000000 0
c_invasion_wrangler_laser
0  0.000000 -7.624652 0.076249  -0.194477 -0.079238 0.977701  0.000000 0.000000 0
0  -0.029179 -7.624652 0.070445  -0.194477 -0.079238 0.977701  0.000000 0.000000 0
0  0.000000 -8.565478 0.000000  -0.194477 -0.079238 0.977701  0.000000 0.000000 0
c_invasion_wrangler_laser
0  0.053916 -7.624652 0.053916  0.553824 -0.079237 0.828855  0.000000 0.000000 0
0  0.029179 -7.624652 0.070445  0.553824 -0.079237 0.828855  0.000000 0.000000 0
0  0.000000 -8.565478 0.000000  0.553824 -0.079237 0.828855  0.000000 0.000000 0
c_invasion_wrangler_laser
0  -0.157336 4.008895 0.407955  -0.999934 0.000000 0.011487  0.000000 0.000000 0
0  -0.145676 4.525712 1.422892  -0.999934 0.000000 0.011487  0.000000 0.000000 0
0  -0.145676 4.665833 1.422892  -0.999934 0.000000 0.011487  0.000000 0.000000 0
c_invasion_wrangler_laser
0  -0.419961 4.008895 0.000000  0.543245 0.838551 -0.041452  0.000000 0.000000 0
0  -1.422891 4.665833 0.145677  0.543245 0.838551 -0.041452  0.000000 0.000000 0
0  -0.407955 4.008895 0.157336  0.543245 0.838551 -0.041452  0.000000 0.000000 0
c_invasion_wrangler_laser
0  -0.114462 -7.533190 0.198080  -0.539905 -0.235806 0.808021  0.000000 0.000000 0
0  -0.139199 -7.533190 0.181551  -0.539905 -0.235806 0.808021  0.000000 0.000000 0
0  0.000000 -8.474016 0.000000  -0.539905 -0.235806 0.808021  0.000000 0.000000 0
c_invasion_wrangler_laser
0  -0.343793 3.512153 0.343793  -0.831470 0.000000 0.555570  0.000000 0.000000 0
0  -0.400165 3.784914 0.259426  -0.831470 0.000000 0.555570  0.000000 0.000000 0
0  -0.400165 2.700234 0.259426  -0.831470 0.000000 0.555570  0.000000 0.000000 0
c_invasion_wrangler_laser
0  -0.070445 -7.624652 0.029179  -0.977701 -0.079237 0.194480  0.000000 0.000000 0
0  -0.076249 -7.624652 0.000000  -0.977701 -0.079237 0.194480  0.000000 0.000000 0
0  0.000000 -8.565478 0.000000  -0.977701 -0.079237 0.194480  0.000000 0.000000 0
c_invasion_wrangler_laser
0  -0.371484 0.525357 0.371484  -0.831340 0.017657 0.555484  0.000000 0.000000 0
0  -0.400165 2.700234 0.259426  -0.831340 0.017657 0.555484  0.000000 0.000000 0
0  -0.485367 0.525357 0.201046  -0.831340 0.017657 0.555484  0.000000 0.000000 0
c_invasion_wrangler_laser
0  -0.201046 0.525357 0.485367  -0.416863 0.024406 0.908642  0.000000 0.000000 0
0  0.000000 0.747708 0.571630  -0.416863 0.024406 0.908642  0.000000 0.000000 0
0  -0.259426 2.700234 0.400165  -0.416863 0.024406 0.908642  0.000000 0.000000 0
c_invasion_wrangler_laser
0  -0.485367 0.525357 0.201046  -0.960973 -0.199983 0.191150  0.000000 0.000000 0
0  -0.571630 0.747708 0.000000  -0.960973 -0.199983 0.191150  0.000000 0.000000 0
0  -0.525357 0.525357 0.000000  -0.960973 -0.199983 0.191150  0.000000 0.000000 0
c_invasion_wrangler_laser
0  -0.371484 0.525357 0.371484  -0.469313 0.012537 0.882943  0.000000 0.000000 0
0  -0.259426 2.700234 0.400165  -0.469313 0.012537 0.882943  0.000000 0.000000 0
0  -0.343793 3.512153 0.343793  -0.469313 0.012537 0.882943  0.000000 0.000000 0
c_invasion_wrangler_laser
0  -0.571630 0.747708 0.000000  -0.527726 -0.151138 0.835861  0.000000 0.000000 0
0  -1.422891 4.525712 0.145677  -0.527726 -0.151138 0.835861  0.000000 0.000000 0
0  -1.790317 5.002990 0.000000  -0.527726 -0.151138 0.835861  0.000000 0.000000 0
c_invasion_wrangler_laser
0  -0.407955 4.008895 0.157336  -0.997102 0.000000 0.076083  0.000000 0.000000 0
0  -0.400165 2.700234 0.259426  -0.997102 0.000000 0.076083  0.000000 0.000000 0
0  -0.400165 3.784914 0.259426  -0.997102 0.000000 0.076083  0.000000 0.000000 0
c_invasion_wrangler_laser
0  -1.422891 4.525712 0.145677  -0.167548 0.167548 0.971522  0.000000 0.000000 0
0  -1.661024 5.132283 0.000000  -0.167548 0.167548 0.971522  0.000000 0.000000 0
0  -1.790317 5.002990 0.000000  -0.167548 0.167548 0.971522  0.000000 0.000000 0
c_invasion_wrangler_laser
0  0.000000 5.002990 1.790318  -0.929601 0.000000 0.368567  0.000000 0.000000 0
0  -0.145676 4.665833 1.422892  -0.929601 0.000000 0.368567  0.000000 0.000000 0
0  -0.145676 4.525712 1.422892  -0.929601 0.000000 0.368567  0.000000 0.000000 0
c_invasion_wrangler_laser
0  0.000000 4.008895 0.419961  -0.787293 0.457120 -0.413776  0.000000 0.000000 0
0  -0.145676 4.665833 1.422892  -0.787293 0.457120 -0.413776  0.000000 0.000000 0
0  0.000000 5.132283 1.661025  -0.787293 0.457120 -0.413776  0.000000 0.000000 0
c_invasion_wrangler_laser
0  -0.343793 3.462647 0.343793  -0.779577 0.300235 -0.549654  0.000000 0.000000 0
0  -0.259426 3.784914 0.400165  -0.779577 0.300235 -0.549654  0.000000 0.000000 0
0  0.000000 3.725929 0.000000  -0.779577 0.300235 -0.549654  0.000000 0.000000 0
c_invasion_wrangler_laser
0  -0.259426 3.784914 0.400165  -0.756278 0.363627 -0.543892  0.000000 0.000000 0
0  -0.157336 4.008895 0.407955  -0.756278 0.363627 -0.543892  0.000000 0.000000 0
0  0.000000 3.725929 0.000000  -0.756278 0.363627 -0.543892  0.000000 0.000000 0
c_invasion_wrangler_laser
0  -0.419961 4.008895 0.000000  0.558278 0.828560 -0.042600  0.000000 0.000000 0
0  -0.407955 4.008895 0.157336  0.558278 0.828560 -0.042600  0.000000 0.000000 0
0  0.000000 3.725929 0.000000  0.558278 0.828560 -0.042600  0.000000 0.000000 0
c_invasion_wrangler_laser
0  -0.157336 4.008895 0.407955  0.042599 0.828559 -0.558278  0.000000 0.000000 0
0  0.000000 4.008895 0.419961  0.042599 0.828559 -0.558278  0.000000 0.000000 0
0  0.000000 3.725929 0.000000  0.042599 0.828559 -0.558278  0.000000 0.000000 0
c_invasion_wrangler_laser
0  -0.407955 4.008895 0.157336  0.543892 0.363627 0.756279  0.000000 0.000000 0
0  -0.400165 3.784914 0.259426  0.543892 0.363627 0.756279  0.000000 0.000000 0
0  0.000000 3.725929 0.000000  0.543892 0.363627 0.756279  0.000000 0.000000 0
c_invasion_wrangler_laser
0  -0.400165 3.784914 0.259426  0.549653 0.300235 0.779577  0.000000 0.000000 0
0  -0.343793 3.462647 0.343793  0.549653 0.300235 0.779577  0.000000 0.000000 0
0  0.000000 3.725929 0.000000  0.549653 0.300235 0.779577  0.000000 0.000000 0
c_invasion_wrangler_laser
0  -0.343793 3.512153 0.343793  -0.555570 0.000000 0.831470  0.000000 0.000000 0
0  -0.259426 2.700234 0.400165  -0.555570 0.000000 0.831470  0.000000 0.000000 0
0  -0.259426 3.784914 0.400165  -0.555570 0.000000 0.831470  0.000000 0.000000 0
c_invasion_wrangler_laser
0  -0.419961 4.008895 0.000000  0.413777 0.457121 0.787292  0.000000 0.000000 0
0  -1.661024 5.132283 0.000000  0.413777 0.457121 0.787292  0.000000 0.000000 0
0  -1.422891 4.665833 0.145677  0.413777 0.457121 0.787292  0.000000 0.000000 0
c_invasion_wrangler_laser
0  -0.343793 3.512153 0.343793  0.831468 0.000000 -0.555573  0.000000 0.000000 0
0  -0.343793 3.462647 0.343793  0.831468 0.000000 -0.555573  0.000000 0.000000 0
0  -0.400165 3.784914 0.259426  0.831468 0.000000 -0.555573  0.000000 0.000000 0
c_invasion_wrangler_laser
0  -0.371484 0.525357 0.371484  -0.882943 0.012537 0.469313  0.000000 0.000000 0
0  -0.343793 3.512153 0.343793  -0.882943 0.012537 0.469313  0.000000 0.000000 0
0  -0.400165 2.700234 0.259426  -0.882943 0.012537 0.469313  0.000000 0.000000 0
c_invasion_wrangler_laser
0  -0.201046 0.525357 0.485367  -0.191149 -0.199983 0.960973  0.000000 0.000000 0
0  0.000000 0.525357 0.525357  -0.191149 -0.199983 0.960973  0.000000 0.000000 0
0  0.000000 0.747708 0.571630  -0.191149 -0.199983 0.960973  0.000000 0.000000 0
c_invasion_wrangler_laser
0  -0.485367 0.525357 0.201046  -0.908641 0.024406 0.416863  0.000000 0.000000 0
0  -0.400165 2.700234 0.259426  -0.908641 0.024406 0.416863  0.000000 0.000000 0
0  -0.571630 0.747708 0.000000  -0.908641 0.024406 0.416863  0.000000 0.000000 0
c_invasion_wrangler_laser
0  -0.371484 0.525357 0.371484  -0.555484 0.017657 0.831340  0.000000 0.000000 0
0  -0.201046 0.525357 0.485367  -0.555484 0.017657 0.831340  0.000000 0.000000 0
0  -0.259426 2.700234 0.400165  -0.555484 0.017657 0.831340  0.000000 0.000000 0
c_invasion_wrangler_laser
0  -0.157336 4.008895 0.407955  -0.076083 0.000000 0.997101  0.000000 0.000000 0
0  -0.259426 3.784914 0.400165  -0.076083 0.000000 0.997101  0.000000 0.000000 0
0  -0.259426 2.700234 0.400165  -0.076083 0.000000 0.997101  0.000000 0.000000 0
c_invasion_wrangler_laser
0  -1.422891 4.525712 0.145677  -0.521844 0.000000 0.853041  0.000000 0.000000 0
0  -1.422891 4.665833 0.145677  -0.521844 0.000000 0.853041  0.000000 0.000000 0
0  -1.661024 5.132283 0.000000  -0.521844 0.000000 0.853041  0.000000 0.000000 0
c_invasion_wrangler_laser
0  0.000000 5.002990 1.790318  -0.959812 0.198446 0.198444  0.000000 0.000000 0
0  0.000000 5.132283 1.661025  -0.959812 0.198446 0.198444  0.000000 0.000000 0
0  -0.145676 4.665833 1.422892  -0.959812 0.198446 0.198444  0.000000 0.000000 0
c_invasion_wrangler_laser
0  0.000000 4.008895 0.419961  0.041452 0.838551 -0.543244  0.000000 0.000000 0
0  -0.157336 4.008895 0.407955  0.041452 0.838551 -0.543244  0.000000 0.000000 0
0  -0.145676 4.665833 1.422892  0.041452 0.838551 -0.543244  0.000000 0.000000 0
c_invasion_wrangler_laser
0  -0.407955 4.008895 0.157336  -0.011487 0.000000 0.999934  0.000000 0.000000 0
0  -1.422891 4.665833 0.145677  -0.011487 0.000000 0.999934  0.000000 0.000000 0
0  -1.422891 4.525712 0.145677  -0.011487 0.000000 0.999934  0.000000 0.000000 0
c_invasion_wrangler_laser
0  0.000000 0.747708 0.571630  -0.835862 -0.151137 0.527725  0.000000 0.000000 0
0  0.000000 5.002990 1.790318  -0.835862 -0.151137 0.527725  0.000000 0.000000 0
0  -0.145676 4.525712 1.422892  -0.835862 -0.151137 0.527725  0.000000 0.000000 0
c_invasion_wrangler_laser
0  0.000000 0.747708 0.571630  -0.952584 -0.101373 0.286891  0.000000 0.000000 0
0  -0.145676 4.525712 1.422892  -0.952584 -0.101373 0.286891  0.000000 0.000000 0
0  -0.259426 2.700234 0.400165  -0.952584 -0.101373 0.286891  0.000000 0.000000 0
c_invasion_wrangler_laser
0  -0.571630 0.747708 0.000000  -0.286891 -0.101373 0.952584  0.000000 0.000000 0
0  -0.400165 2.700234 0.259426  -0.286891 -0.101373 0.952584  0.000000 0.000000 0
0  -1.422891 4.525712 0.145677  -0.286891 -0.101373 0.952584  0.000000 0.000000 0
c_invasion_wrangler_laser
0  -0.407955 4.008895 0.157336  0.028226 0.077911 0.996561  0.000000 0.000000 0
0  -1.422891 4.525712 0.145677  0.028226 0.077911 0.996561  0.000000 0.000000 0
0  -0.400165 2.700234 0.259426  0.028226 0.077911 0.996561  0.000000 0.000000 0
c_invasion_wrangler_laser
0  -0.145676 4.525712 1.422892  -0.996561 0.077911 -0.028225  0.000000 0.000000 0
0  -0.157336 4.008895 0.407955  -0.996561 0.077911 -0.028225  0.000000 0.000000 0
0  -0.259426 2.700234 0.400165  -0.996561 0.077911 -0.028225  0.000000 0.000000 0
c_invasion_wrangler_laser
0  -0.053916 -7.624652 0.053916  -0.837394 -0.018479 -0.546287  0.000000 0.000000 0
0  0.000000 -8.474016 0.000000  -0.837394 -0.018479 -0.546287  0.000000 0.000000 0
0  -0.139199 -7.533190 0.181551  -0.837394 -0.018479 -0.546287  0.000000 0.000000 0
c_invasion_wrangler_laser
0  -0.029179 -7.624652 0.070445  0.284369 0.859067 -0.425602  0.000000 0.000000 0
0  -0.139199 -7.533190 0.181551  0.284369 0.859067 -0.425602  0.000000 0.000000 0
0  -0.114462 -7.533190 0.198080  0.284369 0.859067 -0.425602  0.000000 0.000000 0
c_invasion_wrangler_laser
0  0.525357 0.525357 0.000000  0.980785 0.000000 0.195090  0.000000 0.000000 0
0  0.485367 -0.922737 0.201046  0.980785 0.000000 0.195090  0.000000 0.000000 0
0  0.525357 -0.922737 0.000000  0.980785 0.000000 0.195090  0.000000 0.000000 0
c_invasion_wrangler_laser
0  0.485367 0.525357 0.201046  0.831470 -0.000000 0.555570  0.000000 0.000000 0
0  0.371484 -0.922737 0.371484  0.831470 -0.000000 0.555570  0.000000 0.000000 0
0  0.485367 -0.922737 0.201046  0.831470 -0.000000 0.555570  0.000000 0.000000 0
c_invasion_wrangler_laser
0  0.371484 0.525357 0.371484  0.555570 -0.000000 0.831470  0.000000 0.000000 0
0  0.201046 -0.922737 0.485367  0.555570 -0.000000 0.831470  0.000000 0.000000 0
0  0.371484 -0.922737 0.371484  0.555570 -0.000000 0.831470  0.000000 0.000000 0
c_invasion_wrangler_laser
0  0.201046 0.525357 0.485367  0.195090 -0.000000 0.980785  0.000000 0.000000 0
0  0.000000 -0.922737 0.525357  0.195090 -0.000000 0.980785  0.000000 0.000000 0
0  0.201046 -0.922737 0.485367  0.195090 -0.000000 0.980785  0.000000 0.000000 0
c_invasion_wrangler_laser
0  0.201046 -0.922737 0.485367  0.554712 -0.055561 0.830185  0.000000 0.000000 0
0  0.252441 -3.889977 0.252441  0.554712 -0.055561 0.830185  0.000000 0.000000 0
0  0.371484 -0.922737 0.371484  0.554712 -0.055561 0.830185  0.000000 0.000000 0
c_invasion_wrangler_laser
0  0.485367 -0.922737 0.201046  0.979270 -0.055561 0.194789  0.000000 0.000000 0
0  0.357005 -3.889977 0.000000  0.979270 -0.055561 0.194789  0.000000 0.000000 0
0  0.525357 -0.922737 0.000000  0.979270 -0.055561 0.194789  0.000000 0.000000 0
c_invasion_wrangler_laser
0  0.000000 -0.922737 0.525357  0.194789 -0.055561 0.979270  0.000000 0.000000 0
0  0.136620 -3.889977 0.329830  0.194789 -0.055561 0.979270  0.000000 0.000000 0
0  0.201046 -0.922737 0.485367  0.194789 -0.055561 0.979270  0.000000 0.000000 0
c_invasion_wrangler_laser
0  0.371484 -0.922737 0.371484  0.830185 -0.055561 0.554712  0.000000 0.000000 0
0  0.329830 -3.889977 0.136620  0.830185 -0.055561 0.554712  0.000000 0.000000 0
0  0.485367 -0.922737 0.201046  0.830185 -0.055561 0.554712  0.000000 0.000000 0
c_invasion_wrangler_laser
0  0.329830 -3.889977 0.136620  0.975962 -0.099056 0.194131  0.000000 0.000000 0
0  0.197025 -5.466202 0.000000  0.975962 -0.099056 0.194131  0.000000 0.000000 0
0  0.357005 -3.889977 0.000000  0.975962 -0.099056 0.194131  0.000000 0.000000 0
c_invasion_wrangler_laser
0  0.252441 -3.889977 0.252441  0.827380 -0.099056 0.552838  0.000000 0.000000 0
0  0.182027 -5.466202 0.075398  0.827380 -0.099056 0.552838  0.000000 0.000000 0
0  0.329830 -3.889977 0.136620  0.827380 -0.099056 0.552838  0.000000 0.000000 0
c_invasion_wrangler_laser
0  0.136620 -3.889977 0.329830  0.552838 -0.099056 0.827380  0.000000 0.000000 0
0  0.139317 -5.466202 0.139317  0.552838 -0.099056 0.827380  0.000000 0.000000 0
0  0.252441 -3.889977 0.252441  0.552838 -0.099056 0.827380  0.000000 0.000000 0
c_invasion_wrangler_laser
0  0.000000 -3.889977 0.357005  0.194131 -0.099056 0.975962  0.000000 0.000000 0
0  0.075398 -5.466202 0.182027  0.194131 -0.099056 0.975962  0.000000 0.000000 0
0  0.136620 -3.889977 0.329830  0.194131 -0.099056 0.975962  0.000000 0.000000 0
c_invasion_wrangler_laser
0  0.053916 -7.624652 0.053916  0.828857 -0.079238 0.553821  0.000000 0.000000 0
0  0.000000 -8.565478 0.000000  0.828857 -0.079238 0.553821  0.000000 0.000000 0
0  0.070445 -7.624652 0.029179  0.828857 -0.079238 0.553821  0.000000 0.000000 0
c_invasion_wrangler_laser
0  0.343793 3.512153 0.343793  -0.555568 0.000000 -0.831471  0.000000 0.000000 0
0  0.343793 3.462647 0.343793  -0.555568 0.000000 -0.831471  0.000000 0.000000 0
0  0.259426 3.784914 0.400165  -0.555568 0.000000 -0.831471  0.000000 0.000000 0
c_invasion_wrangler_laser
0  0.182027 -5.466202 0.075398  0.979312 -0.054797 0.194798  0.000000 0.000000 0
0  0.076249 -7.624652 0.000000  0.979312 -0.054797 0.194798  0.000000 0.000000 0
0  0.197025 -5.466202 0.000000  0.979312 -0.054797 0.194798  0.000000 0.000000 0
c_invasion_wrangler_laser
0  0.139317 -5.466202 0.139317  0.830220 -0.054797 0.554736  0.000000 0.000000 0
0  0.070445 -7.624652 0.029179  0.830220 -0.054797 0.554736  0.000000 0.000000 0
0  0.182027 -5.466202 0.075398  0.830220 -0.054797 0.554736  0.000000 0.000000 0
c_invasion_wrangler_laser
0  0.075398 -5.466202 0.182027  0.554736 -0.054797 0.830220  0.000000 0.000000 0
0  0.053916 -7.624652 0.053916  0.554736 -0.054797 0.830220  0.000000 0.000000 0
0  0.139317 -5.466202 0.139317  0.554736 -0.054797 0.830220  0.000000 0.000000 0
c_invasion_wrangler_laser
0  0.000000 -5.466202 0.197025  0.194797 -0.054797 0.979312  0.000000 0.000000 0
0  0.029179 -7.624652 0.070445  0.194797 -0.054797 0.979312  0.000000 0.000000 0
0  0.075398 -5.466202 0.182027  0.194797 -0.054797 0.979312  0.000000 0.000000 0
c_invasion_wrangler_laser
0  0.000000 -8.565478 0.000000  -0.825821 -0.016594 0.563688  0.000000 0.000000 0
0  0.114462 -7.533190 0.198080  -0.825821 -0.016594 0.563688  0.000000 0.000000 0
0  0.029179 -7.624652 0.070445  -0.825821 -0.016594 0.563688  0.000000 0.000000 0
c_invasion_wrangler_laser
0  -0.029179 -7.624652 0.070445  -0.194477 -0.079237 0.977701  0.000000 0.000000 0
0  0.000000 -8.565478 0.000000  -0.194477 -0.079237 0.977701  0.000000 0.000000 0
0  0.000000 -7.624652 0.076249  -0.194477 -0.079237 0.977701  0.000000 0.000000 0
c_invasion_wrangler_laser
0  0.000000 -7.624652 0.076249  0.194477 -0.079238 0.977701  0.000000 0.000000 0
0  0.000000 -8.565478 0.000000  0.194477 -0.079238 0.977701  0.000000 0.000000 0
0  0.029179 -7.624652 0.070445  0.194477 -0.079238 0.977701  0.000000 0.000000 0
c_invasion_wrangler_laser
0  -0.053916 -7.624652 0.053916  -0.553824 -0.079237 0.828855  0.000000 0.000000 0
0  0.000000 -8.565478 0.000000  -0.553824 -0.079237 0.828855  0.000000 0.000000 0
0  -0.029179 -7.624652 0.070445  -0.553824 -0.079237 0.828855  0.000000 0.000000 0
c_invasion_wrangler_laser
0  0.157336 4.008895 0.407955  0.999934 0.000000 0.011487  0.000000 0.000000 0
0  0.145676 4.665833 1.422892  0.999934 0.000000 0.011487  0.000000 0.000000 0
0  0.145676 4.525712 1.422892  0.999934 0.000000 0.011487  0.000000 0.000000 0
c_invasion_wrangler_laser
0  0.419961 4.008895 0.000000  -0.543245 0.838551 -0.041452  0.000000 0.000000 0
0  0.407955 4.008895 0.157336  -0.543245 0.838551 -0.041452  0.000000 0.000000 0
0  1.422891 4.665833 0.145677  -0.543245 0.838551 -0.041452  0.000000 0.000000 0
c_invasion_wrangler_laser
0  0.114462 -7.533190 0.198080  0.539905 -0.235806 0.808021  0.000000 0.000000 0
0  0.000000 -8.474016 0.000000  0.539905 -0.235806 0.808021  0.000000 0.000000 0
0  0.139199 -7.533190 0.181551  0.539905 -0.235806 0.808021  0.000000 0.000000 0
c_invasion_wrangler_laser
0  0.343793 3.512153 0.343793  0.831470 0.000000 0.555570  0.000000 0.000000 0
0  0.400165 2.700234 0.259426  0.831470 0.000000 0.555570  0.000000 0.000000 0
0  0.400165 3.784914 0.259426  0.831470 0.000000 0.555570  0.000000 0.000000 0
c_invasion_wrangler_laser
0  0.070445 -7.624652 0.029179  0.977701 -0.079237 0.194480  0.000000 0.000000 0
0  0.000000 -8.565478 0.000000  0.977701 -0.079237 0.194480  0.000000 0.000000 0
0  0.076249 -7.624652 0.000000  0.977701 -0.079237 0.194480  0.000000 0.000000 0
c_invasion_wrangler_laser
0  0.371484 0.525357 0.371484  0.831340 0.017657 0.555484  0.000000 0.000000 0
0  0.485367 0.525357 0.201046  0.831340 0.017657 0.555484  0.000000 0.000000 0
0  0.400165 2.700234 0.259426  0.831340 0.017657 0.555484  0.000000 0.000000 0
c_invasion_wrangler_laser
0  0.201046 0.525357 0.485367  0.416863 0.024406 0.908642  0.000000 0.000000 0
0  0.259426 2.700234 0.400165  0.416863 0.024406 0.908642  0.000000 0.000000 0
0  0.000000 0.747708 0.571630  0.416863 0.024406 0.908642  0.000000 0.000000 0
c_invasion_wrangler_laser
0  0.485367 0.525357 0.201046  0.960973 -0.199983 0.191150  0.000000 0.000000 0
0  0.525357 0.525357 0.000000  0.960973 -0.199983 0.191150  0.000000 0.000000 0
0  0.571630 0.747708 0.000000  0.960973 -0.199983 0.191150  0.000000 0.000000 0
c_invasion_wrangler_laser
0  0.371484 0.525357 0.371484  0.469313 0.012537 0.882943  0.000000 0.000000 0
0  0.343793 3.512153 0.343793  0.469313 0.012537 0.882943  0.000000 0.000000 0
0  0.259426 2.700234 0.400165  0.469313 0.012537 0.882943  0.000000 0.000000 0
c_invasion_wrangler_laser
0  0.571630 0.747708 0.000000  0.527726 -0.151138 0.835861  0.000000 0.000000 0
0  1.790317 5.002990 0.000000  0.527726 -0.151138 0.835861  0.000000 0.000000 0
0  1.422891 4.525712 0.145677  0.527726 -0.151138 0.835861  0.000000 0.000000 0
c_invasion_wrangler_laser
0  0.407955 4.008895 0.157336  0.997102 0.000000 0.076083  0.000000 0.000000 0
0  0.400165 3.784914 0.259426  0.997102 0.000000 0.076083  0.000000 0.000000 0
0  0.400165 2.700234 0.259426  0.997102 0.000000 0.076083  0.000000 0.000000 0
c_invasion_wrangler_laser
0  1.422891 4.525712 0.145677  0.167548 0.167548 0.971522  0.000000 0.000000 0
0  1.790317 5.002990 0.000000  0.167548 0.167548 0.971522  0.000000 0.000000 0
0  1.661024 5.132283 0.000000  0.167548 0.167548 0.971522  0.000000 0.000000 0
c_invasion_wrangler_laser
0  0.000000 5.002990 1.790318  0.929601 0.000000 0.368567  0.000000 0.000000 0
0  0.145676 4.525712 1.422892  0.929601 0.000000 0.368567  0.000000 0.000000 0
0  0.145676 4.665833 1.422892  0.929601 0.000000 0.368567  0.000000 0.000000 0
c_invasion_wrangler_laser
0  0.000000 4.008895 0.419961  0.787293 0.457120 -0.413776  0.000000 0.000000 0
0  0.000000 5.132283 1.661025  0.787293 0.457120 -0.413776  0.000000 0.000000 0
0  0.145676 4.665833 1.422892  0.787293 0.457120 -0.413776  0.000000 0.000000 0
c_invasion_wrangler_laser
0  0.343793 3.462647 0.343793  0.779577 0.300235 -0.549654  0.000000 0.000000 0
0  0.000000 3.725929 0.000000  0.779577 0.300235 -0.549654  0.000000 0.000000 0
0  0.259426 3.784914 0.400165  0.779577 0.300235 -0.549654  0.000000 0.000000 0
c_invasion_wrangler_laser
0  0.259426 3.784914 0.400165  0.756278 0.363627 -0.543892  0.000000 0.000000 0
0  0.000000 3.725929 0.000000  0.756278 0.363627 -0.543892  0.000000 0.000000 0
0  0.157336 4.008895 0.407955  0.756278 0.363627 -0.543892  0.000000 0.000000 0
c_invasion_wrangler_laser
0  0.419961 4.008895 0.000000  -0.558278 0.828560 -0.042600  0.000000 0.000000 0
0  0.000000 3.725929 0.000000  -0.558278 0.828560 -0.042600  0.000000 0.000000 0
0  0.407955 4.008895 0.157336  -0.558278 0.828560 -0.042600  0.000000 0.000000 0
c_invasion_wrangler_laser
0  0.157336 4.008895 0.407955  -0.042599 0.828559 -0.558278  0.000000 0.000000 0
0  0.000000 3.725929 0.000000  -0.042599 0.828559 -0.558278  0.000000 0.000000 0
0  0.000000 4.008895 0.419961  -0.042599 0.828559 -0.558278  0.000000 0.000000 0
c_invasion_wrangler_laser
0  0.407955 4.008895 0.157336  -0.543892 0.363627 0.756279  0.000000 0.000000 0
0  0.000000 3.725929 0.000000  -0.543892 0.363627 0.756279  0.000000 0.000000 0
0  0.400165 3.784914 0.259426  -0.543892 0.363627 0.756279  0.000000 0.000000 0
c_invasion_wrangler_laser
0  0.400165 3.784914 0.259426  -0.549653 0.300235 0.779577  0.000000 0.000000 0
0  0.000000 3.725929 0.000000  -0.549653 0.300235 0.779577  0.000000 0.000000 0
0  0.343793 3.462647 0.343793  -0.549653 0.300235 0.779577  0.000000 0.000000 0
c_invasion_wrangler_laser
0  0.343793 3.512153 0.343793  0.555570 0.000000 0.831470  0.000000 0.000000 0
0  0.259426 3.784914 0.400165  0.555570 0.000000 0.831470  0.000000 0.000000 0
0  0.259426 2.700234 0.400165  0.555570 0.000000 0.831470  0.000000 0.000000 0
c_invasion_wrangler_laser
0  0.419961 4.008895 0.000000  -0.413777 0.457121 0.787292  0.000000 0.000000 0
0  1.422891 4.665833 0.145677  -0.413777 0.457121 0.787292  0.000000 0.000000 0
0  1.661024 5.132283 0.000000  -0.413777 0.457121 0.787292  0.000000 0.000000 0
c_invasion_wrangler_laser
0  0.343793 3.512153 0.343793  -0.831468 0.000000 -0.555573  0.000000 0.000000 0
0  0.400165 3.784914 0.259426  -0.831468 0.000000 -0.555573  0.000000 0.000000 0
0  0.343793 3.462647 0.343793  -0.831468 0.000000 -0.555573  0.000000 0.000000 0
c_invasion_wrangler_laser
0  0.371484 0.525357 0.371484  0.882943 0.012537 0.469313  0.000000 0.000000 0
0  0.400165 2.700234 0.259426  0.882943 0.012537 0.469313  0.000000 0.000000 0
0  0.343793 3.512153 0.343793  0.882943 0.012537 0.469313  0.000000 0.000000 0
c_invasion_wrangler_laser
0  0.201046 0.525357 0.485367  0.191149 -0.199983 0.960973  0.000000 0.000000 0
0  0.000000 0.747708 0.571630  0.191149 -0.199983 0.960973  0.000000 0.000000 0
0  0.000000 0.525357 0.525357  0.191149 -0.199983 0.960973  0.000000 0.000000 0
c_invasion_wrangler_laser
0  0.485367 0.525357 0.201046  0.908641 0.024406 0.416863  0.000000 0.000000 0
0  0.571630 0.747708 0.000000  0.908641 0.024406 0.416863  0.000000 0.000000 0
0  0.400165 2.700234 0.259426  0.908641 0.024406 0.416863  0.000000 0.000000 0
c_invasion_wrangler_laser
0  0.371484 0.525357 0.371484  0.555484 0.017657 0.831340  0.000000 0.000000 0
0  0.259426 2.700234 0.400165  0.555484 0.017657 0.831340  0.000000 0.000000 0
0  0.201046 0.525357 0.485367  0.555484 0.017657 0.831340  0.000000 0.000000 0
c_invasion_wrangler_laser
0  0.157336 4.008895 0.407955  0.076083 0.000000 0.997101  0.000000 0.000000 0
0  0.259426 2.700234 0.400165  0.076083 0.000000 0.997101  0.000000 0.000000 0
0  0.259426 3.784914 0.400165  0.076083 0.000000 0.997101  0.000000 0.000000 0
c_invasion_wrangler_laser
0  1.422891 4.525712 0.145677  0.521844 0.000000 0.853041  0.000000 0.000000 0
0  1.661024 5.132283 0.000000  0.521844 0.000000 0.853041  0.000000 0.000000 0
0  1.422891 4.665833 0.145677  0.521844 0.000000 0.853041  0.000000 0.000000 0
c_invasion_wrangler_laser
0  0.000000 5.002990 1.790318  0.959812 0.198446 0.198444  0.000000 0.000000 0
0  0.145676 4.665833 1.422892  0.959812 0.198446 0.198444  0.000000 0.000000 0
0  0.000000 5.132283 1.661025  0.959812 0.198446 0.198444  0.000000 0.000000 0
c_invasion_wrangler_laser
0  0.000000 4.008895 0.419961  -0.041452 0.838551 -0.543244  0.000000 0.000000 0
0  0.145676 4.665833 1.422892  -0.041452 0.838551 -0.543244  0.000000 0.000000 0
0  0.157336 4.008895 0.407955  -0.041452 0.838551 -0.543244  0.000000 0.000000 0
c_invasion_wrangler_laser
0  0.407955 4.008895 0.157336  0.011487 0.000000 0.999934  0.000000 0.000000 0
0  1.422891 4.525712 0.145677  0.011487 0.000000 0.999934  0.000000 0.000000 0
0  1.422891 4.665833 0.145677  0.011487 0.000000 0.999934  0.000000 0.000000 0
c_invasion_wrangler_laser
0  0.000000 0.747708 0.571630  0.835862 -0.151137 0.527725  0.000000 0.000000 0
0  0.145676 4.525712 1.422892  0.835862 -0.151137 0.527725  0.000000 0.000000 0
0  0.000000 5.002990 1.790318  0.835862 -0.151137 0.527725  0.000000 0.000000 0
c_invasion_wrangler_laser
0  0.000000 0.747708 0.571630  0.952584 -0.101373 0.286891  0.000000 0.000000 0
0  0.259426 2.700234 0.400165  0.952584 -0.101373 0.286891  0.000000 0.000000 0
0  0.145676 4.525712 1.422892  0.952584 -0.101373 0.286891  0.000000 0.000000 0
c_invasion_wrangler_laser
0  0.571630 0.747708 0.000000  0.286891 -0.101373 0.952584  0.000000 0.000000 0
0  1.422891 4.525712 0.145677  0.286891 -0.101373 0.952584  0.000000 0.000000 0
0  0.400165 2.700234 0.259426  0.286891 -0.101373 0.952584  0.000000 0.000000 0
c_invasion_wrangler_laser
0  0.407955 4.008895 0.157336  -0.028226 0.077911 0.996561  0.000000 0.000000 0
0  0.400165 2.700234 0.259426  -0.028226 0.077911 0.996561  0.000000 0.000000 0
0  1.422891 4.525712 0.145677  -0.028226 0.077911 0.996561  0.000000 0.000000 0
c_invasion_wrangler_laser
0  0.145676 4.525712 1.422892  0.996561 0.077911 -0.028225  0.000000 0.000000 0
0  0.259426 2.700234 0.400165  0.996561 0.077911 -0.028225  0.000000 0.000000 0
0  0.157336 4.008895 0.407955  0.996561 0.077911 -0.028225  0.000000 0.000000 0
c_invasion_wrangler_laser
0  0.053916 -7.624652 0.053916  -0.707107 0.000000 0.707106  0.000000 0.000000 0
0  0.000000 -8.474016 0.000000  -0.707107 0.000000 0.707106  0.000000 0.000000 0
0  0.000000 -8.565478 0.000000  -0.707107 0.000000 0.707106  0.000000 0.000000 0
c_invasion_wrangler_laser
0  0.029179 -7.624652 0.070445  -0.284372 0.859073 -0.425588  0.000000 0.000000 0
0  0.139199 -7.533190 0.181551  -0.284372 0.859073 -0.425588  0.000000 0.000000 0
0  0.053916 -7.624652 0.053916  -0.284372 0.859073 -0.425588  0.000000 0.000000 0
c_invasion_wrangler_laser
0  -0.525357 0.525357 0.000000  -0.980785 0.000000 -0.195090  0.000000 0.000000 0
0  -0.485367 -0.922737 -0.201046  -0.980785 0.000000 -0.195090  0.000000 0.000000 0
0  -0.525357 -0.922737 0.000000  -0.980785 0.000000 -0.195090  0.000000 0.000000 0
c_invasion_wrangler_laser
0  -0.485367 0.525357 -0.201046  -0.831470 -0.000000 -0.555570  0.000000 0.000000 0
0  -0.371484 -0.922737 -0.371484  -0.831470 -0.000000 -0.555570  0.000000 0.000000 0
0  -0.485367 -0.922737 -0.201046  -0.831470 -0.000000 -0.555570  0.000000 0.000000 0
c_invasion_wrangler_laser
0  -0.371484 0.525357 -0.371484  -0.555570 -0.000000 -0.831470  0.000000 0.000000 0
0  -0.201046 -0.922737 -0.485367  -0.555570 -0.000000 -0.831470  0.000000 0.000000 0
0  -0.371484 -0.922737 -0.371484  -0.555570 -0.000000 -0.831470  0.000000 0.000000 0
c_invasion_wrangler_laser
0  -0.201046 0.525357 -0.485367  -0.195090 -0.000000 -0.980785  0.000000 0.000000 0
0  0.000000 -0.922737 -0.525357  -0.195090 -0.000000 -0.980785  0.000000 0.000000 0
0  -0.201046 -0.922737 -0.485367  -0.195090 -0.000000 -0.980785  0.000000 0.000000 0
c_invasion_wrangler_laser
0  -0.201046 -0.922737 -0.485367  -0.554712 -0.055561 -0.830185  0.000000 0.000000 0
0  -0.252441 -3.889977 -0.252441  -0.554712 -0.055561 -0.830185  0.000000 0.000000 0
0  -0.371484 -0.922737 -0.371484  -0.554712 -0.055561 -0.830185  0.000000 0.000000 0
c_invasion_wrangler_laser
0  -0.485367 -0.922737 -0.201046  -0.979270 -0.055561 -0.194789  0.000000 0.000000 0
0  -0.357005 -3.889977 0.000000  -0.979270 -0.055561 -0.194789  0.000000 0.000000 0
0  -0.525357 -0.922737 0.000000  -0.979270 -0.055561 -0.194789  0.000000 0.000000 0
c_invasion_wrangler_laser
0  0.000000 -0.922737 -0.525357  -0.194789 -0.055561 -0.979270  0.000000 0.000000 0
0  -0.136620 -3.889977 -0.329830  -0.194789 -0.055561 -0.979270  0.000000 0.000000 0
0  -0.201046 -0.922737 -0.485367  -0.194789 -0.055561 -0.979270  0.000000 0.000000 0
c_invasion_wrangler_laser
0  -0.371484 -0.922737 -0.371484  -0.830185 -0.055561 -0.554712  0.000000 0.000000 0
0  -0.329830 -3.889977 -0.136620  -0.830185 -0.055561 -0.554712  0.000000 0.000000 0
0  -0.485367 -0.922737 -0.201046  -0.830185 -0.055561 -0.554712  0.000000 0.000000 0
c_invasion_wrangler_laser
0  -0.329830 -3.889977 -0.136620  -0.975962 -0.099056 -0.194131  0.000000 0.000000 0
0  -0.197025 -5.466202 0.000000  -0.975962 -0.099056 -0.194131  0.000000 0.000000 0
0  -0.357005 -3.889977 0.000000  -0.975962 -0.099056 -0.194131  0.000000 0.000000 0
c_invasion_wrangler_laser
0  -0.252441 -3.889977 -0.252441  -0.827380 -0.099056 -0.552838  0.000000 0.000000 0
0  -0.182027 -5.466202 -0.075398  -0.827380 -0.099056 -0.552838  0.000000 0.000000 0
0  -0.329830 -3.889977 -0.136620  -0.827380 -0.099056 -0.552838  0.000000 0.000000 0
c_invasion_wrangler_laser
0  -0.136620 -3.889977 -0.329830  -0.552838 -0.099056 -0.827380  0.000000 0.000000 0
0  -0.139317 -5.466202 -0.139317  -0.552838 -0.099056 -0.827380  0.000000 0.000000 0
0  -0.252441 -3.889977 -0.252441  -0.552838 -0.099056 -0.827380  0.000000 0.000000 0
c_invasion_wrangler_laser
0  0.000000 -3.889977 -0.357005  -0.194131 -0.099056 -0.975962  0.000000 0.000000 0
0  -0.075398 -5.466202 -0.182027  -0.194131 -0.099056 -0.975962  0.000000 0.000000 0
0  -0.136620 -3.889977 -0.329830  -0.194131 -0.099056 -0.975962  0.000000 0.000000 0
c_invasion_wrangler_laser
0  -0.053916 -7.624652 -0.053916  -0.828857 -0.079238 -0.553821  0.000000 0.000000 0
0  0.000000 -8.565478 0.000000  -0.828857 -0.079238 -0.553821  0.000000 0.000000 0
0  -0.070445 -7.624652 -0.029179  -0.828857 -0.079238 -0.553821  0.000000 0.000000 0
c_invasion_wrangler_laser
0  -0.343793 3.512153 -0.343793  0.555568 0.000000 0.831471  0.000000 0.000000 0
0  -0.343793 3.462647 -0.343793  0.555568 0.000000 0.831471  0.000000 0.000000 0
0  -0.259426 3.784914 -0.400165  0.555568 0.000000 0.831471  0.000000 0.000000 0
c_invasion_wrangler_laser
0  -0.182027 -5.466202 -0.075398  -0.979312 -0.054797 -0.194798  0.000000 0.000000 0
0  -0.076249 -7.624652 0.000000  -0.979312 -0.054797 -0.194798  0.000000 0.000000 0
0  -0.197025 -5.466202 0.000000  -0.979312 -0.054797 -0.194798  0.000000 0.000000 0
c_invasion_wrangler_laser
0  -0.139317 -5.466202 -0.139317  -0.830220 -0.054797 -0.554736  0.000000 0.000000 0
0  -0.070445 -7.624652 -0.029179  -0.830220 -0.054797 -0.554736  0.000000 0.000000 0
0  -0.182027 -5.466202 -0.075398  -0.830220 -0.054797 -0.554736  0.000000 0.000000 0
c_invasion_wrangler_laser
0  -0.075398 -5.466202 -0.182027  -0.554736 -0.054797 -0.830220  0.000000 0.000000 0
0  -0.053916 -7.624652 -0.053916  -0.554736 -0.054797 -0.830220  0.000000 0.000000 0
0  -0.139317 -5.466202 -0.139317  -0.554736 -0.054797 -0.830220  0.000000 0.000000 0
c_invasion_wrangler_laser
0  0.000000 -5.466202 -0.197025  -0.194797 -0.054797 -0.979312  0.000000 0.000000 0
0  -0.029179 -7.624652 -0.070445  -0.194797 -0.054797 -0.979312  0.000000 0.000000 0
0  -0.075398 -5.466202 -0.182027  -0.194797 -0.054797 -0.979312  0.000000 0.000000 0
c_invasion_wrangler_laser
0  0.000000 -8.565478 0.000000  0.825821 -0.016594 -0.563688  0.000000 0.000000 0
0  -0.114462 -7.533190 -0.198080  0.825821 -0.016594 -0.563688  0.000000 0.000000 0
0  -0.029179 -7.624652 -0.070445  0.825821 -0.016594 -0.563688  0.000000 0.000000 0
c_invasion_wrangler_laser
0  0.029179 -7.624652 -0.070445  0.194477 -0.079237 -0.977701  0.000000 0.000000 0
0  0.000000 -8.565478 0.000000  0.194477 -0.079237 -0.977701  0.000000 0.000000 0
0  0.000000 -7.624652 -0.076249  0.194477 -0.079237 -0.977701  0.000000 0.000000 0
c_invasion_wrangler_laser
0  0.000000 -7.624652 -0.076249  -0.194477 -0.079238 -0.977701  0.000000 0.000000 0
0  0.000000 -8.565478 0.000000  -0.194477 -0.079238 -0.977701  0.000000 0.000000 0
0  -0.029179 -7.624652 -0.070445  -0.194477 -0.079238 -0.977701  0.000000 0.000000 0
c_invasion_wrangler_laser
0  0.053916 -7.624652 -0.053916  0.553824 -0.079237 -0.828855  0.000000 0.000000 0
0  0.000000 -8.565478 0.000000  0.553824 -0.079237 -0.828855  0.000000 0.000000 0
0  0.029179 -7.624652 -0.070445  0.553824 -0.079237 -0.828855  0.000000 0.000000 0
c_invasion_wrangler_laser
0  -0.157336 4.008895 -0.407955  -0.999934 0.000000 -0.011487  0.000000 0.000000 0
0  -0.145676 4.665833 -1.422892  -0.999934 0.000000 -0.011487  0.000000 0.000000 0
0  -0.145676 4.525712 -1.422892  -0.999934 0.000000 -0.011487  0.000000 0.000000 0
c_invasion_wrangler_laser
0  -0.419961 4.008895 0.000000  0.543245 0.838551 0.041452  0.000000 0.000000 0
0  -0.407955 4.008895 -0.157336  0.543245 0.838551 0.041452  0.000000 0.000000 0
0  -1.422891 4.665833 -0.145677  0.543245 0.838551 0.041452  0.000000 0.000000 0
c_invasion_wrangler_laser
0  -0.114462 -7.533190 -0.198080  -0.539905 -0.235806 -0.808021  0.000000 0.000000 0
0  0.000000 -8.474016 0.000000  -0.539905 -0.235806 -0.808021  0.000000 0.000000 0
0  -0.139199 -7.533190 -0.181551  -0.539905 -0.235806 -0.808021  0.000000 0.000000 0
c_invasion_wrangler_laser
0  -0.343793 3.512153 -0.343793  -0.831470 0.000000 -0.555570  0.000000 0.000000 0
0  -0.400165 2.700234 -0.259426  -0.831470 0.000000 -0.555570  0.000000 0.000000 0
0  -0.400165 3.784914 -0.259426  -0.831470 0.000000 -0.555570  0.000000 0.000000 0
c_invasion_wrangler_laser
0  -0.070445 -7.624652 -0.029179  -0.977701 -0.079237 -0.194480  0.000000 0.000000 0
0  0.000000 -8.565478 0.000000  -0.977701 -0.079237 -0.194480  0.000000 0.000000 0
0  -0.076249 -7.624652 0.000000  -0.977701 -0.079237 -0.194480  0.000000 0.000000 0
c_invasion_wrangler_laser
0  -0.371484 0.525357 -0.371484  -0.831340 0.017657 -0.555484  0.000000 0.000000 0
0  -0.485367 0.525357 -0.201046  -0.831340 0.017657 -0.555484  0.000000 0.000000 0
0  -0.400165 2.700234 -0.259426  -0.831340 0.017657 -0.555484  0.000000 0.000000 0
c_invasion_wrangler_laser
0  -0.201046 0.525357 -0.485367  -0.416863 0.024406 -0.908642  0.000000 0.000000 0
0  -0.259426 2.700234 -0.400165  -0.416863 0.024406 -0.908642  0.000000 0.000000 0
0  0.000000 0.747708 -0.571630  -0.416863 0.024406 -0.908642  0.000000 0.000000 0
c_invasion_wrangler_laser
0  -0.485367 0.525357 -0.201046  -0.960973 -0.199983 -0.191150  0.000000 0.000000 0
0  -0.525357 0.525357 0.000000  -0.960973 -0.199983 -0.191150  0.000000 0.000000 0
0  -0.571630 0.747708 0.000000  -0.960973 -0.199983 -0.191150  0.000000 0.000000 0
c_invasion_wrangler_laser
0  -0.371484 0.525357 -0.371484  -0.469313 0.012537 -0.882943  0.000000 0.000000 0
0  -0.343793 3.512153 -0.343793  -0.469313 0.012537 -0.882943  0.000000 0.000000 0
0  -0.259426 2.700234 -0.400165  -0.469313 0.012537 -0.882943  0.000000 0.000000 0
c_invasion_wrangler_laser
0  -0.571630 0.747708 0.000000  -0.527726 -0.151138 -0.835861  0.000000 0.000000 0
0  -1.790317 5.002990 0.000000  -0.527726 -0.151138 -0.835861  0.000000 0.000000 0
0  -1.422891 4.525712 -0.145677  -0.527726 -0.151138 -0.835861  0.000000 0.000000 0
c_invasion_wrangler_laser
0  -0.407955 4.008895 -0.157336  -0.997102 0.000000 -0.076083  0.000000 0.000000 0
0  -0.400165 3.784914 -0.259426  -0.997102 0.000000 -0.076083  0.000000 0.000000 0
0  -0.400165 2.700234 -0.259426  -0.997102 0.000000 -0.076083  0.000000 0.000000 0
c_invasion_wrangler_laser
0  -1.422891 4.525712 -0.145677  -0.167548 0.167548 -0.971522  0.000000 0.000000 0
0  -1.790317 5.002990 0.000000  -0.167548 0.167548 -0.971522  0.000000 0.000000 0
0  -1.661024 5.132283 0.000000  -0.167548 0.167548 -0.971522  0.000000 0.000000 0
c_invasion_wrangler_laser
0  0.000000 5.002990 -1.790318  -0.929601 0.000000 -0.368567  0.000000 0.000000 0
0  -0.145676 4.525712 -1.422892  -0.929601 0.000000 -0.368567  0.000000 0.000000 0
0  -0.145676 4.665833 -1.422892  -0.929601 0.000000 -0.368567  0.000000 0.000000 0
c_invasion_wrangler_laser
0  0.000000 4.008895 -0.419961  -0.787293 0.457120 0.413776  0.000000 0.000000 0
0  0.000000 5.132283 -1.661025  -0.787293 0.457120 0.413776  0.000000 0.000000 0
0  -0.145676 4.665833 -1.422892  -0.787293 0.457120 0.413776  0.000000 0.000000 0
c_invasion_wrangler_laser
0  -0.343793 3.462647 -0.343793  -0.779577 0.300235 0.549654  0.000000 0.000000 0
0  0.000000 3.725929 0.000000  -0.779577 0.300235 0.549654  0.000000 0.000000 0
0  -0.259426 3.784914 -0.400165  -0.779577 0.300235 0.549654  0.000000 0.000000 0
c_invasion_wrangler_laser
0  -0.259426 3.784914 -0.400165  -0.756278 0.363627 0.543892  0.000000 0.000000 0
0  0.000000 3.725929 0.000000  -0.756278 0.363627 0.543892  0.000000 0.000000 0
0  -0.157336 4.008895 -0.407955  -0.756278 0.363627 0.543892  0.000000 0.000000 0
c_invasion_wrangler_laser
0  -0.419961 4.008895 0.000000  0.558278 0.828560 0.042600  0.000000 0.000000 0
0  0.000000 3.725929 0.000000  0.558278 0.828560 0.042600  0.000000 0.000000 0
0  -0.407955 4.008895 -0.157336  0.558278 0.828560 0.042600  0.000000 0.000000 0
c_invasion_wrangler_laser
0  -0.157336 4.008895 -0.407955  0.042599 0.828559 0.558278  0.000000 0.000000 0
0  0.000000 3.725929 0.000000  0.042599 0.828559 0.558278  0.000000 0.000000 0
0  0.000000 4.008895 -0.419961  0.042599 0.828559 0.558278  0.000000 0.000000 0
c_invasion_wrangler_laser
0  -0.407955 4.008895 -0.157336  0.543892 0.363627 -0.756279  0.000000 0.000000 0
0  0.000000 3.725929 0.000000  0.543892 0.363627 -0.756279  0.000000 0.000000 0
0  -0.400165 3.784914 -0.259426  0.543892 0.363627 -0.756279  0.000000 0.000000 0
c_invasion_wrangler_laser
0  -0.400165 3.784914 -0.259426  0.549653 0.300235 -0.779577  0.000000 0.000000 0
0  0.000000 3.725929 0.000000  0.549653 0.300235 -0.779577  0.000000 0.000000 0
0  -0.343793 3.462647 -0.343793  0.549653 0.300235 -0.779577  0.000000 0.000000 0
c_invasion_wrangler_laser
0  -0.343793 3.512153 -0.343793  -0.555570 0.000000 -0.831470  0.000000 0.000000 0
0  -0.259426 3.784914 -0.400165  -0.555570 0.000000 -0.831470  0.000000 0.000000 0
0  -0.259426 2.700234 -0.400165  -0.555570 0.000000 -0.831470  0.000000 0.000000 0
c_invasion_wrangler_laser
0  -0.419961 4.008895 0.000000  0.413777 0.457121 -0.787292  0.000000 0.000000 0
0  -1.422891 4.665833 -0.145677  0.413777 0.457121 -0.787292  0.000000 0.000000 0
0  -1.661024 5.132283 0.000000  0.413777 0.457121 -0.787292  0.000000 0.000000 0
c_invasion_wrangler_laser
0  -0.343793 3.512153 -0.343793  0.831468 0.000000 0.555573  0.000000 0.000000 0
0  -0.400165 3.784914 -0.259426  0.831468 0.000000 0.555573  0.000000 0.000000 0
0  -0.343793 3.462647 -0.343793  0.831468 0.000000 0.555573  0.000000 0.000000 0
c_invasion_wrangler_laser
0  -0.371484 0.525357 -0.371484  -0.882943 0.012537 -0.469313  0.000000 0.000000 0
0  -0.400165 2.700234 -0.259426  -0.882943 0.012537 -0.469313  0.000000 0.000000 0
0  -0.343793 3.512153 -0.343793  -0.882943 0.012537 -0.469313  0.000000 0.000000 0
c_invasion_wrangler_laser
0  -0.201046 0.525357 -0.485367  -0.191149 -0.199983 -0.960973  0.000000 0.000000 0
0  0.000000 0.747708 -0.571630  -0.191149 -0.199983 -0.960973  0.000000 0.000000 0
0  0.000000 0.525357 -0.525357  -0.191149 -0.199983 -0.960973  0.000000 0.000000 0
c_invasion_wrangler_laser
0  -0.485367 0.525357 -0.201046  -0.908641 0.024406 -0.416863  0.000000 0.000000 0
0  -0.571630 0.747708 0.000000  -0.908641 0.024406 -0.416863  0.000000 0.000000 0
0  -0.400165 2.700234 -0.259426  -0.908641 0.024406 -0.416863  0.000000 0.000000 0
c_invasion_wrangler_laser
0  -0.371484 0.525357 -0.371484  -0.555484 0.017657 -0.831340  0.000000 0.000000 0
0  -0.259426 2.700234 -0.400165  -0.555484 0.017657 -0.831340  0.000000 0.000000 0
0  -0.201046 0.525357 -0.485367  -0.555484 0.017657 -0.831340  0.000000 0.000000 0
c_invasion_wrangler_laser
0  -0.157336 4.008895 -0.407955  -0.076083 0.000000 -0.997101  0.000000 0.000000 0
0  -0.259426 2.700234 -0.400165  -0.076083 0.000000 -0.997101  0.000000 0.000000 0
0  -0.259426 3.784914 -0.400165  -0.076083 0.000000 -0.997101  0.000000 0.000000 0
c_invasion_wrangler_laser
0  -1.422891 4.525712 -0.145677  -0.521844 0.000000 -0.853041  0.000000 0.000000 0
0  -1.661024 5.132283 0.000000  -0.521844 0.000000 -0.853041  0.000000 0.000000 0
0  -1.422891 4.665833 -0.145677  -0.521844 0.000000 -0.853041  0.000000 0.000000 0
c_invasion_wrangler_laser
0  0.000000 5.002990 -1.790318  -0.959812 0.198446 -0.198444  0.000000 0.000000 0
0  -0.145676 4.665833 -1.422892  -0.959812 0.198446 -0.198444  0.000000 0.000000 0
0  0.000000 5.132283 -1.661025  -0.959812 0.198446 -0.198444  0.000000 0.000000 0
c_invasion_wrangler_laser
0  0.000000 4.008895 -0.419961  0.041452 0.838551 0.543244  0.000000 0.000000 0
0  -0.145676 4.665833 -1.422892  0.041452 0.838551 0.543244  0.000000 0.000000 0
0  -0.157336 4.008895 -0.407955  0.041452 0.838551 0.543244  0.000000 0.000000 0
c_invasion_wrangler_laser
0  -0.407955 4.008895 -0.157336  -0.011487 0.000000 -0.999934  0.000000 0.000000 0
0  -1.422891 4.525712 -0.145677  -0.011487 0.000000 -0.999934  0.000000 0.000000 0
0  -1.422891 4.665833 -0.145677  -0.011487 0.000000 -0.999934  0.000000 0.000000 0
c_invasion_wrangler_laser
0  0.000000 0.747708 -0.571630  -0.835862 -0.151137 -0.527725  0.000000 0.000000 0
0  -0.145676 4.525712 -1.422892  -0.835862 -0.151137 -0.527725  0.000000 0.000000 0
0  0.000000 5.002990 -1.790318  -0.835862 -0.151137 -0.527725  0.000000 0.000000 0
c_invasion_wrangler_laser
0  0.000000 0.747708 -0.571630  -0.952584 -0.101373 -0.286891  0.000000 0.000000 0
0  -0.259426 2.700234 -0.400165  -0.952584 -0.101373 -0.286891  0.000000 0.000000 0
0  -0.145676 4.525712 -1.422892  -0.952584 -0.101373 -0.286891  0.000000 0.000000 0
c_invasion_wrangler_laser
0  -0.571630 0.747708 0.000000  -0.286891 -0.101373 -0.952584  0.000000 0.000000 0
0  -1.422891 4.525712 -0.145677  -0.286891 -0.101373 -0.952584  0.000000 0.000000 0
0  -0.400165 2.700234 -0.259426  -0.286891 -0.101373 -0.952584  0.000000 0.000000 0
c_invasion_wrangler_laser
0  -0.407955 4.008895 -0.157336  0.028226 0.077911 -0.996561  0.000000 0.000000 0
0  -0.400165 2.700234 -0.259426  0.028226 0.077911 -0.996561  0.000000 0.000000 0
0  -1.422891 4.525712 -0.145677  0.028226 0.077911 -0.996561  0.000000 0.000000 0
c_invasion_wrangler_laser
0  -0.145676 4.525712 -1.422892  -0.996561 0.077911 0.028225  0.000000 0.000000 0
0  -0.259426 2.700234 -0.400165  -0.996561 0.077911 0.028225  0.000000 0.000000 0
0  -0.157336 4.008895 -0.407955  -0.996561 0.077911 0.028225  0.000000 0.000000 0
c_invasion_wrangler_laser
0  -0.053916 -7.624652 -0.053916  0.707107 0.000000 -0.707106  0.000000 0.000000 0
0  0.000000 -8.474016 0.000000  0.707107 0.000000 -0.707106  0.000000 0.000000 0
0  0.000000 -8.565478 0.000000  0.707107 0.000000 -0.707106  0.000000 0.000000 0
c_invasion_wrangler_laser
0  -0.029179 -7.624652 -0.070445  0.284372 0.859073 0.425588  0.000000 0.000000 0
0  -0.139199 -7.533190 -0.181551  0.284372 0.859073 0.425588  0.000000 0.000000 0
0  -0.053916 -7.624652 -0.053916  0.284372 0.859073 0.425588  0.000000 0.000000 0
c_invasion_wrangler_laser
0  0.525357 0.525357 0.000000  0.980785 -0.000000 -0.195090  0.000000 0.000000 0
0  0.485367 -0.922737 -0.201046  0.980785 -0.000000 -0.195090  0.000000 0.000000 0
0  0.485367 0.525357 -0.201046  0.980785 -0.000000 -0.195090  0.000000 0.000000 0
c_invasion_wrangler_laser
0  0.485367 0.525357 -0.201046  0.831470 -0.000000 -0.555570  0.000000 0.000000 0
0  0.371484 -0.922737 -0.371484  0.831470 -0.000000 -0.555570  0.000000 0.000000 0
0  0.371484 0.525357 -0.371484  0.831470 -0.000000 -0.555570  0.000000 0.000000 0
c_invasion_wrangler_laser
0  0.371484 0.525357 -0.371484  0.555570 -0.000000 -0.831470  0.000000 0.000000 0
0  0.201046 -0.922737 -0.485367  0.555570 -0.000000 -0.831470  0.000000 0.000000 0
0  0.201046 0.525357 -0.485367  0.555570 -0.000000 -0.831470  0.000000 0.000000 0
c_invasion_wrangler_laser
0  0.201046 0.525357 -0.485367  0.195091 -0.000000 -0.980785  0.000000 0.000000 0
0  0.000000 -0.922737 -0.525357  0.195091 -0.000000 -0.980785  0.000000 0.000000 0
0  0.000000 0.525357 -0.525357  0.195091 -0.000000 -0.980785  0.000000 0.000000 0
c_invasion_wrangler_laser
0  0.201046 -0.922737 -0.485367  0.554712 -0.055561 -0.830185  0.000000 0.000000 0
0  0.252441 -3.889977 -0.252441  0.554712 -0.055561 -0.830185  0.000000 0.000000 0
0  0.136620 -3.889977 -0.329830  0.554712 -0.055561 -0.830185  0.000000 0.000000 0
c_invasion_wrangler_laser
0  0.485367 -0.922737 -0.201046  0.979270 -0.055561 -0.194789  0.000000 0.000000 0
0  0.357005 -3.889977 0.000000  0.979270 -0.055561 -0.194789  0.000000 0.000000 0
0  0.329830 -3.889977 -0.136620  0.979270 -0.055561 -0.194789  0.000000 0.000000 0
c_invasion_wrangler_laser
0  0.000000 -0.922737 -0.525357  0.194789 -0.055561 -0.979270  0.000000 0.000000 0
0  0.136620 -3.889977 -0.329830  0.194789 -0.055561 -0.979270  0.000000 0.000000 0
0  0.000000 -3.889977 -0.357005  0.194789 -0.055561 -0.979270  0.000000 0.000000 0
c_invasion_wrangler_laser
0  0.371484 -0.922737 -0.371484  0.830185 -0.055561 -0.554712  0.000000 0.000000 0
0  0.329830 -3.889977 -0.136620  0.830185 -0.055561 -0.554712  0.000000 0.000000 0
0  0.252441 -3.889977 -0.252441  0.830185 -0.055561 -0.554712  0.000000 0.000000 0
c_invasion_wrangler_laser
0  0.329830 -3.889977 -0.136620  0.975962 -0.099056 -0.194131  0.000000 0.000000 0
0  0.197025 -5.466202 0.000000  0.975962 -0.099056 -0.194131  0.000000 0.000000 0
0  0.182027 -5.466202 -0.075398  0.975962 -0.099056 -0.194131  0.000000 0.000000 0
c_invasion_wrangler_laser
0  0.252441 -3.889977 -0.252441  0.827380 -0.099056 -0.552838  0.000000 0.000000 0
0  0.182027 -5.466202 -0.075398  0.827380 -0.099056 -0.552838  0.000000 0.000000 0
0  0.139317 -5.466202 -0.139317  0.827380 -0.099056 -0.552838  0.000000 0.000000 0
c_invasion_wrangler_laser
0  0.136620 -3.889977 -0.329830  0.552838 -0.099056 -0.827380  0.000000 0.000000 0
0  0.139317 -5.466202 -0.139317  0.552838 -0.099056 -0.827380  0.000000 0.000000 0
0  0.075398 -5.466202 -0.182027  0.552838 -0.099056 -0.827380  0.000000 0.000000 0
c_invasion_wrangler_laser
0  0.000000 -3.889977 -0.357005  0.194131 -0.099056 -0.975962  0.000000 0.000000 0
0  0.075398 -5.466202 -0.182027  0.194131 -0.099056 -0.975962  0.000000 0.000000 0
0  0.000000 -5.466202 -0.197025  0.194131 -0.099056 -0.975962  0.000000 0.000000 0
c_invasion_wrangler_laser
0  0.053916 -7.624652 -0.053916  0.828857 -0.079238 -0.553821  0.000000 0.000000 0
0  0.070445 -7.624652 -0.029179  0.828857 -0.079238 -0.553821  0.000000 0.000000 0
0  0.000000 -8.565478 0.000000  0.828857 -0.079238 -0.553821  0.000000 0.000000 0
c_invasion_wrangler_laser
0  0.343793 3.512153 -0.343793  -0.555568 0.000000 0.831471  0.000000 0.000000 0
0  0.259426 3.784914 -0.400165  -0.555568 0.000000 0.831471  0.000000 0.000000 0
0  0.343793 3.462647 -0.343793  -0.555568 0.000000 0.831471  0.000000 0.000000 0
c_invasion_wrangler_laser
0  0.182027 -5.466202 -0.075398  0.979312 -0.054797 -0.194797  0.000000 0.000000 0
0  0.076249 -7.624652 0.000000  0.979312 -0.054797 -0.194797  0.000000 0.000000 0
0  0.070445 -7.624652 -0.029179  0.979312 -0.054797 -0.194797  0.000000 0.000000 0
c_invasion_wrangler_laser
0  0.139317 -5.466202 -0.139317  0.830220 -0.054797 -0.554736  0.000000 0.000000 0
0  0.070445 -7.624652 -0.029179  0.830220 -0.054797 -0.554736  0.000000 0.000000 0
0  0.053916 -7.624652 -0.053916  0.830220 -0.054797 -0.554736  0.000000 0.000000 0
c_invasion_wrangler_laser
0  0.075398 -5.466202 -0.182027  0.554735 -0.054797 -0.830220  0.000000 0.000000 0
0  0.053916 -7.624652 -0.053916  0.554735 -0.054797 -0.830220  0.000000 0.000000 0
0  0.029179 -7.624652 -0.070445  0.554735 -0.054797 -0.830220  0.000000 0.000000 0
c_invasion_wrangler_laser
0  0.000000 -5.466202 -0.197025  0.194796 -0.054797 -0.979312  0.000000 0.000000 0
0  0.029179 -7.624652 -0.070445  0.194796 -0.054797 -0.979312  0.000000 0.000000 0
0  0.000000 -7.624652 -0.076249  0.194796 -0.054797 -0.979312  0.000000 0.000000 0
c_invasion_wrangler_laser
0  0.000000 -8.565478 0.000000  0.865832 0.000000 0.500334  0.000000 0.000000 0
0  0.114462 -7.533190 -0.198080  0.865832 0.000000 0.500334  0.000000 0.000000 0
0  0.000000 -8.474016 0.000000  0.865832 0.000000 0.500334  0.000000 0.000000 0
c_invasion_wrangler_laser
0  -0.029179 -7.624652 -0.070445  -0.194477 -0.079237 -0.977701  0.000000 0.000000 0
0  0.000000 -7.624652 -0.076249  -0.194477 -0.079237 -0.977701  0.000000 0.000000 0
0  0.000000 -8.565478 0.000000  -0.194477 -0.079237 -0.977701  0.000000 0.000000 0
c_invasion_wrangler_laser
0  0.000000 -7.624652 -0.076249  0.194477 -0.079238 -0.977701  0.000000 0.000000 0
0  0.029179 -7.624652 -0.070445  0.194477 -0.079238 -0.977701  0.000000 0.000000 0
0  0.000000 -8.565478 0.000000  0.194477 -0.079238 -0.977701  0.000000 0.000000 0
c_invasion_wrangler_laser
0  -0.053916 -7.624652 -0.053916  -0.553824 -0.079237 -0.828855  0.000000 0.000000 0
0  -0.029179 -7.624652 -0.070445  -0.553824 -0.079237 -0.828855  0.000000 0.000000 0
0  0.000000 -8.565478 0.000000  -0.553824 -0.079237 -0.828855  0.000000 0.000000 0
c_invasion_wrangler_laser
0  0.157336 4.008895 -0.407955  0.999934 0.000000 -0.011487  0.000000 0.000000 0
0  0.145676 4.525712 -1.422892  0.999934 0.000000 -0.011487  0.000000 0.000000 0
0  0.145676 4.665833 -1.422892  0.999934 0.000000 -0.011487  0.000000 0.000000 0
c_invasion_wrangler_laser
0  0.419961 4.008895 0.000000  -0.543245 0.838551 0.041452  0.000000 0.000000 0
0  1.422891 4.665833 -0.145677  -0.543245 0.838551 0.041452  0.000000 0.000000 0
0  0.407955 4.008895 -0.157336  -0.543245 0.838551 0.041452  0.000000 0.000000 0
c_invasion_wrangler_laser
0  0.114462 -7.533190 -0.198080  0.539905 -0.235806 -0.808021  0.000000 0.000000 0
0  0.139199 -7.533190 -0.181551  0.539905 -0.235806 -0.808021  0.000000 0.000000 0
0  0.000000 -8.474016 0.000000  0.539905 -0.235806 -0.808021  0.000000 0.000000 0
c_invasion_wrangler_laser
0  0.343793 3.512153 -0.343793  0.831470 0.000000 -0.555570  0.000000 0.000000 0
0  0.400165 3.784914 -0.259426  0.831470 0.000000 -0.555570  0.000000 0.000000 0
0  0.400165 2.700234 -0.259426  0.831470 0.000000 -0.555570  0.000000 0.000000 0
c_invasion_wrangler_laser
0  0.070445 -7.624652 -0.029179  0.977701 -0.079237 -0.194480  0.000000 0.000000 0
0  0.076249 -7.624652 0.000000  0.977701 -0.079237 -0.194480  0.000000 0.000000 0
0  0.000000 -8.565478 0.000000  0.977701 -0.079237 -0.194480  0.000000 0.000000 0
c_invasion_wrangler_laser
0  0.371484 0.525357 -0.371484  0.831340 0.017657 -0.555484  0.000000 0.000000 0
0  0.400165 2.700234 -0.259426  0.831340 0.017657 -0.555484  0.000000 0.000000 0
0  0.485367 0.525357 -0.201046  0.831340 0.017657 -0.555484  0.000000 0.000000 0
c_invasion_wrangler_laser
0  0.201046 0.525357 -0.485367  0.416863 0.024406 -0.908642  0.000000 0.000000 0
0  0.000000 0.747708 -0.571630  0.416863 0.024406 -0.908642  0.000000 0.000000 0
0  0.259426 2.700234 -0.400165  0.416863 0.024406 -0.908642  0.000000 0.000000 0
c_invasion_wrangler_laser
0  0.485367 0.525357 -0.201046  0.960973 -0.199983 -0.191150  0.000000 0.000000 0
0  0.571630 0.747708 0.000000  0.960973 -0.199983 -0.191150  0.000000 0.000000 0
0  0.525357 0.525357 0.000000  0.960973 -0.199983 -0.191150  0.000000 0.000000 0
c_invasion_wrangler_laser
0  0.371484 0.525357 -0.371484  0.469313 0.012537 -0.882943  0.000000 0.000000 0
0  0.259426 2.700234 -0.400165  0.469313 0.012537 -0.882943  0.000000 0.000000 0
0  0.343793 3.512153 -0.343793  0.469313 0.012537 -0.882943  0.000000 0.000000 0
c_invasion_wrangler_laser
0  0.571630 0.747708 0.000000  0.527726 -0.151138 -0.835861  0.000000 0.000000 0
0  1.422891 4.525712 -0.145677  0.527726 -0.151138 -0.835861  0.000000 0.000000 0
0  1.790317 5.002990 0.000000  0.527726 -0.151138 -0.835861  0.000000 0.000000 0
c_invasion_wrangler_laser
0  0.407955 4.008895 -0.157336  0.997102 0.000000 -0.076083  0.000000 0.000000 0
0  0.400165 2.700234 -0.259426  0.997102 0.000000 -0.076083  0.000000 0.000000 0
0  0.400165 3.784914 -0.259426  0.997102 0.000000 -0.076083  0.000000 0.000000 0
c_invasion_wrangler_laser
0  1.422891 4.525712 -0.145677  0.167548 0.167548 -0.971522  0.000000 0.000000 0
0  1.661024 5.132283 0.000000  0.167548 0.167548 -0.971522  0.000000 0.000000 0
0  1.790317 5.002990 0.000000  0.167548 0.167548 -0.971522  0.000000 0.000000 0
c_invasion_wrangler_laser
0  0.000000 5.002990 -1.790318  0.929601 0.000000 -0.368567  0.000000 0.000000 0
0  0.145676 4.665833 -1.422892  0.929601 0.000000 -0.368567  0.000000 0.000000 0
0  0.145676 4.525712 -1.422892  0.929601 0.000000 -0.368567  0.000000 0.000000 0
c_invasion_wrangler_laser
0  0.000000 4.008895 -0.419961  0.787293 0.457120 0.413776  0.000000 0.000000 0
0  0.145676 4.665833 -1.422892  0.787293 0.457120 0.413776  0.000000 0.000000 0
0  0.000000 5.132283 -1.661025  0.787293 0.457120 0.413776  0.000000 0.000000 0
c_invasion_wrangler_laser
0  0.343793 3.462647 -0.343793  0.779577 0.300235 0.549654  0.000000 0.000000 0
0  0.259426 3.784914 -0.400165  0.779577 0.300235 0.549654  0.000000 0.000000 0
0  0.000000 3.725929 0.000000  0.779577 0.300235 0.549654  0.000000 0.000000 0
c_invasion_wrangler_laser
0  0.259426 3.784914 -0.400165  0.756278 0.363627 0.543892  0.000000 0.000000 0
0  0.157336 4.008895 -0.407955  0.756278 0.363627 0.543892  0.000000 0.000000 0
0  0.000000 3.725929 0.000000  0.756278 0.363627 0.543892  0.000000 0.000000 0
c_invasion_wrangler_laser
0  0.419961 4.008895 0.000000  -0.558278 0.828560 0.042600  0.000000 0.000000 0
0  0.407955 4.008895 -0.157336  -0.558278 0.828560 0.042600  0.000000 0.000000 0
0  0.000000 3.725929 0.000000  -0.558278 0.828560 0.042600  0.000000 0.000000 0
c_invasion_wrangler_laser
0  0.157336 4.008895 -0.407955  -0.042599 0.828559 0.558278  0.000000 0.000000 0
0  0.000000 4.008895 -0.419961  -0.042599 0.828559 0.558278  0.000000 0.000000 0
0  0.000000 3.725929 0.000000  -0.042599 0.828559 0.558278  0.000000 0.000000 0
c_invasion_wrangler_laser
0  0.407955 4.008895 -0.157336  -0.543892 0.363627 -0.756279  0.000000 0.000000 0
0  0.400165 3.784914 -0.259426  -0.543892 0.363627 -0.756279  0.000000 0.000000 0
0  0.000000 3.725929 0.000000  -0.543892 0.363627 -0.756279  0.000000 0.000000 0
c_invasion_wrangler_laser
0  0.400165 3.784914 -0.259426  -0.549653 0.300235 -0.779577  0.000000 0.000000 0
0  0.343793 3.462647 -0.343793  -0.549653 0.300235 -0.779577  0.000000 0.000000 0
0  0.000000 3.725929 0.000000  -0.549653 0.300235 -0.779577  0.000000 0.000000 0
c_invasion_wrangler_laser
0  0.343793 3.512153 -0.343793  0.555570 0.000000 -0.831470  0.000000 0.000000 0
0  0.259426 2.700234 -0.400165  0.555570 0.000000 -0.831470  0.000000 0.000000 0
0  0.259426 3.784914 -0.400165  0.555570 0.000000 -0.831470  0.000000 0.000000 0
c_invasion_wrangler_laser
0  0.419961 4.008895 0.000000  -0.413777 0.457121 -0.787292  0.000000 0.000000 0
0  1.661024 5.132283 0.000000  -0.413777 0.457121 -0.787292  0.000000 0.000000 0
0  1.422891 4.665833 -0.145677  -0.413777 0.457121 -0.787292  0.000000 0.000000 0
c_invasion_wrangler_laser
0  0.343793 3.512153 -0.343793  -0.831468 0.000000 0.555573  0.000000 0.000000 0
0  0.343793 3.462647 -0.343793  -0.831468 0.000000 0.555573  0.000000 0.000000 0
0  0.400165 3.784914 -0.259426  -0.831468 0.000000 0.555573  0.000000 0.000000 0
c_invasion_wrangler_laser
0  0.371484 0.525357 -0.371484  0.882943 0.012537 -0.469313  0.000000 0.000000 0
0  0.343793 3.512153 -0.343793  0.882943 0.012537 -0.469313  0.000000 0.000000 0
0  0.400165 2.700234 -0.259426  0.882943 0.012537 -0.469313  0.000000 0.000000 0
c_invasion_wrangler_laser
0  0.201046 0.525357 -0.485367  0.191149 -0.199983 -0.960973  0.000000 0.000000 0
0  0.000000 0.525357 -0.525357  0.191149 -0.199983 -0.960973  0.000000 0.000000 0
0  0.000000 0.747708 -0.571630  0.191149 -0.199983 -0.960973  0.000000 0.000000 0
c_invasion_wrangler_laser
0  0.485367 0.525357 -0.201046  0.908641 0.024406 -0.416863  0.000000 0.000000 0
0  0.400165 2.700234 -0.259426  0.908641 0.024406 -0.416863  0.000000 0.000000 0
0  0.571630 0.747708 0.000000  0.908641 0.024406 -0.416863  0.000000 0.000000 0
c_invasion_wrangler_laser
0  0.371484 0.525357 -0.371484  0.555484 0.017657 -0.831340  0.000000 0.000000 0
0  0.201046 0.525357 -0.485367  0.555484 0.017657 -0.831340  0.000000 0.000000 0
0  0.259426 2.700234 -0.400165  0.555484 0.017657 -0.831340  0.000000 0.000000 0
c_invasion_wrangler_laser
0  0.157336 4.008895 -0.407955  0.076083 0.000000 -0.997101  0.000000 0.000000 0
0  0.259426 3.784914 -0.400165  0.076083 0.000000 -0.997101  0.000000 0.000000 0
0  0.259426 2.700234 -0.400165  0.076083 0.000000 -0.997101  0.000000 0.000000 0
c_invasion_wrangler_laser
0  1.422891 4.525712 -0.145677  0.521844 0.000000 -0.853041  0.000000 0.000000 0
0  1.422891 4.665833 -0.145677  0.521844 0.000000 -0.853041  0.000000 0.000000 0
0  1.661024 5.132283 0.000000  0.521844 0.000000 -0.853041  0.000000 0.000000 0
c_invasion_wrangler_laser
0  0.000000 5.002990 -1.790318  0.959812 0.198446 -0.198444  0.000000 0.000000 0
0  0.000000 5.132283 -1.661025  0.959812 0.198446 -0.198444  0.000000 0.000000 0
0  0.145676 4.665833 -1.422892  0.959812 0.198446 -0.198444  0.000000 0.000000 0
c_invasion_wrangler_laser
0  0.000000 4.008895 -0.419961  -0.041452 0.838551 0.543244  0.000000 0.000000 0
0  0.157336 4.008895 -0.407955  -0.041452 0.838551 0.543244  0.000000 0.000000 0
0  0.145676 4.665833 -1.422892  -0.041452 0.838551 0.543244  0.000000 0.000000 0
c_invasion_wrangler_laser
0  0.407955 4.008895 -0.157336  0.011487 0.000000 -0.999934  0.000000 0.000000 0
0  1.422891 4.665833 -0.145677  0.011487 0.000000 -0.999934  0.000000 0.000000 0
0  1.422891 4.525712 -0.145677  0.011487 0.000000 -0.999934  0.000000 0.000000 0
c_invasion_wrangler_laser
0  0.000000 0.747708 -0.571630  0.835862 -0.151137 -0.527725  0.000000 0.000000 0
0  0.000000 5.002990 -1.790318  0.835862 -0.151137 -0.527725  0.000000 0.000000 0
0  0.145676 4.525712 -1.422892  0.835862 -0.151137 -0.527725  0.000000 0.000000 0
c_invasion_wrangler_laser
0  0.000000 0.747708 -0.571630  0.952584 -0.101373 -0.286891  0.000000 0.000000 0
0  0.145676 4.525712 -1.422892  0.952584 -0.101373 -0.286891  0.000000 0.000000 0
0  0.259426 2.700234 -0.400165  0.952584 -0.101373 -0.286891  0.000000 0.000000 0
c_invasion_wrangler_laser
0  0.571630 0.747708 0.000000  0.286891 -0.101373 -0.952584  0.000000 0.000000 0
0  0.400165 2.700234 -0.259426  0.286891 -0.101373 -0.952584  0.000000 0.000000 0
0  1.422891 4.525712 -0.145677  0.286891 -0.101373 -0.952584  0.000000 0.000000 0
c_invasion_wrangler_laser
0  0.407955 4.008895 -0.157336  -0.028226 0.077911 -0.996561  0.000000 0.000000 0
0  1.422891 4.525712 -0.145677  -0.028226 0.077911 -0.996561  0.000000 0.000000 0
0  0.400165 2.700234 -0.259426  -0.028226 0.077911 -0.996561  0.000000 0.000000 0
c_invasion_wrangler_laser
0  0.145676 4.525712 -1.422892  0.996561 0.077911 0.028225  0.000000 0.000000 0
0  0.157336 4.008895 -0.407955  0.996561 0.077911 0.028225  0.000000 0.000000 0
0  0.259426 2.700234 -0.400165  0.996561 0.077911 0.028225  0.000000 0.000000 0
c_invasion_wrangler_laser
0  0.053916 -7.624652 -0.053916  0.837394 -0.018479 0.546287  0.000000 0.000000 0
0  0.000000 -8.474016 0.000000  0.837394 -0.018479 0.546287  0.000000 0.000000 0
0  0.139199 -7.533190 -0.181551  0.837394 -0.018479 0.546287  0.000000 0.000000 0
c_invasion_wrangler_laser
0  0.029179 -7.624652 -0.070445  -0.284369 0.859067 0.425602  0.000000 0.000000 0
0  0.139199 -7.533190 -0.181551  -0.284369 0.859067 0.425602  0.000000 0.000000 0
0  0.114462 -7.533190 -0.198080  -0.284369 0.859067 0.425602  0.000000 0.000000 0
c_invasion_wrangler_laser
0  -0.525357 0.525357 0.000000  -0.980785 0.000000 0.195090  0.000000 0.000000 0
0  -0.525357 -0.922737 0.000000  -0.980785 0.000000 0.195090  0.000000 0.000000 0
0  -0.485367 -0.922737 0.201046  -0.980785 0.000000 0.195090  0.000000 0.000000 0
c_invasion_wrangler_laser
0  -0.485367 0.525357 0.201046  -0.831470 -0.000000 0.555570  0.000000 0.000000 0
0  -0.485367 -0.922737 0.201046  -0.831470 -0.000000 0.555570  0.000000 0.000000 0
0  -0.371484 -0.922737 0.371484  -0.831470 -0.000000 0.555570  0.000000 0.000000 0
c_invasion_wrangler_laser
0  -0.371484 0.525357 0.371484  -0.555570 -0.000000 0.831470  0.000000 0.000000 0
0  -0.371484 -0.922737 0.371484  -0.555570 -0.000000 0.831470  0.000000 0.000000 0
0  -0.201046 -0.922737 0.485367  -0.555570 -0.000000 0.831470  0.000000 0.000000 0
c_invasion_wrangler_laser
0  -0.201046 0.525357 0.485367  -0.195090 -0.000000 0.980785  0.000000 0.000000 0
0  -0.201046 -0.922737 0.485367  -0.195090 -0.000000 0.980785  0.000000 0.000000 0
0  0.000000 -0.922737 0.525357  -0.195090 -0.000000 0.980785  0.000000 0.000000 0
c_invasion_wrangler_laser
0  -0.201046 -0.922737 0.485367  -0.554712 -0.055561 0.830185  0.000000 0.000000 0
0  -0.371484 -0.922737 0.371484  -0.554712 -0.055561 0.830185  0.000000 0.000000 0
0  -0.252441 -3.889977 0.252441  -0.554712 -0.055561 0.830185  0.000000 0.000000 0
c_invasion_wrangler_laser
0  -0.485367 -0.922737 0.201046  -0.979270 -0.055561 0.194789  0.000000 0.000000 0
0  -0.525357 -0.922737 0.000000  -0.979270 -0.055561 0.194789  0.000000 0.000000 0
0  -0.357005 -3.889977 0.000000  -0.979270 -0.055561 0.194789  0.000000 0.000000 0
c_invasion_wrangler_laser
0  0.000000 -0.922737 0.525357  -0.194789 -0.055561 0.979270  0.000000 0.000000 0
0  -0.201046 -0.922737 0.485367  -0.194789 -0.055561 0.979270  0.000000 0.000000 0
0  -0.136620 -3.889977 0.329830  -0.194789 -0.055561 0.979270  0.000000 0.000000 0
c_invasion_wrangler_laser
0  -0.371484 -0.922737 0.371484  -0.830185 -0.055561 0.554712  0.000000 0.000000 0
0  -0.485367 -0.922737 0.201046  -0.830185 -0.055561 0.554712  0.000000 0.000000 0
0  -0.329830 -3.889977 0.136620  -0.830185 -0.055561 0.554712  0.000000 0.000000 0
c_invasion_wrangler_laser
0  -0.329830 -3.889977 0.136620  -0.975962 -0.099056 0.194131  0.000000 0.000000 0
0  -0.357005 -3.889977 0.000000  -0.975962 -0.099056 0.194131  0.000000 0.000000 0
0  -0.197025 -5.466202 0.000000  -0.975962 -0.099056 0.194131  0.000000 0.000000 0
c_invasion_wrangler_laser
0  -0.252441 -3.889977 0.252441  -0.827380 -0.099056 0.552838  0.000000 0.000000 0
0  -0.329830 -3.889977 0.136620  -0.827380 -0.099056 0.552838  0.000000 0.000000 0
0  -0.182027 -5.466202 0.075398  -0.827380 -0.099056 0.552838  0.000000 0.000000 0
c_invasion_wrangler_laser
0  -0.136620 -3.889977 0.329830  -0.552838 -0.099056 0.827380  0.000000 0.000000 0
0  -0.252441 -3.889977 0.252441  -0.552838 -0.099056 0.827380  0.000000 0.000000 0
0  -0.139317 -5.466202 0.139317  -0.552838 -0.099056 0.827380  0.000000 0.000000 0
c_invasion_wrangler_laser
0  0.000000 -3.889977 0.357005  -0.194131 -0.099056 0.975962  0.000000 0.000000 0
0  -0.136620 -3.889977 0.329830  -0.194131 -0.099056 0.975962  0.000000 0.000000 0
0  -0.075398 -5.466202 0.182027  -0.194131 -0.099056 0.975962  0.000000 0.000000 0
c_invasion_wrangler_laser
0  -0.182027 -5.466202 0.075398  -0.979312 -0.054797 0.194798  0.000000 0.000000 0
0  -0.197025 -5.466202 0.000000  -0.979312 -0.054797 0.194798  0.000000 0.000000 0
0  -0.076249 -7.624652 0.000000  -0.979312 -0.054797 0.194798  0.000000 0.000000 0
c_invasion_wrangler_laser
0  -0.139317 -5.466202 0.139317  -0.830220 -0.054797 0.554736  0.000000 0.000000 0
0  -0.182027 -5.466202 0.075398  -0.830220 -0.054797 0.554736  0.000000 0.000000 0
0  -0.070445 -7.624652 0.029179  -0.830220 -0.054797 0.554736  0.000000 0.000000 0
c_invasion_wrangler_laser
0  -0.075398 -5.466202 0.182027  -0.554736 -0.054797 0.830220  0.000000 0.000000 0
0  -0.139317 -5.466202 0.139317  -0.554736 -0.054797 0.830220  0.000000 0.000000 0
0  -0.053916 -7.624652 0.053916  -0.554736 -0.054797 0.830220  0.000000 0.000000 0
c_invasion_wrangler_laser
0  0.000000 -5.466202 0.197025  -0.194797 -0.054797 0.979312  0.000000 0.000000 0
0  -0.075398 -5.466202 0.182027  -0.194797 -0.054797 0.979312  0.000000 0.000000 0
0  -0.029179 -7.624652 0.070445  -0.194797 -0.054797 0.979312  0.000000 0.000000 0
c_invasion_wrangler_laser
0  0.000000 -8.565478 0.000000  0.825821 -0.016594 0.563688  0.000000 0.000000 0
0  -0.029179 -7.624652 0.070445  0.825821 -0.016594 0.563688  0.000000 0.000000 0
0  -0.114462 -7.533190 0.198080  0.825821 -0.016594 0.563688  0.000000 0.000000 0
c_invasion_wrangler_laser
0  -0.053916 -7.624652 0.053916  0.707107 0.000000 0.707106  0.000000 0.000000 0
0  0.000000 -8.565478 0.000000  0.707107 0.000000 0.707106  0.000000 0.000000 0
0  0.000000 -8.474016 0.000000  0.707107 0.000000 0.707106  0.000000 0.000000 0
c_invasion_wrangler_laser
0  -0.029179 -7.624652 0.070445  0.284372 0.859073 -0.425588  0.000000 0.000000 0
0  -0.053916 -7.624652 0.053916  0.284372 0.859073 -0.425588  0.000000 0.000000 0
0  -0.139199 -7.533190 0.181551  0.284372 0.859073 -0.425588  0.000000 0.000000 0
c_invasion_wrangler_laser
0  0.525357 0.525357 0.000000  0.980785 -0.000000 0.195090  0.000000 0.000000 0
0  0.485367 0.525357 0.201046  0.980785 -0.000000 0.195090  0.000000 0.000000 0
0  0.485367 -0.922737 0.201046  0.980785 -0.000000 0.195090  0.000000 0.000000 0
c_invasion_wrangler_laser
0  0.485367 0.525357 0.201046  0.831470 -0.000000 0.555570  0.000000 0.000000 0
0  0.371484 0.525357 0.371484  0.831470 -0.000000 0.555570  0.000000 0.000000 0
0  0.371484 -0.922737 0.371484  0.831470 -0.000000 0.555570  0.000000 0.000000 0
c_invasion_wrangler_laser
0  0.371484 0.525357 0.371484  0.555570 -0.000000 0.831470  0.000000 0.000000 0
0  0.201046 0.525357 0.485367  0.555570 -0.000000 0.831470  0.000000 0.000000 0
0  0.201046 -0.922737 0.485367  0.555570 -0.000000 0.831470  0.000000 0.000000 0
c_invasion_wrangler_laser
0  0.201046 0.525357 0.485367  0.195091 -0.000000 0.980785  0.000000 0.000000 0
0  0.000000 0.525357 0.525357  0.195091 -0.000000 0.980785  0.000000 0.000000 0
0  0.000000 -0.922737 0.525357  0.195091 -0.000000 0.980785  0.000000 0.000000 0
c_invasion_wrangler_laser
0  0.201046 -0.922737 0.485367  0.554712 -0.055561 0.830185  0.000000 0.000000 0
0  0.136620 -3.889977 0.329830  0.554712 -0.055561 0.830185  0.000000 0.000000 0
0  0.252441 -3.889977 0.252441  0.554712 -0.055561 0.830185  0.000000 0.000000 0
c_invasion_wrangler_laser
0  0.485367 -0.922737 0.201046  0.979270 -0.055561 0.194789  0.000000 0.000000 0
0  0.329830 -3.889977 0.136620  0.979270 -0.055561 0.194789  0.000000 0.000000 0
0  0.357005 -3.889977 0.000000  0.979270 -0.055561 0.194789  0.000000 0.000000 0
c_invasion_wrangler_laser
0  0.000000 -0.922737 0.525357  0.194789 -0.055561 0.979270  0.000000 0.000000 0
0  0.000000 -3.889977 0.357005  0.194789 -0.055561 0.979270  0.000000 0.000000 0
0  0.136620 -3.889977 0.329830  0.194789 -0.055561 0.979270  0.000000 0.000000 0
c_invasion_wrangler_laser
0  0.371484 -0.922737 0.371484  0.830185 -0.055561 0.554712  0.000000 0.000000 0
0  0.252441 -3.889977 0.252441  0.830185 -0.055561 0.554712  0.000000 0.000000 0
0  0.329830 -3.889977 0.136620  0.830185 -0.055561 0.554712  0.000000 0.000000 0
c_invasion_wrangler_laser
0  0.329830 -3.889977 0.136620  0.975962 -0.099056 0.194131  0.000000 0.000000 0
0  0.182027 -5.466202 0.075398  0.975962 -0.099056 0.194131  0.000000 0.000000 0
0  0.197025 -5.466202 0.000000  0.975962 -0.099056 0.194131  0.000000 0.000000 0
c_invasion_wrangler_laser
0  0.252441 -3.889977 0.252441  0.827380 -0.099056 0.552838  0.000000 0.000000 0
0  0.139317 -5.466202 0.139317  0.827380 -0.099056 0.552838  0.000000 0.000000 0
0  0.182027 -5.466202 0.075398  0.827380 -0.099056 0.552838  0.000000 0.000000 0
c_invasion_wrangler_laser
0  0.136620 -3.889977 0.329830  0.552838 -0.099056 0.827380  0.000000 0.000000 0
0  0.075398 -5.466202 0.182027  0.552838 -0.099056 0.827380  0.000000 0.000000 0
0  0.139317 -5.466202 0.139317  0.552838 -0.099056 0.827380  0.000000 0.000000 0
c_invasion_wrangler_laser
0  0.000000 -3.889977 0.357005  0.194131 -0.099056 0.975962  0.000000 0.000000 0
0  0.000000 -5.466202 0.197025  0.194131 -0.099056 0.975962  0.000000 0.000000 0
0  0.075398 -5.466202 0.182027  0.194131 -0.099056 0.975962  0.000000 0.000000 0
c_invasion_wrangler_laser
0  0.182027 -5.466202 0.075398  0.979312 -0.054797 0.194797  0.000000 0.000000 0
0  0.070445 -7.624652 0.029179  0.979312 -0.054797 0.194797  0.000000 0.000000 0
0  0.076249 -7.624652 0.000000  0.979312 -0.054797 0.194797  0.000000 0.000000 0
c_invasion_wrangler_laser
0  0.139317 -5.466202 0.139317  0.830220 -0.054797 0.554736  0.000000 0.000000 0
0  0.053916 -7.624652 0.053916  0.830220 -0.054797 0.554736  0.000000 0.000000 0
0  0.070445 -7.624652 0.029179  0.830220 -0.054797 0.554736  0.000000 0.000000 0
c_invasion_wrangler_laser
0  0.075398 -5.466202 0.182027  0.554735 -0.054797 0.830220  0.000000 0.000000 0
0  0.029179 -7.624652 0.070445  0.554735 -0.054797 0.830220  0.000000 0.000000 0
0  0.053916 -7.624652 0.053916  0.554735 -0.054797 0.830220  0.000000 0.000000 0
c_invasion_wrangler_laser
0  0.000000 -5.466202 0.197025  0.194796 -0.054797 0.979312  0.000000 0.000000 0
0  0.000000 -7.624652 0.076249  0.194796 -0.054797 0.979312  0.000000 0.000000 0
0  0.029179 -7.624652 0.070445  0.194796 -0.054797 0.979312  0.000000 0.000000 0
c_invasion_wrangler_laser
0  0.000000 -8.565478 0.000000  0.865832 0.000000 -0.500334  0.000000 0.000000 0
0  0.000000 -8.474016 0.000000  0.865832 0.000000 -0.500334  0.000000 0.000000 0
0  0.114462 -7.533190 0.198080  0.865832 0.000000 -0.500334  0.000000 0.000000 0
c_invasion_wrangler_laser
0  0.053916 -7.624652 0.053916  0.837394 -0.018479 -0.546287  0.000000 0.000000 0
0  0.139199 -7.533190 0.181551  0.837394 -0.018479 -0.546287  0.000000 0.000000 0
0  0.000000 -8.474016 0.000000  0.837394 -0.018479 -0.546287  0.000000 0.000000 0
c_invasion_wrangler_laser
0  0.029179 -7.624652 0.070445  -0.284369 0.859067 -0.425602  0.000000 0.000000 0
0  0.114462 -7.533190 0.198080  -0.284369 0.859067 -0.425602  0.000000 0.000000 0
0  0.139199 -7.533190 0.181551  -0.284369 0.859067 -0.425602  0.000000 0.000000 0
c_invasion_wrangler_laser
0  -0.525357 0.525357 0.000000  -0.980785 -0.000000 -0.195090  0.000000 0.000000 0
0  -0.485367 0.525357 -0.201046  -0.980785 -0.000000 -0.195090  0.000000 0.000000 0
0  -0.485367 -0.922737 -0.201046  -0.980785 -0.000000 -0.195090  0.000000 0.000000 0
c_invasion_wrangler_laser
0  -0.485367 0.525357 -0.201046  -0.831470 -0.000000 -0.555570  0.000000 0.000000 0
0  -0.371484 0.525357 -0.371484  -0.831470 -0.000000 -0.555570  0.000000 0.000000 0
0  -0.371484 -0.922737 -0.371484  -0.831470 -0.000000 -0.555570  0.000000 0.000000 0
c_invasion_wrangler_laser
0  -0.371484 0.525357 -0.371484  -0.555570 -0.000000 -0.831470  0.000000 0.000000 0
0  -0.201046 0.525357 -0.485367  -0.555570 -0.000000 -0.831470  0.000000 0.000000 0
0  -0.201046 -0.922737 -0.485367  -0.555570 -0.000000 -0.831470  0.000000 0.000000 0
c_invasion_wrangler_laser
0  -0.201046 0.525357 -0.485367  -0.195091 -0.000000 -0.980785  0.000000 0.000000 0
0  0.000000 0.525357 -0.525357  -0.195091 -0.000000 -0.980785  0.000000 0.000000 0
0  0.000000 -0.922737 -0.525357  -0.195091 -0.000000 -0.980785  0.000000 0.000000 0
c_invasion_wrangler_laser
0  -0.201046 -0.922737 -0.485367  -0.554712 -0.055561 -0.830185  0.000000 0.000000 0
0  -0.136620 -3.889977 -0.329830  -0.554712 -0.055561 -0.830185  0.000000 0.000000 0
0  -0.252441 -3.889977 -0.252441  -0.554712 -0.055561 -0.830185  0.000000 0.000000 0
c_invasion_wrangler_laser
0  -0.485367 -0.922737 -0.201046  -0.979270 -0.055561 -0.194789  0.000000 0.000000 0
0  -0.329830 -3.889977 -0.136620  -0.979270 -0.055561 -0.194789  0.000000 0.000000 0
0  -0.357005 -3.889977 0.000000  -0.979270 -0.055561 -0.194789  0.000000 0.000000 0
c_invasion_wrangler_laser
0  0.000000 -0.922737 -0.525357  -0.194789 -0.055561 -0.979270  0.000000 0.000000 0
0  0.000000 -3.889977 -0.357005  -0.194789 -0.055561 -0.979270  0.000000 0.000000 0
0  -0.136620 -3.889977 -0.329830  -0.194789 -0.055561 -0.979270  0.000000 0.000000 0
c_invasion_wrangler_laser
0  -0.371484 -0.922737 -0.371484  -0.830185 -0.055561 -0.554712  0.000000 0.000000 0
0  -0.252441 -3.889977 -0.252441  -0.830185 -0.055561 -0.554712  0.000000 0.000000 0
0  -0.329830 -3.889977 -0.136620  -0.830185 -0.055561 -0.554712  0.000000 0.000000 0
c_invasion_wrangler_laser
0  -0.329830 -3.889977 -0.136620  -0.975962 -0.099056 -0.194131  0.000000 0.000000 0
0  -0.182027 -5.466202 -0.075398  -0.975962 -0.099056 -0.194131  0.000000 0.000000 0
0  -0.197025 -5.466202 0.000000  -0.975962 -0.099056 -0.194131  0.000000 0.000000 0
c_invasion_wrangler_laser
0  -0.252441 -3.889977 -0.252441  -0.827380 -0.099056 -0.552838  0.000000 0.000000 0
0  -0.139317 -5.466202 -0.139317  -0.827380 -0.099056 -0.552838  0.000000 0.000000 0
0  -0.182027 -5.466202 -0.075398  -0.827380 -0.099056 -0.552838  0.000000 0.000000 0
c_invasion_wrangler_laser
0  -0.136620 -3.889977 -0.329830  -0.552838 -0.099056 -0.827380  0.000000 0.000000 0
0  -0.075398 -5.466202 -0.182027  -0.552838 -0.099056 -0.827380  0.000000 0.000000 0
0  -0.139317 -5.466202 -0.139317  -0.552838 -0.099056 -0.827380  0.000000 0.000000 0
c_invasion_wrangler_laser
0  0.000000 -3.889977 -0.357005  -0.194131 -0.099056 -0.975962  0.000000 0.000000 0
0  0.000000 -5.466202 -0.197025  -0.194131 -0.099056 -0.975962  0.000000 0.000000 0
0  -0.075398 -5.466202 -0.182027  -0.194131 -0.099056 -0.975962  0.000000 0.000000 0
c_invasion_wrangler_laser
0  -0.182027 -5.466202 -0.075398  -0.979312 -0.054797 -0.194797  0.000000 0.000000 0
0  -0.070445 -7.624652 -0.029179  -0.979312 -0.054797 -0.194797  0.000000 0.000000 0
0  -0.076249 -7.624652 0.000000  -0.979312 -0.054797 -0.194797  0.000000 0.000000 0
c_invasion_wrangler_laser
0  -0.139317 -5.466202 -0.139317  -0.830220 -0.054797 -0.554736  0.000000 0.000000 0
0  -0.053916 -7.624652 -0.053916  -0.830220 -0.054797 -0.554736  0.000000 0.000000 0
0  -0.070445 -7.624652 -0.029179  -0.830220 -0.054797 -0.554736  0.000000 0.000000 0
c_invasion_wrangler_laser
0  -0.075398 -5.466202 -0.182027  -0.554735 -0.054797 -0.830220  0.000000 0.000000 0
0  -0.029179 -7.624652 -0.070445  -0.554735 -0.054797 -0.830220  0.000000 0.000000 0
0  -0.053916 -7.624652 -0.053916  -0.554735 -0.054797 -0.830220  0.000000 0.000000 0
c_invasion_wrangler_laser
0  0.000000 -5.466202 -0.197025  -0.194796 -0.054797 -0.979312  0.000000 0.000000 0
0  0.000000 -7.624652 -0.076249  -0.194796 -0.054797 -0.979312  0.000000 0.000000 0
0  -0.029179 -7.624652 -0.070445  -0.194796 -0.054797 -0.979312  0.000000 0.000000 0
c_invasion_wrangler_laser
0  0.000000 -8.565478 0.000000  -0.865832 0.000000 0.500334  0.000000 0.000000 0
0  0.000000 -8.474016 0.000000  -0.865832 0.000000 0.500334  0.000000 0.000000 0
0  -0.114462 -7.533190 -0.198080  -0.865832 0.000000 0.500334  0.000000 0.000000 0
c_invasion_wrangler_laser
0  -0.053916 -7.624652 -0.053916  -0.837394 -0.018479 0.546287  0.000000 0.000000 0
0  -0.139199 -7.533190 -0.181551  -0.837394 -0.018479 0.546287  0.000000 0.000000 0
0  0.000000 -8.474016 0.000000  -0.837394 -0.018479 0.546287  0.000000 0.000000 0
c_invasion_wrangler_laser
0  -0.029179 -7.624652 -0.070445  0.284369 0.859067 0.425602  0.000000 0.000000 0
0  -0.114462 -7.533190 -0.198080  0.284369 0.859067 0.425602  0.000000 0.000000 0
0  -0.139199 -7.533190 -0.181551  0.284369 0.859067 0.425602  0.000000 0.000000 0
c_invasion_wrangler_laser
0  0.525357 0.525357 0.000000  0.980785 0.000000 -0.195090  0.000000 0.000000 0
0  0.525357 -0.922737 0.000000  0.980785 0.000000 -0.195090  0.000000 0.000000 0
0  0.485367 -0.922737 -0.201046  0.980785 0.000000 -0.195090  0.000000 0.000000 0
c_invasion_wrangler_laser
0  0.485367 0.525357 -0.201046  0.831470 -0.000000 -0.555570  0.000000 0.000000 0
0  0.485367 -0.922737 -0.201046  0.831470 -0.000000 -0.555570  0.000000 0.000000 0
0  0.371484 -0.922737 -0.371484  0.831470 -0.000000 -0.555570  0.000000 0.000000 0
c_invasion_wrangler_laser
0  0.371484 0.525357 -0.371484  0.555570 -0.000000 -0.831470  0.000000 0.000000 0
0  0.371484 -0.922737 -0.371484  0.555570 -0.000000 -0.831470  0.000000 0.000000 0
0  0.201046 -0.922737 -0.485367  0.555570 -0.000000 -0.831470  0.000000 0.000000 0
c_invasion_wrangler_laser
0  0.201046 0.525357 -0.485367  0.195090 -0.000000 -0.980785  0.000000 0.000000 0
0  0.201046 -0.922737 -0.485367  0.195090 -0.000000 -0.980785  0.000000 0.000000 0
0  0.000000 -0.922737 -0.525357  0.195090 -0.000000 -0.980785  0.000000 0.000000 0
c_invasion_wrangler_laser
0  0.201046 -0.922737 -0.485367  0.554712 -0.055561 -0.830185  0.000000 0.000000 0
0  0.371484 -0.922737 -0.371484  0.554712 -0.055561 -0.830185  0.000000 0.000000 0
0  0.252441 -3.889977 -0.252441  0.554712 -0.055561 -0.830185  0.000000 0.000000 0
c_invasion_wrangler_laser
0  0.485367 -0.922737 -0.201046  0.979270 -0.055561 -0.194789  0.000000 0.000000 0
0  0.525357 -0.922737 0.000000  0.979270 -0.055561 -0.194789  0.000000 0.000000 0
0  0.357005 -3.889977 0.000000  0.979270 -0.055561 -0.194789  0.000000 0.000000 0
c_invasion_wrangler_laser
0  0.000000 -0.922737 -0.525357  0.194789 -0.055561 -0.979270  0.000000 0.000000 0
0  0.201046 -0.922737 -0.485367  0.194789 -0.055561 -0.979270  0.000000 0.000000 0
0  0.136620 -3.889977 -0.329830  0.194789 -0.055561 -0.979270  0.000000 0.000000 0
c_invasion_wrangler_laser
0  0.371484 -0.922737 -0.371484  0.830185 -0.055561 -0.554712  0.000000 0.000000 0
0  0.485367 -0.922737 -0.201046  0.830185 -0.055561 -0.554712  0.000000 0.000000 0
0  0.329830 -3.889977 -0.136620  0.830185 -0.055561 -0.554712  0.000000 0.000000 0
c_invasion_wrangler_laser
0  0.329830 -3.889977 -0.136620  0.975962 -0.099056 -0.194131  0.000000 0.000000 0
0  0.357005 -3.889977 0.000000  0.975962 -0.099056 -0.194131  0.000000 0.000000 0
0  0.197025 -5.466202 0.000000  0.975962 -0.099056 -0.194131  0.000000 0.000000 0
c_invasion_wrangler_laser
0  0.252441 -3.889977 -0.252441  0.827380 -0.099056 -0.552838  0.000000 0.000000 0
0  0.329830 -3.889977 -0.136620  0.827380 -0.099056 -0.552838  0.000000 0.000000 0
0  0.182027 -5.466202 -0.075398  0.827380 -0.099056 -0.552838  0.000000 0.000000 0
c_invasion_wrangler_laser
0  0.136620 -3.889977 -0.329830  0.552838 -0.099056 -0.827380  0.000000 0.000000 0
0  0.252441 -3.889977 -0.252441  0.552838 -0.099056 -0.827380  0.000000 0.000000 0
0  0.139317 -5.466202 -0.139317  0.552838 -0.099056 -0.827380  0.000000 0.000000 0
c_invasion_wrangler_laser
0  0.000000 -3.889977 -0.357005  0.194131 -0.099056 -0.975962  0.000000 0.000000 0
0  0.136620 -3.889977 -0.329830  0.194131 -0.099056 -0.975962  0.000000 0.000000 0
0  0.075398 -5.466202 -0.182027  0.194131 -0.099056 -0.975962  0.000000 0.000000 0
c_invasion_wrangler_laser
0  0.182027 -5.466202 -0.075398  0.979312 -0.054797 -0.194798  0.000000 0.000000 0
0  0.197025 -5.466202 0.000000  0.979312 -0.054797 -0.194798  0.000000 0.000000 0
0  0.076249 -7.624652 0.000000  0.979312 -0.054797 -0.194798  0.000000 0.000000 0
c_invasion_wrangler_laser
0  0.139317 -5.466202 -0.139317  0.830220 -0.054797 -0.554736  0.000000 0.000000 0
0  0.182027 -5.466202 -0.075398  0.830220 -0.054797 -0.554736  0.000000 0.000000 0
0  0.070445 -7.624652 -0.029179  0.830220 -0.054797 -0.554736  0.000000 0.000000 0
c_invasion_wrangler_laser
0  0.075398 -5.466202 -0.182027  0.554736 -0.054797 -0.830220  0.000000 0.000000 0
0  0.139317 -5.466202 -0.139317  0.554736 -0.054797 -0.830220  0.000000 0.000000 0
0  0.053916 -7.624652 -0.053916  0.554736 -0.054797 -0.830220  0.000000 0.000000 0
c_invasion_wrangler_laser
0  0.000000 -5.466202 -0.197025  0.194797 -0.054797 -0.979312  0.000000 0.000000 0
0  0.075398 -5.466202 -0.182027  0.194797 -0.054797 -0.979312  0.000000 0.000000 0
0  0.029179 -7.624652 -0.070445  0.194797 -0.054797 -0.979312  0.000000 0.000000 0
c_invasion_wrangler_laser
0  0.000000 -8.565478 0.000000  -0.825821 -0.016594 -0.563688  0.000000 0.000000 0
0  0.029179 -7.624652 -0.070445  -0.825821 -0.016594 -0.563688  0.000000 0.000000 0
0  0.114462 -7.533190 -0.198080  -0.825821 -0.016594 -0.563688  0.000000 0.000000 0
c_invasion_wrangler_laser
0  0.053916 -7.624652 -0.053916  -0.707107 0.000000 -0.707106  0.000000 0.000000 0
0  0.000000 -8.565478 0.000000  -0.707107 0.000000 -0.707106  0.000000 0.000000 0
0  0.000000 -8.474016 0.000000  -0.707107 0.000000 -0.707106  0.000000 0.000000 0
c_invasion_wrangler_laser
0  0.029179 -7.624652 -0.070445  -0.284372 0.859073 0.425588  0.000000 0.000000 0
0  0.053916 -7.624652 -0.053916  -0.284372 0.859073 0.425588  0.000000 0.000000 0
0  0.139199 -7.533190 -0.181551  -0.284372 0.859073 0.425588  0.000000 0.000000 0
end
