<svg width="64" height="64" viewBox="0 0 64 64" fill="none" xmlns="http://www.w3.org/2000/svg">
<g clip-path="url(#clip0_240_4)">
<path d="M26.6433 45.008V37.072C28.7766 35.1947 30.6966 33.3173 32.4033 31.44C34.1526 29.5627 35.5393 27.5787 36.5633 25.488C37.5873 23.3973 38.0993 21.1147 38.0993 18.64C38.0993 16.6347 37.5659 14.9707 36.4993 13.648C35.4753 12.3253 33.9606 11.664 31.9553 11.664C30.2486 11.664 28.8833 12.1547 27.8593 13.136C26.8779 14.1173 26.3873 15.376 26.3873 16.912C26.3873 17.4667 26.4299 18 26.5153 18.512C26.6006 18.9813 26.7073 19.5147 26.8353 20.112L20.4353 21.328C20.2219 20.688 20.0513 20.0267 19.9233 19.344C19.7953 18.6187 19.7313 17.936 19.7313 17.296C19.7313 13.8827 20.7979 11.1093 22.9313 8.976C25.0646 6.8 28.0726 5.712 31.9553 5.712C36.0086 5.712 39.1659 6.864 41.4273 9.168C43.6886 11.4293 44.8193 14.6507 44.8193 18.832C44.8193 21.6907 44.2859 24.272 43.2193 26.576C42.1526 28.88 40.7019 31.0133 38.8673 32.976C37.0326 34.9387 34.9846 36.88 32.7233 38.8V45.008H26.6433ZM26.3233 58V50.96H33.1713V58H26.3233Z" fill="currentColor"/>
</g>
<defs>
<clipPath id="clip0_240_4">
<rect width="64" height="64" fill="currentColor"/>
</clipPath>
</defs>
</svg>
