version 1
nodes
0 "bip_pelvis" -1
end
skeleton
time 0
0  -0.000000 0.000006 48.466885  -1.641949 -0.000000 -0.000000
end
triangles
glow_inner_2
0  -30.862942 13.854128 71.684525  0.273095 0.781388 0.561116  -2.479527 -0.023811 0
0  -29.832573 16.889563 61.013798  0.328440 0.944449 -0.011956  -2.468365 1.331472 0
0  -38.200653 18.316572 66.521790  0.053476 0.958484 0.280086  -3.500021 0.647993 0
glow_inner_2
0  -31.127916 13.087864 72.377853  0.123166 0.347733 0.929469  -0.733778 -2.533193 0
0  -21.635197 11.240173 66.108315  0.792344 -0.474618 -0.383314  -0.437155 -1.762210 0
0  -21.463844 11.731475 66.264633  0.791303 0.570323 0.220387  -0.501797 -1.753033 0
glow_inner_2
0  -39.538902 18.021589 66.308662  -0.356861 0.842378 0.403795  -0.909093 0.030816 0
0  -31.259727 12.709939 72.257614  -0.122833 -0.814135 0.567535  -0.368357 0.749925 0
0  -31.127916 13.087864 72.377853  0.123166 0.347733 0.929469  -0.415862 0.761165 0
glow_inner_2
0  -29.931595 16.612206 59.988445  0.177549 0.802543 -0.569562  -1.210412 3.949721 0
0  -39.710266 17.530285 66.152351  -0.964369 -0.104648 0.242986  -1.386100 4.741806 0
0  -39.538902 18.021589 66.308662  -0.356861 0.842378 0.403795  -1.450814 4.732858 0
glow_inner_2
0  -21.463844 11.731475 66.264633  0.791303 0.570323 0.220387  -0.138585 0.766116 0
0  -30.063402 16.234278 59.868210  -0.296356 -0.183724 -0.937240  -0.574314 1.519326 0
0  -29.931595 16.612206 59.988445  0.177549 0.802543 -0.569562  -0.621846 1.508149 0
glow_inner_2
0  -29.832573 16.889563 61.013798  0.328440 0.944449 -0.011956  -1.172768 0.934853 0
0  -21.463844 11.731475 66.264633  0.791303 0.570323 0.220387  -0.160296 0.362974 0
0  -29.931595 16.612206 59.988445  0.177549 0.802543 -0.569562  -1.127951 1.078840 0
glow_inner_2
0  -31.358744 12.432577 71.232262  -0.328766 -0.944333 0.012122  -1.167707 -2.122325 0
0  -21.635197 11.240173 66.108315  0.792344 -0.474618 -0.383314  -0.872312 -1.199212 0
0  -31.259727 12.709939 72.257614  -0.122833 -0.814135 0.567535  -1.299521 -2.103721 0
glow_inner_2
0  -38.845192 16.468552 65.933853  -0.554736 -0.785367 -0.274712  -0.806453 0.288535 0
0  -31.259727 12.709939 72.257614  -0.122833 -0.814135 0.567535  -0.043172 0.897025 0
0  -39.710266 17.530285 66.152351  -0.964369 -0.104648 0.242986  -0.983936 0.338950 0
glow_inner_2
0  -30.862942 13.854128 71.684525  0.273095 0.781388 0.561116  -3.170427 -0.137273 0
0  -39.538902 18.021589 66.308662  -0.356861 0.842378 0.403795  -3.728336 0.785157 0
0  -31.127916 13.087864 72.377853  0.123166 0.347733 0.929469  -3.267632 -0.232421 0
glow_inner_2
0  -22.328913 12.793210 66.483116  0.554214 0.784264 0.278886  -0.995183 -1.645964 0
0  -31.127916 13.087864 72.377853  0.123166 0.347733 0.929469  -0.533551 -2.504910 0
0  -21.463844 11.731475 66.264633  0.791303 0.570323 0.220387  -0.901327 -1.534151 0
glow_inner_2
0  -30.328377 15.468014 60.561546  -0.273483 -0.781332 -0.561006  -0.696348 3.955493 0
0  -39.710266 17.530285 66.152351  -0.964369 -0.104648 0.242986  -0.415374 5.265984 0
0  -30.063402 16.234278 59.868210  -0.296356 -0.183724 -0.937240  -0.835071 3.930378 0
glow_inner_2
0  -22.973454 10.945197 65.895187  -0.054065 -0.959665 -0.275899  -1.055544 0.553011 0
0  -30.063402 16.234278 59.868210  -0.296356 -0.183724 -0.937240  -0.757920 1.620499 0
0  -21.635197 11.240173 66.108315  0.792344 -0.474618 -0.383314  -1.216663 0.527965 0
glow_inner_2
0  -38.200653 18.316572 66.521790  0.053476 0.958484 0.280086  -2.289117 4.497318 0
0  -29.931595 16.612206 59.988445  0.177549 0.802543 -0.569562  -1.625379 3.319641 0
0  -39.538902 18.021589 66.308662  -0.356861 0.842378 0.403795  -2.212539 4.668002 0
glow_inner_2
0  -22.973454 10.945197 65.895187  -0.054065 -0.959665 -0.275899  2.528143 0.702176 0
0  -38.845192 16.468552 65.933853  -0.554736 -0.785367 -0.274712  4.585839 0.715304 0
0  -30.328377 15.468014 60.561546  -0.273483 -0.781332 -0.561006  3.552835 1.394096 0
glow_inner_2
0  -14.679628 5.685231 82.689575  0.985104 -0.024634 -0.170189  0.537175 0.022198 0
0  -26.137487 7.581033 83.204407  -0.682579 0.128053 -0.719506  0.567754 0.572831 0
0  -26.050369 7.985335 83.264496  -0.691520 0.447883 -0.566746  0.518005 0.573398 0
glow_inner_2
0  -18.701664 4.887664 93.450302  0.574713 0.412727 0.706655  0.136198 -2.650464 0
0  -14.792892 5.159641 82.611465  0.431935 -0.767965 -0.472930  0.199784 -2.116512 0
0  -14.679628 5.685231 82.689575  0.985104 -0.024634 -0.170189  0.133059 -2.113876 0
glow_inner_2
0  -19.091078 5.660744 92.826775  0.368784 0.851421 0.372936  -0.901495 -2.564516 0
0  -25.420355 8.328696 84.053978  0.028855 0.994749 -0.098196  -1.712853 -1.510228 0
0  -28.831358 7.892866 93.571007  -0.008871 0.954116 0.299306  -2.124189 -2.653845 0
glow_inner_2
0  -26.050369 7.985335 83.264496  -0.691520 0.447883 -0.566746  -0.274711 4.670161 0
0  -30.029669 6.737768 94.084282  -0.941780 -0.050082 0.332478  -0.218721 5.211664 0
0  -29.916399 7.263355 94.162415  -0.615029 0.068755 0.785501  -0.285460 5.209049 0
glow_inner_2
0  -25.420355 8.328696 84.053978  0.028855 0.994749 -0.098196  -1.039418 -0.613879 0
0  -14.679628 5.685231 82.689575  0.985104 -0.024634 -0.170189  0.074517 -0.659527 0
0  -26.050369 7.985335 83.264496  -0.691520 0.447883 -0.566746  -1.012956 -0.514245 0
glow_inner_2
0  -29.916399 7.263355 94.162415  -0.615029 0.068755 0.785501  0.394302 1.452994 0
0  -18.788794 4.483368 93.390198  0.433330 -0.790123 0.433509  0.478344 1.998839 0
0  -18.701664 4.887664 93.450302  0.574713 0.412727 0.706655  0.428592 1.998327 0
blue_test_2
0  -30.956329 13.581851 73.582161  -0.273115 -0.781376 -0.561123  -2.479773 -0.264296 0
0  -29.571665 17.661026 59.242283  -0.328431 -0.944452 0.011977  -2.464712 1.556940 0
0  -19.487848 12.156132 66.592247  -0.554320 -0.784187 -0.278891  -1.085051 0.614225 0
blue_test_2
0  -31.312412 12.552103 74.513901  -0.123224 -0.347796 -0.929438  -0.691804 -2.578148 0
0  -18.555599 10.069077 66.088562  -0.792386 0.474537 0.383326  -0.293185 -1.542059 0
0  -31.489555 12.044228 74.352310  0.122811 0.814141 -0.567532  -0.624981 -2.587635 0
blue_test_2
0  -42.615547 19.182304 66.357796  0.356848 -0.842401 -0.403757  -0.982657 -0.100258 0
0  -31.489555 12.044228 74.352310  0.122811 0.814141 -0.567532  -0.255986 0.866122 0
0  -42.845829 18.522066 66.147736  0.964353 0.104690 -0.243031  -0.899665 -0.119894 0
blue_test_2
0  -29.704727 17.288298 57.864365  -0.177563 -0.802592 0.569489  -1.269578 3.900113 0
0  -42.845829 18.522066 66.147736  0.964353 0.104690 -0.243031  -1.505681 4.964539 0
0  -29.881863 16.780416 57.702789  0.296434 0.183767 0.937207  -1.202680 3.909360 0
blue_test_2
0  -18.325321 10.729319 66.298615  -0.791295 -0.570334 -0.220388  -0.086007 0.630230 0
0  -29.881863 16.780416 57.702789  0.296434 0.183767 0.937207  -0.671559 1.642431 0
0  -18.555599 10.069077 66.088562  -0.792386 0.474537 0.383326  -0.002968 0.649758 0
blue_test_2
0  -29.571665 17.661026 59.242283  -0.328431 -0.944452 0.011977  -1.232678 1.299174 0
0  -18.325321 10.729319 66.298615  -0.791295 -0.570334 -0.220388  0.104060 0.669955 0
0  -19.487848 12.156132 66.592247  -0.554320 -0.784187 -0.278891  -0.133735 0.596871 0
blue_test_2
0  -31.622614 11.671494 72.974396  0.329015 0.944247 -0.012124  -1.244931 -2.054394 0
0  -18.555599 10.069077 66.088562  -0.792386 0.474537 0.383326  -0.874188 -0.897801 0
0  -20.354017 9.672675 65.802147  0.053910 0.959670 0.275911  -0.754479 -1.076453 0
blue_test_2
0  -41.683296 17.095247 65.854111  0.554877 0.785275 0.274690  -1.087514 0.119218 0
0  -31.489555 12.044228 74.352310  0.122811 0.814141 -0.567532  -0.075904 0.853905 0
0  -31.622614 11.671494 72.974396  0.329015 0.944247 -0.012124  -0.006895 0.712888 0
blue_test_2
0  -30.956329 13.581851 73.582161  -0.273115 -0.781376 -0.561123  -3.267797 -0.113834 0
0  -42.615547 19.182304 66.357796  0.356848 -0.842401 -0.403757  -4.008579 0.986447 0
0  -40.817131 19.578714 66.644196  -0.053290 -0.958499 -0.280071  -3.791499 0.948103 0
blue_test_2
0  -19.487848 12.156132 66.592247  -0.554320 -0.784187 -0.278891  -0.905155 -1.393033 0
0  -31.312412 12.552103 74.513901  -0.123224 -0.347796 -0.929438  -0.296861 -2.453271 0
0  -30.956329 13.581851 73.582161  -0.273115 -0.781376 -0.561123  -0.480165 -2.446531 0
blue_test_2
0  -30.237949 15.750672 58.634521  0.273720 0.781259 0.560992  -0.894902 3.954206 0
0  -42.845829 18.522066 66.147736  0.964353 0.104690 -0.243031  -0.557685 5.396671 0
0  -41.683296 17.095247 65.854111  0.554877 0.785275 0.274690  -0.431550 5.232847 0
blue_test_2
0  -20.354017 9.672675 65.802147  0.053910 0.959670 0.275911  -1.254961 0.708144 0
0  -29.881863 16.780416 57.702789  0.296434 0.183767 0.937207  -0.869857 1.939394 0
0  -30.237949 15.750672 58.634521  0.273720 0.781259 0.560992  -0.739537 1.811969 0
blue_test_2
0  -40.817131 19.578714 66.644196  -0.053290 -0.958499 -0.280071  -2.254738 4.537749 0
0  -29.704727 17.288298 57.864365  -0.177563 -0.802592 0.569489  -1.467725 3.297902 0
0  -29.571665 17.661026 59.242283  -0.328431 -0.944452 0.011977  -1.647490 3.280605 0
blue_test_2
0  -20.354017 9.672675 65.802147  0.053910 0.959670 0.275911  2.176482 0.708896 0
0  -41.683296 17.095247 65.854111  0.554877 0.785275 0.274690  4.941764 0.726889 0
0  -31.622614 11.671494 72.974396  0.329015 0.944247 -0.012124  3.567647 -0.184781 0
glow_inner_2
0  -19.418798 4.140001 92.600723  -0.029027 -0.994710 0.098539  -3.055171 -1.462005 0
0  -14.792892 5.159641 82.611465  0.431935 -0.767965 -0.472930  -2.285467 -0.930943 0
0  -18.788794 4.483368 93.390198  0.433330 -0.790123 0.433509  -3.187732 -1.408940 0
glow_inner_2
0  -29.257387 5.915896 93.277145  -0.410886 -0.911421 0.022008  -0.278462 2.333085 0
0  -18.788794 4.483368 93.390198  0.433330 -0.790123 0.433509  0.662536 2.678936 0
0  -30.029669 6.737768 94.084282  -0.941780 -0.050082 0.332478  -0.453801 2.401209 0
glow_inner_2
0  -19.091078 5.660744 92.826775  0.368784 0.851421 0.372936  -2.897797 -3.015181 0
0  -29.916399 7.263355 94.162415  -0.615029 0.068755 0.785501  -4.115825 -2.705104 0
0  -18.701664 4.887664 93.450302  0.574713 0.412727 0.706655  -2.907533 -3.127006 0
glow_inner_2
0  -15.451916 6.507101 83.496719  0.413255 0.910428 -0.018487  1.440494 -1.143573 0
0  -18.701664 4.887664 93.450302  0.574713 0.412727 0.706655  2.432825 -1.435218 0
0  -14.679628 5.685231 82.689575  0.985104 -0.024634 -0.170189  1.447776 -1.036209 0
glow_inner_2
0  -25.748079 6.807955 83.827919  -0.369014 -0.851457 -0.372625  2.588623 3.699136 0
0  -30.029669 6.737768 94.084282  -0.941780 -0.050082 0.332478  3.505620 4.357525 0
0  -26.137487 7.581033 83.204407  -0.682579 0.128053 -0.719506  2.459944 3.760062 0
glow_inner_2
0  -15.877956 4.530141 83.202843  0.011199 -0.955193 -0.295771  -0.899903 -1.541537 0
0  -26.137487 7.581033 83.204407  -0.682579 0.128053 -0.719506  0.103196 -1.254107 0
0  -14.792892 5.159641 82.611465  0.431935 -0.767965 -0.472930  -1.063744 -1.452388 0
glow_inner_2
0  -28.831358 7.892866 93.571007  -0.008871 0.954116 0.299306  -4.472058 4.004932 0
0  -26.050369 7.985335 83.264496  -0.691520 0.447883 -0.566746  -3.458235 3.484128 0
0  -29.916399 7.263355 94.162415  -0.615029 0.068755 0.785501  -4.454405 4.146708 0
glow_inner_2
0  -15.877956 4.530141 83.202843  0.011199 -0.955193 -0.295771  1.533505 -1.405729 0
0  -29.257387 5.915896 93.277145  -0.410886 -0.911421 0.022008  3.184562 -2.618069 0
0  -25.748079 6.807955 83.827919  -0.369014 -0.851457 -0.372625  2.771681 -1.481160 0
blue_test_2
0  -17.957731 5.467439 94.363670  -0.368780 -0.851417 -0.372948  -0.766040 -2.748087 0
0  -26.463343 9.052770 82.574326  -0.028834 -0.994748 0.098209  -1.856377 -1.331084 0
0  -13.067239 6.604823 81.825432  -0.413344 -0.910386 0.018577  -0.190810 -1.240138 0
blue_test_2
0  -17.434412 4.428535 95.201584  -0.574719 -0.412796 -0.706610  0.165514 -2.596094 0
0  -12.181603 4.794028 80.635803  -0.483590 0.280196 0.829235  0.250971 -1.878544 0
0  -17.551500 3.885212 95.120834  -0.433305 0.790127 -0.433527  0.234491 -2.598819 0
blue_test_2
0  -32.505375 7.621114 96.158569  0.221862 -0.745605 -0.628371  0.426902 1.437554 0
0  -17.551500 3.885212 95.120834  -0.433305 0.790127 -0.433527  0.539833 2.171089 0
0  -32.657593 6.914802 96.053574  0.567654 0.329729 -0.754352  0.513821 1.438455 0
blue_test_2
0  -27.309984 8.591338 81.513382  0.390001 -0.792494 0.468885  -0.321302 4.722668 0
0  -32.657593 6.914802 96.053574  0.567654 0.329729 -0.754352  -0.246081 5.450354 0
0  -27.427071 8.048022 81.432617  0.749308 0.297740 0.591513  -0.252311 4.725368 0
blue_test_2
0  -12.029389 5.500341 80.740791  -0.608163 -0.759788 0.229915  0.482351 0.007427 0
0  -27.427071 8.048022 81.432617  0.749308 0.297740 0.591513  0.523424 0.747401 0
0  -12.181603 4.794028 80.635803  -0.483590 0.280196 0.829235  0.569263 0.006440 0
blue_test_2
0  -26.463343 9.052770 82.574326  -0.028834 -0.994748 0.098209  -1.205505 -0.135936 0
0  -12.029389 5.500341 80.740791  -0.608163 -0.759788 0.229915  0.282849 -0.153008 0
0  -13.067239 6.604823 81.825432  -0.413344 -0.910386 0.018577  0.050720 -0.264812 0
blue_test_2
0  -18.398136 3.423779 94.059898  0.029240 0.994688 -0.098697  -3.141126 -1.244087 0
0  -12.181603 4.794028 80.635803  -0.483590 0.280196 0.829235  -2.141053 -0.644572 0
0  -13.639762 3.948069 81.430542  -0.011314 0.955163 0.295864  -2.102981 -0.791256 0
blue_test_2
0  -31.619749 5.810322 94.968910  0.410999 0.911367 -0.022123  -0.567989 1.992310 0
0  -17.551500 3.885212 95.120834  -0.433305 0.790127 -0.433527  0.675040 2.337999 0
0  -18.398136 3.423779 94.059898  0.029240 0.994688 -0.098697  0.712169 2.222210 0
blue_test_2
0  -17.957731 5.467439 94.363670  -0.368780 -0.851417 -0.372948  -2.844000 -2.584877 0
0  -32.505375 7.621114 96.158569  0.221862 -0.745605 -0.628371  -4.474355 -2.265691 0
0  -31.047228 8.467079 95.363815  0.009016 -0.954081 -0.299414  -4.249519 -2.188132 0
blue_test_2
0  -13.067239 6.604823 81.825432  -0.413344 -0.910386 0.018577  1.291363 -0.938796 0
0  -17.434412 4.428535 95.201584  -0.574719 -0.412796 -0.706610  2.615300 -1.256319 0
0  -17.957731 5.467439 94.363670  -0.368780 -0.851417 -0.372948  2.441595 -1.326618 0
blue_test_2
0  -26.903744 7.009115 82.270546  0.369201 0.851449 0.372459  2.427624 3.753290 0
0  -32.657593 6.914802 96.053574  0.567654 0.329729 -0.754352  3.638584 4.470145 0
0  -31.619749 5.810322 94.968910  0.410999 0.911367 -0.022123  3.643312 4.306643 0
blue_test_2
0  -13.639762 3.948069 81.430542  -0.011314 0.955163 0.295864  -1.129347 -0.951310 0
0  -27.427071 8.048022 81.432617  0.749308 0.297740 0.591513  0.216376 -0.618665 0
0  -26.903744 7.009115 82.270546  0.369201 0.851449 0.372459  0.233710 -0.748597 0
blue_test_2
0  -31.047228 8.467079 95.363815  0.009016 -0.954081 -0.299414  -4.551921 4.003113 0
0  -27.309984 8.591338 81.513382  0.390001 -0.792494 0.468885  -3.244215 3.476645 0
0  -26.463343 9.052770 82.574326  -0.028834 -0.994748 0.098209  -3.423669 3.403154 0
blue_test_2
0  -13.639762 3.948069 81.430542  -0.011314 0.955163 0.295864  1.245515 -1.193777 0
0  -31.619749 5.810322 94.968910  0.410999 0.911367 -0.022123  3.464346 -2.822739 0
0  -18.398136 3.423779 94.059898  0.029240 0.994688 -0.098697  1.822234 -2.712022 0
glow_inner_2
0  -13.650852 21.397228 50.224495  0.296598 -0.353912 0.887004  -1.965461 0.193400 0
0  -15.270889 26.686230 39.999844  0.621581 0.164269 -0.765932  -2.714815 0.476315 0
0  -15.205933 27.049034 40.196857  0.561643 0.497598 -0.661025  -2.756524 0.471920 0
glow_inner_2
0  -24.685995 24.219759 48.531921  -0.478171 0.367395 0.797730  -1.882374 -0.280023 0
0  -13.735291 20.925591 49.968369  0.303842 -0.946030 0.112728  -1.653805 -0.008918 0
0  -13.650852 21.397228 50.224495  0.296598 -0.353912 0.887004  -1.718753 -0.005166 0
glow_inner_2
0  -23.938770 24.916924 48.225834  -0.071126 0.762939 0.642545  -1.966441 3.069426 0
0  -15.773802 27.353712 41.047028  0.367378 0.893858 0.257005  -1.061487 4.039866 0
0  -25.439476 30.056858 39.755985  -0.027393 0.954709 0.296279  -2.279667 4.167870 0
glow_inner_2
0  -15.205933 27.049034 40.196857  0.561643 0.497598 -0.661025  -2.475394 1.857370 0
0  -26.413208 29.453800 38.443806  -0.465173 0.307211 -0.830202  -2.577200 2.137347 0
0  -26.328770 29.925438 38.699932  -0.817222 0.419782 -0.394883  -2.642212 2.133708 0
glow_inner_2
0  -15.773802 27.353712 41.047028  0.367378 0.893858 0.257005  -0.059297 0.968735 0
0  -13.650852 21.397228 50.224495  0.296598 -0.353912 0.887004  0.276795 0.496672 0
0  -15.205933 27.049034 40.196857  0.561643 0.497598 -0.661025  0.043399 1.062575 0
glow_inner_2
0  -26.328770 29.925438 38.699932  -0.817222 0.419782 -0.394883  -3.349060 1.086522 0
0  -24.750938 23.856962 48.334896  -0.564701 -0.767838 0.302553  -2.513821 1.355375 0
0  -24.685995 24.219759 48.531921  -0.478171 0.367395 0.797730  -2.555555 1.359801 0
glow_inner_2
0  -24.183073 23.552277 47.484734  -0.367718 -0.893696 -0.257083  0.129116 -0.488393 0
0  -13.735291 20.925591 49.968369  0.303842 -0.946030 0.112728  -0.321478 0.326831 0
0  -24.750938 23.856962 48.334896  -0.564701 -0.767838 0.302553  0.029988 -0.509645 0
glow_inner_2
0  -25.757072 28.282810 38.792568  -0.327086 -0.719337 -0.612836  0.510082 0.085768 0
0  -24.750938 23.856962 48.334896  -0.564701 -0.767838 0.302553  0.593024 0.628338 0
0  -26.413208 29.453800 38.443806  -0.465173 0.307211 -0.830202  0.367828 0.100294 0
glow_inner_2
0  -23.938770 24.916924 48.225834  -0.071126 0.762939 0.642545  0.014262 1.832999 0
0  -26.328770 29.925438 38.699932  -0.817222 0.419782 -0.394883  0.457417 2.931604 0
0  -24.685995 24.219759 48.531921  -0.478171 0.367395 0.797730  -0.109079 1.788599 0
glow_inner_2
0  -14.306988 22.568214 49.875725  0.323806 0.718485 0.615572  -4.073977 -0.506320 0
0  -24.685995 24.219759 48.531921  -0.478171 0.367395 0.797730  -4.496226 -1.223089 0
0  -13.650852 21.397228 50.224495  0.296598 -0.353912 0.887004  -3.919765 -0.426231 0
glow_inner_2
0  -16.018110 25.989067 40.305927  0.070784 -0.762838 -0.642704  -4.012459 1.787435 0
0  -26.413208 29.453800 38.443806  -0.465173 0.307211 -0.830202  -4.643066 2.767119 0
0  -15.270889 26.686230 39.999844  0.621581 0.164269 -0.765932  -4.089978 1.755054 0
glow_inner_2
0  -14.624586 20.794178 48.912308  0.024058 -0.955630 -0.293587  -3.861372 2.531914 0
0  -15.270889 26.686230 39.999844  0.621581 0.164269 -0.765932  -4.501646 3.687717 0
0  -13.735291 20.925591 49.968369  0.303842 -0.946030 0.112728  -3.913949 2.438369 0
glow_inner_2
0  -25.439476 30.056858 39.755985  -0.027393 0.954709 0.296279  -0.606487 1.497715 0
0  -15.205933 27.049034 40.196857  0.561643 0.497598 -0.661025  -0.733369 0.641379 0
0  -26.328770 29.925438 38.699932  -0.817222 0.419782 -0.394883  -0.454720 1.588910 0
glow_inner_2
0  -14.624586 20.794178 48.912308  0.024058 -0.955630 -0.293587  1.812816 3.024818 0
0  -25.757072 28.282810 38.792568  -0.327086 -0.719337 -0.612836  3.329203 4.276054 0
0  -16.018110 25.989067 40.305927  0.070784 -0.762838 -0.642704  2.116063 4.143738 0
blue_test_2
0  -25.291325 24.737320 49.575726  0.071134 -0.762944 -0.642539  -2.123986 2.888130 0
0  -14.318815 28.012001 39.928474  -0.367386 -0.893861 -0.256983  -0.908164 4.192639 0
0  -12.347620 21.581003 51.792934  -0.323888 -0.718399 -0.615629  -0.507787 2.676662 0
blue_test_2
0  -26.295479 23.800434 49.987076  0.478091 -0.367465 -0.797746  -1.820312 -0.299408 0
0  -11.579353 19.373554 51.917439  -0.782644 0.586632 -0.208161  -1.513141 0.064910 0
0  -26.382767 23.312887 49.722298  0.564690 0.767838 -0.302572  -1.753175 -0.303285 0
blue_test_2
0  -28.503130 31.468027 36.774334  0.427685 -0.896818 -0.113151  -3.526677 1.032677 0
0  -26.382767 23.312887 49.722298  0.564690 0.767838 -0.302572  -2.404190 1.394034 0
0  -28.616606 30.834217 36.430115  0.888846 -0.028605 0.457313  -3.453766 1.024947 0
blue_test_2
0  -13.555684 27.602558 38.785976  -0.605208 -0.749376 0.268624  -2.556240 1.836233 0
0  -28.616606 30.834217 36.430115  0.888846 -0.028605 0.457313  -2.693011 2.212475 0
0  -13.642962 27.115011 38.521206  -0.374711 0.183243 0.908853  -2.489033 1.839989 0
blue_test_2
0  -11.465888 20.007362 52.261650  -0.512148 -0.473996 -0.716263  -1.805316 0.137507 0
0  -13.642962 27.115011 38.521206  -0.374711 0.183243 0.908853  -2.812309 0.517691 0
0  -11.579353 19.373554 51.917439  -0.782644 0.586632 -0.208161  -1.732455 0.145189 0
blue_test_2
0  -14.318815 28.012001 39.928474  -0.367386 -0.893861 -0.256983  -0.033028 1.228336 0
0  -11.465888 20.007362 52.261650  -0.512148 -0.473996 -0.716263  0.405235 0.674755 0
0  -12.347620 21.581003 51.792934  -0.323888 -0.718399 -0.615629  0.215152 0.635103 0
blue_test_2
0  -25.619633 22.903435 48.579811  0.367890 0.893578 0.257244  0.085857 -0.689433 0
0  -11.579353 19.373554 51.917439  -0.782644 0.586632 -0.208161  -0.536858 0.345155 0
0  -12.774433 19.196957 50.498253  -0.024176 0.955656 0.293492  -0.330034 0.226654 0
blue_test_2
0  -27.734859 29.260576 36.898827  0.327195 0.719232 0.612902  0.362088 -0.168692 0
0  -26.382767 23.312887 49.722298  0.564690 0.767838 -0.302572  0.456462 0.464380 0
0  -25.619633 22.903435 48.579811  0.367890 0.893578 0.257244  0.599582 0.367199 0
blue_test_2
0  -25.291325 24.737320 49.575726  0.071134 -0.762944 -0.642539  -0.178349 1.815439 0
0  -28.503130 31.468027 36.774334  0.427685 -0.896818 -0.113151  0.428427 3.122247 0
0  -27.308056 31.644630 38.193504  0.027522 -0.954744 -0.296151  0.500005 3.004560 0
blue_test_2
0  -12.347620 21.581003 51.792934  -0.323888 -0.718399 -0.615629  -3.783577 -0.550716 0
0  -26.295479 23.800434 49.987076  0.478091 -0.367465 -0.797746  -4.361853 -1.446122 0
0  -25.291325 24.737320 49.575726  0.071134 -0.762944 -0.642539  -4.465434 -1.420300 0
blue_test_2
0  -14.647129 26.178120 38.932564  -0.070601 0.762739 0.642841  -4.047680 2.161538 0
0  -28.616606 30.834217 36.430115  0.888846 -0.028605 0.457313  -4.911513 3.316815 0
0  -27.734859 29.260576 36.898827  0.327195 0.719232 0.612902  -4.705103 3.198366 0
blue_test_2
0  -12.774433 19.196957 50.498253  -0.024176 0.955656 0.293492  -3.876222 2.313249 0
0  -13.642962 27.115011 38.521206  -0.374711 0.183243 0.908853  -4.751930 3.677544 0
0  -14.647129 26.178120 38.932564  -0.070601 0.762739 0.642841  -4.587132 3.601135 0
blue_test_2
0  -27.308056 31.644630 38.193504  0.027522 -0.954744 -0.296151  -0.599560 1.968958 0
0  -13.555684 27.602558 38.785976  -0.605208 -0.749376 0.268624  -0.810319 0.952253 0
0  -14.318815 28.012001 39.928474  -0.367386 -0.893861 -0.256983  -0.946138 0.979263 0
blue_test_2
0  -12.774433 19.196957 50.498253  -0.024176 0.955656 0.293492  1.549103 2.826287 0
0  -27.734859 29.260576 36.898827  0.327195 0.719232 0.612902  3.587131 4.509048 0
0  -25.619633 22.903435 48.579811  0.367890 0.893578 0.257244  3.169937 3.013791 0
glow_inner_2
0  30.862942 13.854128 71.684525  -0.273079 0.781361 0.561162  -2.479527 -0.023811 0
0  29.832573 16.889563 61.013798  -0.328443 0.944448 -0.012011  -2.468365 1.331472 0
0  22.328913 12.793210 66.483116  -0.554214 0.784264 0.278884  -1.441757 0.630027 0
glow_inner_2
0  31.127916 13.087864 72.377853  -0.123146 0.347677 0.929492  -0.733778 -2.533193 0
0  21.635197 11.240173 66.108315  -0.792325 -0.474681 -0.383275  -0.437155 -1.762210 0
0  31.259727 12.709939 72.257614  0.122806 -0.814093 0.567601  -0.684053 -2.540253 0
glow_inner_2
0  39.538902 18.021589 66.308662  0.356861 0.842377 0.403796  -0.909093 0.030816 0
0  31.259727 12.709939 72.257614  0.122806 -0.814093 0.567601  -0.368357 0.749925 0
0  39.710266 17.530285 66.152351  0.964381 -0.104707 0.242909  -0.847335 0.016203 0
glow_inner_2
0  29.931595 16.612206 59.988445  -0.177608 0.802503 -0.569600  -1.210412 3.949721 0
0  39.710266 17.530285 66.152351  0.964381 -0.104707 0.242909  -1.386100 4.741806 0
0  30.063402 16.234278 59.868210  0.296297 -0.183711 -0.937261  -1.160632 3.956601 0
glow_inner_2
0  21.463844 11.731475 66.264633  -0.791308 0.570333 0.220347  -0.138585 0.766116 0
0  30.063402 16.234278 59.868210  0.296297 -0.183711 -0.937261  -0.574314 1.519326 0
0  21.635197 11.240173 66.108315  -0.792325 -0.474681 -0.383275  -0.076794 0.780647 0
glow_inner_2
0  29.832573 16.889563 61.013798  -0.328443 0.944448 -0.012011  -1.172768 0.934853 0
0  21.463844 11.731475 66.264633  -0.791308 0.570333 0.220347  -0.160296 0.362974 0
0  22.328913 12.793210 66.483116  -0.554214 0.784264 0.278884  -0.335657 0.299279 0
glow_inner_2
0  31.358744 12.432577 71.232262  0.328761 -0.944335 0.012176  -1.167707 -2.122325 0
0  21.635197 11.240173 66.108315  -0.792325 -0.474681 -0.383275  -0.872312 -1.199212 0
0  22.973454 10.945197 65.895187  0.054061 -0.959659 -0.275919  -0.784187 -1.335300 0
glow_inner_2
0  38.845192 16.468552 65.933853  0.554736 -0.785367 -0.274712  -0.806453 0.288535 0
0  31.259727 12.709939 72.257614  0.122806 -0.814093 0.567601  -0.043172 0.897025 0
0  31.358744 12.432577 71.232262  0.328761 -0.944335 0.012176  0.006529 0.782293 0
glow_inner_2
0  30.862942 13.854128 71.684525  -0.273079 0.781361 0.561162  -3.170427 -0.137273 0
0  39.538902 18.021589 66.308662  0.356861 0.842377 0.403796  -3.728336 0.785157 0
0  38.200653 18.316572 66.521790  -0.053476 0.958484 0.280086  -3.566293 0.749705 0
glow_inner_2
0  22.328913 12.793210 66.483116  -0.554214 0.784264 0.278884  -0.995183 -1.645964 0
0  31.127916 13.087864 72.377853  -0.123146 0.347677 0.929492  -0.533551 -2.504910 0
0  30.862942 13.854128 71.684525  -0.273079 0.781361 0.561162  -0.670612 -2.493936 0
glow_inner_2
0  30.328377 15.468014 60.561546  0.273478 -0.781302 -0.561050  -0.696348 3.955493 0
0  39.710266 17.530285 66.152351  0.964381 -0.104707 0.242909  -0.415374 5.265984 0
0  38.845192 16.468552 65.933853  0.554736 -0.785367 -0.274712  -0.323807 5.124513 0
glow_inner_2
0  22.973454 10.945197 65.895187  0.054061 -0.959659 -0.275919  -1.055544 0.553011 0
0  30.063402 16.234278 59.868210  0.296297 -0.183711 -0.937261  -0.757920 1.620499 0
0  30.328377 15.468014 60.561546  0.273478 -0.781302 -0.561050  -0.662154 1.507948 0
glow_inner_2
0  38.200653 18.316572 66.521790  -0.053476 0.958484 0.280086  -2.289117 4.497318 0
0  29.931595 16.612206 59.988445  -0.177608 0.802503 -0.569600  -1.625379 3.319641 0
0  29.832573 16.889563 61.013798  -0.328443 0.944448 -0.012011  -1.763536 3.321065 0
glow_inner_2
0  22.973454 10.945197 65.895187  0.054061 -0.959659 -0.275919  2.528143 0.702176 0
0  38.845192 16.468552 65.933853  0.554736 -0.785367 -0.274712  4.585839 0.715304 0
0  31.358744 12.432577 71.232262  0.328761 -0.944335 0.012176  3.563431 0.037277 0
glow_inner_2
0  14.679628 5.685231 82.689575  -0.985104 -0.024634 -0.170189  0.537175 0.022198 0
0  26.137487 7.581033 83.204407  0.682577 0.127989 -0.719519  0.567754 0.572831 0
0  14.792892 5.159641 82.611465  -0.431981 -0.767920 -0.472960  0.601849 0.021462 0
glow_inner_2
0  18.701664 4.887664 93.450302  -0.574724 0.412669 0.706680  0.136198 -2.650464 0
0  14.792892 5.159641 82.611465  -0.431981 -0.767920 -0.472960  0.199784 -2.116512 0
0  18.788794 4.483368 93.390198  -0.433381 -0.790073 0.433550  0.187525 -2.652491 0
glow_inner_2
0  19.091078 5.660744 92.826775  -0.368792 0.851395 0.372986  -0.901495 -2.564516 0
0  25.420355 8.328696 84.053978  -0.028824 0.994745 -0.098242  -1.712853 -1.510228 0
0  15.451916 6.507101 83.496719  -0.413253 0.910428 -0.018488  -0.473353 -1.442413 0
glow_inner_2
0  26.050369 7.985335 83.264496  0.691471 0.447908 -0.566785  -0.274711 4.670161 0
0  30.029669 6.737768 94.084282  0.941776 -0.050171 0.332476  -0.218721 5.211664 0
0  26.137487 7.581033 83.204407  0.682577 0.127989 -0.719519  -0.223372 4.672167 0
glow_inner_2
0  25.420355 8.328696 84.053978  -0.028824 0.994745 -0.098242  -1.039418 -0.613879 0
0  14.679628 5.685231 82.689575  -0.985104 -0.024634 -0.170189  0.074517 -0.659527 0
0  15.451916 6.507101 83.496719  -0.413253 0.910428 -0.018488  -0.096901 -0.749331 0
glow_inner_2
0  29.916399 7.263355 94.162415  0.615046 0.068748 0.785488  0.394302 1.452994 0
0  18.788794 4.483368 93.390198  -0.433381 -0.790073 0.433550  0.478344 1.998839 0
0  30.029669 6.737768 94.084282  0.941776 -0.050171 0.332476  0.458980 1.453661 0
blue_test_2
0  30.956329 13.581851 73.582161  0.273103 -0.781357 -0.561157  -2.479773 -0.264296 0
0  29.571665 17.661026 59.242283  0.328422 -0.944455 0.012019  -2.464712 1.556940 0
0  40.817131 19.578714 66.644196  0.053252 -0.958501 -0.280072  -3.851018 0.638008 0
blue_test_2
0  31.312412 12.552103 74.513901  0.122783 -0.347924 -0.929448  -0.691804 -2.578148 0
0  18.555599 10.069077 66.088562  0.792359 0.474595 0.383311  -0.293185 -1.542059 0
0  18.325321 10.729319 66.298615  0.791292 -0.570325 -0.220424  -0.380054 -1.529725 0
blue_test_2
0  42.615547 19.182304 66.357796  -0.356848 -0.842401 -0.403757  -0.982657 -0.100258 0
0  31.489555 12.044228 74.352310  -0.122871 0.814128 -0.567537  -0.255986 0.866122 0
0  31.312412 12.552103 74.513901  0.122783 -0.347924 -0.929448  -0.319827 0.881227 0
blue_test_2
0  29.704727 17.288298 57.864365  0.177521 -0.802575 0.569526  -1.269578 3.900113 0
0  42.845829 18.522066 66.147736  -0.964364 0.104621 -0.243016  -1.505681 4.964539 0
0  42.615547 19.182304 66.357796  -0.356848 -0.842401 -0.403757  -1.592646 4.952514 0
blue_test_2
0  18.325321 10.729319 66.298615  0.791292 -0.570325 -0.220424  -0.086007 0.630230 0
0  29.881863 16.780416 57.702789  -0.296405 0.183760 0.937217  -0.671559 1.642431 0
0  29.704727 17.288298 57.864365  0.177521 -0.802575 0.569526  -0.735435 1.627410 0
blue_test_2
0  29.571665 17.661026 59.242283  0.328422 -0.944455 0.012019  -1.232678 1.299174 0
0  18.325321 10.729319 66.298615  0.791292 -0.570325 -0.220424  0.104060 0.669955 0
0  29.704727 17.288298 57.864365  0.177521 -0.802575 0.569526  -1.166900 1.459822 0
blue_test_2
0  31.622614 11.671494 72.974396  -0.329028 0.944242 -0.012167  -1.244931 -2.054394 0
0  18.555599 10.069077 66.088562  0.792359 0.474595 0.383311  -0.874188 -0.897801 0
0  31.489555 12.044228 74.352310  -0.122871 0.814128 -0.567537  -1.419884 -2.022440 0
blue_test_2
0  41.683296 17.095247 65.854111  -0.554908 0.785254 0.274688  -1.087514 0.119218 0
0  31.489555 12.044228 74.352310  -0.122871 0.814128 -0.567537  -0.075904 0.853905 0
0  42.845829 18.522066 66.147736  -0.964364 0.104621 -0.243016  -1.326647 0.183478 0
blue_test_2
0  30.956329 13.581851 73.582161  0.273103 -0.781357 -0.561157  -3.267797 -0.113834 0
0  42.615547 19.182304 66.357796  -0.356848 -0.842401 -0.403757  -4.008579 0.986447 0
0  31.312412 12.552103 74.513901  0.122783 -0.347924 -0.929448  -3.399017 -0.231184 0
blue_test_2
0  19.487848 12.156132 66.592247  0.554352 -0.784166 -0.278888  -0.905155 -1.393033 0
0  31.312412 12.552103 74.513901  0.122783 -0.347924 -0.929448  -0.296861 -2.453271 0
0  18.325321 10.729319 66.298615  0.791292 -0.570325 -0.220424  -0.778334 -1.247702 0
blue_test_2
0  30.237949 15.750672 58.634521  -0.273699 0.781241 0.561028  -0.894902 3.954206 0
0  42.845829 18.522066 66.147736  -0.964364 0.104621 -0.243016  -0.557685 5.396671 0
0  29.881863 16.780416 57.702789  -0.296405 0.183760 0.937217  -1.079205 3.937419 0
blue_test_2
0  20.354017 9.672675 65.802147  -0.053871 0.959671 0.275914  -1.254961 0.708144 0
0  29.881863 16.780416 57.702789  -0.296405 0.183760 0.937217  -0.869857 1.939394 0
0  18.555599 10.069077 66.088562  0.792359 0.474595 0.383311  -1.471350 0.676987 0
blue_test_2
0  40.817131 19.578714 66.644196  0.053252 -0.958501 -0.280072  -2.254738 4.537749 0
0  29.704727 17.288298 57.864365  0.177521 -0.802575 0.569526  -1.467725 3.297902 0
0  42.615547 19.182304 66.357796  -0.356848 -0.842401 -0.403757  -2.143386 4.739723 0
blue_test_2
0  20.354017 9.672675 65.802147  -0.053871 0.959671 0.275914  2.176482 0.708896 0
0  41.683296 17.095247 65.854111  -0.554908 0.785254 0.274688  4.941764 0.726889 0
0  30.237949 15.750672 58.634521  -0.273699 0.781241 0.561028  3.553470 1.638650 0
glow_inner_2
0  19.418798 4.140001 92.600723  0.028990 -0.994707 0.098579  -3.055171 -1.462005 0
0  14.792892 5.159641 82.611465  -0.431981 -0.767920 -0.472960  -2.285467 -0.930943 0
0  15.877956 4.530141 83.202843  -0.011188 -0.955188 -0.295789  -2.259932 -1.048746 0
glow_inner_2
0  29.257387 5.915896 93.277145  0.410886 -0.911421 0.022008  -0.278462 2.333085 0
0  18.788794 4.483368 93.390198  -0.433381 -0.790073 0.433550  0.662536 2.678936 0
0  19.418798 4.140001 92.600723  0.028990 -0.994707 0.098579  0.688388 2.582050 0
glow_inner_2
0  19.091078 5.660744 92.826775  -0.368792 0.851395 0.372986  -2.897797 -3.015181 0
0  29.916399 7.263355 94.162415  0.615046 0.068748 0.785488  -4.115825 -2.705104 0
0  28.831358 7.892866 93.571007  0.008871 0.954116 0.299306  -3.948812 -2.644246 0
glow_inner_2
0  15.451916 6.507101 83.496719  -0.413253 0.910428 -0.018488  1.440494 -1.143573 0
0  18.701664 4.887664 93.450302  -0.574724 0.412669 0.706680  2.432825 -1.435218 0
0  19.091078 5.660744 92.826775  -0.368792 0.851395 0.372986  2.303632 -1.488217 0
glow_inner_2
0  25.748079 6.807955 83.827919  0.369044 -0.851429 -0.372660  2.588623 3.699136 0
0  30.029669 6.737768 94.084282  0.941776 -0.050171 0.332476  3.505620 4.357525 0
0  29.257387 5.915896 93.277145  0.410886 -0.911421 0.022008  3.506704 4.215377 0
glow_inner_2
0  15.877956 4.530141 83.202843  -0.011188 -0.955188 -0.295789  -0.899903 -1.541537 0
0  26.137487 7.581033 83.204407  0.682577 0.127989 -0.719519  0.103196 -1.254107 0
0  25.748079 6.807955 83.827919  0.369044 -0.851429 -0.372660  0.115399 -1.364092 0
glow_inner_2
0  28.831358 7.892866 93.571007  0.008871 0.954116 0.299306  -4.472058 4.004932 0
0  26.050369 7.985335 83.264496  0.691471 0.447908 -0.566785  -3.458235 3.484128 0
0  25.420355 8.328696 84.053978  -0.028824 0.994745 -0.098242  -3.592685 3.431566 0
glow_inner_2
0  15.877956 4.530141 83.202843  -0.011188 -0.955188 -0.295789  1.533505 -1.405729 0
0  29.257387 5.915896 93.277145  0.410886 -0.911421 0.022008  3.184562 -2.618069 0
0  19.418798 4.140001 92.600723  0.028990 -0.994707 0.098579  1.962574 -2.535489 0
blue_test_2
0  17.957731 5.467439 94.363670  0.368809 -0.851394 -0.372972  -0.766040 -2.748087 0
0  26.463343 9.052770 82.574326  0.028801 -0.994746 0.098237  -1.856377 -1.331084 0
0  31.047228 8.467079 95.363815  -0.009044 -0.954073 -0.299438  -2.409232 -2.868372 0
blue_test_2
0  17.434412 4.428535 95.201584  0.574359 -0.412811 -0.706894  0.165514 -2.596094 0
0  12.181603 4.794028 80.635803  0.483578 0.280243 0.829226  0.250971 -1.878544 0
0  12.029389 5.500341 80.740791  0.608184 -0.759780 0.229885  0.161302 -1.875003 0
blue_test_2
0  32.505375 7.621114 96.158569  -0.221885 -0.745596 -0.628374  0.426902 1.437554 0
0  17.551500 3.885212 95.120834  0.433307 0.790111 -0.433555  0.539833 2.171089 0
0  17.434412 4.428535 95.201584  0.574359 -0.412811 -0.706894  0.472971 2.170396 0
blue_test_2
0  27.309984 8.591338 81.513382  -0.390051 -0.792465 0.468891  -0.321302 4.722668 0
0  32.657593 6.914802 96.053574  -0.567675 0.329730 -0.754337  -0.246081 5.450354 0
0  32.505375 7.621114 96.158569  -0.221885 -0.745596 -0.628374  -0.335770 5.446845 0
blue_test_2
0  12.029389 5.500341 80.740791  0.608184 -0.759780 0.229885  0.482351 0.007427 0
0  27.427071 8.048022 81.432617  -0.749294 0.297727 0.591538  0.523424 0.747401 0
0  27.309984 8.591338 81.513382  -0.390051 -0.792465 0.468891  0.456568 0.748160 0
blue_test_2
0  26.463343 9.052770 82.574326  0.028801 -0.994746 0.098237  -1.205505 -0.135936 0
0  12.029389 5.500341 80.740791  0.608184 -0.759780 0.229885  0.282849 -0.153008 0
0  27.309984 8.591338 81.513382  -0.390051 -0.792465 0.468891  -1.167608 -0.017457 0
blue_test_2
0  18.398136 3.423779 94.059898  -0.029225 0.994684 -0.098740  -3.141126 -1.244087 0
0  12.181603 4.794028 80.635803  0.483578 0.280243 0.829226  -2.141053 -0.644572 0
0  17.551500 3.885212 95.120834  0.433307 0.790111 -0.433555  -3.318057 -1.169456 0
blue_test_2
0  31.619749 5.810322 94.968910  -0.411026 0.911354 -0.022145  -0.567989 1.992310 0
0  17.551500 3.885212 95.120834  0.433307 0.790111 -0.433555  0.675040 2.337999 0
0  32.657593 6.914802 96.053574  -0.567675 0.329730 -0.754337  -0.803772 2.084079 0
blue_test_2
0  17.957731 5.467439 94.363670  0.368809 -0.851394 -0.372972  -2.844000 -2.584877 0
0  32.505375 7.621114 96.158569  -0.221885 -0.745596 -0.628374  -4.474355 -2.265691 0
0  17.434412 4.428535 95.201584  0.574359 -0.412811 -0.706894  -2.858229 -2.716719 0
blue_test_2
0  13.067239 6.604823 81.825432  0.413371 -0.910373 0.018601  1.291363 -0.938796 0
0  17.434412 4.428535 95.201584  0.574359 -0.412811 -0.706894  2.615300 -1.256319 0
0  12.029389 5.500341 80.740791  0.608184 -0.759780 0.229885  1.302762 -0.806973 0
blue_test_2
0  26.903744 7.009115 82.270546  -0.369210 0.851428 0.372499  2.427624 3.753290 0
0  32.657593 6.914802 96.053574  -0.567675 0.329730 -0.754337  3.638584 4.470145 0
0  27.427071 8.048022 81.432617  -0.749294 0.297727 0.591538  2.254270 3.829397 0
blue_test_2
0  13.639762 3.948069 81.430542  0.011342 0.955155 0.295889  -1.129347 -0.951310 0
0  27.427071 8.048022 81.432617  -0.749294 0.297727 0.591538  0.216376 -0.618665 0
0  12.181603 4.794028 80.635803  0.483578 0.280243 0.829226  -1.350786 -0.845576 0
blue_test_2
0  31.047228 8.467079 95.363815  -0.009044 -0.954073 -0.299438  -4.551921 4.003113 0
0  27.309984 8.591338 81.513382  -0.390051 -0.792465 0.468891  -3.244215 3.476645 0
0  32.505375 7.621114 96.158569  -0.221885 -0.745596 -0.628374  -4.520971 4.171441 0
blue_test_2
0  13.639762 3.948069 81.430542  0.011342 0.955155 0.295889  1.245515 -1.193777 0
0  31.619749 5.810322 94.968910  -0.411026 0.911354 -0.022145  3.464346 -2.822739 0
0  26.903744 7.009115 82.270546  -0.369210 0.851428 0.372499  2.909574 -1.295326 0
glow_inner_2
0  13.650852 21.397228 50.224495  -0.296659 -0.353875 0.886999  -1.965461 0.193400 0
0  15.270889 26.686230 39.999844  -0.621577 0.164206 -0.765949  -2.714815 0.476315 0
0  13.735291 20.925591 49.968369  -0.303889 -0.946009 0.112776  -1.911242 0.199115 0
glow_inner_2
0  24.685995 24.219759 48.531921  0.478209 0.367343 0.797731  -1.882374 -0.280023 0
0  13.735291 20.925591 49.968369  -0.303889 -0.946009 0.112776  -1.653805 -0.008918 0
0  24.750938 23.856962 48.334896  0.564719 -0.767797 0.302623  -1.832414 -0.282909 0
glow_inner_2
0  23.938770 24.916924 48.225834  0.071180 0.762924 0.642557  -1.966441 3.069426 0
0  15.773802 27.353712 41.047028  -0.367415 0.893854 0.256965  -1.061487 4.039866 0
0  14.306988 22.568214 49.875725  -0.323807 0.718486 0.615571  -0.763499 2.912241 0
glow_inner_2
0  15.205933 27.049034 40.196857  -0.561694 0.497599 -0.660981  -2.475394 1.857370 0
0  26.413208 29.453800 38.443806  0.465196 0.307130 -0.830219  -2.577200 2.137347 0
0  15.270889 26.686230 39.999844  -0.621577 0.164206 -0.765949  -2.425384 1.860170 0
glow_inner_2
0  15.773802 27.353712 41.047028  -0.367415 0.893854 0.256965  -0.059297 0.968735 0
0  13.650852 21.397228 50.224495  -0.296659 -0.353875 0.886999  0.276795 0.496672 0
0  14.306988 22.568214 49.875725  -0.323807 0.718486 0.615571  0.135665 0.467047 0
glow_inner_2
0  26.328770 29.925438 38.699932  0.817212 0.419777 -0.394908  -3.349060 1.086522 0
0  24.750938 23.856962 48.334896  0.564719 -0.767797 0.302623  -2.513821 1.355375 0
0  26.413208 29.453800 38.443806  0.465196 0.307130 -0.830219  -3.294804 1.080767 0
glow_inner_2
0  24.183073 23.552277 47.484734  0.367750 -0.893695 -0.257039  0.129116 -0.488393 0
0  13.735291 20.925591 49.968369  -0.303889 -0.946009 0.112776  -0.321478 0.326831 0
0  14.624586 20.794178 48.912308  -0.024100 -0.955619 -0.293617  -0.167503 0.239484 0
glow_inner_2
0  25.757072 28.282810 38.792568  0.327086 -0.719337 -0.612836  0.510082 0.085768 0
0  24.750938 23.856962 48.334896  0.564719 -0.767797 0.302623  0.593024 0.628338 0
0  24.183073 23.552277 47.484734  0.367750 -0.893695 -0.257039  0.699007 0.551276 0
glow_inner_2
0  23.938770 24.916924 48.225834  0.071180 0.762924 0.642557  0.014262 1.832999 0
0  26.328770 29.925438 38.699932  0.817212 0.419777 -0.394908  0.457417 2.931604 0
0  25.439476 30.056858 39.755985  0.027393 0.954709 0.296279  0.511768 2.829711 0
glow_inner_2
0  14.306988 22.568214 49.875725  -0.323807 0.718486 0.615571  -4.073977 -0.506320 0
0  24.685995 24.219759 48.531921  0.478209 0.367343 0.797731  -4.496226 -1.223089 0
0  23.938770 24.916924 48.225834  0.071180 0.762924 0.642557  -4.573749 -1.199711 0
glow_inner_2
0  16.018110 25.989067 40.305927  -0.070808 -0.762803 -0.642742  -4.012459 1.787435 0
0  26.413208 29.453800 38.443806  0.465196 0.307130 -0.830219  -4.643066 2.767119 0
0  25.757072 28.282810 38.792568  0.327086 -0.719337 -0.612836  -4.490249 2.670217 0
glow_inner_2
0  14.624586 20.794178 48.912308  -0.024100 -0.955619 -0.293617  -3.861372 2.531914 0
0  15.270889 26.686230 39.999844  -0.621577 0.164206 -0.765949  -4.501646 3.687717 0
0  16.018110 25.989067 40.305927  -0.070808 -0.762803 -0.642742  -4.380026 3.623226 0
glow_inner_2
0  25.439476 30.056858 39.755985  0.027393 0.954709 0.296279  -0.606487 1.497715 0
0  15.205933 27.049034 40.196857  -0.561694 0.497599 -0.660981  -0.733369 0.641379 0
0  15.773802 27.353712 41.047028  -0.367415 0.893854 0.256965  -0.837859 0.672125 0
glow_inner_2
0  14.624586 20.794178 48.912308  -0.024100 -0.955619 -0.293617  1.812816 3.024818 0
0  25.757072 28.282810 38.792568  0.327086 -0.719337 -0.612836  3.329203 4.276054 0
0  24.183073 23.552277 47.484734  0.367750 -0.893695 -0.257039  3.018641 3.164474 0
blue_test_2
0  25.291325 24.737320 49.575726  -0.071159 -0.762919 -0.642566  -2.123986 2.888130 0
0  14.318815 28.012001 39.928474  0.367407 -0.893863 -0.256946  -0.908164 4.192639 0
0  27.308056 31.644630 38.193504  -0.027551 -0.954751 -0.296127  -2.545062 4.362810 0
blue_test_2
0  26.295479 23.800434 49.987076  -0.478428 -0.367623 -0.797471  -1.820312 -0.299408 0
0  11.579353 19.373554 51.917439  0.782622 0.586668 -0.208141  -1.513141 0.064910 0
0  11.465888 20.007362 52.261650  0.512118 -0.473988 -0.716289  -1.600420 0.069950 0
blue_test_2
0  28.503130 31.468027 36.774334  -0.427694 -0.896816 -0.113128  -3.526677 1.032677 0
0  26.382767 23.312887 49.722298  -0.564736 0.767818 -0.302537  -2.404190 1.394034 0
0  26.295479 23.800434 49.987076  -0.478428 -0.367623 -0.797471  -2.460274 1.399980 0
blue_test_2
0  13.555684 27.602558 38.785976  0.605199 -0.749363 0.268681  -2.556240 1.836233 0
0  28.616606 30.834217 36.430115  -0.888836 -0.028674 0.457328  -2.693011 2.212475 0
0  28.503130 31.468027 36.774334  -0.427694 -0.896816 -0.113128  -2.780382 2.207592 0
blue_test_2
0  11.465888 20.007362 52.261650  0.512118 -0.473988 -0.716289  -1.805316 0.137507 0
0  13.642962 27.115011 38.521206  0.374740 0.183241 0.908841  -2.812309 0.517691 0
0  13.555684 27.602558 38.785976  0.605199 -0.749363 0.268681  -2.868355 0.511782 0
blue_test_2
0  14.318815 28.012001 39.928474  0.367407 -0.893863 -0.256946  -0.033028 1.228336 0
0  11.465888 20.007362 52.261650  0.512118 -0.473988 -0.716289  0.405235 0.674755 0
0  13.555684 27.602558 38.785976  0.605199 -0.749363 0.268681  0.106707 1.342617 0
blue_test_2
0  25.619633 22.903435 48.579811  -0.367928 0.893570 0.257220  0.085857 -0.689433 0
0  11.579353 19.373554 51.917439  0.782622 0.586668 -0.208141  -0.536858 0.345155 0
0  26.382767 23.312887 49.722298  -0.564736 0.767818 -0.302537  -0.044039 -0.708879 0
blue_test_2
0  27.734859 29.260576 36.898827  -0.327216 0.719207 0.612920  0.362088 -0.168692 0
0  26.382767 23.312887 49.722298  -0.564736 0.767818 -0.302537  0.456462 0.464380 0
0  28.616606 30.834217 36.430115  -0.888836 -0.028674 0.457328  0.171996 -0.142019 0
blue_test_2
0  25.291325 24.737320 49.575726  -0.071159 -0.762919 -0.642566  -0.178349 1.815439 0
0  28.503130 31.468027 36.774334  -0.427694 -0.896816 -0.113128  0.428427 3.122247 0
0  26.295479 23.800434 49.987076  -0.478428 -0.367623 -0.797471  -0.344759 1.759012 0
blue_test_2
0  12.347620 21.581003 51.792934  0.323910 -0.718374 -0.615647  -3.783577 -0.550716 0
0  26.295479 23.800434 49.987076  -0.478428 -0.367623 -0.797471  -4.361853 -1.446122 0
0  11.465888 20.007362 52.261650  0.512118 -0.473988 -0.716289  -3.575749 -0.446171 0
blue_test_2
0  14.647129 26.178120 38.932564  0.070643 0.762725 0.642853  -4.047680 2.161538 0
0  28.616606 30.834217 36.430115  -0.888836 -0.028674 0.457328  -4.911513 3.316815 0
0  13.642962 27.115011 38.521206  0.374740 0.183241 0.908841  -4.150814 2.127362 0
blue_test_2
0  12.774433 19.196957 50.498253  0.024207 0.955662 0.293469  -3.876222 2.313249 0
0  13.642962 27.115011 38.521206  0.374740 0.183241 0.908841  -4.751930 3.677544 0
0  11.579353 19.373554 51.917439  0.782622 0.586668 -0.208141  -3.945779 2.203490 0
blue_test_2
0  27.308056 31.644630 38.193504  -0.027551 -0.954751 -0.296127  -0.599560 1.968958 0
0  13.555684 27.602558 38.785976  0.605199 -0.749363 0.268681  -0.810319 0.952253 0
0  28.503130 31.468027 36.774334  -0.427694 -0.896816 -0.113128  -0.394663 2.089684 0
blue_test_2
0  12.774433 19.196957 50.498253  0.024207 0.955662 0.293469  1.549103 2.826287 0
0  27.734859 29.260576 36.898827  -0.327216 0.719207 0.612920  3.587131 4.509048 0
0  14.647129 26.178120 38.932564  0.070643 0.762725 0.642853  1.956690 4.329334 0
glow_inner_2
0  -30.862942 13.854128 71.684525  0.273095 0.781388 0.561116  -2.479527 -0.023811 0
0  -22.328913 12.793210 66.483116  0.554214 0.784264 0.278886  -1.441757 0.630027 0
0  -29.832573 16.889563 61.013798  0.328440 0.944449 -0.011956  -2.468365 1.331472 0
glow_inner_2
0  -31.127916 13.087864 72.377853  0.123166 0.347733 0.929469  -0.733778 -2.533193 0
0  -31.259727 12.709939 72.257614  -0.122833 -0.814135 0.567535  -0.684053 -2.540253 0
0  -21.635197 11.240173 66.108315  0.792344 -0.474618 -0.383314  -0.437155 -1.762210 0
glow_inner_2
0  -39.538902 18.021589 66.308662  -0.356861 0.842378 0.403795  -0.909093 0.030816 0
0  -39.710266 17.530285 66.152351  -0.964369 -0.104648 0.242986  -0.847335 0.016203 0
0  -31.259727 12.709939 72.257614  -0.122833 -0.814135 0.567535  -0.368357 0.749925 0
glow_inner_2
0  -29.931595 16.612206 59.988445  0.177549 0.802543 -0.569562  -1.210412 3.949721 0
0  -30.063402 16.234278 59.868210  -0.296356 -0.183724 -0.937240  -1.160632 3.956601 0
0  -39.710266 17.530285 66.152351  -0.964369 -0.104648 0.242986  -1.386100 4.741806 0
glow_inner_2
0  -21.463844 11.731475 66.264633  0.791303 0.570323 0.220387  -0.138585 0.766116 0
0  -21.635197 11.240173 66.108315  0.792344 -0.474618 -0.383314  -0.076794 0.780647 0
0  -30.063402 16.234278 59.868210  -0.296356 -0.183724 -0.937240  -0.574314 1.519326 0
glow_inner_2
0  -29.832573 16.889563 61.013798  0.328440 0.944449 -0.011956  -1.172768 0.934853 0
0  -22.328913 12.793210 66.483116  0.554214 0.784264 0.278886  -0.335657 0.299279 0
0  -21.463844 11.731475 66.264633  0.791303 0.570323 0.220387  -0.160296 0.362974 0
glow_inner_2
0  -31.358744 12.432577 71.232262  -0.328766 -0.944333 0.012122  -1.167707 -2.122325 0
0  -22.973454 10.945197 65.895187  -0.054065 -0.959665 -0.275899  -0.784187 -1.335300 0
0  -21.635197 11.240173 66.108315  0.792344 -0.474618 -0.383314  -0.872312 -1.199212 0
glow_inner_2
0  -38.845192 16.468552 65.933853  -0.554736 -0.785367 -0.274712  -0.806453 0.288535 0
0  -31.358744 12.432577 71.232262  -0.328766 -0.944333 0.012122  0.006529 0.782293 0
0  -31.259727 12.709939 72.257614  -0.122833 -0.814135 0.567535  -0.043172 0.897025 0
glow_inner_2
0  -30.862942 13.854128 71.684525  0.273095 0.781388 0.561116  -3.170427 -0.137273 0
0  -38.200653 18.316572 66.521790  0.053476 0.958484 0.280086  -3.566293 0.749705 0
0  -39.538902 18.021589 66.308662  -0.356861 0.842378 0.403795  -3.728336 0.785157 0
glow_inner_2
0  -22.328913 12.793210 66.483116  0.554214 0.784264 0.278886  -0.995183 -1.645964 0
0  -30.862942 13.854128 71.684525  0.273095 0.781388 0.561116  -0.670612 -2.493936 0
0  -31.127916 13.087864 72.377853  0.123166 0.347733 0.929469  -0.533551 -2.504910 0
glow_inner_2
0  -30.328377 15.468014 60.561546  -0.273483 -0.781332 -0.561006  -0.696348 3.955493 0
0  -38.845192 16.468552 65.933853  -0.554736 -0.785367 -0.274712  -0.323807 5.124513 0
0  -39.710266 17.530285 66.152351  -0.964369 -0.104648 0.242986  -0.415374 5.265984 0
glow_inner_2
0  -22.973454 10.945197 65.895187  -0.054065 -0.959665 -0.275899  -1.055544 0.553011 0
0  -30.328377 15.468014 60.561546  -0.273483 -0.781332 -0.561006  -0.662154 1.507948 0
0  -30.063402 16.234278 59.868210  -0.296356 -0.183724 -0.937240  -0.757920 1.620499 0
glow_inner_2
0  -38.200653 18.316572 66.521790  0.053476 0.958484 0.280086  -2.289117 4.497318 0
0  -29.832573 16.889563 61.013798  0.328440 0.944449 -0.011956  -1.763536 3.321065 0
0  -29.931595 16.612206 59.988445  0.177549 0.802543 -0.569562  -1.625379 3.319641 0
glow_inner_2
0  -22.973454 10.945197 65.895187  -0.054065 -0.959665 -0.275899  2.528143 0.702176 0
0  -31.358744 12.432577 71.232262  -0.328766 -0.944333 0.012122  3.563431 0.037277 0
0  -38.845192 16.468552 65.933853  -0.554736 -0.785367 -0.274712  4.585839 0.715304 0
glow_inner_2
0  -14.679628 5.685231 82.689575  0.985104 -0.024634 -0.170189  0.537175 0.022198 0
0  -14.792892 5.159641 82.611465  0.431935 -0.767965 -0.472930  0.601849 0.021462 0
0  -26.137487 7.581033 83.204407  -0.682579 0.128053 -0.719506  0.567754 0.572831 0
glow_inner_2
0  -18.701664 4.887664 93.450302  0.574713 0.412727 0.706655  0.136198 -2.650464 0
0  -18.788794 4.483368 93.390198  0.433330 -0.790123 0.433509  0.187525 -2.652491 0
0  -14.792892 5.159641 82.611465  0.431935 -0.767965 -0.472930  0.199784 -2.116512 0
glow_inner_2
0  -19.091078 5.660744 92.826775  0.368784 0.851421 0.372936  -0.901495 -2.564516 0
0  -15.451916 6.507101 83.496719  0.413255 0.910428 -0.018487  -0.473353 -1.442413 0
0  -25.420355 8.328696 84.053978  0.028855 0.994749 -0.098196  -1.712853 -1.510228 0
glow_inner_2
0  -26.050369 7.985335 83.264496  -0.691520 0.447883 -0.566746  -0.274711 4.670161 0
0  -26.137487 7.581033 83.204407  -0.682579 0.128053 -0.719506  -0.223372 4.672167 0
0  -30.029669 6.737768 94.084282  -0.941780 -0.050082 0.332478  -0.218721 5.211664 0
glow_inner_2
0  -25.420355 8.328696 84.053978  0.028855 0.994749 -0.098196  -1.039418 -0.613879 0
0  -15.451916 6.507101 83.496719  0.413255 0.910428 -0.018487  -0.096901 -0.749331 0
0  -14.679628 5.685231 82.689575  0.985104 -0.024634 -0.170189  0.074517 -0.659527 0
glow_inner_2
0  -29.916399 7.263355 94.162415  -0.615029 0.068755 0.785501  0.394302 1.452994 0
0  -30.029669 6.737768 94.084282  -0.941780 -0.050082 0.332478  0.458980 1.453661 0
0  -18.788794 4.483368 93.390198  0.433330 -0.790123 0.433509  0.478344 1.998839 0
blue_test_2
0  -30.956329 13.581851 73.582161  -0.273115 -0.781376 -0.561123  -2.479773 -0.264296 0
0  -40.817131 19.578714 66.644196  -0.053290 -0.958499 -0.280071  -3.851018 0.638008 0
0  -29.571665 17.661026 59.242283  -0.328431 -0.944452 0.011977  -2.464712 1.556940 0
blue_test_2
0  -31.312412 12.552103 74.513901  -0.123224 -0.347796 -0.929438  -0.691804 -2.578148 0
0  -18.325321 10.729319 66.298615  -0.791295 -0.570334 -0.220388  -0.380054 -1.529725 0
0  -18.555599 10.069077 66.088562  -0.792386 0.474537 0.383326  -0.293185 -1.542059 0
blue_test_2
0  -42.615547 19.182304 66.357796  0.356848 -0.842401 -0.403757  -0.982657 -0.100258 0
0  -31.312412 12.552103 74.513901  -0.123224 -0.347796 -0.929438  -0.319827 0.881227 0
0  -31.489555 12.044228 74.352310  0.122811 0.814141 -0.567532  -0.255986 0.866122 0
blue_test_2
0  -29.704727 17.288298 57.864365  -0.177563 -0.802592 0.569489  -1.269578 3.900113 0
0  -42.615547 19.182304 66.357796  0.356848 -0.842401 -0.403757  -1.592646 4.952514 0
0  -42.845829 18.522066 66.147736  0.964353 0.104690 -0.243031  -1.505681 4.964539 0
blue_test_2
0  -18.325321 10.729319 66.298615  -0.791295 -0.570334 -0.220388  -0.086007 0.630230 0
0  -29.704727 17.288298 57.864365  -0.177563 -0.802592 0.569489  -0.735435 1.627410 0
0  -29.881863 16.780416 57.702789  0.296434 0.183767 0.937207  -0.671559 1.642431 0
blue_test_2
0  -29.571665 17.661026 59.242283  -0.328431 -0.944452 0.011977  -1.232678 1.299174 0
0  -29.704727 17.288298 57.864365  -0.177563 -0.802592 0.569489  -1.166900 1.459822 0
0  -18.325321 10.729319 66.298615  -0.791295 -0.570334 -0.220388  0.104060 0.669955 0
blue_test_2
0  -31.622614 11.671494 72.974396  0.329015 0.944247 -0.012124  -1.244931 -2.054394 0
0  -31.489555 12.044228 74.352310  0.122811 0.814141 -0.567532  -1.419884 -2.022440 0
0  -18.555599 10.069077 66.088562  -0.792386 0.474537 0.383326  -0.874188 -0.897801 0
blue_test_2
0  -41.683296 17.095247 65.854111  0.554877 0.785275 0.274690  -1.087514 0.119218 0
0  -42.845829 18.522066 66.147736  0.964353 0.104690 -0.243031  -1.326647 0.183478 0
0  -31.489555 12.044228 74.352310  0.122811 0.814141 -0.567532  -0.075904 0.853905 0
blue_test_2
0  -30.956329 13.581851 73.582161  -0.273115 -0.781376 -0.561123  -3.267797 -0.113834 0
0  -31.312412 12.552103 74.513901  -0.123224 -0.347796 -0.929438  -3.399017 -0.231184 0
0  -42.615547 19.182304 66.357796  0.356848 -0.842401 -0.403757  -4.008579 0.986447 0
blue_test_2
0  -19.487848 12.156132 66.592247  -0.554320 -0.784187 -0.278891  -0.905155 -1.393033 0
0  -18.325321 10.729319 66.298615  -0.791295 -0.570334 -0.220388  -0.778334 -1.247702 0
0  -31.312412 12.552103 74.513901  -0.123224 -0.347796 -0.929438  -0.296861 -2.453271 0
blue_test_2
0  -30.237949 15.750672 58.634521  0.273720 0.781259 0.560992  -0.894902 3.954206 0
0  -29.881863 16.780416 57.702789  0.296434 0.183767 0.937207  -1.079205 3.937419 0
0  -42.845829 18.522066 66.147736  0.964353 0.104690 -0.243031  -0.557685 5.396671 0
blue_test_2
0  -20.354017 9.672675 65.802147  0.053910 0.959670 0.275911  -1.254961 0.708144 0
0  -18.555599 10.069077 66.088562  -0.792386 0.474537 0.383326  -1.471350 0.676987 0
0  -29.881863 16.780416 57.702789  0.296434 0.183767 0.937207  -0.869857 1.939394 0
blue_test_2
0  -40.817131 19.578714 66.644196  -0.053290 -0.958499 -0.280071  -2.254738 4.537749 0
0  -42.615547 19.182304 66.357796  0.356848 -0.842401 -0.403757  -2.143386 4.739723 0
0  -29.704727 17.288298 57.864365  -0.177563 -0.802592 0.569489  -1.467725 3.297902 0
blue_test_2
0  -20.354017 9.672675 65.802147  0.053910 0.959670 0.275911  2.176482 0.708896 0
0  -30.237949 15.750672 58.634521  0.273720 0.781259 0.560992  3.553470 1.638650 0
0  -41.683296 17.095247 65.854111  0.554877 0.785275 0.274690  4.941764 0.726889 0
glow_inner_2
0  -19.418798 4.140001 92.600723  -0.029027 -0.994710 0.098539  -3.055171 -1.462005 0
0  -15.877956 4.530141 83.202843  0.011199 -0.955193 -0.295771  -2.259932 -1.048746 0
0  -14.792892 5.159641 82.611465  0.431935 -0.767965 -0.472930  -2.285467 -0.930943 0
glow_inner_2
0  -29.257387 5.915896 93.277145  -0.410886 -0.911421 0.022008  -0.278462 2.333085 0
0  -19.418798 4.140001 92.600723  -0.029027 -0.994710 0.098539  0.688388 2.582050 0
0  -18.788794 4.483368 93.390198  0.433330 -0.790123 0.433509  0.662536 2.678936 0
glow_inner_2
0  -19.091078 5.660744 92.826775  0.368784 0.851421 0.372936  -2.897797 -3.015181 0
0  -28.831358 7.892866 93.571007  -0.008871 0.954116 0.299306  -3.948812 -2.644246 0
0  -29.916399 7.263355 94.162415  -0.615029 0.068755 0.785501  -4.115825 -2.705104 0
glow_inner_2
0  -15.451916 6.507101 83.496719  0.413255 0.910428 -0.018487  1.440494 -1.143573 0
0  -19.091078 5.660744 92.826775  0.368784 0.851421 0.372936  2.303632 -1.488217 0
0  -18.701664 4.887664 93.450302  0.574713 0.412727 0.706655  2.432825 -1.435218 0
glow_inner_2
0  -25.748079 6.807955 83.827919  -0.369014 -0.851457 -0.372625  2.588623 3.699136 0
0  -29.257387 5.915896 93.277145  -0.410886 -0.911421 0.022008  3.506704 4.215377 0
0  -30.029669 6.737768 94.084282  -0.941780 -0.050082 0.332478  3.505620 4.357525 0
glow_inner_2
0  -15.877956 4.530141 83.202843  0.011199 -0.955193 -0.295771  -0.899903 -1.541537 0
0  -25.748079 6.807955 83.827919  -0.369014 -0.851457 -0.372625  0.115399 -1.364092 0
0  -26.137487 7.581033 83.204407  -0.682579 0.128053 -0.719506  0.103196 -1.254107 0
glow_inner_2
0  -28.831358 7.892866 93.571007  -0.008871 0.954116 0.299306  -4.472058 4.004932 0
0  -25.420355 8.328696 84.053978  0.028855 0.994749 -0.098196  -3.592685 3.431566 0
0  -26.050369 7.985335 83.264496  -0.691520 0.447883 -0.566746  -3.458235 3.484128 0
glow_inner_2
0  -15.877956 4.530141 83.202843  0.011199 -0.955193 -0.295771  1.533505 -1.405729 0
0  -19.418798 4.140001 92.600723  -0.029027 -0.994710 0.098539  1.962574 -2.535489 0
0  -29.257387 5.915896 93.277145  -0.410886 -0.911421 0.022008  3.184562 -2.618069 0
blue_test_2
0  -17.957731 5.467439 94.363670  -0.368780 -0.851417 -0.372948  -0.766040 -2.748087 0
0  -31.047228 8.467079 95.363815  0.009016 -0.954081 -0.299414  -2.409232 -2.868372 0
0  -26.463343 9.052770 82.574326  -0.028834 -0.994748 0.098209  -1.856377 -1.331084 0
blue_test_2
0  -17.434412 4.428535 95.201584  -0.574719 -0.412796 -0.706610  0.165514 -2.596094 0
0  -12.029389 5.500341 80.740791  -0.608163 -0.759788 0.229915  0.161302 -1.875003 0
0  -12.181603 4.794028 80.635803  -0.483590 0.280196 0.829235  0.250971 -1.878544 0
blue_test_2
0  -32.505375 7.621114 96.158569  0.221862 -0.745605 -0.628371  0.426902 1.437554 0
0  -17.434412 4.428535 95.201584  -0.574719 -0.412796 -0.706610  0.472971 2.170396 0
0  -17.551500 3.885212 95.120834  -0.433305 0.790127 -0.433527  0.539833 2.171089 0
blue_test_2
0  -27.309984 8.591338 81.513382  0.390001 -0.792494 0.468885  -0.321302 4.722668 0
0  -32.505375 7.621114 96.158569  0.221862 -0.745605 -0.628371  -0.335770 5.446845 0
0  -32.657593 6.914802 96.053574  0.567654 0.329729 -0.754352  -0.246081 5.450354 0
blue_test_2
0  -12.029389 5.500341 80.740791  -0.608163 -0.759788 0.229915  0.482351 0.007427 0
0  -27.309984 8.591338 81.513382  0.390001 -0.792494 0.468885  0.456568 0.748160 0
0  -27.427071 8.048022 81.432617  0.749308 0.297740 0.591513  0.523424 0.747401 0
blue_test_2
0  -26.463343 9.052770 82.574326  -0.028834 -0.994748 0.098209  -1.205505 -0.135936 0
0  -27.309984 8.591338 81.513382  0.390001 -0.792494 0.468885  -1.167608 -0.017457 0
0  -12.029389 5.500341 80.740791  -0.608163 -0.759788 0.229915  0.282849 -0.153008 0
blue_test_2
0  -18.398136 3.423779 94.059898  0.029240 0.994688 -0.098697  -3.141126 -1.244087 0
0  -17.551500 3.885212 95.120834  -0.433305 0.790127 -0.433527  -3.318057 -1.169456 0
0  -12.181603 4.794028 80.635803  -0.483590 0.280196 0.829235  -2.141053 -0.644572 0
blue_test_2
0  -31.619749 5.810322 94.968910  0.410999 0.911367 -0.022123  -0.567989 1.992310 0
0  -32.657593 6.914802 96.053574  0.567654 0.329729 -0.754352  -0.803772 2.084079 0
0  -17.551500 3.885212 95.120834  -0.433305 0.790127 -0.433527  0.675040 2.337999 0
blue_test_2
0  -17.957731 5.467439 94.363670  -0.368780 -0.851417 -0.372948  -2.844000 -2.584877 0
0  -17.434412 4.428535 95.201584  -0.574719 -0.412796 -0.706610  -2.858229 -2.716719 0
0  -32.505375 7.621114 96.158569  0.221862 -0.745605 -0.628371  -4.474355 -2.265691 0
blue_test_2
0  -13.067239 6.604823 81.825432  -0.413344 -0.910386 0.018577  1.291363 -0.938796 0
0  -12.029389 5.500341 80.740791  -0.608163 -0.759788 0.229915  1.302762 -0.806973 0
0  -17.434412 4.428535 95.201584  -0.574719 -0.412796 -0.706610  2.615300 -1.256319 0
blue_test_2
0  -26.903744 7.009115 82.270546  0.369201 0.851449 0.372459  2.427624 3.753290 0
0  -27.427071 8.048022 81.432617  0.749308 0.297740 0.591513  2.254270 3.829397 0
0  -32.657593 6.914802 96.053574  0.567654 0.329729 -0.754352  3.638584 4.470145 0
blue_test_2
0  -13.639762 3.948069 81.430542  -0.011314 0.955163 0.295864  -1.129347 -0.951310 0
0  -12.181603 4.794028 80.635803  -0.483590 0.280196 0.829235  -1.350786 -0.845576 0
0  -27.427071 8.048022 81.432617  0.749308 0.297740 0.591513  0.216376 -0.618665 0
blue_test_2
0  -31.047228 8.467079 95.363815  0.009016 -0.954081 -0.299414  -4.551921 4.003113 0
0  -32.505375 7.621114 96.158569  0.221862 -0.745605 -0.628371  -4.520971 4.171441 0
0  -27.309984 8.591338 81.513382  0.390001 -0.792494 0.468885  -3.244215 3.476645 0
blue_test_2
0  -13.639762 3.948069 81.430542  -0.011314 0.955163 0.295864  1.245515 -1.193777 0
0  -26.903744 7.009115 82.270546  0.369201 0.851449 0.372459  2.909574 -1.295326 0
0  -31.619749 5.810322 94.968910  0.410999 0.911367 -0.022123  3.464346 -2.822739 0
glow_inner_2
0  -13.650852 21.397228 50.224495  0.296598 -0.353912 0.887004  -1.965461 0.193400 0
0  -13.735291 20.925591 49.968369  0.303842 -0.946030 0.112728  -1.911242 0.199115 0
0  -15.270889 26.686230 39.999844  0.621581 0.164269 -0.765932  -2.714815 0.476315 0
glow_inner_2
0  -24.685995 24.219759 48.531921  -0.478171 0.367395 0.797730  -1.882374 -0.280023 0
0  -24.750938 23.856962 48.334896  -0.564701 -0.767838 0.302553  -1.832414 -0.282909 0
0  -13.735291 20.925591 49.968369  0.303842 -0.946030 0.112728  -1.653805 -0.008918 0
glow_inner_2
0  -23.938770 24.916924 48.225834  -0.071126 0.762939 0.642545  -1.966441 3.069426 0
0  -14.306988 22.568214 49.875725  0.323806 0.718485 0.615572  -0.763499 2.912241 0
0  -15.773802 27.353712 41.047028  0.367378 0.893858 0.257005  -1.061487 4.039866 0
glow_inner_2
0  -15.205933 27.049034 40.196857  0.561643 0.497598 -0.661025  -2.475394 1.857370 0
0  -15.270889 26.686230 39.999844  0.621581 0.164269 -0.765932  -2.425384 1.860170 0
0  -26.413208 29.453800 38.443806  -0.465173 0.307211 -0.830202  -2.577200 2.137347 0
glow_inner_2
0  -15.773802 27.353712 41.047028  0.367378 0.893858 0.257005  -0.059297 0.968735 0
0  -14.306988 22.568214 49.875725  0.323806 0.718485 0.615572  0.135665 0.467047 0
0  -13.650852 21.397228 50.224495  0.296598 -0.353912 0.887004  0.276795 0.496672 0
glow_inner_2
0  -26.328770 29.925438 38.699932  -0.817222 0.419782 -0.394883  -3.349060 1.086522 0
0  -26.413208 29.453800 38.443806  -0.465173 0.307211 -0.830202  -3.294804 1.080767 0
0  -24.750938 23.856962 48.334896  -0.564701 -0.767838 0.302553  -2.513821 1.355375 0
glow_inner_2
0  -24.183073 23.552277 47.484734  -0.367718 -0.893696 -0.257083  0.129116 -0.488393 0
0  -14.624586 20.794178 48.912308  0.024058 -0.955630 -0.293587  -0.167503 0.239484 0
0  -13.735291 20.925591 49.968369  0.303842 -0.946030 0.112728  -0.321478 0.326831 0
glow_inner_2
0  -25.757072 28.282810 38.792568  -0.327086 -0.719337 -0.612836  0.510082 0.085768 0
0  -24.183073 23.552277 47.484734  -0.367718 -0.893696 -0.257083  0.699007 0.551276 0
0  -24.750938 23.856962 48.334896  -0.564701 -0.767838 0.302553  0.593024 0.628338 0
glow_inner_2
0  -23.938770 24.916924 48.225834  -0.071126 0.762939 0.642545  0.014262 1.832999 0
0  -25.439476 30.056858 39.755985  -0.027393 0.954709 0.296279  0.511768 2.829711 0
0  -26.328770 29.925438 38.699932  -0.817222 0.419782 -0.394883  0.457417 2.931604 0
glow_inner_2
0  -14.306988 22.568214 49.875725  0.323806 0.718485 0.615572  -4.073977 -0.506320 0
0  -23.938770 24.916924 48.225834  -0.071126 0.762939 0.642545  -4.573749 -1.199711 0
0  -24.685995 24.219759 48.531921  -0.478171 0.367395 0.797730  -4.496226 -1.223089 0
glow_inner_2
0  -16.018110 25.989067 40.305927  0.070784 -0.762838 -0.642704  -4.012459 1.787435 0
0  -25.757072 28.282810 38.792568  -0.327086 -0.719337 -0.612836  -4.490249 2.670217 0
0  -26.413208 29.453800 38.443806  -0.465173 0.307211 -0.830202  -4.643066 2.767119 0
glow_inner_2
0  -14.624586 20.794178 48.912308  0.024058 -0.955630 -0.293587  -3.861372 2.531914 0
0  -16.018110 25.989067 40.305927  0.070784 -0.762838 -0.642704  -4.380026 3.623226 0
0  -15.270889 26.686230 39.999844  0.621581 0.164269 -0.765932  -4.501646 3.687717 0
glow_inner_2
0  -25.439476 30.056858 39.755985  -0.027393 0.954709 0.296279  -0.606487 1.497715 0
0  -15.773802 27.353712 41.047028  0.367378 0.893858 0.257005  -0.837859 0.672125 0
0  -15.205933 27.049034 40.196857  0.561643 0.497598 -0.661025  -0.733369 0.641379 0
glow_inner_2
0  -14.624586 20.794178 48.912308  0.024058 -0.955630 -0.293587  1.812816 3.024818 0
0  -24.183073 23.552277 47.484734  -0.367718 -0.893696 -0.257083  3.018641 3.164474 0
0  -25.757072 28.282810 38.792568  -0.327086 -0.719337 -0.612836  3.329203 4.276054 0
blue_test_2
0  -25.291325 24.737320 49.575726  0.071134 -0.762944 -0.642539  -2.123986 2.888130 0
0  -27.308056 31.644630 38.193504  0.027522 -0.954744 -0.296151  -2.545062 4.362810 0
0  -14.318815 28.012001 39.928474  -0.367386 -0.893861 -0.256983  -0.908164 4.192639 0
blue_test_2
0  -26.295479 23.800434 49.987076  0.478091 -0.367465 -0.797746  -1.820312 -0.299408 0
0  -11.465888 20.007362 52.261650  -0.512148 -0.473996 -0.716263  -1.600420 0.069950 0
0  -11.579353 19.373554 51.917439  -0.782644 0.586632 -0.208161  -1.513141 0.064910 0
blue_test_2
0  -28.503130 31.468027 36.774334  0.427685 -0.896818 -0.113151  -3.526677 1.032677 0
0  -26.295479 23.800434 49.987076  0.478091 -0.367465 -0.797746  -2.460274 1.399980 0
0  -26.382767 23.312887 49.722298  0.564690 0.767838 -0.302572  -2.404190 1.394034 0
blue_test_2
0  -13.555684 27.602558 38.785976  -0.605208 -0.749376 0.268624  -2.556240 1.836233 0
0  -28.503130 31.468027 36.774334  0.427685 -0.896818 -0.113151  -2.780382 2.207592 0
0  -28.616606 30.834217 36.430115  0.888846 -0.028605 0.457313  -2.693011 2.212475 0
blue_test_2
0  -11.465888 20.007362 52.261650  -0.512148 -0.473996 -0.716263  -1.805316 0.137507 0
0  -13.555684 27.602558 38.785976  -0.605208 -0.749376 0.268624  -2.868355 0.511782 0
0  -13.642962 27.115011 38.521206  -0.374711 0.183243 0.908853  -2.812309 0.517691 0
blue_test_2
0  -14.318815 28.012001 39.928474  -0.367386 -0.893861 -0.256983  -0.033028 1.228336 0
0  -13.555684 27.602558 38.785976  -0.605208 -0.749376 0.268624  0.106707 1.342617 0
0  -11.465888 20.007362 52.261650  -0.512148 -0.473996 -0.716263  0.405235 0.674755 0
blue_test_2
0  -25.619633 22.903435 48.579811  0.367890 0.893578 0.257244  0.085857 -0.689433 0
0  -26.382767 23.312887 49.722298  0.564690 0.767838 -0.302572  -0.044039 -0.708879 0
0  -11.579353 19.373554 51.917439  -0.782644 0.586632 -0.208161  -0.536858 0.345155 0
blue_test_2
0  -27.734859 29.260576 36.898827  0.327195 0.719232 0.612902  0.362088 -0.168692 0
0  -28.616606 30.834217 36.430115  0.888846 -0.028605 0.457313  0.171996 -0.142019 0
0  -26.382767 23.312887 49.722298  0.564690 0.767838 -0.302572  0.456462 0.464380 0
blue_test_2
0  -25.291325 24.737320 49.575726  0.071134 -0.762944 -0.642539  -0.178349 1.815439 0
0  -26.295479 23.800434 49.987076  0.478091 -0.367465 -0.797746  -0.344759 1.759012 0
0  -28.503130 31.468027 36.774334  0.427685 -0.896818 -0.113151  0.428427 3.122247 0
blue_test_2
0  -12.347620 21.581003 51.792934  -0.323888 -0.718399 -0.615629  -3.783577 -0.550716 0
0  -11.465888 20.007362 52.261650  -0.512148 -0.473996 -0.716263  -3.575749 -0.446171 0
0  -26.295479 23.800434 49.987076  0.478091 -0.367465 -0.797746  -4.361853 -1.446122 0
blue_test_2
0  -14.647129 26.178120 38.932564  -0.070601 0.762739 0.642841  -4.047680 2.161538 0
0  -13.642962 27.115011 38.521206  -0.374711 0.183243 0.908853  -4.150814 2.127362 0
0  -28.616606 30.834217 36.430115  0.888846 -0.028605 0.457313  -4.911513 3.316815 0
blue_test_2
0  -12.774433 19.196957 50.498253  -0.024176 0.955656 0.293492  -3.876222 2.313249 0
0  -11.579353 19.373554 51.917439  -0.782644 0.586632 -0.208161  -3.945779 2.203490 0
0  -13.642962 27.115011 38.521206  -0.374711 0.183243 0.908853  -4.751930 3.677544 0
blue_test_2
0  -27.308056 31.644630 38.193504  0.027522 -0.954744 -0.296151  -0.599560 1.968958 0
0  -28.503130 31.468027 36.774334  0.427685 -0.896818 -0.113151  -0.394663 2.089684 0
0  -13.555684 27.602558 38.785976  -0.605208 -0.749376 0.268624  -0.810319 0.952253 0
blue_test_2
0  -12.774433 19.196957 50.498253  -0.024176 0.955656 0.293492  1.549103 2.826287 0
0  -14.647129 26.178120 38.932564  -0.070601 0.762739 0.642841  1.956690 4.329334 0
0  -27.734859 29.260576 36.898827  0.327195 0.719232 0.612902  3.587131 4.509048 0
glow_inner_2
0  30.862942 13.854128 71.684525  -0.273079 0.781361 0.561162  -2.479527 -0.023811 0
0  38.200653 18.316572 66.521790  -0.053476 0.958484 0.280086  -3.500021 0.647993 0
0  29.832573 16.889563 61.013798  -0.328443 0.944448 -0.012011  -2.468365 1.331472 0
glow_inner_2
0  31.127916 13.087864 72.377853  -0.123146 0.347677 0.929492  -0.733778 -2.533193 0
0  21.463844 11.731475 66.264633  -0.791308 0.570333 0.220347  -0.501797 -1.753033 0
0  21.635197 11.240173 66.108315  -0.792325 -0.474681 -0.383275  -0.437155 -1.762210 0
glow_inner_2
0  39.538902 18.021589 66.308662  0.356861 0.842377 0.403796  -0.909093 0.030816 0
0  31.127916 13.087864 72.377853  -0.123146 0.347677 0.929492  -0.415862 0.761165 0
0  31.259727 12.709939 72.257614  0.122806 -0.814093 0.567601  -0.368357 0.749925 0
glow_inner_2
0  29.931595 16.612206 59.988445  -0.177608 0.802503 -0.569600  -1.210412 3.949721 0
0  39.538902 18.021589 66.308662  0.356861 0.842377 0.403796  -1.450814 4.732858 0
0  39.710266 17.530285 66.152351  0.964381 -0.104707 0.242909  -1.386100 4.741806 0
glow_inner_2
0  21.463844 11.731475 66.264633  -0.791308 0.570333 0.220347  -0.138585 0.766116 0
0  29.931595 16.612206 59.988445  -0.177608 0.802503 -0.569600  -0.621846 1.508149 0
0  30.063402 16.234278 59.868210  0.296297 -0.183711 -0.937261  -0.574314 1.519326 0
glow_inner_2
0  29.832573 16.889563 61.013798  -0.328443 0.944448 -0.012011  -1.172768 0.934853 0
0  29.931595 16.612206 59.988445  -0.177608 0.802503 -0.569600  -1.127951 1.078840 0
0  21.463844 11.731475 66.264633  -0.791308 0.570333 0.220347  -0.160296 0.362974 0
glow_inner_2
0  31.358744 12.432577 71.232262  0.328761 -0.944335 0.012176  -1.167707 -2.122325 0
0  31.259727 12.709939 72.257614  0.122806 -0.814093 0.567601  -1.299521 -2.103721 0
0  21.635197 11.240173 66.108315  -0.792325 -0.474681 -0.383275  -0.872312 -1.199212 0
glow_inner_2
0  38.845192 16.468552 65.933853  0.554736 -0.785367 -0.274712  -0.806453 0.288535 0
0  39.710266 17.530285 66.152351  0.964381 -0.104707 0.242909  -0.983936 0.338950 0
0  31.259727 12.709939 72.257614  0.122806 -0.814093 0.567601  -0.043172 0.897025 0
glow_inner_2
0  30.862942 13.854128 71.684525  -0.273079 0.781361 0.561162  -3.170427 -0.137273 0
0  31.127916 13.087864 72.377853  -0.123146 0.347677 0.929492  -3.267632 -0.232421 0
0  39.538902 18.021589 66.308662  0.356861 0.842377 0.403796  -3.728336 0.785157 0
glow_inner_2
0  22.328913 12.793210 66.483116  -0.554214 0.784264 0.278884  -0.995183 -1.645964 0
0  21.463844 11.731475 66.264633  -0.791308 0.570333 0.220347  -0.901327 -1.534151 0
0  31.127916 13.087864 72.377853  -0.123146 0.347677 0.929492  -0.533551 -2.504910 0
glow_inner_2
0  30.328377 15.468014 60.561546  0.273478 -0.781302 -0.561050  -0.696348 3.955493 0
0  30.063402 16.234278 59.868210  0.296297 -0.183711 -0.937261  -0.835071 3.930378 0
0  39.710266 17.530285 66.152351  0.964381 -0.104707 0.242909  -0.415374 5.265984 0
glow_inner_2
0  22.973454 10.945197 65.895187  0.054061 -0.959659 -0.275919  -1.055544 0.553011 0
0  21.635197 11.240173 66.108315  -0.792325 -0.474681 -0.383275  -1.216663 0.527965 0
0  30.063402 16.234278 59.868210  0.296297 -0.183711 -0.937261  -0.757920 1.620499 0
glow_inner_2
0  38.200653 18.316572 66.521790  -0.053476 0.958484 0.280086  -2.289117 4.497318 0
0  39.538902 18.021589 66.308662  0.356861 0.842377 0.403796  -2.212539 4.668002 0
0  29.931595 16.612206 59.988445  -0.177608 0.802503 -0.569600  -1.625379 3.319641 0
glow_inner_2
0  22.973454 10.945197 65.895187  0.054061 -0.959659 -0.275919  2.528143 0.702176 0
0  30.328377 15.468014 60.561546  0.273478 -0.781302 -0.561050  3.552835 1.394096 0
0  38.845192 16.468552 65.933853  0.554736 -0.785367 -0.274712  4.585839 0.715304 0
glow_inner_2
0  14.679628 5.685231 82.689575  -0.985104 -0.024634 -0.170189  0.537175 0.022198 0
0  26.050369 7.985335 83.264496  0.691471 0.447908 -0.566785  0.518005 0.573398 0
0  26.137487 7.581033 83.204407  0.682577 0.127989 -0.719519  0.567754 0.572831 0
glow_inner_2
0  18.701664 4.887664 93.450302  -0.574724 0.412669 0.706680  0.136198 -2.650464 0
0  14.679628 5.685231 82.689575  -0.985104 -0.024634 -0.170189  0.133059 -2.113876 0
0  14.792892 5.159641 82.611465  -0.431981 -0.767920 -0.472960  0.199784 -2.116512 0
glow_inner_2
0  19.091078 5.660744 92.826775  -0.368792 0.851395 0.372986  -0.901495 -2.564516 0
0  28.831358 7.892866 93.571007  0.008871 0.954116 0.299306  -2.124189 -2.653845 0
0  25.420355 8.328696 84.053978  -0.028824 0.994745 -0.098242  -1.712853 -1.510228 0
glow_inner_2
0  26.050369 7.985335 83.264496  0.691471 0.447908 -0.566785  -0.274711 4.670161 0
0  29.916399 7.263355 94.162415  0.615046 0.068748 0.785488  -0.285460 5.209049 0
0  30.029669 6.737768 94.084282  0.941776 -0.050171 0.332476  -0.218721 5.211664 0
glow_inner_2
0  25.420355 8.328696 84.053978  -0.028824 0.994745 -0.098242  -1.039418 -0.613879 0
0  26.050369 7.985335 83.264496  0.691471 0.447908 -0.566785  -1.012956 -0.514245 0
0  14.679628 5.685231 82.689575  -0.985104 -0.024634 -0.170189  0.074517 -0.659527 0
glow_inner_2
0  29.916399 7.263355 94.162415  0.615046 0.068748 0.785488  0.394302 1.452994 0
0  18.701664 4.887664 93.450302  -0.574724 0.412669 0.706680  0.428592 1.998327 0
0  18.788794 4.483368 93.390198  -0.433381 -0.790073 0.433550  0.478344 1.998839 0
blue_test_2
0  30.956329 13.581851 73.582161  0.273103 -0.781357 -0.561157  -2.479773 -0.264296 0
0  19.487848 12.156132 66.592247  0.554352 -0.784166 -0.278888  -1.085051 0.614225 0
0  29.571665 17.661026 59.242283  0.328422 -0.944455 0.012019  -2.464712 1.556940 0
blue_test_2
0  31.312412 12.552103 74.513901  0.122783 -0.347924 -0.929448  -0.691804 -2.578148 0
0  31.489555 12.044228 74.352310  -0.122871 0.814128 -0.567537  -0.624981 -2.587635 0
0  18.555599 10.069077 66.088562  0.792359 0.474595 0.383311  -0.293185 -1.542059 0
blue_test_2
0  42.615547 19.182304 66.357796  -0.356848 -0.842401 -0.403757  -0.982657 -0.100258 0
0  42.845829 18.522066 66.147736  -0.964364 0.104621 -0.243016  -0.899665 -0.119894 0
0  31.489555 12.044228 74.352310  -0.122871 0.814128 -0.567537  -0.255986 0.866122 0
blue_test_2
0  29.704727 17.288298 57.864365  0.177521 -0.802575 0.569526  -1.269578 3.900113 0
0  29.881863 16.780416 57.702789  -0.296405 0.183760 0.937217  -1.202680 3.909360 0
0  42.845829 18.522066 66.147736  -0.964364 0.104621 -0.243016  -1.505681 4.964539 0
blue_test_2
0  18.325321 10.729319 66.298615  0.791292 -0.570325 -0.220424  -0.086007 0.630230 0
0  18.555599 10.069077 66.088562  0.792359 0.474595 0.383311  -0.002968 0.649758 0
0  29.881863 16.780416 57.702789  -0.296405 0.183760 0.937217  -0.671559 1.642431 0
blue_test_2
0  29.571665 17.661026 59.242283  0.328422 -0.944455 0.012019  -1.232678 1.299174 0
0  19.487848 12.156132 66.592247  0.554352 -0.784166 -0.278888  -0.133735 0.596871 0
0  18.325321 10.729319 66.298615  0.791292 -0.570325 -0.220424  0.104060 0.669955 0
blue_test_2
0  31.622614 11.671494 72.974396  -0.329028 0.944242 -0.012167  -1.244931 -2.054394 0
0  20.354017 9.672675 65.802147  -0.053871 0.959671 0.275914  -0.754479 -1.076453 0
0  18.555599 10.069077 66.088562  0.792359 0.474595 0.383311  -0.874188 -0.897801 0
blue_test_2
0  41.683296 17.095247 65.854111  -0.554908 0.785254 0.274688  -1.087514 0.119218 0
0  31.622614 11.671494 72.974396  -0.329028 0.944242 -0.012167  -0.006895 0.712888 0
0  31.489555 12.044228 74.352310  -0.122871 0.814128 -0.567537  -0.075904 0.853905 0
blue_test_2
0  30.956329 13.581851 73.582161  0.273103 -0.781357 -0.561157  -3.267797 -0.113834 0
0  40.817131 19.578714 66.644196  0.053252 -0.958501 -0.280072  -3.791499 0.948103 0
0  42.615547 19.182304 66.357796  -0.356848 -0.842401 -0.403757  -4.008579 0.986447 0
blue_test_2
0  19.487848 12.156132 66.592247  0.554352 -0.784166 -0.278888  -0.905155 -1.393033 0
0  30.956329 13.581851 73.582161  0.273103 -0.781357 -0.561157  -0.480165 -2.446531 0
0  31.312412 12.552103 74.513901  0.122783 -0.347924 -0.929448  -0.296861 -2.453271 0
blue_test_2
0  30.237949 15.750672 58.634521  -0.273699 0.781241 0.561028  -0.894902 3.954206 0
0  41.683296 17.095247 65.854111  -0.554908 0.785254 0.274688  -0.431550 5.232847 0
0  42.845829 18.522066 66.147736  -0.964364 0.104621 -0.243016  -0.557685 5.396671 0
blue_test_2
0  20.354017 9.672675 65.802147  -0.053871 0.959671 0.275914  -1.254961 0.708144 0
0  30.237949 15.750672 58.634521  -0.273699 0.781241 0.561028  -0.739537 1.811969 0
0  29.881863 16.780416 57.702789  -0.296405 0.183760 0.937217  -0.869857 1.939394 0
blue_test_2
0  40.817131 19.578714 66.644196  0.053252 -0.958501 -0.280072  -2.254738 4.537749 0
0  29.571665 17.661026 59.242283  0.328422 -0.944455 0.012019  -1.647490 3.280605 0
0  29.704727 17.288298 57.864365  0.177521 -0.802575 0.569526  -1.467725 3.297902 0
blue_test_2
0  20.354017 9.672675 65.802147  -0.053871 0.959671 0.275914  2.176482 0.708896 0
0  31.622614 11.671494 72.974396  -0.329028 0.944242 -0.012167  3.567647 -0.184781 0
0  41.683296 17.095247 65.854111  -0.554908 0.785254 0.274688  4.941764 0.726889 0
glow_inner_2
0  19.418798 4.140001 92.600723  0.028990 -0.994707 0.098579  -3.055171 -1.462005 0
0  18.788794 4.483368 93.390198  -0.433381 -0.790073 0.433550  -3.187732 -1.408940 0
0  14.792892 5.159641 82.611465  -0.431981 -0.767920 -0.472960  -2.285467 -0.930943 0
glow_inner_2
0  29.257387 5.915896 93.277145  0.410886 -0.911421 0.022008  -0.278462 2.333085 0
0  30.029669 6.737768 94.084282  0.941776 -0.050171 0.332476  -0.453801 2.401209 0
0  18.788794 4.483368 93.390198  -0.433381 -0.790073 0.433550  0.662536 2.678936 0
glow_inner_2
0  19.091078 5.660744 92.826775  -0.368792 0.851395 0.372986  -2.897797 -3.015181 0
0  18.701664 4.887664 93.450302  -0.574724 0.412669 0.706680  -2.907533 -3.127006 0
0  29.916399 7.263355 94.162415  0.615046 0.068748 0.785488  -4.115825 -2.705104 0
glow_inner_2
0  15.451916 6.507101 83.496719  -0.413253 0.910428 -0.018488  1.440494 -1.143573 0
0  14.679628 5.685231 82.689575  -0.985104 -0.024634 -0.170189  1.447776 -1.036209 0
0  18.701664 4.887664 93.450302  -0.574724 0.412669 0.706680  2.432825 -1.435218 0
glow_inner_2
0  25.748079 6.807955 83.827919  0.369044 -0.851429 -0.372660  2.588623 3.699136 0
0  26.137487 7.581033 83.204407  0.682577 0.127989 -0.719519  2.459944 3.760062 0
0  30.029669 6.737768 94.084282  0.941776 -0.050171 0.332476  3.505620 4.357525 0
glow_inner_2
0  15.877956 4.530141 83.202843  -0.011188 -0.955188 -0.295789  -0.899903 -1.541537 0
0  14.792892 5.159641 82.611465  -0.431981 -0.767920 -0.472960  -1.063744 -1.452388 0
0  26.137487 7.581033 83.204407  0.682577 0.127989 -0.719519  0.103196 -1.254107 0
glow_inner_2
0  28.831358 7.892866 93.571007  0.008871 0.954116 0.299306  -4.472058 4.004932 0
0  29.916399 7.263355 94.162415  0.615046 0.068748 0.785488  -4.454405 4.146708 0
0  26.050369 7.985335 83.264496  0.691471 0.447908 -0.566785  -3.458235 3.484128 0
glow_inner_2
0  15.877956 4.530141 83.202843  -0.011188 -0.955188 -0.295789  1.533505 -1.405729 0
0  25.748079 6.807955 83.827919  0.369044 -0.851429 -0.372660  2.771681 -1.481160 0
0  29.257387 5.915896 93.277145  0.410886 -0.911421 0.022008  3.184562 -2.618069 0
blue_test_2
0  17.957731 5.467439 94.363670  0.368809 -0.851394 -0.372972  -0.766040 -2.748087 0
0  13.067239 6.604823 81.825432  0.413371 -0.910373 0.018601  -0.190810 -1.240138 0
0  26.463343 9.052770 82.574326  0.028801 -0.994746 0.098237  -1.856377 -1.331084 0
blue_test_2
0  17.434412 4.428535 95.201584  0.574359 -0.412811 -0.706894  0.165514 -2.596094 0
0  17.551500 3.885212 95.120834  0.433307 0.790111 -0.433555  0.234491 -2.598819 0
0  12.181603 4.794028 80.635803  0.483578 0.280243 0.829226  0.250971 -1.878544 0
blue_test_2
0  32.505375 7.621114 96.158569  -0.221885 -0.745596 -0.628374  0.426902 1.437554 0
0  32.657593 6.914802 96.053574  -0.567675 0.329730 -0.754337  0.513821 1.438455 0
0  17.551500 3.885212 95.120834  0.433307 0.790111 -0.433555  0.539833 2.171089 0
blue_test_2
0  27.309984 8.591338 81.513382  -0.390051 -0.792465 0.468891  -0.321302 4.722668 0
0  27.427071 8.048022 81.432617  -0.749294 0.297727 0.591538  -0.252311 4.725368 0
0  32.657593 6.914802 96.053574  -0.567675 0.329730 -0.754337  -0.246081 5.450354 0
blue_test_2
0  12.029389 5.500341 80.740791  0.608184 -0.759780 0.229885  0.482351 0.007427 0
0  12.181603 4.794028 80.635803  0.483578 0.280243 0.829226  0.569263 0.006440 0
0  27.427071 8.048022 81.432617  -0.749294 0.297727 0.591538  0.523424 0.747401 0
blue_test_2
0  26.463343 9.052770 82.574326  0.028801 -0.994746 0.098237  -1.205505 -0.135936 0
0  13.067239 6.604823 81.825432  0.413371 -0.910373 0.018601  0.050720 -0.264812 0
0  12.029389 5.500341 80.740791  0.608184 -0.759780 0.229885  0.282849 -0.153008 0
blue_test_2
0  18.398136 3.423779 94.059898  -0.029225 0.994684 -0.098740  -3.141126 -1.244087 0
0  13.639762 3.948069 81.430542  0.011342 0.955155 0.295889  -2.102981 -0.791256 0
0  12.181603 4.794028 80.635803  0.483578 0.280243 0.829226  -2.141053 -0.644572 0
blue_test_2
0  31.619749 5.810322 94.968910  -0.411026 0.911354 -0.022145  -0.567989 1.992310 0
0  18.398136 3.423779 94.059898  -0.029225 0.994684 -0.098740  0.712169 2.222210 0
0  17.551500 3.885212 95.120834  0.433307 0.790111 -0.433555  0.675040 2.337999 0
blue_test_2
0  17.957731 5.467439 94.363670  0.368809 -0.851394 -0.372972  -2.844000 -2.584877 0
0  31.047228 8.467079 95.363815  -0.009044 -0.954073 -0.299438  -4.249519 -2.188132 0
0  32.505375 7.621114 96.158569  -0.221885 -0.745596 -0.628374  -4.474355 -2.265691 0
blue_test_2
0  13.067239 6.604823 81.825432  0.413371 -0.910373 0.018601  1.291363 -0.938796 0
0  17.957731 5.467439 94.363670  0.368809 -0.851394 -0.372972  2.441595 -1.326618 0
0  17.434412 4.428535 95.201584  0.574359 -0.412811 -0.706894  2.615300 -1.256319 0
blue_test_2
0  26.903744 7.009115 82.270546  -0.369210 0.851428 0.372499  2.427624 3.753290 0
0  31.619749 5.810322 94.968910  -0.411026 0.911354 -0.022145  3.643312 4.306643 0
0  32.657593 6.914802 96.053574  -0.567675 0.329730 -0.754337  3.638584 4.470145 0
blue_test_2
0  13.639762 3.948069 81.430542  0.011342 0.955155 0.295889  -1.129347 -0.951310 0
0  26.903744 7.009115 82.270546  -0.369210 0.851428 0.372499  0.233710 -0.748597 0
0  27.427071 8.048022 81.432617  -0.749294 0.297727 0.591538  0.216376 -0.618665 0
blue_test_2
0  31.047228 8.467079 95.363815  -0.009044 -0.954073 -0.299438  -4.551921 4.003113 0
0  26.463343 9.052770 82.574326  0.028801 -0.994746 0.098237  -3.423669 3.403154 0
0  27.309984 8.591338 81.513382  -0.390051 -0.792465 0.468891  -3.244215 3.476645 0
blue_test_2
0  13.639762 3.948069 81.430542  0.011342 0.955155 0.295889  1.245515 -1.193777 0
0  18.398136 3.423779 94.059898  -0.029225 0.994684 -0.098740  1.822234 -2.712022 0
0  31.619749 5.810322 94.968910  -0.411026 0.911354 -0.022145  3.464346 -2.822739 0
glow_inner_2
0  13.650852 21.397228 50.224495  -0.296659 -0.353875 0.886999  -1.965461 0.193400 0
0  15.205933 27.049034 40.196857  -0.561694 0.497599 -0.660981  -2.756524 0.471920 0
0  15.270889 26.686230 39.999844  -0.621577 0.164206 -0.765949  -2.714815 0.476315 0
glow_inner_2
0  24.685995 24.219759 48.531921  0.478209 0.367343 0.797731  -1.882374 -0.280023 0
0  13.650852 21.397228 50.224495  -0.296659 -0.353875 0.886999  -1.718753 -0.005166 0
0  13.735291 20.925591 49.968369  -0.303889 -0.946009 0.112776  -1.653805 -0.008918 0
glow_inner_2
0  23.938770 24.916924 48.225834  0.071180 0.762924 0.642557  -1.966441 3.069426 0
0  25.439476 30.056858 39.755985  0.027393 0.954709 0.296279  -2.279667 4.167870 0
0  15.773802 27.353712 41.047028  -0.367415 0.893854 0.256965  -1.061487 4.039866 0
glow_inner_2
0  15.205933 27.049034 40.196857  -0.561694 0.497599 -0.660981  -2.475394 1.857370 0
0  26.328770 29.925438 38.699932  0.817212 0.419777 -0.394908  -2.642212 2.133708 0
0  26.413208 29.453800 38.443806  0.465196 0.307130 -0.830219  -2.577200 2.137347 0
glow_inner_2
0  15.773802 27.353712 41.047028  -0.367415 0.893854 0.256965  -0.059297 0.968735 0
0  15.205933 27.049034 40.196857  -0.561694 0.497599 -0.660981  0.043399 1.062575 0
0  13.650852 21.397228 50.224495  -0.296659 -0.353875 0.886999  0.276795 0.496672 0
glow_inner_2
0  26.328770 29.925438 38.699932  0.817212 0.419777 -0.394908  -3.349060 1.086522 0
0  24.685995 24.219759 48.531921  0.478209 0.367343 0.797731  -2.555555 1.359801 0
0  24.750938 23.856962 48.334896  0.564719 -0.767797 0.302623  -2.513821 1.355375 0
glow_inner_2
0  24.183073 23.552277 47.484734  0.367750 -0.893695 -0.257039  0.129116 -0.488393 0
0  24.750938 23.856962 48.334896  0.564719 -0.767797 0.302623  0.029988 -0.509645 0
0  13.735291 20.925591 49.968369  -0.303889 -0.946009 0.112776  -0.321478 0.326831 0
glow_inner_2
0  25.757072 28.282810 38.792568  0.327086 -0.719337 -0.612836  0.510082 0.085768 0
0  26.413208 29.453800 38.443806  0.465196 0.307130 -0.830219  0.367828 0.100294 0
0  24.750938 23.856962 48.334896  0.564719 -0.767797 0.302623  0.593024 0.628338 0
glow_inner_2
0  23.938770 24.916924 48.225834  0.071180 0.762924 0.642557  0.014262 1.832999 0
0  24.685995 24.219759 48.531921  0.478209 0.367343 0.797731  -0.109079 1.788599 0
0  26.328770 29.925438 38.699932  0.817212 0.419777 -0.394908  0.457417 2.931604 0
glow_inner_2
0  14.306988 22.568214 49.875725  -0.323807 0.718486 0.615571  -4.073977 -0.506320 0
0  13.650852 21.397228 50.224495  -0.296659 -0.353875 0.886999  -3.919765 -0.426231 0
0  24.685995 24.219759 48.531921  0.478209 0.367343 0.797731  -4.496226 -1.223089 0
glow_inner_2
0  16.018110 25.989067 40.305927  -0.070808 -0.762803 -0.642742  -4.012459 1.787435 0
0  15.270889 26.686230 39.999844  -0.621577 0.164206 -0.765949  -4.089978 1.755054 0
0  26.413208 29.453800 38.443806  0.465196 0.307130 -0.830219  -4.643066 2.767119 0
glow_inner_2
0  14.624586 20.794178 48.912308  -0.024100 -0.955619 -0.293617  -3.861372 2.531914 0
0  13.735291 20.925591 49.968369  -0.303889 -0.946009 0.112776  -3.913949 2.438369 0
0  15.270889 26.686230 39.999844  -0.621577 0.164206 -0.765949  -4.501646 3.687717 0
glow_inner_2
0  25.439476 30.056858 39.755985  0.027393 0.954709 0.296279  -0.606487 1.497715 0
0  26.328770 29.925438 38.699932  0.817212 0.419777 -0.394908  -0.454720 1.588910 0
0  15.205933 27.049034 40.196857  -0.561694 0.497599 -0.660981  -0.733369 0.641379 0
glow_inner_2
0  14.624586 20.794178 48.912308  -0.024100 -0.955619 -0.293617  1.812816 3.024818 0
0  16.018110 25.989067 40.305927  -0.070808 -0.762803 -0.642742  2.116063 4.143738 0
0  25.757072 28.282810 38.792568  0.327086 -0.719337 -0.612836  3.329203 4.276054 0
blue_test_2
0  25.291325 24.737320 49.575726  -0.071159 -0.762919 -0.642566  -2.123986 2.888130 0
0  12.347620 21.581003 51.792934  0.323910 -0.718374 -0.615647  -0.507787 2.676662 0
0  14.318815 28.012001 39.928474  0.367407 -0.893863 -0.256946  -0.908164 4.192639 0
blue_test_2
0  26.295479 23.800434 49.987076  -0.478428 -0.367623 -0.797471  -1.820312 -0.299408 0
0  26.382767 23.312887 49.722298  -0.564736 0.767818 -0.302537  -1.753175 -0.303285 0
0  11.579353 19.373554 51.917439  0.782622 0.586668 -0.208141  -1.513141 0.064910 0
blue_test_2
0  28.503130 31.468027 36.774334  -0.427694 -0.896816 -0.113128  -3.526677 1.032677 0
0  28.616606 30.834217 36.430115  -0.888836 -0.028674 0.457328  -3.453766 1.024947 0
0  26.382767 23.312887 49.722298  -0.564736 0.767818 -0.302537  -2.404190 1.394034 0
blue_test_2
0  13.555684 27.602558 38.785976  0.605199 -0.749363 0.268681  -2.556240 1.836233 0
0  13.642962 27.115011 38.521206  0.374740 0.183241 0.908841  -2.489033 1.839989 0
0  28.616606 30.834217 36.430115  -0.888836 -0.028674 0.457328  -2.693011 2.212475 0
blue_test_2
0  11.465888 20.007362 52.261650  0.512118 -0.473988 -0.716289  -1.805316 0.137507 0
0  11.579353 19.373554 51.917439  0.782622 0.586668 -0.208141  -1.732455 0.145189 0
0  13.642962 27.115011 38.521206  0.374740 0.183241 0.908841  -2.812309 0.517691 0
blue_test_2
0  14.318815 28.012001 39.928474  0.367407 -0.893863 -0.256946  -0.033028 1.228336 0
0  12.347620 21.581003 51.792934  0.323910 -0.718374 -0.615647  0.215152 0.635103 0
0  11.465888 20.007362 52.261650  0.512118 -0.473988 -0.716289  0.405235 0.674755 0
blue_test_2
0  25.619633 22.903435 48.579811  -0.367928 0.893570 0.257220  0.085857 -0.689433 0
0  12.774433 19.196957 50.498253  0.024207 0.955662 0.293469  -0.330034 0.226654 0
0  11.579353 19.373554 51.917439  0.782622 0.586668 -0.208141  -0.536858 0.345155 0
blue_test_2
0  27.734859 29.260576 36.898827  -0.327216 0.719207 0.612920  0.362088 -0.168692 0
0  25.619633 22.903435 48.579811  -0.367928 0.893570 0.257220  0.599582 0.367199 0
0  26.382767 23.312887 49.722298  -0.564736 0.767818 -0.302537  0.456462 0.464380 0
blue_test_2
0  25.291325 24.737320 49.575726  -0.071159 -0.762919 -0.642566  -0.178349 1.815439 0
0  27.308056 31.644630 38.193504  -0.027551 -0.954751 -0.296127  0.500005 3.004560 0
0  28.503130 31.468027 36.774334  -0.427694 -0.896816 -0.113128  0.428427 3.122247 0
blue_test_2
0  12.347620 21.581003 51.792934  0.323910 -0.718374 -0.615647  -3.783577 -0.550716 0
0  25.291325 24.737320 49.575726  -0.071159 -0.762919 -0.642566  -4.465434 -1.420300 0
0  26.295479 23.800434 49.987076  -0.478428 -0.367623 -0.797471  -4.361853 -1.446122 0
blue_test_2
0  14.647129 26.178120 38.932564  0.070643 0.762725 0.642853  -4.047680 2.161538 0
0  27.734859 29.260576 36.898827  -0.327216 0.719207 0.612920  -4.705103 3.198366 0
0  28.616606 30.834217 36.430115  -0.888836 -0.028674 0.457328  -4.911513 3.316815 0
blue_test_2
0  12.774433 19.196957 50.498253  0.024207 0.955662 0.293469  -3.876222 2.313249 0
0  14.647129 26.178120 38.932564  0.070643 0.762725 0.642853  -4.587132 3.601135 0
0  13.642962 27.115011 38.521206  0.374740 0.183241 0.908841  -4.751930 3.677544 0
blue_test_2
0  27.308056 31.644630 38.193504  -0.027551 -0.954751 -0.296127  -0.599560 1.968958 0
0  14.318815 28.012001 39.928474  0.367407 -0.893863 -0.256946  -0.946138 0.979263 0
0  13.555684 27.602558 38.785976  0.605199 -0.749363 0.268681  -0.810319 0.952253 0
blue_test_2
0  12.774433 19.196957 50.498253  0.024207 0.955662 0.293469  1.549103 2.826287 0
0  25.619633 22.903435 48.579811  -0.367928 0.893570 0.257220  3.169937 3.013791 0
0  27.734859 29.260576 36.898827  -0.327216 0.719207 0.612920  3.587131 4.509048 0
end
