version 1
nodes
0 "bip_spine_0" -1
end
skeleton
time 0
0  0.000000 0.000006 48.466885  -1.641949 0.000000 0.000000
end
triangles
c_invasion_wrangler_laser
0  -25.793211 8.611084 70.719040  -0.127702 0.645082 0.753367  0.000000 0.000000 0
0  -40.291451 6.674378 69.918533  -0.127776 0.645073 0.753362  0.000000 0.000000 0
0  -32.684772 6.744685 69.975128  -0.127777 0.645072 0.753363  0.000000 0.000000 0
c_invasion_wrangler_laser
0  -32.392654 11.353545 59.266705  -0.028382 -0.944547 -0.327147  0.000000 0.000000 0
0  -15.703093 13.900991 50.463814  -0.028386 -0.944548 -0.327144  0.000000 0.000000 0
0  -31.864880 8.884312 65.137993  -0.028385 -0.944548 -0.327145  0.000000 0.000000 0
painted_wood_01
0  -25.793211 8.611084 70.719040  0.168674 -0.374608 0.911712  0.297731 0.539493 0
0  -8.846363 12.554864 69.204254  0.168673 -0.374608 0.911712  0.297731 0.539493 0
0  -7.304867 19.615204 72.750679  0.168671 -0.374609 0.911712  0.297731 0.539493 0
c_invasion_wrangler_laser
0  -21.126669 15.939065 49.513054  -0.433729 0.899240 -0.056970  0.000000 0.000000 0
0  -32.762150 11.371471 66.000122  -0.433729 0.899241 -0.056972  0.000000 0.000000 0
0  -17.254892 18.464945 52.850132  -0.433726 0.899242 -0.056976  0.000000 0.000000 0
c_invasion_wrangler_laser
0  -19.347948 18.090054 44.186962  0.886947 0.404614 -0.222741  0.000000 0.000000 0
0  -18.150736 17.487553 47.859764  0.886947 0.404614 -0.222741  0.000000 0.000000 0
0  -17.795338 16.086906 46.730633  0.886947 0.404614 -0.222741  0.000000 0.000000 0
c_invasion_wrangler_laser
0  -32.778236 6.054245 69.406082  -0.000680 -0.641894 0.766793  0.000000 0.000000 0
0  -40.291451 6.674378 69.918533  -0.000681 -0.641894 0.766793  0.000000 0.000000 0
0  -40.329262 5.989674 69.336288  -0.000680 -0.641894 0.766793  0.000000 0.000000 0
c_invasion_wrangler_laser
0  -24.051195 4.550550 69.659592  -0.052058 -0.339966 0.938996  0.000000 0.000000 0
0  -32.684772 6.744685 69.975128  -0.052079 -0.339961 0.938996  0.000000 0.000000 0
0  -32.778236 6.054245 69.406082  -0.052094 -0.339957 0.938997  0.000000 0.000000 0
c_invasion_wrangler_laser
0  -31.864880 8.884312 65.137993  -0.061826 -0.825693 -0.560721  0.000000 0.000000 0
0  -32.778236 6.054245 69.406082  -0.061826 -0.825691 -0.560725  0.000000 0.000000 0
0  -40.329262 5.989674 69.336288  -0.061825 -0.825688 -0.560729  0.000000 0.000000 0
c_invasion_wrangler_laser
0  -40.329262 5.989674 69.336288  0.179283 -0.609269 0.772431  0.000000 0.000000 0
0  -43.769123 3.677407 68.310852  0.179285 -0.609268 0.772431  0.000000 0.000000 0
0  -43.510090 3.005501 67.771683  0.179285 -0.609268 0.772431  0.000000 0.000000 0
c_invasion_wrangler_laser
0  -32.762150 11.371471 66.000122  -0.484346 0.867041 0.116830  0.000000 0.000000 0
0  -35.830807 10.592129 59.062374  -0.484343 0.867041 0.116837  0.000000 0.000000 0
0  -35.862309 8.844316 65.406380  -0.484345 0.867041 0.116833  0.000000 0.000000 0
black
0  -36.637699 4.482600 52.981632  -0.763873 0.462110 -0.450502  0.784357 -0.127771 0
0  -38.138889 0.972976 51.926842  -0.763873 0.462110 -0.450502  1.052400 -0.128760 0
0  -38.153362 1.013980 51.993443  -0.763873 0.462110 -0.450502  1.043581 -0.128723 0
c_invasion_wrangler_laser
0  -19.453197 18.566936 44.637810  -0.953660 0.057067 -0.295426  0.000000 0.000000 0
0  -20.916727 14.304313 48.538818  -0.953660 0.057067 -0.295426  0.000000 0.000000 0
0  -21.126669 15.939065 49.513054  -0.953660 0.057067 -0.295426  0.000000 0.000000 0
c_invasion_wrangler_laser
0  -17.795338 16.086906 46.730633  0.874167 0.421588 -0.241031  0.000000 0.000000 0
0  -17.254892 18.464945 52.850132  0.874167 0.421588 -0.241031  0.000000 0.000000 0
0  -15.703093 13.900991 50.463814  0.874167 0.421588 -0.241031  0.000000 0.000000 0
c_invasion_wrangler_laser
0  -15.703093 13.900991 50.463814  0.109921 -0.796077 -0.595129  0.000000 0.000000 0
0  -19.347948 18.090054 44.186962  0.109872 -0.796030 -0.595201  0.000000 0.000000 0
0  -17.795338 16.086906 46.730633  0.109951 -0.796117 -0.595071  0.000000 0.000000 0
c_invasion_wrangler_laser
0  -21.126669 15.939065 49.513054  -0.405105 0.906392 0.119765  0.000000 0.000000 0
0  -18.150736 17.487553 47.859764  -0.405094 0.906398 0.119759  0.000000 0.000000 0
0  -19.453197 18.566936 44.637810  -0.405096 0.906397 0.119760  0.000000 0.000000 0
c_invasion_wrangler_laser
0  -32.392654 11.353545 59.266705  -0.690738 0.343015 -0.636571  0.000000 0.000000 0
0  -21.126669 15.939065 49.513054  -0.690735 0.343016 -0.636573  0.000000 0.000000 0
0  -20.916727 14.304313 48.538818  -0.690733 0.343017 -0.636575  0.000000 0.000000 0
c_invasion_wrangler_laser
0  -43.510090 3.005501 67.771683  -0.161939 -0.752926 0.637870  0.000000 0.000000 0
0  -43.769123 -0.146009 63.985783  -0.161938 -0.752918 0.637880  0.000000 0.000000 0
0  -43.510090 -0.640141 63.280094  -0.161941 -0.752955 0.637836  0.000000 0.000000 0
c_invasion_wrangler_laser
0  -35.603283 8.172401 64.867210  0.570000 -0.610459 0.549946  0.000000 0.000000 0
0  -43.510090 -0.640141 63.280094  0.570003 -0.610455 0.549947  0.000000 0.000000 0
0  -35.603283 5.133205 61.937981  0.569999 -0.610460 0.549946  0.000000 0.000000 0
c_invasion_wrangler_laser
0  -31.864880 8.884312 65.137993  0.459511 -0.886590 0.052995  0.000000 0.000000 0
0  -43.510090 3.005501 67.771683  0.459597 -0.886546 0.052978  0.000000 0.000000 0
0  -35.603283 8.172401 64.867210  0.459559 -0.886565 0.052985  0.000000 0.000000 0
painted_wood_01
0  -32.762150 11.371471 66.000122  -0.618277 -0.440305 0.651050  0.297731 0.539493 0
0  -24.051195 4.550550 69.659592  -0.618277 -0.440304 0.651050  0.297731 0.539493 0
0  -25.793211 8.611084 70.719040  -0.618277 -0.440304 0.651050  0.297731 0.539493 0
c_invasion_wrangler_laser
0  -35.862309 8.844316 65.406380  -0.735645 0.677169 0.016387  0.000000 0.000000 0
0  -35.830807 9.081023 57.042477  -0.735645 0.677169 0.016396  0.000000 0.000000 0
0  -39.128525 6.894682 63.798203  -0.735645 0.677169 0.016400  0.000000 0.000000 0
c_invasion_wrangler_laser
0  -35.830807 10.592129 59.062374  0.555456 0.674921 -0.485748  0.000000 0.000000 0
0  -35.767323 8.890297 56.770279  0.555441 0.674941 -0.485737  0.000000 0.000000 0
0  -35.830807 9.081023 57.042477  0.555446 0.674945 -0.485724  0.000000 0.000000 0
c_invasion_wrangler_laser
0  -43.769123 3.677407 68.310852  -0.705874 0.660989 -0.254628  0.000000 0.000000 0
0  -39.128525 6.894682 63.798203  -0.705890 0.660978 -0.254613  0.000000 0.000000 0
0  -43.769123 -0.146009 63.985783  -0.705875 0.660989 -0.254627  0.000000 0.000000 0
painted_wood_01
0  -32.762150 11.371471 66.000122  -0.065687 0.384445 -0.920808  0.297731 0.539493 0
0  -35.603283 8.172401 64.867210  -0.065694 0.384441 -0.920809  0.297731 0.539493 0
0  -35.862309 8.844316 65.406380  -0.065692 0.384445 -0.920807  0.297731 0.539493 0
c_invasion_wrangler_laser
0  -35.767323 10.332837 58.854443  0.999618 0.020598 -0.018444  0.000000 0.000000 0
0  -35.603283 5.133205 61.937981  0.999618 0.020598 -0.018444  0.000000 0.000000 0
0  -35.767323 8.890297 56.770279  0.999618 0.020598 -0.018444  0.000000 0.000000 0
c_invasion_wrangler_laser
0  -40.291451 6.674378 69.918533  -0.589247 0.782237 -0.202221  0.000000 0.000000 0
0  -35.862309 8.844316 65.406380  -0.589247 0.782237 -0.202221  0.000000 0.000000 0
0  -43.769123 3.677407 68.310852  -0.589247 0.782237 -0.202221  0.000000 0.000000 0
painted_wood_01
0  -31.864880 8.884312 65.137993  0.207872 -0.911942 -0.353767  0.297731 0.539493 0
0  -8.846363 12.554864 69.204254  0.207863 -0.911944 -0.353768  0.297731 0.539493 0
0  -24.051195 4.550550 69.659592  0.207898 -0.911938 -0.353762  0.297731 0.539493 0
black
0  -36.595154 4.362072 52.785854  0.893287 -0.329364 -0.305873  -1.020146 -0.127628 0
0  -38.092876 0.019976 53.087402  0.893287 -0.329364 -0.305873  -1.061265 -0.126286 0
0  -38.138889 0.972976 51.926842  0.893287 -0.329364 -0.305873  -1.051266 -0.126760 0
c_invasion_wrangler_laser
0  -35.830807 9.081023 57.042477  -0.627872 0.574914 -0.524644  0.000000 0.000000 0
0  -36.595154 4.362072 52.785854  -0.627871 0.574911 -0.524648  0.000000 0.000000 0
0  -36.637699 4.482600 52.981632  -0.627872 0.574908 -0.524650  0.000000 0.000000 0
c_invasion_wrangler_laser
0  -35.603283 5.133205 61.937981  0.587613 -0.724820 0.359650  0.000000 0.000000 0
0  -41.919571 -2.474887 56.924858  0.587612 -0.724820 0.359650  0.000000 0.000000 0
0  -36.459900 1.560789 56.197258  0.587612 -0.724820 0.359650  0.000000 0.000000 0
c_invasion_wrangler_laser
0  -32.343674 11.607520 59.484871  -0.094865 0.634273 -0.767267  0.000000 0.000000 0
0  -35.767323 10.332837 58.854443  -0.094863 0.634274 -0.767267  0.000000 0.000000 0
0  -35.830807 10.592129 59.062374  -0.094861 0.634274 -0.767266  0.000000 0.000000 0
painted_wood_01
0  -32.762150 11.371471 66.000122  -0.678028 0.099941 -0.728210  0.297731 0.539493 0
0  -15.703093 13.900991 50.463814  -0.678027 0.099941 -0.728211  0.297731 0.539493 0
0  -31.864880 8.884312 65.137993  -0.678031 0.099941 -0.728207  0.297731 0.539493 0
painted_wood_01
0  -17.254892 18.464945 52.850132  0.898895 0.199866 -0.389924  0.297731 0.539493 0
0  -8.846363 12.554864 69.204254  0.898877 0.199879 -0.389959  0.297731 0.539493 0
0  -15.703093 13.900991 50.463814  0.898888 0.199872 -0.389938  0.297731 0.539493 0
c_invasion_wrangler_laser
0  -32.392654 11.353545 59.266705  0.253273 -0.896331 -0.363927  0.000000 0.000000 0
0  -35.603283 8.172401 64.867210  0.253272 -0.896332 -0.363926  0.000000 0.000000 0
0  -35.767323 10.332837 58.854443  0.253275 -0.896329 -0.363931  0.000000 0.000000 0
c_invasion_wrangler_laser
0  -43.510090 -0.640141 63.280094  -0.948934 -0.272694 -0.158627  0.000000 0.000000 0
0  -42.095142 -2.162628 57.432854  -0.948934 -0.272694 -0.158627  0.000000 0.000000 0
0  -41.919571 -2.474887 56.924858  -0.948934 -0.272694 -0.158627  0.000000 0.000000 0
c_invasion_wrangler_laser
0  -43.769123 -0.146009 63.985783  -0.838269 0.469440 -0.277365  0.000000 0.000000 0
0  -39.901680 3.140390 57.859787  -0.838265 0.469443 -0.277371  0.000000 0.000000 0
0  -42.095142 -2.162628 57.432854  -0.838263 0.469445 -0.277375  0.000000 0.000000 0
c_invasion_wrangler_laser
0  -39.128525 6.894682 63.798203  -0.805738 0.510972 -0.299488  0.000000 0.000000 0
0  -36.637699 4.482600 52.981632  -0.805739 0.510973 -0.299486  0.000000 0.000000 0
0  -39.901680 3.140390 57.859787  -0.805736 0.510971 -0.299496  0.000000 0.000000 0
c_invasion_wrangler_laser
0  -35.767323 8.890297 56.770279  0.991256 -0.085830 -0.100220  0.000000 0.000000 0
0  -36.459900 1.560789 56.197258  0.991256 -0.085831 -0.100220  0.000000 0.000000 0
0  -36.595154 4.362072 52.785854  0.991256 -0.085831 -0.100220  0.000000 0.000000 0
painted_wood_01
0  -25.793211 8.611084 70.719040  -0.366181 0.877722 0.309057  0.297731 0.539493 0
0  -17.254892 18.464945 52.850132  -0.366183 0.877719 0.309060  0.297731 0.539493 0
0  -32.762150 11.371471 66.000122  -0.366173 0.877732 0.309039  0.297731 0.539493 0
black
0  -39.901680 3.140390 57.859787  0.149355 0.852559 -0.500835  0.000000 0.000000 0
0  -38.092876 0.019976 53.087402  0.149355 0.852559 -0.500835  0.000000 0.000000 0
0  -39.263775 0.557359 53.652996  0.149355 0.852559 -0.500835  0.000000 0.000000 0
black
0  -41.919571 -2.474887 56.924858  -0.884421 0.193548 -0.424663  2.558849 -0.285051 0
0  -40.009991 -1.246735 53.507755  -0.884421 0.193548 -0.424663  2.821717 -0.280716 0
0  -39.950264 -1.352965 53.334934  -0.884421 0.193548 -0.424663  2.842249 -0.280404 0
black
0  -42.095142 -2.162628 57.432854  -0.850406 0.380964 -0.362873  0.826658 -0.388104 0
0  -39.263775 0.557359 53.652996  -0.850406 0.380964 -0.362873  0.773415 -0.412742 0
0  -40.009991 -1.246735 53.507755  -0.850406 0.380964 -0.362873  0.788790 -0.422112 0
black
0  -39.901680 3.140390 57.859787  -0.791125 0.460415 -0.402664  -0.971315 -0.122642 0
0  -38.153362 1.013980 51.993443  -0.791125 0.460415 -0.402664  -0.902618 -0.124095 0
0  -39.263775 0.557359 53.652996  -0.791125 0.460415 -0.402664  -0.934049 -0.123300 0
black
0  -36.459900 1.560789 56.197258  0.599382 -0.796467 0.079887  0.244094 -0.381040 0
0  -39.950264 -1.352965 53.334934  0.599382 -0.796467 0.079887  0.210592 -0.419893 0
0  -38.092876 0.019976 53.087402  0.599382 -0.796467 0.079887  0.235166 -0.417717 0
gold_player
0  -38.092876 0.019976 53.087402  0.596237 -0.759970 0.258741  0.235166 -0.417717 0
0  -39.663803 -1.456382 52.371059  0.596237 -0.759970 0.258741  0.216447 -0.429121 0
0  -38.330414 -0.470770 52.193363  0.596237 -0.759970 0.258741  0.234088 -0.427559 0
gold_player
0  -39.263775 0.557359 53.652996  -0.773879 0.508176 -0.377980  -0.934049 -0.123300 0
0  -38.373837 0.242808 51.408028  -0.773879 0.508176 -0.377980  -0.902533 -0.124026 0
0  -39.170982 -0.084993 52.599392  -0.773879 0.508176 -0.377980  -0.924982 -0.123459 0
gold_player
0  -39.950264 -1.352965 53.334934  -0.957197 -0.091245 -0.274679  2.842249 -0.280404 0
0  -39.706676 -1.380120 52.495125  -0.957197 -0.091245 -0.274679  2.916904 -0.279247 0
0  -39.663803 -1.456382 52.371059  -0.957197 -0.091245 -0.274679  2.931649 -0.279019 0
gold_player
0  -38.138889 0.972976 51.926842  0.972254 -0.160411 -0.170263  -1.051266 -0.126760 0
0  -38.330414 -0.470770 52.193363  0.972254 -0.160411 -0.170263  -1.063791 -0.126310 0
0  -38.363445 0.213372 51.360214  0.972254 -0.160411 -0.170263  -1.056611 -0.126651 0
gold_player
0  -38.153362 1.013980 51.993443  -0.664934 0.562828 -0.491007  1.043581 -0.128723 0
0  -38.363445 0.213372 51.360214  -0.664934 0.562828 -0.491007  1.143871 -0.129144 0
0  -38.373837 0.242808 51.408028  -0.664934 0.562828 -0.491007  1.137539 -0.129117 0
gold_player
0  -39.263775 0.557359 53.652996  0.146060 0.850336 -0.505565  0.000000 0.000000 0
0  -38.330414 -0.470770 52.193363  0.146060 0.850336 -0.505565  0.000000 0.000000 0
0  -39.170982 -0.084993 52.599392  0.146060 0.850336 -0.505565  0.000000 0.000000 0
gold_player
0  -40.009991 -1.246735 53.507755  -0.869146 0.384540 -0.310988  0.788790 -0.422112 0
0  -39.170982 -0.084993 52.599392  -0.869146 0.384540 -0.310988  0.771738 -0.425545 0
0  -39.706676 -1.380120 52.495125  -0.869146 0.384540 -0.310988  0.782731 -0.432270 0
painted_wood_01
0  -39.170982 -0.084993 52.599392  -0.755533 0.551336 -0.353833  0.297731 0.539493 0
0  -38.373837 0.242808 51.408028  -0.755528 0.551339 -0.353841  0.297731 0.539493 0
0  -38.934860 -0.932506 51.305740  -0.755526 0.551339 -0.353844  0.297731 0.539493 0
painted_wood_01
0  -39.663803 -1.456382 52.371059  -0.653711 -0.724291 0.219238  0.297731 0.539493 0
0  -39.706676 -1.380120 52.495125  -0.653728 -0.724278 0.219227  0.297731 0.539493 0
0  -38.934860 -0.932506 51.305740  -0.653731 -0.724277 0.219222  0.297731 0.539493 0
painted_wood_01
0  -38.363445 0.213372 51.360214  0.996581 -0.039964 -0.072308  0.297731 0.539493 0
0  -38.330414 -0.470770 52.193363  0.996583 -0.039988 -0.072278  0.297731 0.539493 0
0  -38.934860 -0.932506 51.305740  0.996581 -0.039956 -0.072314  0.297731 0.539493 0
painted_wood_01
0  -38.373837 0.242808 51.408028  -0.385251 0.746089 -0.543078  0.297731 0.539493 0
0  -38.363445 0.213372 51.360214  -0.385260 0.746109 -0.543044  0.297731 0.539493 0
0  -38.934860 -0.932506 51.305740  -0.385263 0.746105 -0.543047  0.297731 0.539493 0
painted_wood_01
0  -39.170982 -0.084993 52.599392  0.149348 0.852557 -0.500841  0.297731 0.539493 0
0  -38.330414 -0.470770 52.193363  0.149346 0.852558 -0.500840  0.297731 0.539493 0
0  -38.934860 -0.932506 51.305740  0.149347 0.852557 -0.500841  0.297731 0.539493 0
painted_wood_01
0  -39.706676 -1.380120 52.495125  -0.884519 0.386846 -0.260722  0.297731 0.539493 0
0  -39.170982 -0.084993 52.599392  -0.884515 0.386856 -0.260722  0.297731 0.539493 0
0  -38.934860 -0.932506 51.305740  -0.884523 0.386836 -0.260723  0.297731 0.539493 0
painted_wood_01
0  -38.330414 -0.470770 52.193363  0.585272 -0.727046 0.358971  0.297731 0.539493 0
0  -39.663803 -1.456382 52.371059  0.585278 -0.727041 0.358971  0.297731 0.539493 0
0  -38.934860 -0.932506 51.305740  0.585226 -0.727080 0.358978  0.297731 0.539493 0
c_invasion_wrangler_laser
0  25.793211 8.611084 70.719040  0.127780 0.645127 0.753315  0.000000 0.000000 0
0  40.291451 6.674378 69.918533  0.127775 0.645127 0.753316  0.000000 0.000000 0
0  32.762150 11.371471 66.000122  0.127777 0.645127 0.753316  0.000000 0.000000 0
c_invasion_wrangler_laser
0  32.392654 11.353545 59.266705  0.028350 -0.944561 -0.327111  0.000000 0.000000 0
0  15.703093 13.900991 50.463814  0.028355 -0.944562 -0.327108  0.000000 0.000000 0
0  20.916727 14.304313 48.538818  0.028358 -0.944562 -0.327106  0.000000 0.000000 0
painted_wood_01
0  25.793211 8.611084 70.719040  -0.168659 -0.374524 0.911749  0.297731 0.539493 0
0  8.846363 12.554864 69.204254  -0.168645 -0.374527 0.911750  0.297731 0.539493 0
0  24.051195 4.550550 69.659592  -0.168666 -0.374522 0.911748  0.297731 0.539493 0
c_invasion_wrangler_laser
0  21.126669 15.939065 49.513054  0.433706 0.899253 -0.056946  0.000000 0.000000 0
0  32.762150 11.371471 66.000122  0.433704 0.899254 -0.056949  0.000000 0.000000 0
0  32.343674 11.607520 59.484871  0.433706 0.899253 -0.056946  0.000000 0.000000 0
c_invasion_wrangler_laser
0  19.347948 18.090054 44.186962  -0.886774 0.405063 -0.222610  0.000000 0.000000 0
0  18.150736 17.487553 47.859764  -0.886774 0.405063 -0.222610  0.000000 0.000000 0
0  19.453197 18.566936 44.637810  -0.886774 0.405063 -0.222610  0.000000 0.000000 0
c_invasion_wrangler_laser
0  32.778236 6.054245 69.406082  0.000680 -0.641883 0.766802  0.000000 0.000000 0
0  40.291451 6.674378 69.918533  0.000679 -0.641883 0.766802  0.000000 0.000000 0
0  32.684772 6.744685 69.975128  0.000660 -0.641884 0.766801  0.000000 0.000000 0
c_invasion_wrangler_laser
0  24.051195 4.550550 69.659592  0.052063 -0.339897 0.939020  0.000000 0.000000 0
0  32.684772 6.744685 69.975128  0.052059 -0.339898 0.939020  0.000000 0.000000 0
0  25.793211 8.611084 70.719040  0.052063 -0.339897 0.939020  0.000000 0.000000 0
c_invasion_wrangler_laser
0  31.864880 8.884312 65.137993  0.061889 -0.825682 -0.560730  0.000000 0.000000 0
0  32.778236 6.054245 69.406082  0.061889 -0.825682 -0.560731  0.000000 0.000000 0
0  24.051195 4.550550 69.659592  0.061888 -0.825679 -0.560735  0.000000 0.000000 0
c_invasion_wrangler_laser
0  40.329262 5.989674 69.336288  -0.179301 -0.609294 0.772407  0.000000 0.000000 0
0  43.769123 3.677407 68.310852  -0.179299 -0.609295 0.772406  0.000000 0.000000 0
0  40.291451 6.674378 69.918533  -0.179300 -0.609294 0.772407  0.000000 0.000000 0
c_invasion_wrangler_laser
0  32.762150 11.371471 66.000122  0.484271 0.867088 0.116786  0.000000 0.000000 0
0  35.830807 10.592129 59.062374  0.484272 0.867088 0.116783  0.000000 0.000000 0
0  32.343674 11.607520 59.484871  0.484263 0.867091 0.116804  0.000000 0.000000 0
black
0  36.637699 4.482600 52.981632  0.763857 0.462138 -0.450501  0.784357 -0.127771 0
0  38.138889 0.972976 51.926842  0.763857 0.462138 -0.450501  1.052400 -0.128760 0
0  36.595154 4.362072 52.785854  0.763857 0.462138 -0.450501  0.810270 -0.127883 0
c_invasion_wrangler_laser
0  19.453197 18.566936 44.637810  0.953652 0.057031 -0.295459  0.000000 0.000000 0
0  20.916727 14.304313 48.538818  0.953652 0.057030 -0.295459  0.000000 0.000000 0
0  19.347948 18.090054 44.186962  0.953652 0.057030 -0.295459  0.000000 0.000000 0
c_invasion_wrangler_laser
0  17.795338 16.086906 46.730633  -0.874191 0.421545 -0.241018  0.000000 0.000000 0
0  17.254892 18.464945 52.850132  -0.874191 0.421545 -0.241018  0.000000 0.000000 0
0  18.150736 17.487553 47.859764  -0.874191 0.421545 -0.241018  0.000000 0.000000 0
c_invasion_wrangler_laser
0  15.703093 13.900991 50.463814  -0.109933 -0.796078 -0.595125  0.000000 0.000000 0
0  19.347948 18.090054 44.186962  -0.109930 -0.796074 -0.595131  0.000000 0.000000 0
0  20.916727 14.304313 48.538818  -0.109935 -0.796080 -0.595122  0.000000 0.000000 0
c_invasion_wrangler_laser
0  21.126669 15.939065 49.513054  0.405140 0.906391 0.119655  0.000000 0.000000 0
0  18.150736 17.487553 47.859764  0.405156 0.906383 0.119664  0.000000 0.000000 0
0  17.254892 18.464945 52.850132  0.405153 0.906384 0.119663  0.000000 0.000000 0
c_invasion_wrangler_laser
0  32.392654 11.353545 59.266705  0.690727 0.343073 -0.636551  0.000000 0.000000 0
0  21.126669 15.939065 49.513054  0.690735 0.343070 -0.636544  0.000000 0.000000 0
0  32.343674 11.607520 59.484871  0.690742 0.343067 -0.636537  0.000000 0.000000 0
c_invasion_wrangler_laser
0  43.510090 3.005501 67.771683  0.162013 -0.752926 0.637852  0.000000 0.000000 0
0  43.769123 -0.146009 63.985783  0.162013 -0.752916 0.637863  0.000000 0.000000 0
0  43.769123 3.677407 68.310852  0.162013 -0.752934 0.637842  0.000000 0.000000 0
c_invasion_wrangler_laser
0  35.603283 8.172401 64.867210  -0.570030 -0.610475 0.549896  0.000000 0.000000 0
0  43.510090 -0.640141 63.280094  -0.570025 -0.610480 0.549895  0.000000 0.000000 0
0  43.510090 3.005501 67.771683  -0.570027 -0.610478 0.549896  0.000000 0.000000 0
c_invasion_wrangler_laser
0  31.864880 8.884312 65.137993  -0.459569 -0.886563 0.052948  0.000000 0.000000 0
0  43.510090 3.005501 67.771683  -0.459546 -0.886574 0.052952  0.000000 0.000000 0
0  40.329262 5.989674 69.336288  -0.459542 -0.886576 0.052953  0.000000 0.000000 0
painted_wood_01
0  32.762150 11.371471 66.000122  0.618261 -0.440271 0.651087  0.297731 0.539493 0
0  24.051195 4.550550 69.659592  0.618262 -0.440270 0.651087  0.297731 0.539493 0
0  31.864880 8.884312 65.137993  0.618261 -0.440270 0.651087  0.297731 0.539493 0
c_invasion_wrangler_laser
0  35.862309 8.844316 65.406380  0.735660 0.677151 0.016436  0.000000 0.000000 0
0  35.830807 9.081023 57.042477  0.735660 0.677154 0.016339  0.000000 0.000000 0
0  35.830807 10.592129 59.062374  0.735660 0.677152 0.016385  0.000000 0.000000 0
c_invasion_wrangler_laser
0  35.830807 10.592129 59.062374  -0.555416 0.674934 -0.485775  0.000000 0.000000 0
0  35.767323 8.890297 56.770279  -0.555414 0.674960 -0.485742  0.000000 0.000000 0
0  35.767323 10.332837 58.854443  -0.555415 0.674957 -0.485744  0.000000 0.000000 0
c_invasion_wrangler_laser
0  43.769123 3.677407 68.310852  0.705836 0.661053 -0.254566  0.000000 0.000000 0
0  39.128525 6.894682 63.798203  0.705850 0.661044 -0.254553  0.000000 0.000000 0
0  35.862309 8.844316 65.406380  0.705831 0.661057 -0.254572  0.000000 0.000000 0
painted_wood_01
0  32.762150 11.371471 66.000122  0.065660 0.384420 -0.920820  0.297731 0.539493 0
0  35.603283 8.172401 64.867210  0.065664 0.384417 -0.920821  0.297731 0.539493 0
0  31.864880 8.884312 65.137993  0.065665 0.384415 -0.920822  0.297731 0.539493 0
c_invasion_wrangler_laser
0  35.767323 10.332837 58.854443  -0.999618 0.020625 -0.018401  0.000000 0.000000 0
0  35.603283 5.133205 61.937981  -0.999618 0.020625 -0.018401  0.000000 0.000000 0
0  35.603283 8.172401 64.867210  -0.999618 0.020625 -0.018401  0.000000 0.000000 0
c_invasion_wrangler_laser
0  40.291451 6.674378 69.918533  0.589240 0.782245 -0.202211  0.000000 0.000000 0
0  35.862309 8.844316 65.406380  0.589240 0.782245 -0.202211  0.000000 0.000000 0
0  32.762150 11.371471 66.000122  0.589240 0.782245 -0.202211  0.000000 0.000000 0
painted_wood_01
0  31.864880 8.884312 65.137993  -0.207905 -0.911944 -0.353741  0.297731 0.539493 0
0  8.846363 12.554864 69.204254  -0.207894 -0.911946 -0.353743  0.297731 0.539493 0
0  15.703093 13.900991 50.463814  -0.207910 -0.911944 -0.353740  0.297731 0.539493 0
black
0  36.595154 4.362072 52.785854  -0.893285 -0.329367 -0.305876  -1.020146 -0.127628 0
0  38.092876 0.019976 53.087402  -0.893285 -0.329367 -0.305876  -1.061265 -0.126286 0
0  36.459900 1.560789 56.197258  -0.893285 -0.329367 -0.305876  -1.049569 -0.126233 0
c_invasion_wrangler_laser
0  35.830807 9.081023 57.042477  0.627833 0.574957 -0.524643  0.000000 0.000000 0
0  36.595154 4.362072 52.785854  0.627832 0.574959 -0.524642  0.000000 0.000000 0
0  35.767323 8.890297 56.770279  0.627832 0.574960 -0.524641  0.000000 0.000000 0
c_invasion_wrangler_laser
0  35.603283 5.133205 61.937981  -0.587607 -0.724820 0.359657  0.000000 0.000000 0
0  41.919571 -2.474887 56.924858  -0.587607 -0.724820 0.359657  0.000000 0.000000 0
0  43.510090 -0.640141 63.280094  -0.587607 -0.724820 0.359658  0.000000 0.000000 0
c_invasion_wrangler_laser
0  32.343674 11.607520 59.484871  0.094872 0.634282 -0.767259  0.000000 0.000000 0
0  35.767323 10.332837 58.854443  0.094876 0.634280 -0.767260  0.000000 0.000000 0
0  32.392654 11.353545 59.266705  0.094873 0.634281 -0.767259  0.000000 0.000000 0
painted_wood_01
0  32.762150 11.371471 66.000122  0.678030 0.099995 -0.728201  0.297731 0.539493 0
0  15.703093 13.900991 50.463814  0.678028 0.099996 -0.728203  0.297731 0.539493 0
0  17.254892 18.464945 52.850132  0.678028 0.099996 -0.728203  0.297731 0.539493 0
painted_wood_01
0  17.254892 18.464945 52.850132  -0.898893 0.199799 -0.389965  0.297731 0.539493 0
0  8.846363 12.554864 69.204254  -0.898894 0.199798 -0.389962  0.297731 0.539493 0
0  7.304867 19.615204 72.750679  -0.898901 0.199793 -0.389948  0.297731 0.539493 0
c_invasion_wrangler_laser
0  32.392654 11.353545 59.266705  -0.253254 -0.896331 -0.363941  0.000000 0.000000 0
0  35.603283 8.172401 64.867210  -0.253254 -0.896331 -0.363940  0.000000 0.000000 0
0  31.864880 8.884312 65.137993  -0.253253 -0.896332 -0.363939  0.000000 0.000000 0
c_invasion_wrangler_laser
0  43.510090 -0.640141 63.280094  0.948942 -0.272661 -0.158634  0.000000 0.000000 0
0  42.095142 -2.162628 57.432854  0.948942 -0.272661 -0.158634  0.000000 0.000000 0
0  43.769123 -0.146009 63.985783  0.948942 -0.272661 -0.158634  0.000000 0.000000 0
c_invasion_wrangler_laser
0  43.769123 -0.146009 63.985783  0.838248 0.469506 -0.277318  0.000000 0.000000 0
0  39.901680 3.140390 57.859787  0.838245 0.469508 -0.277321  0.000000 0.000000 0
0  39.128525 6.894682 63.798203  0.838243 0.469510 -0.277325  0.000000 0.000000 0
c_invasion_wrangler_laser
0  39.128525 6.894682 63.798203  0.805770 0.510918 -0.299496  0.000000 0.000000 0
0  36.637699 4.482600 52.981632  0.805773 0.510921 -0.299484  0.000000 0.000000 0
0  35.830807 9.081023 57.042477  0.805770 0.510918 -0.299495  0.000000 0.000000 0
c_invasion_wrangler_laser
0  35.767323 8.890297 56.770279  -0.991258 -0.085833 -0.100206  0.000000 0.000000 0
0  36.459900 1.560789 56.197258  -0.991258 -0.085833 -0.100206  0.000000 0.000000 0
0  35.603283 5.133205 61.937981  -0.991258 -0.085833 -0.100206  0.000000 0.000000 0
painted_wood_01
0  25.793211 8.611084 70.719040  0.366232 0.877716 0.309014  0.297731 0.539493 0
0  17.254892 18.464945 52.850132  0.366229 0.877719 0.309007  0.297731 0.539493 0
0  7.304867 19.615204 72.750679  0.366234 0.877713 0.309019  0.297731 0.539493 0
black
0  39.901680 3.140390 57.859787  -0.149356 0.852558 -0.500837  0.000000 0.000000 0
0  38.092876 0.019976 53.087402  -0.149356 0.852558 -0.500837  0.000000 0.000000 0
0  36.459900 1.560789 56.197258  -0.149356 0.852558 -0.500837  0.000000 0.000000 0
black
0  41.919571 -2.474887 56.924858  0.884412 0.193600 -0.424658  2.558849 -0.285051 0
0  40.009991 -1.246735 53.507755  0.884412 0.193600 -0.424658  2.821717 -0.280716 0
0  42.095142 -2.162628 57.432854  0.884412 0.193600 -0.424658  2.498474 -0.286011 0
black
0  42.095142 -2.162628 57.432854  0.850407 0.380964 -0.362870  0.826658 -0.388104 0
0  39.263775 0.557359 53.652996  0.850407 0.380964 -0.362870  0.773415 -0.412742 0
0  39.901680 3.140390 57.859787  0.850407 0.380964 -0.362870  0.782168 -0.360577 0
black
0  39.901680 3.140390 57.859787  0.791128 0.460411 -0.402665  -0.971315 -0.122642 0
0  38.153362 1.013980 51.993443  0.791128 0.460411 -0.402665  -0.902618 -0.124095 0
0  36.637699 4.482600 52.981632  0.791128 0.460411 -0.402665  -0.880774 -0.124927 0
black
0  36.459900 1.560789 56.197258  -0.599378 -0.796470 0.079887  0.244094 -0.381040 0
0  39.950264 -1.352965 53.334934  -0.599378 -0.796470 0.079887  0.210592 -0.419893 0
0  41.919571 -2.474887 56.924858  -0.599378 -0.796470 0.079887  0.171857 -0.387444 0
gold_player
0  38.092876 0.019976 53.087402  -0.596235 -0.759972 0.258740  0.235166 -0.417717 0
0  39.663803 -1.456382 52.371059  -0.596235 -0.759972 0.258740  0.216447 -0.429121 0
0  39.950264 -1.352965 53.334934  -0.596235 -0.759972 0.258740  0.210592 -0.419893 0
gold_player
0  39.263775 0.557359 53.652996  0.773877 0.508180 -0.377980  -0.934049 -0.123300 0
0  38.373837 0.242808 51.408028  0.773877 0.508180 -0.377980  -0.902533 -0.124026 0
0  38.153362 1.013980 51.993443  0.773877 0.508180 -0.377980  -0.902618 -0.124095 0
gold_player
0  39.950264 -1.352965 53.334934  0.957187 -0.091328 -0.274685  2.842249 -0.280404 0
0  39.706676 -1.380120 52.495125  0.957187 -0.091328 -0.274685  2.916904 -0.279247 0
0  40.009991 -1.246735 53.507755  0.957187 -0.091328 -0.274685  2.821717 -0.280716 0
gold_player
0  38.138889 0.972976 51.926842  -0.972254 -0.160409 -0.170270  -1.051266 -0.126760 0
0  38.330414 -0.470770 52.193363  -0.972254 -0.160409 -0.170270  -1.063791 -0.126310 0
0  38.092876 0.019976 53.087402  -0.972254 -0.160409 -0.170270  -1.061265 -0.126286 0
gold_player
0  38.153362 1.013980 51.993443  0.664934 0.562857 -0.490973  1.043581 -0.128723 0
0  38.363445 0.213372 51.360214  0.664934 0.562857 -0.490973  1.143871 -0.129144 0
0  38.138889 0.972976 51.926842  0.664934 0.562857 -0.490973  1.052400 -0.128760 0
gold_player
0  39.263775 0.557359 53.652996  -0.146053 0.850337 -0.505564  0.000000 0.000000 0
0  38.330414 -0.470770 52.193363  -0.146053 0.850337 -0.505564  0.000000 0.000000 0
0  38.092876 0.019976 53.087402  -0.146053 0.850337 -0.505564  0.000000 0.000000 0
gold_player
0  40.009991 -1.246735 53.507755  0.869148 0.384536 -0.310988  0.788790 -0.422112 0
0  39.170982 -0.084993 52.599392  0.869148 0.384536 -0.310988  0.771738 -0.425545 0
0  39.263775 0.557359 53.652996  0.869148 0.384536 -0.310988  0.773415 -0.412742 0
painted_wood_01
0  39.170982 -0.084993 52.599392  0.755553 0.551297 -0.353852  0.297731 0.539493 0
0  38.934860 -0.932506 51.305740  0.755542 0.551301 -0.353869  0.297731 0.539493 0
0  38.373837 0.242808 51.408028  0.755542 0.551302 -0.353869  0.297731 0.539493 0
painted_wood_01
0  39.663803 -1.456382 52.371059  0.653748 -0.724261 0.219224  0.297731 0.539493 0
0  38.934860 -0.932506 51.305740  0.653771 -0.724244 0.219213  0.297731 0.539493 0
0  39.706676 -1.380120 52.495125  0.653752 -0.724273 0.219174  0.297731 0.539493 0
painted_wood_01
0  38.363445 0.213372 51.360214  -0.996582 -0.039967 -0.072304  0.297731 0.539493 0
0  38.934860 -0.932506 51.305740  -0.996582 -0.039973 -0.072293  0.297731 0.539493 0
0  38.330414 -0.470770 52.193363  -0.996583 -0.040002 -0.072262  0.297731 0.539493 0
painted_wood_01
0  38.373837 0.242808 51.408028  0.385248 0.746080 -0.543092  0.297731 0.539493 0
0  38.934860 -0.932506 51.305740  0.385261 0.746102 -0.543052  0.297731 0.539493 0
0  38.363445 0.213372 51.360214  0.385264 0.746120 -0.543026  0.297731 0.539493 0
painted_wood_01
0  39.170982 -0.084993 52.599392  -0.149347 0.852558 -0.500840  0.297731 0.539493 0
0  38.934860 -0.932506 51.305740  -0.149346 0.852558 -0.500840  0.297731 0.539493 0
0  38.330414 -0.470770 52.193363  -0.149347 0.852558 -0.500840  0.297731 0.539493 0
painted_wood_01
0  39.706676 -1.380120 52.495125  0.884504 0.386850 -0.260768  0.297731 0.539493 0
0  38.934860 -0.932506 51.305740  0.884509 0.386837 -0.260769  0.297731 0.539493 0
0  39.170982 -0.084993 52.599392  0.884501 0.386856 -0.260768  0.297731 0.539493 0
painted_wood_01
0  38.330414 -0.470770 52.193363  -0.585281 -0.727062 0.358926  0.297731 0.539493 0
0  38.934860 -0.932506 51.305740  -0.585262 -0.727075 0.358929  0.297731 0.539493 0
0  39.663803 -1.456382 52.371059  -0.585297 -0.727049 0.358925  0.297731 0.539493 0
c_invasion_wrangler_laser
0  -25.793211 8.611084 70.719040  -0.127774 0.645127 0.753316  0.000000 0.000000 0
0  -32.762150 11.371471 66.000122  -0.127765 0.645128 0.753316  0.000000 0.000000 0
0  -40.291451 6.674378 69.918533  -0.127771 0.645128 0.753316  0.000000 0.000000 0
c_invasion_wrangler_laser
0  -32.392654 11.353545 59.266705  -0.028354 -0.944561 -0.327109  0.000000 0.000000 0
0  -20.916727 14.304313 48.538818  -0.028355 -0.944562 -0.327108  0.000000 0.000000 0
0  -15.703093 13.900991 50.463814  -0.028352 -0.944561 -0.327109  0.000000 0.000000 0
painted_wood_01
0  -25.793211 8.611084 70.719040  0.168660 -0.374524 0.911749  0.297731 0.539493 0
0  -24.051195 4.550550 69.659592  0.168647 -0.374527 0.911750  0.297731 0.539493 0
0  -8.846363 12.554864 69.204254  0.168637 -0.374529 0.911751  0.297731 0.539493 0
c_invasion_wrangler_laser
0  -21.126669 15.939065 49.513054  -0.433703 0.899255 -0.056950  0.000000 0.000000 0
0  -32.343674 11.607520 59.484871  -0.433703 0.899254 -0.056950  0.000000 0.000000 0
0  -32.762150 11.371471 66.000122  -0.433704 0.899254 -0.056948  0.000000 0.000000 0
c_invasion_wrangler_laser
0  -19.347948 18.090054 44.186962  0.886774 0.405063 -0.222610  0.000000 0.000000 0
0  -19.453197 18.566936 44.637810  0.886774 0.405063 -0.222610  0.000000 0.000000 0
0  -18.150736 17.487553 47.859764  0.886774 0.405063 -0.222610  0.000000 0.000000 0
c_invasion_wrangler_laser
0  -32.778236 6.054245 69.406082  -0.000680 -0.641883 0.766802  0.000000 0.000000 0
0  -32.684772 6.744685 69.975128  -0.000680 -0.641883 0.766802  0.000000 0.000000 0
0  -40.291451 6.674378 69.918533  -0.000680 -0.641883 0.766802  0.000000 0.000000 0
c_invasion_wrangler_laser
0  -24.051195 4.550550 69.659592  -0.052061 -0.339898 0.939020  0.000000 0.000000 0
0  -25.793211 8.611084 70.719040  -0.052062 -0.339897 0.939020  0.000000 0.000000 0
0  -32.684772 6.744685 69.975128  -0.052059 -0.339898 0.939020  0.000000 0.000000 0
c_invasion_wrangler_laser
0  -31.864880 8.884312 65.137993  -0.061889 -0.825681 -0.560732  0.000000 0.000000 0
0  -24.051195 4.550550 69.659592  -0.061888 -0.825679 -0.560735  0.000000 0.000000 0
0  -32.778236 6.054245 69.406082  -0.061888 -0.825678 -0.560737  0.000000 0.000000 0
c_invasion_wrangler_laser
0  -40.329262 5.989674 69.336288  0.179299 -0.609295 0.772406  0.000000 0.000000 0
0  -40.291451 6.674378 69.918533  0.179298 -0.609296 0.772406  0.000000 0.000000 0
0  -43.769123 3.677407 68.310852  0.179301 -0.609294 0.772407  0.000000 0.000000 0
c_invasion_wrangler_laser
0  -32.762150 11.371471 66.000122  -0.484272 0.867088 0.116784  0.000000 0.000000 0
0  -32.343674 11.607520 59.484871  -0.484267 0.867090 0.116796  0.000000 0.000000 0
0  -35.830807 10.592129 59.062374  -0.484274 0.867088 0.116780  0.000000 0.000000 0
black
0  -36.637699 4.482600 52.981632  -0.763857 0.462138 -0.450501  0.784357 -0.127771 0
0  -36.595154 4.362072 52.785854  -0.763857 0.462138 -0.450501  0.810270 -0.127883 0
0  -38.138889 0.972976 51.926842  -0.763857 0.462138 -0.450501  1.052400 -0.128760 0
c_invasion_wrangler_laser
0  -19.453197 18.566936 44.637810  -0.953652 0.057030 -0.295459  0.000000 0.000000 0
0  -19.347948 18.090054 44.186962  -0.953652 0.057031 -0.295459  0.000000 0.000000 0
0  -20.916727 14.304313 48.538818  -0.953651 0.057031 -0.295460  0.000000 0.000000 0
c_invasion_wrangler_laser
0  -17.795338 16.086906 46.730633  0.874168 0.421585 -0.241031  0.000000 0.000000 0
0  -18.150736 17.487553 47.859764  0.874168 0.421585 -0.241032  0.000000 0.000000 0
0  -17.254892 18.464945 52.850132  0.874168 0.421585 -0.241032  0.000000 0.000000 0
c_invasion_wrangler_laser
0  -15.703093 13.900991 50.463814  0.109932 -0.796077 -0.595127  0.000000 0.000000 0
0  -20.916727 14.304313 48.538818  0.109932 -0.796077 -0.595127  0.000000 0.000000 0
0  -19.347948 18.090054 44.186962  0.109933 -0.796078 -0.595125  0.000000 0.000000 0
c_invasion_wrangler_laser
0  -21.126669 15.939065 49.513054  -0.405145 0.906388 0.119658  0.000000 0.000000 0
0  -17.254892 18.464945 52.850132  -0.405146 0.906388 0.119659  0.000000 0.000000 0
0  -18.150736 17.487553 47.859764  -0.405156 0.906382 0.119664  0.000000 0.000000 0
c_invasion_wrangler_laser
0  -32.392654 11.353545 59.266705  -0.690719 0.343076 -0.636558  0.000000 0.000000 0
0  -32.343674 11.607520 59.484871  -0.690750 0.343064 -0.636531  0.000000 0.000000 0
0  -21.126669 15.939065 49.513054  -0.690733 0.343071 -0.636546  0.000000 0.000000 0
c_invasion_wrangler_laser
0  -43.510090 3.005501 67.771683  -0.162015 -0.752943 0.637831  0.000000 0.000000 0
0  -43.769123 3.677407 68.310852  -0.162011 -0.752903 0.637879  0.000000 0.000000 0
0  -43.769123 -0.146009 63.985783  -0.162013 -0.752920 0.637858  0.000000 0.000000 0
c_invasion_wrangler_laser
0  -35.603283 8.172401 64.867210  0.570024 -0.610482 0.549895  0.000000 0.000000 0
0  -43.510090 3.005501 67.771683  0.570028 -0.610477 0.549896  0.000000 0.000000 0
0  -43.510090 -0.640141 63.280094  0.570025 -0.610481 0.549895  0.000000 0.000000 0
c_invasion_wrangler_laser
0  -31.864880 8.884312 65.137993  0.459552 -0.886571 0.052951  0.000000 0.000000 0
0  -40.329262 5.989674 69.336288  0.459556 -0.886569 0.052950  0.000000 0.000000 0
0  -43.510090 3.005501 67.771683  0.459555 -0.886570 0.052950  0.000000 0.000000 0
painted_wood_01
0  -32.762150 11.371471 66.000122  -0.618273 -0.440303 0.651054  0.297731 0.539493 0
0  -31.864880 8.884312 65.137993  -0.618273 -0.440303 0.651054  0.297731 0.539493 0
0  -24.051195 4.550550 69.659592  -0.618273 -0.440303 0.651054  0.297731 0.539493 0
c_invasion_wrangler_laser
0  -35.862309 8.844316 65.406380  -0.735660 0.677154 0.016342  0.000000 0.000000 0
0  -35.830807 10.592129 59.062374  -0.735660 0.677152 0.016401  0.000000 0.000000 0
0  -35.830807 9.081023 57.042477  -0.735660 0.677151 0.016430  0.000000 0.000000 0
c_invasion_wrangler_laser
0  -35.830807 10.592129 59.062374  0.555415 0.674965 -0.485732  0.000000 0.000000 0
0  -35.767323 10.332837 58.854443  0.555416 0.674946 -0.485758  0.000000 0.000000 0
0  -35.767323 8.890297 56.770279  0.555414 0.674957 -0.485745  0.000000 0.000000 0
c_invasion_wrangler_laser
0  -43.769123 3.677407 68.310852  -0.705873 0.661028 -0.254530  0.000000 0.000000 0
0  -35.862309 8.844316 65.406380  -0.705841 0.661050 -0.254562  0.000000 0.000000 0
0  -39.128525 6.894682 63.798203  -0.705856 0.661039 -0.254547  0.000000 0.000000 0
painted_wood_01
0  -32.762150 11.371471 66.000122  -0.065661 0.384420 -0.920820  0.297731 0.539493 0
0  -31.864880 8.884312 65.137993  -0.065663 0.384417 -0.920821  0.297731 0.539493 0
0  -35.603283 8.172401 64.867210  -0.065661 0.384419 -0.920821  0.297731 0.539493 0
c_invasion_wrangler_laser
0  -35.767323 10.332837 58.854443  0.999618 0.020625 -0.018401  0.000000 0.000000 0
0  -35.603283 8.172401 64.867210  0.999618 0.020625 -0.018401  0.000000 0.000000 0
0  -35.603283 5.133205 61.937981  0.999618 0.020625 -0.018401  0.000000 0.000000 0
c_invasion_wrangler_laser
0  -40.291451 6.674378 69.918533  -0.589240 0.782245 -0.202211  0.000000 0.000000 0
0  -32.762150 11.371471 66.000122  -0.589241 0.782244 -0.202210  0.000000 0.000000 0
0  -35.862309 8.844316 65.406380  -0.589240 0.782245 -0.202211  0.000000 0.000000 0
painted_wood_01
0  -31.864880 8.884312 65.137993  0.207911 -0.911943 -0.353740  0.297731 0.539493 0
0  -15.703093 13.900991 50.463814  0.207900 -0.911945 -0.353742  0.297731 0.539493 0
0  -8.846363 12.554864 69.204254  0.207924 -0.911941 -0.353738  0.297731 0.539493 0
black
0  -36.595154 4.362072 52.785854  0.893285 -0.329367 -0.305876  -1.020146 -0.127628 0
0  -36.459900 1.560789 56.197258  0.893285 -0.329367 -0.305876  -1.049569 -0.126233 0
0  -38.092876 0.019976 53.087402  0.893285 -0.329367 -0.305876  -1.061265 -0.126286 0
c_invasion_wrangler_laser
0  -35.830807 9.081023 57.042477  -0.627832 0.574963 -0.524637  0.000000 0.000000 0
0  -35.767323 8.890297 56.770279  -0.627832 0.574961 -0.524639  0.000000 0.000000 0
0  -36.595154 4.362072 52.785854  -0.627832 0.574959 -0.524642  0.000000 0.000000 0
c_invasion_wrangler_laser
0  -35.603283 5.133205 61.937981  0.587608 -0.724820 0.359658  0.000000 0.000000 0
0  -43.510090 -0.640141 63.280094  0.587607 -0.724820 0.359657  0.000000 0.000000 0
0  -41.919571 -2.474887 56.924858  0.587607 -0.724820 0.359658  0.000000 0.000000 0
c_invasion_wrangler_laser
0  -32.343674 11.607520 59.484871  -0.094871 0.634282 -0.767259  0.000000 0.000000 0
0  -32.392654 11.353545 59.266705  -0.094874 0.634281 -0.767259  0.000000 0.000000 0
0  -35.767323 10.332837 58.854443  -0.094875 0.634280 -0.767259  0.000000 0.000000 0
painted_wood_01
0  -32.762150 11.371471 66.000122  -0.678029 0.099996 -0.728202  0.297731 0.539493 0
0  -17.254892 18.464945 52.850132  -0.678028 0.099996 -0.728203  0.297731 0.539493 0
0  -15.703093 13.900991 50.463814  -0.678026 0.099996 -0.728204  0.297731 0.539493 0
painted_wood_01
0  -17.254892 18.464945 52.850132  0.898890 0.199801 -0.389970  0.297731 0.539493 0
0  -7.304867 19.615204 72.750679  0.898900 0.199794 -0.389950  0.297731 0.539493 0
0  -8.846363 12.554864 69.204254  0.898893 0.199799 -0.389963  0.297731 0.539493 0
c_invasion_wrangler_laser
0  -32.392654 11.353545 59.266705  0.253254 -0.896331 -0.363940  0.000000 0.000000 0
0  -31.864880 8.884312 65.137993  0.253256 -0.896329 -0.363944  0.000000 0.000000 0
0  -35.603283 8.172401 64.867210  0.253255 -0.896331 -0.363942  0.000000 0.000000 0
c_invasion_wrangler_laser
0  -43.510090 -0.640141 63.280094  -0.948942 -0.272661 -0.158634  0.000000 0.000000 0
0  -43.769123 -0.146009 63.985783  -0.948942 -0.272661 -0.158634  0.000000 0.000000 0
0  -42.095142 -2.162628 57.432854  -0.948942 -0.272661 -0.158634  0.000000 0.000000 0
c_invasion_wrangler_laser
0  -43.769123 -0.146009 63.985783  -0.838242 0.469511 -0.277326  0.000000 0.000000 0
0  -39.128525 6.894682 63.798203  -0.838243 0.469510 -0.277325  0.000000 0.000000 0
0  -39.901680 3.140390 57.859787  -0.838244 0.469510 -0.277324  0.000000 0.000000 0
c_invasion_wrangler_laser
0  -39.128525 6.894682 63.798203  -0.805770 0.510918 -0.299497  0.000000 0.000000 0
0  -35.830807 9.081023 57.042477  -0.805773 0.510921 -0.299484  0.000000 0.000000 0
0  -36.637699 4.482600 52.981632  -0.805772 0.510920 -0.299489  0.000000 0.000000 0
c_invasion_wrangler_laser
0  -35.767323 8.890297 56.770279  0.991258 -0.085833 -0.100206  0.000000 0.000000 0
0  -35.603283 5.133205 61.937981  0.991258 -0.085832 -0.100206  0.000000 0.000000 0
0  -36.459900 1.560789 56.197258  0.991258 -0.085833 -0.100206  0.000000 0.000000 0
painted_wood_01
0  -25.793211 8.611084 70.719040  -0.366233 0.877714 0.309017  0.297731 0.539493 0
0  -7.304867 19.615204 72.750679  -0.366236 0.877711 0.309022  0.297731 0.539493 0
0  -17.254892 18.464945 52.850132  -0.366229 0.877719 0.309008  0.297731 0.539493 0
black
0  -39.901680 3.140390 57.859787  0.149356 0.852558 -0.500837  0.000000 0.000000 0
0  -36.459900 1.560789 56.197258  0.149356 0.852558 -0.500837  0.000000 0.000000 0
0  -38.092876 0.019976 53.087402  0.149356 0.852558 -0.500837  0.000000 0.000000 0
black
0  -41.919571 -2.474887 56.924858  -0.884412 0.193600 -0.424658  2.558849 -0.285051 0
0  -42.095142 -2.162628 57.432854  -0.884412 0.193600 -0.424658  2.498474 -0.286011 0
0  -40.009991 -1.246735 53.507755  -0.884412 0.193600 -0.424658  2.821717 -0.280716 0
black
0  -42.095142 -2.162628 57.432854  -0.850407 0.380964 -0.362870  0.826658 -0.388104 0
0  -39.901680 3.140390 57.859787  -0.850407 0.380964 -0.362870  0.782168 -0.360577 0
0  -39.263775 0.557359 53.652996  -0.850407 0.380964 -0.362870  0.773415 -0.412742 0
black
0  -39.901680 3.140390 57.859787  -0.791128 0.460411 -0.402665  -0.971315 -0.122642 0
0  -36.637699 4.482600 52.981632  -0.791128 0.460411 -0.402665  -0.880774 -0.124927 0
0  -38.153362 1.013980 51.993443  -0.791128 0.460411 -0.402665  -0.902618 -0.124095 0
black
0  -36.459900 1.560789 56.197258  0.599378 -0.796470 0.079887  0.244094 -0.381040 0
0  -41.919571 -2.474887 56.924858  0.599378 -0.796470 0.079887  0.171857 -0.387444 0
0  -39.950264 -1.352965 53.334934  0.599378 -0.796470 0.079887  0.210592 -0.419893 0
gold_player
0  -38.092876 0.019976 53.087402  0.596235 -0.759972 0.258740  0.235166 -0.417717 0
0  -39.950264 -1.352965 53.334934  0.596235 -0.759972 0.258740  0.210592 -0.419893 0
0  -39.663803 -1.456382 52.371059  0.596235 -0.759972 0.258740  0.216447 -0.429121 0
gold_player
0  -39.263775 0.557359 53.652996  -0.773877 0.508180 -0.377980  -0.934049 -0.123300 0
0  -38.153362 1.013980 51.993443  -0.773877 0.508180 -0.377980  -0.902618 -0.124095 0
0  -38.373837 0.242808 51.408028  -0.773877 0.508180 -0.377980  -0.902533 -0.124026 0
gold_player
0  -39.950264 -1.352965 53.334934  -0.957187 -0.091328 -0.274685  2.842249 -0.280404 0
0  -40.009991 -1.246735 53.507755  -0.957187 -0.091328 -0.274685  2.821717 -0.280716 0
0  -39.706676 -1.380120 52.495125  -0.957187 -0.091328 -0.274685  2.916904 -0.279247 0
gold_player
0  -38.138889 0.972976 51.926842  0.972254 -0.160409 -0.170270  -1.051266 -0.126760 0
0  -38.092876 0.019976 53.087402  0.972254 -0.160409 -0.170270  -1.061265 -0.126286 0
0  -38.330414 -0.470770 52.193363  0.972254 -0.160409 -0.170270  -1.063791 -0.126310 0
gold_player
0  -38.153362 1.013980 51.993443  -0.664934 0.562857 -0.490973  1.043581 -0.128723 0
0  -38.138889 0.972976 51.926842  -0.664934 0.562857 -0.490973  1.052400 -0.128760 0
0  -38.363445 0.213372 51.360214  -0.664934 0.562857 -0.490973  1.143871 -0.129144 0
gold_player
0  -39.263775 0.557359 53.652996  0.146053 0.850337 -0.505564  0.000000 0.000000 0
0  -38.092876 0.019976 53.087402  0.146053 0.850337 -0.505564  0.000000 0.000000 0
0  -38.330414 -0.470770 52.193363  0.146053 0.850337 -0.505564  0.000000 0.000000 0
gold_player
0  -40.009991 -1.246735 53.507755  -0.869148 0.384536 -0.310988  0.788790 -0.422112 0
0  -39.263775 0.557359 53.652996  -0.869148 0.384536 -0.310988  0.773415 -0.412742 0
0  -39.170982 -0.084993 52.599392  -0.869148 0.384536 -0.310988  0.771738 -0.425545 0
c_invasion_wrangler_laser
0  25.793211 8.611084 70.719040  0.127731 0.645077 0.753366  0.000000 0.000000 0
0  32.684772 6.744685 69.975128  0.127738 0.645077 0.753365  0.000000 0.000000 0
0  40.291451 6.674378 69.918533  0.127804 0.645069 0.753361  0.000000 0.000000 0
c_invasion_wrangler_laser
0  32.392654 11.353545 59.266705  0.028383 -0.944547 -0.327146  0.000000 0.000000 0
0  31.864880 8.884312 65.137993  0.028383 -0.944548 -0.327146  0.000000 0.000000 0
0  15.703093 13.900991 50.463814  0.028378 -0.944547 -0.327149  0.000000 0.000000 0
painted_wood_01
0  25.793211 8.611084 70.719040  -0.168670 -0.374609 0.911712  0.297731 0.539493 0
0  7.304867 19.615204 72.750679  -0.168674 -0.374608 0.911712  0.297731 0.539493 0
0  8.846363 12.554864 69.204254  -0.168671 -0.374609 0.911712  0.297731 0.539493 0
c_invasion_wrangler_laser
0  21.126669 15.939065 49.513054  0.433206 0.899445 -0.057722  0.000000 0.000000 0
0  17.254892 18.464945 52.850132  0.433730 0.899240 -0.056969  0.000000 0.000000 0
0  32.762150 11.371471 66.000122  0.433727 0.899241 -0.056974  0.000000 0.000000 0
c_invasion_wrangler_laser
0  19.347948 18.090054 44.186962  -0.886947 0.404614 -0.222741  0.000000 0.000000 0
0  17.795338 16.086906 46.730633  -0.886947 0.404614 -0.222741  0.000000 0.000000 0
0  18.150736 17.487553 47.859764  -0.886947 0.404614 -0.222741  0.000000 0.000000 0
c_invasion_wrangler_laser
0  32.778236 6.054245 69.406082  0.000680 -0.641894 0.766793  0.000000 0.000000 0
0  40.329262 5.989674 69.336288  0.000680 -0.641894 0.766793  0.000000 0.000000 0
0  40.291451 6.674378 69.918533  0.000680 -0.641894 0.766793  0.000000 0.000000 0
c_invasion_wrangler_laser
0  24.051195 4.550550 69.659592  0.052066 -0.339964 0.938996  0.000000 0.000000 0
0  32.778236 6.054245 69.406082  0.052083 -0.339960 0.938997  0.000000 0.000000 0
0  32.684772 6.744685 69.975128  0.052066 -0.339964 0.938996  0.000000 0.000000 0
c_invasion_wrangler_laser
0  31.864880 8.884312 65.137993  0.061825 -0.825688 -0.560729  0.000000 0.000000 0
0  40.329262 5.989674 69.336288  0.061827 -0.825695 -0.560718  0.000000 0.000000 0
0  32.778236 6.054245 69.406082  0.061825 -0.825690 -0.560726  0.000000 0.000000 0
c_invasion_wrangler_laser
0  40.329262 5.989674 69.336288  -0.179285 -0.609268 0.772431  0.000000 0.000000 0
0  43.510090 3.005501 67.771683  -0.179285 -0.609267 0.772431  0.000000 0.000000 0
0  43.769123 3.677407 68.310852  -0.179287 -0.609266 0.772432  0.000000 0.000000 0
c_invasion_wrangler_laser
0  32.762150 11.371471 66.000122  0.484348 0.867040 0.116827  0.000000 0.000000 0
0  35.862309 8.844316 65.406380  0.484347 0.867041 0.116829  0.000000 0.000000 0
0  35.830807 10.592129 59.062374  0.484342 0.867042 0.116839  0.000000 0.000000 0
black
0  36.637699 4.482600 52.981632  0.763873 0.462110 -0.450502  0.784357 -0.127771 0
0  38.153362 1.013980 51.993443  0.763873 0.462110 -0.450502  1.043581 -0.128723 0
0  38.138889 0.972976 51.926842  0.763873 0.462110 -0.450502  1.052400 -0.128760 0
c_invasion_wrangler_laser
0  19.453197 18.566936 44.637810  0.953660 0.057067 -0.295426  0.000000 0.000000 0
0  21.126669 15.939065 49.513054  0.953660 0.057067 -0.295426  0.000000 0.000000 0
0  20.916727 14.304313 48.538818  0.953660 0.057067 -0.295426  0.000000 0.000000 0
c_invasion_wrangler_laser
0  17.795338 16.086906 46.730633  -0.874167 0.421588 -0.241031  0.000000 0.000000 0
0  15.703093 13.900991 50.463814  -0.874167 0.421588 -0.241031  0.000000 0.000000 0
0  17.254892 18.464945 52.850132  -0.874167 0.421588 -0.241031  0.000000 0.000000 0
c_invasion_wrangler_laser
0  15.703093 13.900991 50.463814  -0.109927 -0.796084 -0.595118  0.000000 0.000000 0
0  17.795338 16.086906 46.730633  -0.109895 -0.796052 -0.595167  0.000000 0.000000 0
0  19.347948 18.090054 44.186962  -0.109880 -0.796040 -0.595187  0.000000 0.000000 0
c_invasion_wrangler_laser
0  21.126669 15.939065 49.513054  0.405096 0.906397 0.119760  0.000000 0.000000 0
0  19.453197 18.566936 44.637810  0.405086 0.906402 0.119755  0.000000 0.000000 0
0  18.150736 17.487553 47.859764  0.405105 0.906392 0.119766  0.000000 0.000000 0
c_invasion_wrangler_laser
0  32.392654 11.353545 59.266705  0.690731 0.343017 -0.636577  0.000000 0.000000 0
0  20.916727 14.304313 48.538818  0.690737 0.343015 -0.636572  0.000000 0.000000 0
0  21.126669 15.939065 49.513054  0.690734 0.343016 -0.636574  0.000000 0.000000 0
c_invasion_wrangler_laser
0  43.510090 3.005501 67.771683  0.161939 -0.752930 0.637866  0.000000 0.000000 0
0  43.510090 -0.640141 63.280094  0.161938 -0.752921 0.637876  0.000000 0.000000 0
0  43.769123 -0.146009 63.985783  0.161939 -0.752935 0.637860  0.000000 0.000000 0
c_invasion_wrangler_laser
0  35.603283 8.172401 64.867210  -0.569998 -0.610460 0.549946  0.000000 0.000000 0
0  35.603283 5.133205 61.937981  -0.570003 -0.610455 0.549947  0.000000 0.000000 0
0  43.510090 -0.640141 63.280094  -0.569996 -0.610463 0.549945  0.000000 0.000000 0
c_invasion_wrangler_laser
0  31.864880 8.884312 65.137993  -0.459609 -0.886540 0.052973  0.000000 0.000000 0
0  35.603283 8.172401 64.867210  -0.459557 -0.886567 0.052986  0.000000 0.000000 0
0  43.510090 3.005501 67.771683  -0.459573 -0.886558 0.052983  0.000000 0.000000 0
painted_wood_01
0  32.762150 11.371471 66.000122  0.618277 -0.440304 0.651050  0.297731 0.539493 0
0  25.793211 8.611084 70.719040  0.618277 -0.440304 0.651050  0.297731 0.539493 0
0  24.051195 4.550550 69.659592  0.618277 -0.440304 0.651050  0.297731 0.539493 0
c_invasion_wrangler_laser
0  35.862309 8.844316 65.406380  0.735645 0.677169 0.016399  0.000000 0.000000 0
0  39.128525 6.894682 63.798203  0.735645 0.677169 0.016390  0.000000 0.000000 0
0  35.830807 9.081023 57.042477  0.735645 0.677169 0.016397  0.000000 0.000000 0
c_invasion_wrangler_laser
0  35.830807 10.592129 59.062374  -0.555456 0.674918 -0.485752  0.000000 0.000000 0
0  35.830807 9.081023 57.042477  -0.555446 0.674962 -0.485702  0.000000 0.000000 0
0  35.767323 8.890297 56.770279  -0.555441 0.674925 -0.485758  0.000000 0.000000 0
c_invasion_wrangler_laser
0  43.769123 3.677407 68.310852  0.705877 0.660987 -0.254625  0.000000 0.000000 0
0  43.769123 -0.146009 63.985783  0.705879 0.660986 -0.254623  0.000000 0.000000 0
0  39.128525 6.894682 63.798203  0.705870 0.660992 -0.254632  0.000000 0.000000 0
painted_wood_01
0  32.762150 11.371471 66.000122  0.065695 0.384437 -0.920811  0.297731 0.539493 0
0  35.862309 8.844316 65.406380  0.065694 0.384442 -0.920809  0.297731 0.539493 0
0  35.603283 8.172401 64.867210  0.065697 0.384438 -0.920810  0.297731 0.539493 0
c_invasion_wrangler_laser
0  35.767323 10.332837 58.854443  -0.999618 0.020598 -0.018444  0.000000 0.000000 0
0  35.767323 8.890297 56.770279  -0.999618 0.020599 -0.018444  0.000000 0.000000 0
0  35.603283 5.133205 61.937981  -0.999618 0.020598 -0.018444  0.000000 0.000000 0
c_invasion_wrangler_laser
0  40.291451 6.674378 69.918533  0.589247 0.782237 -0.202221  0.000000 0.000000 0
0  43.769123 3.677407 68.310852  0.589247 0.782237 -0.202221  0.000000 0.000000 0
0  35.862309 8.844316 65.406380  0.589247 0.782237 -0.202221  0.000000 0.000000 0
painted_wood_01
0  31.864880 8.884312 65.137993  -0.207896 -0.911938 -0.353762  0.297731 0.539493 0
0  24.051195 4.550550 69.659592  -0.207913 -0.911936 -0.353759  0.297731 0.539493 0
0  8.846363 12.554864 69.204254  -0.207952 -0.911929 -0.353753  0.297731 0.539493 0
black
0  36.595154 4.362072 52.785854  -0.893287 -0.329364 -0.305873  -1.020146 -0.127628 0
0  38.138889 0.972976 51.926842  -0.893287 -0.329364 -0.305873  -1.051266 -0.126760 0
0  38.092876 0.019976 53.087402  -0.893287 -0.329364 -0.305873  -1.061265 -0.126286 0
c_invasion_wrangler_laser
0  35.830807 9.081023 57.042477  0.627872 0.574913 -0.524644  0.000000 0.000000 0
0  36.637699 4.482600 52.981632  0.627872 0.574909 -0.524649  0.000000 0.000000 0
0  36.595154 4.362072 52.785854  0.627871 0.574910 -0.524649  0.000000 0.000000 0
c_invasion_wrangler_laser
0  35.603283 5.133205 61.937981  -0.587613 -0.724820 0.359650  0.000000 0.000000 0
0  36.459900 1.560789 56.197258  -0.587613 -0.724819 0.359650  0.000000 0.000000 0
0  41.919571 -2.474887 56.924858  -0.587613 -0.724819 0.359650  0.000000 0.000000 0
c_invasion_wrangler_laser
0  32.343674 11.607520 59.484871  0.094864 0.634273 -0.767267  0.000000 0.000000 0
0  35.830807 10.592129 59.062374  0.094864 0.634273 -0.767267  0.000000 0.000000 0
0  35.767323 10.332837 58.854443  0.094863 0.634273 -0.767267  0.000000 0.000000 0
painted_wood_01
0  32.762150 11.371471 66.000122  0.678035 0.099940 -0.728204  0.297731 0.539493 0
0  31.864880 8.884312 65.137993  0.678029 0.099941 -0.728209  0.297731 0.539493 0
0  15.703093 13.900991 50.463814  0.678025 0.099942 -0.728213  0.297731 0.539493 0
painted_wood_01
0  17.254892 18.464945 52.850132  -0.899981 0.199111 -0.387800  0.297731 0.539493 0
0  15.703093 13.900991 50.463814  -0.898885 0.199874 -0.389943  0.297731 0.539493 0
0  8.846363 12.554864 69.204254  -0.898893 0.199868 -0.389928  0.297731 0.539493 0
c_invasion_wrangler_laser
0  32.392654 11.353545 59.266705  -0.253274 -0.896330 -0.363929  0.000000 0.000000 0
0  35.767323 10.332837 58.854443  -0.253274 -0.896330 -0.363930  0.000000 0.000000 0
0  35.603283 8.172401 64.867210  -0.253272 -0.896332 -0.363926  0.000000 0.000000 0
c_invasion_wrangler_laser
0  43.510090 -0.640141 63.280094  0.948934 -0.272694 -0.158627  0.000000 0.000000 0
0  41.919571 -2.474887 56.924858  0.948934 -0.272694 -0.158626  0.000000 0.000000 0
0  42.095142 -2.162628 57.432854  0.948934 -0.272694 -0.158627  0.000000 0.000000 0
c_invasion_wrangler_laser
0  43.769123 -0.146009 63.985783  0.838263 0.469445 -0.277375  0.000000 0.000000 0
0  42.095142 -2.162628 57.432854  0.838266 0.469442 -0.277369  0.000000 0.000000 0
0  39.901680 3.140390 57.859787  0.838265 0.469444 -0.277372  0.000000 0.000000 0
c_invasion_wrangler_laser
0  39.128525 6.894682 63.798203  0.805739 0.510973 -0.299486  0.000000 0.000000 0
0  39.901680 3.140390 57.859787  0.805740 0.510974 -0.299480  0.000000 0.000000 0
0  36.637699 4.482600 52.981632  0.805738 0.510972 -0.299488  0.000000 0.000000 0
c_invasion_wrangler_laser
0  35.767323 8.890297 56.770279  -0.991256 -0.085831 -0.100220  0.000000 0.000000 0
0  36.595154 4.362072 52.785854  -0.991256 -0.085831 -0.100220  0.000000 0.000000 0
0  36.459900 1.560789 56.197258  -0.991256 -0.085831 -0.100220  0.000000 0.000000 0
painted_wood_01
0  25.793211 8.611084 70.719040  0.366161 0.877745 0.309015  0.297731 0.539493 0
0  32.762150 11.371471 66.000122  0.366191 0.877710 0.309077  0.297731 0.539493 0
0  17.254892 18.464945 52.850132  0.366188 0.877714 0.309070  0.297731 0.539493 0
black
0  39.901680 3.140390 57.859787  -0.149355 0.852559 -0.500835  0.000000 0.000000 0
0  39.263775 0.557359 53.652996  -0.149355 0.852559 -0.500835  0.000000 0.000000 0
0  38.092876 0.019976 53.087402  -0.149355 0.852559 -0.500835  0.000000 0.000000 0
black
0  41.919571 -2.474887 56.924858  0.884421 0.193548 -0.424663  2.558849 -0.285051 0
0  39.950264 -1.352965 53.334934  0.884421 0.193548 -0.424663  2.842249 -0.280404 0
0  40.009991 -1.246735 53.507755  0.884421 0.193548 -0.424663  2.821717 -0.280716 0
black
0  42.095142 -2.162628 57.432854  0.850406 0.380964 -0.362873  0.826658 -0.388104 0
0  40.009991 -1.246735 53.507755  0.850406 0.380964 -0.362873  0.788790 -0.422112 0
0  39.263775 0.557359 53.652996  0.850406 0.380964 -0.362873  0.773415 -0.412742 0
black
0  39.901680 3.140390 57.859787  0.791125 0.460415 -0.402664  -0.971315 -0.122642 0
0  39.263775 0.557359 53.652996  0.791125 0.460415 -0.402664  -0.934049 -0.123300 0
0  38.153362 1.013980 51.993443  0.791125 0.460415 -0.402664  -0.902618 -0.124095 0
black
0  36.459900 1.560789 56.197258  -0.599382 -0.796467 0.079887  0.244094 -0.381040 0
0  38.092876 0.019976 53.087402  -0.599382 -0.796467 0.079887  0.235166 -0.417717 0
0  39.950264 -1.352965 53.334934  -0.599382 -0.796467 0.079887  0.210592 -0.419893 0
gold_player
0  38.092876 0.019976 53.087402  -0.596237 -0.759970 0.258741  0.235166 -0.417717 0
0  38.330414 -0.470770 52.193363  -0.596237 -0.759970 0.258741  0.234088 -0.427559 0
0  39.663803 -1.456382 52.371059  -0.596237 -0.759970 0.258741  0.216447 -0.429121 0
gold_player
0  39.263775 0.557359 53.652996  0.773879 0.508176 -0.377980  -0.934049 -0.123300 0
0  39.170982 -0.084993 52.599392  0.773879 0.508176 -0.377980  -0.924982 -0.123459 0
0  38.373837 0.242808 51.408028  0.773879 0.508176 -0.377980  -0.902533 -0.124026 0
gold_player
0  39.950264 -1.352965 53.334934  0.957197 -0.091245 -0.274679  2.842249 -0.280404 0
0  39.663803 -1.456382 52.371059  0.957197 -0.091245 -0.274679  2.931649 -0.279019 0
0  39.706676 -1.380120 52.495125  0.957197 -0.091245 -0.274679  2.916904 -0.279247 0
gold_player
0  38.138889 0.972976 51.926842  -0.972254 -0.160411 -0.170263  -1.051266 -0.126760 0
0  38.363445 0.213372 51.360214  -0.972254 -0.160411 -0.170263  -1.056611 -0.126651 0
0  38.330414 -0.470770 52.193363  -0.972254 -0.160411 -0.170263  -1.063791 -0.126310 0
gold_player
0  38.153362 1.013980 51.993443  0.664934 0.562828 -0.491007  1.043581 -0.128723 0
0  38.373837 0.242808 51.408028  0.664934 0.562828 -0.491007  1.137539 -0.129117 0
0  38.363445 0.213372 51.360214  0.664934 0.562828 -0.491007  1.143871 -0.129144 0
gold_player
0  39.263775 0.557359 53.652996  -0.146060 0.850336 -0.505565  0.000000 0.000000 0
0  39.170982 -0.084993 52.599392  -0.146060 0.850336 -0.505565  0.000000 0.000000 0
0  38.330414 -0.470770 52.193363  -0.146060 0.850336 -0.505565  0.000000 0.000000 0
gold_player
0  40.009991 -1.246735 53.507755  0.869146 0.384540 -0.310988  0.788790 -0.422112 0
0  39.706676 -1.380120 52.495125  0.869146 0.384540 -0.310988  0.782731 -0.432270 0
0  39.170982 -0.084993 52.599392  0.869146 0.384540 -0.310988  0.771738 -0.425545 0
end
