version 1
nodes
0 "bip_head" -1
end
skeleton
time 0
0  0.000000 0.000000 0.000000  -1.570796 -0.000000 1.578004
end
triangles
painted_wood_01.png
0  0.466796 3.830356 1.418258  -0.018764 0.838445 -0.544662  0.298055 0.540140 0
0  -0.075132 3.606650 1.092545  -0.018775 0.838441 -0.544669  0.298056 0.540145 0
0  -0.103168 3.771834 1.663748  -0.018760 0.838447 -0.544660  0.298056 0.540144 0
painted_wood_01.png
0  1.084011 3.502050 2.614819  0.594964 0.803564 -0.017387  0.298075 0.540107 0
0  1.257170 3.353135 1.657838  0.594974 0.803556 -0.017440  0.298081 0.540119 0
0  0.515332 3.701208 1.469939  0.594965 0.803563 -0.017392  0.298078 0.540108 0
painted_wood_01.png
0  -0.075132 3.606650 1.092545  -0.140830 -0.908531 -0.393368  0.298071 0.540112 0
0  1.727508 2.552312 2.882316  -0.140828 -0.908532 -0.393366  0.298071 0.540112 0
0  -0.452029 2.813483 3.167466  -0.140829 -0.908532 -0.393366  0.298071 0.540112 0
painted_wood_01.png
0  -0.003278 3.530971 2.949876  -0.993559 0.032881 0.108436  0.298071 0.540112 0
0  0.151643 6.770786 3.386968  -0.993559 0.032883 0.108436  0.298071 0.540112 0
0  -0.103168 3.771834 1.663748  -0.993560 0.032880 0.108436  0.298071 0.540112 0
painted_wood_01.png
0  -0.003278 3.530971 2.949876  0.178726 0.250410 0.951500  0.298104 0.540180 0
0  1.727508 2.552312 2.882316  0.178737 0.250404 0.951499  0.298101 0.540170 0
0  0.945361 3.608064 2.695920  0.178732 0.250407 0.951500  0.298106 0.540181 0
painted_wood_01.png
0  -0.103168 3.771834 1.663748  -0.909395 0.412667 0.052031  0.298117 0.540188 0
0  -0.452029 2.813483 3.167466  -0.909395 0.412667 0.052030  0.298112 0.540187 0
0  -0.003278 3.530971 2.949876  -0.909392 0.412675 0.052017  0.298121 0.540201 0
painted_wood_01.png
0  0.151643 6.770786 3.386968  -0.154089 0.959854 0.234389  0.298071 0.540112 0
0  0.391004 6.774368 3.529655  -0.154089 0.959854 0.234389  0.298071 0.540112 0
0  0.339383 6.811622 3.343160  -0.154089 0.959854 0.234389  0.298071 0.540112 0
painted_wood_01.png
0  0.406196 4.319531 1.758316  0.986095 -0.122028 0.112813  0.298071 0.540112 0
0  0.491308 6.357692 3.218986  0.986095 -0.122024 0.112815  0.298071 0.540112 0
0  0.296231 4.267709 2.393772  0.986095 -0.122027 0.112813  0.298071 0.540112 0
painted_wood_01.png
0  -0.103168 3.771834 1.663748  -0.366242 0.490266 -0.790889  0.298071 0.540110 0
0  0.339383 6.811622 3.343160  -0.366242 0.490268 -0.790888  0.298071 0.540108 0
0  0.466796 3.830356 1.418258  -0.366242 0.490268 -0.790888  0.298071 0.540109 0
painted_wood_01.png
0  0.945361 3.608064 2.695920  0.267897 -0.200951 0.942258  0.298071 0.540114 0
0  0.203264 6.733532 3.573464  0.267897 -0.200951 0.942258  0.298071 0.540114 0
0  -0.003278 3.530971 2.949876  0.267897 -0.200951 0.942258  0.298071 0.540113 0
painted_wood_01.png
0  0.296231 4.267709 2.393772  0.846154 0.525665 -0.087752  0.298071 0.540111 0
0  0.466796 3.830356 1.418258  0.846141 0.525698 -0.087679  0.298071 0.540109 0
0  0.406196 4.319531 1.758316  0.846152 0.525669 -0.087743  0.298071 0.540110 0
painted_wood_01.png
0  0.495712 6.417772 2.975715  0.945344 0.324665 -0.030307  0.298063 0.540108 0
0  0.391004 6.774368 3.529655  0.945340 0.324676 -0.030290  0.298062 0.540107 0
0  0.491308 6.357692 3.218986  0.945343 0.324667 -0.030303  0.298062 0.540107 0
gold_player
0  0.491308 6.357692 3.218986  0.768483 0.239740 -0.593261  0.922647 0.951201 0
0  0.945361 3.608064 2.695920  0.768479 0.239762 -0.593257  0.879762 0.951199 0
0  0.296231 4.267709 2.393772  0.768478 0.239767 -0.593256  0.858220 0.951198 0
painted_wood_01.png
0  0.406196 4.319531 1.758316  -0.606965 0.414821 -0.677877  0.298039 0.540045 0
0  0.339383 6.811622 3.343160  -0.606965 0.414821 -0.677877  0.298051 0.540067 0
0  0.495712 6.417772 2.975715  -0.606965 0.414825 -0.677874  0.298049 0.540063 0
painted_wood_01.png
0  1.654511 2.881500 2.571445  0.677406 0.584699 0.446372  0.298078 0.540118 0
0  0.945361 3.608064 2.695920  0.677406 0.584699 0.446372  0.298072 0.540098 0
0  1.727508 2.552312 2.882316  0.677406 0.584699 0.446372  0.298077 0.540119 0
painted_wood_01.png
0  1.084011 3.502050 2.614819  0.750593 0.624525 -0.215822  0.298074 0.540105 0
0  0.466796 3.830356 1.418258  0.750603 0.624520 -0.215801  0.298076 0.540102 0
0  0.945361 3.608064 2.695920  0.750598 0.624522 -0.215812  0.298072 0.540100 0
painted_wood_01.png
0  0.515332 3.701208 1.469939  0.440456 0.859579 0.259081  0.298079 0.540111 0
0  1.230399 3.442849 1.111466  0.440472 0.859573 0.259073  0.298082 0.540120 0
0  0.466796 3.830356 1.418258  0.440455 0.859579 0.259081  0.298078 0.540109 0
painted_wood_01.png
0  1.257170 3.353135 1.657838  0.934413 0.324605 -0.146640  0.298088 0.540138 0
0  1.727508 2.552312 2.882316  0.934417 0.324598 -0.146630  0.298084 0.540138 0
0  1.230399 3.442849 1.111466  0.934414 0.324604 -0.146639  0.298085 0.540126 0
painted_wood_01.png
0  1.230399 3.442849 1.111466  0.115078 0.967919 -0.223362  0.298054 0.540135 0
0  0.178824 3.323230 0.051328  0.115078 0.967919 -0.223362  0.298055 0.540145 0
0  -0.075132 3.606650 1.092545  0.115078 0.967919 -0.223362  0.298055 0.540146 0
painted_wood_01.png
0  1.230399 3.442849 1.111466  0.960252 0.011744 0.278888  0.298054 0.540131 0
0  1.484355 2.879466 0.260772  0.960252 0.011744 0.278888  0.298054 0.540131 0
0  1.484355 3.251777 0.358300  0.960253 0.011741 0.278885  0.298054 0.540130 0
painted_wood_01.png
0  1.484355 3.251777 0.358300  0.275995 0.399439 -0.874228  0.298054 0.540134 0
0  0.178824 2.834059 -0.244708  0.275996 0.399440 -0.874228  0.298055 0.540146 0
0  0.178824 3.323230 0.051328  0.275994 0.399439 -0.874228  0.298055 0.540145 0
painted_wood_01.png
0  1.230399 3.442849 1.111466  0.955314 -0.028345 -0.294231  0.298071 0.540112 0
0  1.727508 2.180001 2.847124  0.955314 -0.028344 -0.294232  0.298071 0.540112 0
0  1.230399 2.664915 1.257451  0.955314 -0.028344 -0.294232  0.298070 0.540112 0
painted_wood_01.png
0  -0.452029 2.813483 3.167466  0.118140 -0.093446 0.988590  0.298071 0.540112 0
0  1.727508 2.180001 2.847124  0.118140 -0.093446 0.988590  0.298071 0.540112 0
0  1.727508 2.552312 2.882316  0.118140 -0.093446 0.988590  0.298071 0.540112 0
painted_wood_01.png
0  0.178824 2.834059 -0.244708  -0.655171 0.342486 -0.673391  0.298055 0.540143 0
0  -0.680549 3.074650 0.713768  -0.655171 0.342486 -0.673390  0.298056 0.540147 0
0  0.178824 3.323230 0.051328  -0.655168 0.342485 -0.673394  0.298055 0.540143 0
painted_wood_01.png
0  0.178824 3.323230 0.051328  -0.512892 0.801869 -0.306509  0.298055 0.540142 0
0  -0.934504 3.074650 1.264004  -0.512898 0.801868 -0.306503  0.298056 0.540147 0
0  -0.075132 3.606650 1.092545  -0.512896 0.801868 -0.306505  0.298055 0.540143 0
painted_wood_01.png
0  -0.934504 3.074650 1.264004  -0.476745 0.846494 0.236986  0.298054 0.540148 0
0  -0.452029 2.813483 3.167466  -0.476745 0.846494 0.236986  0.298068 0.540118 0
0  -0.075132 3.606650 1.092545  -0.476745 0.846494 0.236986  0.298083 0.540084 0
painted_wood_01.png
0  1.484355 2.879466 0.260772  0.946137 0.057417 0.318635  0.298054 0.540131 0
0  1.230399 1.533061 1.257451  0.946137 0.057418 0.318634  0.298055 0.540135 0
0  1.484355 1.533061 0.707214  0.946134 0.057403 0.318645  0.298054 0.540134 0
painted_wood_01.png
0  -0.680549 2.702339 0.571702  -0.654458 -0.274250 -0.704607  0.298056 0.540148 0
0  0.178824 1.487654 0.246273  -0.654461 -0.274246 -0.704606  0.298056 0.540148 0
0  0.022061 1.110444 0.571702  -0.654462 -0.274245 -0.704606  0.298056 0.540151 0
painted_wood_01.png
0  1.230399 2.664915 1.257451  0.954423 0.000000 -0.298459  0.298070 0.540112 0
0  1.727508 1.048147 2.847124  0.954423 0.000000 -0.298459  0.298071 0.540112 0
0  1.230399 1.533061 1.257451  0.954423 0.000000 -0.298459  0.298070 0.540112 0
painted_wood_01.png
0  1.727508 2.180001 2.847124  0.182477 0.047060 0.982083  0.298071 0.540112 0
0  0.250581 1.221588 3.167466  0.182473 0.047057 0.982084  0.298071 0.540112 0
0  1.727508 1.048147 2.847124  0.182475 0.047058 0.982084  0.298071 0.540112 0
painted_wood_01.png
0  0.178824 2.834059 -0.244708  0.339515 -0.309261 -0.888306  0.298055 0.540146 0
0  1.484355 1.533061 0.707214  0.339514 -0.309260 -0.888306  0.298054 0.540132 0
0  0.178824 1.487654 0.246273  0.339516 -0.309262 -0.888305  0.298055 0.540144 0
painted_wood_01.png
0  -0.452029 2.813483 3.167466  -0.948460 0.174716 0.264381  0.298068 0.540118 0
0  -1.053016 2.431296 1.264004  -0.948460 0.174716 0.264381  0.298042 0.540175 0
0  -0.570542 2.170129 3.167466  -0.948460 0.174716 0.264381  0.298056 0.540145 0
painted_wood_01.png
0  -0.680549 3.074650 0.713768  -0.888410 0.163655 -0.428887  0.298056 0.540147 0
0  -0.799061 2.058985 0.571702  -0.888410 0.163655 -0.428887  0.298056 0.540148 0
0  -0.799061 2.431296 0.713768  -0.888410 0.163655 -0.428887  0.298056 0.540148 0
painted_wood_01.png
0  -0.934504 3.074650 1.264004  -0.895520 0.164964 -0.413317  0.298056 0.540147 0
0  -0.799061 2.431296 0.713768  -0.895520 0.164964 -0.413317  0.298055 0.540146 0
0  -1.053016 2.431296 1.264004  -0.895520 0.164964 -0.413317  0.298056 0.540148 0
painted_wood_01.png
0  0.466796 -3.830356 1.418258  -0.018711 -0.838418 -0.544707  0.298055 0.540140 0
0  -0.075132 -3.606650 1.092545  -0.018718 -0.838415 -0.544712  0.298056 0.540145 0
0  1.230399 -3.442849 1.111466  -0.018728 -0.838410 -0.544718  0.298054 0.540134 0
painted_wood_01.png
0  1.084011 -3.502050 2.614819  0.595018 -0.803525 -0.017383  0.298075 0.540107 0
0  1.257170 -3.353135 1.657838  0.595015 -0.803527 -0.017370  0.298081 0.540119 0
0  1.654511 -2.881500 2.571445  0.595015 -0.803527 -0.017366  0.298080 0.540122 0
painted_wood_01.png
0  -0.075132 -3.606650 1.092545  -0.140831 0.908531 -0.393369  0.298071 0.540112 0
0  1.727508 -2.552312 2.882316  -0.140829 0.908532 -0.393367  0.298071 0.540112 0
0  1.230399 -3.442849 1.111466  -0.140828 0.908532 -0.393366  0.298070 0.540112 0
painted_wood_01.png
0  -0.003278 -3.530971 2.949876  -0.993556 -0.032877 0.108470  0.298071 0.540112 0
0  0.151643 -6.770786 3.386968  -0.993556 -0.032871 0.108469  0.298071 0.540112 0
0  0.203264 -6.733532 3.573464  -0.993556 -0.032882 0.108471  0.298071 0.540112 0
painted_wood_01.png
0  -0.003278 -3.530971 2.949876  0.178712 -0.250379 0.951510  0.298104 0.540180 0
0  1.727508 -2.552312 2.882316  0.178719 -0.250375 0.951510  0.298101 0.540170 0
0  -0.452029 -2.813483 3.167466  0.178719 -0.250375 0.951510  0.298101 0.540172 0
painted_wood_01.png
0  -0.103168 -3.771834 1.663748  -0.909423 -0.412611 0.051981  0.298117 0.540188 0
0  -0.452029 -2.813483 3.167466  -0.909423 -0.412612 0.051979  0.298112 0.540187 0
0  -0.075132 -3.606650 1.092545  -0.909423 -0.412611 0.051981  0.298113 0.540180 0
painted_wood_01.png
0  0.151643 -6.770786 3.386968  -0.154085 -0.959854 0.234390  0.298071 0.540112 0
0  0.391004 -6.774368 3.529655  -0.154085 -0.959854 0.234390  0.298071 0.540112 0
0  0.203264 -6.733532 3.573464  -0.154085 -0.959854 0.234390  0.298071 0.540112 0
painted_wood_01.png
0  0.406196 -4.319531 1.758316  0.986103 0.121999 0.112769  0.298071 0.540112 0
0  0.491308 -6.357692 3.218986  0.986103 0.121996 0.112771  0.298071 0.540112 0
0  0.495712 -6.417772 2.975715  0.986103 0.121995 0.112772  0.298071 0.540112 0
painted_wood_01.png
0  -0.103168 -3.771834 1.663748  -0.366256 -0.490263 -0.790885  0.298071 0.540110 0
0  0.339383 -6.811622 3.343160  -0.366256 -0.490260 -0.790887  0.298071 0.540108 0
0  0.151643 -6.770786 3.386968  -0.366256 -0.490264 -0.790884  0.298071 0.540108 0
painted_wood_01.png
0  0.945361 -3.608064 2.695920  0.267761 0.200992 0.942288  0.298071 0.540114 0
0  0.203264 -6.733532 3.573464  0.267761 0.200993 0.942287  0.298071 0.540114 0
0  0.391004 -6.774368 3.529655  0.267762 0.200993 0.942287  0.298071 0.540114 0
painted_wood_01.png
0  0.296231 -4.267709 2.393772  0.846153 -0.525672 -0.087723  0.298071 0.540111 0
0  0.466796 -3.830356 1.418258  0.846157 -0.525661 -0.087747  0.298071 0.540109 0
0  0.945361 -3.608064 2.695920  0.846152 -0.525672 -0.087721  0.298071 0.540110 0
painted_wood_01.png
0  0.495712 -6.417772 2.975715  0.945328 -0.324705 -0.030352  0.298063 0.540108 0
0  0.391004 -6.774368 3.529655  0.945330 -0.324698 -0.030363  0.298062 0.540107 0
0  0.339383 -6.811622 3.343160  0.945326 -0.324712 -0.030342  0.298063 0.540109 0
gold_player
0  0.491308 -6.357692 3.218986  0.768486 -0.239792 -0.593236  0.922647 0.951201 0
0  0.945361 -3.608064 2.695920  0.768478 -0.239840 -0.593227  0.879762 0.951199 0
0  0.391004 -6.774368 3.529655  0.768487 -0.239786 -0.593237  0.940197 0.951201 0
painted_wood_01.png
0  0.406196 -4.319531 1.758316  -0.606963 -0.414830 -0.677873  0.298039 0.540045 0
0  0.339383 -6.811622 3.343160  -0.606963 -0.414815 -0.677883  0.298051 0.540067 0
0  0.466796 -3.830356 1.418258  -0.606963 -0.414815 -0.677883  0.298042 0.540049 0
painted_wood_01.png
0  1.654511 -2.881500 2.571445  0.677415 -0.584707 0.446348  0.298078 0.540118 0
0  0.945361 -3.608064 2.695920  0.677412 -0.584710 0.446348  0.298072 0.540098 0
0  1.084011 -3.502050 2.614819  0.677413 -0.584710 0.446348  0.298073 0.540102 0
painted_wood_01.png
0  1.084011 -3.502050 2.614819  0.750615 -0.624478 -0.215879  0.298074 0.540105 0
0  0.466796 -3.830356 1.418258  0.750644 -0.624463 -0.215823  0.298076 0.540102 0
0  0.515332 -3.701208 1.469939  0.750615 -0.624478 -0.215878  0.298077 0.540105 0
painted_wood_01.png
0  0.515332 -3.701208 1.469939  0.440461 -0.859579 0.259072  0.298079 0.540111 0
0  1.230399 -3.442849 1.111466  0.440441 -0.859586 0.259082  0.298082 0.540120 0
0  1.257170 -3.353135 1.657838  0.440446 -0.859584 0.259080  0.298082 0.540121 0
painted_wood_01.png
0  1.257170 -3.353135 1.657838  0.934420 -0.324602 -0.146607  0.298088 0.540138 0
0  1.727508 -2.552312 2.882316  0.934423 -0.324596 -0.146599  0.298084 0.540138 0
0  1.654511 -2.881500 2.571445  0.934410 -0.324618 -0.146632  0.298083 0.540131 0
painted_wood_01.png
0  1.230399 -3.442849 1.111466  0.115076 -0.967919 -0.223361  0.298054 0.540135 0
0  0.178824 -3.323230 0.051328  0.115077 -0.967919 -0.223360  0.298055 0.540145 0
0  1.484355 -3.251777 0.358300  0.115076 -0.967919 -0.223362  0.298054 0.540134 0
painted_wood_01.png
0  1.230399 -3.442849 1.111466  0.960252 -0.011741 0.278886  0.298054 0.540131 0
0  1.484355 -2.879466 0.260772  0.960253 -0.011740 0.278885  0.298054 0.540131 0
0  1.230399 -2.664915 1.257451  0.960253 -0.011740 0.278884  0.298054 0.540133 0
painted_wood_01.png
0  1.484355 -3.251777 0.358300  0.276019 -0.399368 -0.874253  0.298054 0.540134 0
0  0.178824 -2.834059 -0.244708  0.276011 -0.399366 -0.874257  0.298055 0.540146 0
0  1.484355 -2.879466 0.260772  0.276029 -0.399372 -0.874248  0.298054 0.540134 0
painted_wood_01.png
0  1.230399 -3.442849 1.111466  0.955318 0.028327 -0.294221  0.298071 0.540112 0
0  1.727508 -2.180001 2.847124  0.955318 0.028327 -0.294220  0.298071 0.540112 0
0  1.727508 -2.552312 2.882316  0.955318 0.028328 -0.294220  0.298071 0.540112 0
painted_wood_01.png
0  -0.452029 -2.813483 3.167466  0.118140 0.093446 0.988590  0.298071 0.540112 0
0  1.727508 -2.552312 2.882316  0.118140 0.093446 0.988590  0.298071 0.540112 0
0  1.727508 -2.180001 2.847124  0.118140 0.093446 0.988590  0.298071 0.540112 0
painted_wood_01.png
0  0.178824 -2.834059 -0.244708  -0.655192 -0.342427 -0.673399  0.298055 0.540143 0
0  -0.680549 -3.074650 0.713768  -0.655196 -0.342428 -0.673396  0.298056 0.540147 0
0  -0.680549 -2.702339 0.571702  -0.655191 -0.342426 -0.673401  0.298056 0.540147 0
painted_wood_01.png
0  0.178824 -3.323230 0.051328  -0.512849 -0.801914 -0.306463  0.298055 0.540142 0
0  -0.934504 -3.074650 1.264004  -0.512847 -0.801915 -0.306466  0.298056 0.540147 0
0  -0.680549 -3.074650 0.713768  -0.512853 -0.801913 -0.306459  0.298055 0.540145 0
painted_wood_01.png
0  -0.934504 -3.074650 1.264004  -0.476745 -0.846494 0.236986  0.298054 0.540148 0
0  -0.075132 -3.606650 1.092545  -0.476745 -0.846494 0.236986  0.298083 0.540084 0
0  -0.452029 -2.813483 3.167466  -0.476745 -0.846494 0.236986  0.298068 0.540118 0
painted_wood_01.png
0  1.484355 -2.879466 0.260772  0.946149 -0.057391 0.318604  0.298054 0.540131 0
0  1.230399 -1.533061 1.257451  0.946148 -0.057385 0.318608  0.298055 0.540135 0
0  1.230399 -2.664915 1.257451  0.946149 -0.057392 0.318603  0.298054 0.540133 0
painted_wood_01.png
0  -0.680549 -2.702339 0.571702  -0.654452 0.274241 -0.704617  0.298056 0.540148 0
0  0.178824 -1.487654 0.246273  -0.654453 0.274238 -0.704616  0.298056 0.540148 0
0  0.178824 -2.834059 -0.244708  -0.654452 0.274240 -0.704617  0.298055 0.540142 0
painted_wood_01.png
0  1.230399 -2.664915 1.257451  0.954423 0.000000 -0.298459  0.298070 0.540112 0
0  1.727508 -1.048147 2.847124  0.954423 0.000000 -0.298459  0.298071 0.540112 0
0  1.727508 -2.180001 2.847124  0.954423 0.000000 -0.298459  0.298071 0.540112 0
painted_wood_01.png
0  1.727508 -2.180001 2.847124  0.182473 -0.047059 0.982084  0.298071 0.540112 0
0  0.250581 -1.221588 3.167466  0.182471 -0.047058 0.982084  0.298071 0.540112 0
0  -0.452029 -2.813483 3.167466  0.182473 -0.047059 0.982084  0.298071 0.540112 0
painted_wood_01.png
0  0.178824 -2.834059 -0.244708  0.339550 0.309225 -0.888305  0.298055 0.540146 0
0  1.484355 -1.533061 0.707214  0.339551 0.309226 -0.888304  0.298054 0.540132 0
0  1.484355 -2.879466 0.260772  0.339552 0.309227 -0.888304  0.298054 0.540134 0
painted_wood_01.png
0  -0.452029 -2.813483 3.167466  -0.948460 -0.174716 0.264380  0.298068 0.540118 0
0  -1.053016 -2.431296 1.264004  -0.948460 -0.174716 0.264380  0.298042 0.540175 0
0  -0.934504 -3.074650 1.264004  -0.948460 -0.174716 0.264380  0.298054 0.540148 0
painted_wood_01.png
0  -0.680549 -3.074650 0.713768  -0.888410 -0.163654 -0.428888  0.298056 0.540147 0
0  -0.799061 -2.058985 0.571702  -0.888410 -0.163654 -0.428888  0.298056 0.540148 0
0  -0.680549 -2.702339 0.571702  -0.888410 -0.163654 -0.428888  0.298056 0.540147 0
painted_wood_01.png
0  -0.934504 -3.074650 1.264004  -0.895520 -0.164964 -0.413317  0.298056 0.540147 0
0  -0.799061 -2.431296 0.713768  -0.895520 -0.164964 -0.413317  0.298055 0.540146 0
0  -0.680549 -3.074650 0.713768  -0.895520 -0.164964 -0.413317  0.298055 0.540145 0
painted_wood_01.png
0  0.466796 3.830356 1.418258  -0.018725 0.838412 -0.544716  0.298055 0.540140 0
0  1.230399 3.442849 1.111466  -0.018700 0.838422 -0.544701  0.298054 0.540134 0
0  -0.075132 3.606650 1.092545  -0.018711 0.838417 -0.544708  0.298056 0.540145 0
painted_wood_01.png
0  1.084011 3.502050 2.614819  0.595014 0.803528 -0.017360  0.298075 0.540107 0
0  1.654511 2.881500 2.571445  0.595014 0.803528 -0.017363  0.298080 0.540122 0
0  1.257170 3.353135 1.657838  0.595014 0.803528 -0.017362  0.298081 0.540119 0
painted_wood_01.png
0  -0.075132 3.606650 1.092545  -0.140828 -0.908533 -0.393365  0.298071 0.540112 0
0  1.230399 3.442849 1.111466  -0.140828 -0.908533 -0.393365  0.298070 0.540112 0
0  1.727508 2.552312 2.882316  -0.140829 -0.908532 -0.393366  0.298071 0.540112 0
painted_wood_01.png
0  -0.003278 3.530971 2.949876  -0.993556 0.032879 0.108470  0.298071 0.540112 0
0  0.203264 6.733532 3.573464  -0.993556 0.032880 0.108471  0.298071 0.540112 0
0  0.151643 6.770786 3.386968  -0.993556 0.032865 0.108469  0.298071 0.540112 0
painted_wood_01.png
0  -0.003278 3.530971 2.949876  0.178714 0.250378 0.951510  0.298104 0.540180 0
0  -0.452029 2.813483 3.167466  0.178721 0.250374 0.951510  0.298101 0.540172 0
0  1.727508 2.552312 2.882316  0.178711 0.250380 0.951510  0.298101 0.540170 0
painted_wood_01.png
0  -0.103168 3.771834 1.663748  -0.909418 0.412623 0.051961  0.298117 0.540188 0
0  -0.075132 3.606650 1.092545  -0.909421 0.412615 0.051974  0.298113 0.540180 0
0  -0.452029 2.813483 3.167466  -0.909425 0.412606 0.051989  0.298112 0.540187 0
painted_wood_01.png
0  0.151643 6.770786 3.386968  -0.154085 0.959854 0.234390  0.298071 0.540112 0
0  0.203264 6.733532 3.573464  -0.154085 0.959854 0.234390  0.298071 0.540112 0
0  0.391004 6.774368 3.529655  -0.154085 0.959854 0.234390  0.298071 0.540112 0
painted_wood_01.png
0  0.406196 4.319531 1.758316  0.986103 -0.121996 0.112771  0.298071 0.540112 0
0  0.495712 6.417772 2.975715  0.986104 -0.121992 0.112774  0.298071 0.540112 0
0  0.491308 6.357692 3.218986  0.986104 -0.121991 0.112774  0.298071 0.540112 0
painted_wood_01.png
0  -0.103168 3.771834 1.663748  -0.366256 0.490262 -0.790885  0.298071 0.540110 0
0  0.151643 6.770786 3.386968  -0.366256 0.490262 -0.790885  0.298071 0.540108 0
0  0.339383 6.811622 3.343160  -0.366255 0.490270 -0.790881  0.298071 0.540108 0
painted_wood_01.png
0  0.945361 3.608064 2.695920  0.267716 -0.201006 0.942297  0.298071 0.540114 0
0  0.391004 6.774368 3.529655  0.267716 -0.201006 0.942297  0.298071 0.540114 0
0  0.203264 6.733532 3.573464  0.267716 -0.201006 0.942297  0.298071 0.540114 0
painted_wood_01.png
0  0.296231 4.267709 2.393772  0.846154 0.525668 -0.087730  0.298071 0.540111 0
0  0.945361 3.608064 2.695920  0.846153 0.525670 -0.087726  0.298071 0.540110 0
0  0.466796 3.830356 1.418258  0.846153 0.525670 -0.087727  0.298071 0.540109 0
painted_wood_01.png
0  0.495712 6.417772 2.975715  0.945327 0.324710 -0.030344  0.298063 0.540108 0
0  0.339383 6.811622 3.343160  0.945328 0.324707 -0.030349  0.298063 0.540109 0
0  0.391004 6.774368 3.529655  0.945326 0.324712 -0.030340  0.298062 0.540107 0
gold_player
0  0.491308 6.357692 3.218986  0.768496 0.239731 -0.593248  0.922647 0.951201 0
0  0.391004 6.774368 3.529655  0.768491 0.239762 -0.593242  0.940197 0.951201 0
0  0.945361 3.608064 2.695920  0.768501 0.239697 -0.593255  0.879762 0.951199 0
painted_wood_01.png
0  0.406196 4.319531 1.758316  -0.606963 0.414812 -0.677885  0.298039 0.540045 0
0  0.466796 3.830356 1.418258  -0.606963 0.414818 -0.677881  0.298042 0.540049 0
0  0.339383 6.811622 3.343160  -0.606963 0.414815 -0.677882  0.298051 0.540067 0
painted_wood_01.png
0  1.654511 2.881500 2.571445  0.677414 0.584708 0.446348  0.298078 0.540118 0
0  1.084011 3.502050 2.614819  0.677410 0.584713 0.446349  0.298073 0.540102 0
0  0.945361 3.608064 2.695920  0.677410 0.584712 0.446349  0.298072 0.540098 0
painted_wood_01.png
0  1.084011 3.502050 2.614819  0.750610 0.624480 -0.215889  0.298074 0.540105 0
0  0.515332 3.701208 1.469939  0.750642 0.624464 -0.215827  0.298077 0.540105 0
0  0.466796 3.830356 1.418258  0.750615 0.624478 -0.215878  0.298076 0.540102 0
painted_wood_01.png
0  0.515332 3.701208 1.469939  0.440444 0.859585 0.259080  0.298079 0.540111 0
0  1.257170 3.353135 1.657838  0.440440 0.859586 0.259082  0.298082 0.540121 0
0  1.230399 3.442849 1.111466  0.440455 0.859581 0.259075  0.298082 0.540120 0
painted_wood_01.png
0  1.257170 3.353135 1.657838  0.934414 0.324612 -0.146622  0.298088 0.540138 0
0  1.654511 2.881500 2.571445  0.934417 0.324607 -0.146615  0.298083 0.540131 0
0  1.727508 2.552312 2.882316  0.934413 0.324612 -0.146623  0.298084 0.540138 0
painted_wood_01.png
0  1.230399 3.442849 1.111466  0.115076 0.967919 -0.223361  0.298054 0.540135 0
0  1.484355 3.251777 0.358300  0.115077 0.967919 -0.223360  0.298054 0.540134 0
0  0.178824 3.323230 0.051328  0.115077 0.967919 -0.223360  0.298055 0.540145 0
painted_wood_01.png
0  1.230399 3.442849 1.111466  0.960254 0.011739 0.278882  0.298054 0.540131 0
0  1.230399 2.664915 1.257451  0.960253 0.011741 0.278885  0.298054 0.540133 0
0  1.484355 2.879466 0.260772  0.960253 0.011739 0.278883  0.298054 0.540131 0
painted_wood_01.png
0  1.484355 3.251777 0.358300  0.276036 0.399374 -0.874245  0.298054 0.540134 0
0  1.484355 2.879466 0.260772  0.276023 0.399370 -0.874251  0.298054 0.540134 0
0  0.178824 2.834059 -0.244708  0.276032 0.399373 -0.874247  0.298055 0.540146 0
painted_wood_01.png
0  1.230399 3.442849 1.111466  0.955318 -0.028328 -0.294219  0.298071 0.540112 0
0  1.727508 2.552312 2.882316  0.955317 -0.028326 -0.294222  0.298071 0.540112 0
0  1.727508 2.180001 2.847124  0.955318 -0.028328 -0.294219  0.298071 0.540112 0
painted_wood_01.png
0  0.178824 2.834059 -0.244708  -0.655184 0.342425 -0.673408  0.298055 0.540143 0
0  -0.680549 2.702339 0.571702  -0.655192 0.342427 -0.673399  0.298056 0.540147 0
0  -0.680549 3.074650 0.713768  -0.655189 0.342426 -0.673404  0.298056 0.540147 0
painted_wood_01.png
0  0.178824 3.323230 0.051328  -0.512844 0.801915 -0.306469  0.298055 0.540142 0
0  -0.680549 3.074650 0.713768  -0.512853 0.801913 -0.306459  0.298055 0.540145 0
0  -0.934504 3.074650 1.264004  -0.512864 0.801911 -0.306446  0.298056 0.540147 0
painted_wood_01.png
0  1.484355 2.879466 0.260772  0.946148 0.057388 0.318606  0.298054 0.540131 0
0  1.230399 2.664915 1.257451  0.946149 0.057392 0.318603  0.298054 0.540133 0
0  1.230399 1.533061 1.257451  0.946147 0.057382 0.318610  0.298055 0.540135 0
painted_wood_01.png
0  -0.680549 2.702339 0.571702  -0.654451 -0.274242 -0.704617  0.298056 0.540148 0
0  0.178824 2.834059 -0.244708  -0.654453 -0.274240 -0.704617  0.298055 0.540142 0
0  0.178824 1.487654 0.246273  -0.654452 -0.274241 -0.704617  0.298056 0.540148 0
painted_wood_01.png
0  1.230399 2.664915 1.257451  0.954423 0.000000 -0.298459  0.298070 0.540112 0
0  1.727508 2.180001 2.847124  0.954423 0.000000 -0.298459  0.298071 0.540112 0
0  1.727508 1.048147 2.847124  0.954423 0.000000 -0.298459  0.298071 0.540112 0
painted_wood_01.png
0  1.727508 2.180001 2.847124  0.182474 0.047059 0.982084  0.298071 0.540112 0
0  -0.452029 2.813483 3.167466  0.182474 0.047059 0.982084  0.298071 0.540112 0
0  0.250581 1.221588 3.167466  0.182476 0.047061 0.982083  0.298071 0.540112 0
painted_wood_01.png
0  0.178824 2.834059 -0.244708  0.339552 -0.309227 -0.888304  0.298055 0.540146 0
0  1.484355 2.879466 0.260772  0.339550 -0.309225 -0.888305  0.298054 0.540134 0
0  1.484355 1.533061 0.707214  0.339550 -0.309225 -0.888305  0.298054 0.540132 0
painted_wood_01.png
0  -0.452029 2.813483 3.167466  -0.948460 0.174716 0.264380  0.298068 0.540118 0
0  -0.934504 3.074650 1.264004  -0.948460 0.174716 0.264380  0.298054 0.540148 0
0  -1.053016 2.431296 1.264004  -0.948460 0.174716 0.264380  0.298042 0.540175 0
painted_wood_01.png
0  -0.680549 3.074650 0.713768  -0.888410 0.163654 -0.428888  0.298056 0.540147 0
0  -0.680549 2.702339 0.571702  -0.888410 0.163654 -0.428888  0.298056 0.540147 0
0  -0.799061 2.058985 0.571702  -0.888410 0.163654 -0.428888  0.298056 0.540148 0
painted_wood_01.png
0  -0.934504 3.074650 1.264004  -0.895520 0.164964 -0.413317  0.298056 0.540147 0
0  -0.680549 3.074650 0.713768  -0.895520 0.164964 -0.413317  0.298055 0.540145 0
0  -0.799061 2.431296 0.713768  -0.895520 0.164964 -0.413317  0.298055 0.540146 0
painted_wood_01.png
0  0.466796 -3.830356 1.418258  -0.018761 -0.838447 -0.544660  0.298055 0.540140 0
0  -0.103168 -3.771834 1.663748  -0.018753 -0.838450 -0.544655  0.298056 0.540144 0
0  -0.075132 -3.606650 1.092545  -0.018778 -0.838440 -0.544670  0.298056 0.540145 0
painted_wood_01.png
0  1.084011 -3.502050 2.614819  0.594963 -0.803565 -0.017380  0.298075 0.540107 0
0  0.515332 -3.701208 1.469939  0.594983 -0.803548 -0.017492  0.298078 0.540108 0
0  1.257170 -3.353135 1.657838  0.594964 -0.803564 -0.017387  0.298081 0.540119 0
painted_wood_01.png
0  -0.075132 -3.606650 1.092545  -0.140828 0.908532 -0.393365  0.298071 0.540112 0
0  -0.452029 -2.813483 3.167466  -0.140830 0.908531 -0.393367  0.298071 0.540112 0
0  1.727508 -2.552312 2.882316  -0.140829 0.908532 -0.393366  0.298071 0.540112 0
painted_wood_01.png
0  -0.003278 -3.530971 2.949876  -0.993560 -0.032880 0.108436  0.298071 0.540112 0
0  -0.103168 -3.771834 1.663748  -0.993559 -0.032882 0.108436  0.298071 0.540112 0
0  0.151643 -6.770786 3.386968  -0.993560 -0.032879 0.108436  0.298071 0.540112 0
painted_wood_01.png
0  -0.003278 -3.530971 2.949876  0.178738 -0.250403 0.951499  0.298104 0.540180 0
0  0.945361 -3.608064 2.695920  0.178735 -0.250405 0.951499  0.298106 0.540181 0
0  1.727508 -2.552312 2.882316  0.178738 -0.250403 0.951499  0.298101 0.540170 0
painted_wood_01.png
0  -0.103168 -3.771834 1.663748  -0.909396 -0.412665 0.052033  0.298117 0.540188 0
0  -0.003278 -3.530971 2.949876  -0.909392 -0.412674 0.052019  0.298121 0.540201 0
0  -0.452029 -2.813483 3.167466  -0.909393 -0.412672 0.052022  0.298112 0.540187 0
painted_wood_01.png
0  0.151643 -6.770786 3.386968  -0.154089 -0.959854 0.234389  0.298071 0.540112 0
0  0.339383 -6.811622 3.343160  -0.154089 -0.959854 0.234389  0.298071 0.540112 0
0  0.391004 -6.774368 3.529655  -0.154089 -0.959854 0.234389  0.298071 0.540112 0
painted_wood_01.png
0  0.406196 -4.319531 1.758316  0.986095 0.122027 0.112813  0.298071 0.540112 0
0  0.296231 -4.267709 2.393772  0.986095 0.122026 0.112814  0.298071 0.540112 0
0  0.491308 -6.357692 3.218986  0.986094 0.122030 0.112811  0.298071 0.540112 0
painted_wood_01.png
0  -0.103168 -3.771834 1.663748  -0.366220 -0.490428 -0.790799  0.298071 0.540110 0
0  0.466796 -3.830356 1.418258  -0.366242 -0.490268 -0.790888  0.298071 0.540109 0
0  0.339383 -6.811622 3.343160  -0.366242 -0.490268 -0.790888  0.298071 0.540108 0
painted_wood_01.png
0  0.945361 -3.608064 2.695920  0.267897 0.200951 0.942258  0.298071 0.540114 0
0  -0.003278 -3.530971 2.949876  0.267897 0.200951 0.942258  0.298071 0.540113 0
0  0.203264 -6.733532 3.573464  0.267897 0.200951 0.942258  0.298071 0.540114 0
painted_wood_01.png
0  0.296231 -4.267709 2.393772  0.846153 -0.525667 -0.087749  0.298071 0.540111 0
0  0.406196 -4.319531 1.758316  0.846153 -0.525666 -0.087750  0.298071 0.540110 0
0  0.466796 -3.830356 1.418258  0.846157 -0.525656 -0.087772  0.298071 0.540109 0
painted_wood_01.png
0  0.495712 -6.417772 2.975715  0.945340 -0.324676 -0.030289  0.298063 0.540108 0
0  0.491308 -6.357692 3.218986  0.945342 -0.324669 -0.030301  0.298062 0.540107 0
0  0.391004 -6.774368 3.529655  0.945344 -0.324663 -0.030310  0.298062 0.540107 0
gold_player
0  0.491308 -6.357692 3.218986  0.768478 -0.239771 -0.593255  0.922647 0.951201 0
0  0.296231 -4.267709 2.393772  0.768477 -0.239774 -0.593254  0.858220 0.951198 0
0  0.945361 -3.608064 2.695920  0.768478 -0.239772 -0.593255  0.879762 0.951199 0
painted_wood_01.png
0  0.406196 -4.319531 1.758316  -0.606965 -0.414821 -0.677877  0.298039 0.540045 0
0  0.495712 -6.417772 2.975715  -0.606965 -0.414824 -0.677875  0.298049 0.540063 0
0  0.339383 -6.811622 3.343160  -0.606965 -0.414823 -0.677876  0.298051 0.540067 0
painted_wood_01.png
0  1.654511 -2.881500 2.571445  0.677407 -0.584698 0.446372  0.298078 0.540118 0
0  1.727508 -2.552312 2.882316  0.677407 -0.584699 0.446372  0.298077 0.540119 0
0  0.945361 -3.608064 2.695920  0.677407 -0.584698 0.446372  0.298072 0.540098 0
painted_wood_01.png
0  1.084011 -3.502050 2.614819  0.750598 -0.624522 -0.215811  0.298074 0.540105 0
0  0.945361 -3.608064 2.695920  0.750597 -0.624523 -0.215814  0.298072 0.540100 0
0  0.466796 -3.830356 1.418258  0.750599 -0.624522 -0.215810  0.298076 0.540102 0
painted_wood_01.png
0  0.515332 -3.701208 1.469939  0.440448 -0.859582 0.259085  0.298079 0.540111 0
0  0.466796 -3.830356 1.418258  0.440452 -0.859580 0.259082  0.298078 0.540109 0
0  1.230399 -3.442849 1.111466  0.440455 -0.859579 0.259081  0.298082 0.540120 0
painted_wood_01.png
0  1.257170 -3.353135 1.657838  0.934414 -0.324603 -0.146638  0.298088 0.540138 0
0  1.230399 -3.442849 1.111466  0.934428 -0.324580 -0.146602  0.298085 0.540126 0
0  1.727508 -2.552312 2.882316  0.934414 -0.324603 -0.146638  0.298084 0.540138 0
painted_wood_01.png
0  1.230399 -3.442849 1.111466  0.115077 -0.967919 -0.223363  0.298054 0.540135 0
0  -0.075132 -3.606650 1.092545  0.115077 -0.967919 -0.223363  0.298055 0.540146 0
0  0.178824 -3.323230 0.051328  0.115078 -0.967919 -0.223362  0.298055 0.540145 0
painted_wood_01.png
0  1.230399 -3.442849 1.111466  0.960256 -0.011735 0.278875  0.298054 0.540131 0
0  1.484355 -3.251777 0.358300  0.960254 -0.011740 0.278882  0.298054 0.540130 0
0  1.484355 -2.879466 0.260772  0.960253 -0.011741 0.278884  0.298054 0.540131 0
painted_wood_01.png
0  1.484355 -3.251777 0.358300  0.275991 -0.399438 -0.874230  0.298054 0.540134 0
0  0.178824 -3.323230 0.051328  0.275990 -0.399438 -0.874231  0.298055 0.540145 0
0  0.178824 -2.834059 -0.244708  0.275992 -0.399439 -0.874230  0.298055 0.540146 0
painted_wood_01.png
0  1.230399 -3.442849 1.111466  0.955314 0.028344 -0.294232  0.298071 0.540112 0
0  1.230399 -2.664915 1.257451  0.955314 0.028345 -0.294231  0.298070 0.540112 0
0  1.727508 -2.180001 2.847124  0.955314 0.028345 -0.294230  0.298071 0.540112 0
painted_wood_01.png
0  0.178824 -2.834059 -0.244708  -0.655171 -0.342486 -0.673390  0.298055 0.540143 0
0  0.178824 -3.323230 0.051328  -0.655169 -0.342485 -0.673392  0.298055 0.540143 0
0  -0.680549 -3.074650 0.713768  -0.655165 -0.342484 -0.673398  0.298056 0.540147 0
painted_wood_01.png
0  0.178824 -3.323230 0.051328  -0.512893 -0.801869 -0.306508  0.298055 0.540142 0
0  -0.075132 -3.606650 1.092545  -0.512896 -0.801868 -0.306505  0.298055 0.540143 0
0  -0.934504 -3.074650 1.264004  -0.512893 -0.801869 -0.306508  0.298056 0.540147 0
painted_wood_01.png
0  1.484355 -2.879466 0.260772  0.946134 -0.057402 0.318646  0.298054 0.540131 0
0  1.484355 -1.533061 0.707214  0.946136 -0.057414 0.318637  0.298054 0.540134 0
0  1.230399 -1.533061 1.257451  0.946137 -0.057416 0.318636  0.298055 0.540135 0
painted_wood_01.png
0  -0.680549 -2.702339 0.571702  -0.654462 0.274244 -0.704606  0.298056 0.540148 0
0  0.022061 -1.110444 0.571702  -0.654462 0.274245 -0.704606  0.298056 0.540151 0
0  0.178824 -1.487654 0.246273  -0.654458 0.274250 -0.704607  0.298056 0.540148 0
painted_wood_01.png
0  1.230399 -2.664915 1.257451  0.954423 0.000000 -0.298459  0.298070 0.540112 0
0  1.230399 -1.533061 1.257451  0.954423 0.000000 -0.298459  0.298070 0.540112 0
0  1.727508 -1.048147 2.847124  0.954423 0.000000 -0.298459  0.298071 0.540112 0
painted_wood_01.png
0  1.727508 -2.180001 2.847124  0.182477 -0.047060 0.982083  0.298071 0.540112 0
0  1.727508 -1.048147 2.847124  0.182477 -0.047060 0.982083  0.298071 0.540112 0
0  0.250581 -1.221588 3.167466  0.182475 -0.047058 0.982084  0.298071 0.540112 0
painted_wood_01.png
0  0.178824 -2.834059 -0.244708  0.339516 0.309263 -0.888305  0.298055 0.540146 0
0  0.178824 -1.487654 0.246273  0.339515 0.309262 -0.888306  0.298055 0.540144 0
0  1.484355 -1.533061 0.707214  0.339516 0.309262 -0.888305  0.298054 0.540132 0
painted_wood_01.png
0  -0.452029 -2.813483 3.167466  -0.948460 -0.174716 0.264381  0.298068 0.540118 0
0  -0.570542 -2.170129 3.167466  -0.948460 -0.174716 0.264381  0.298056 0.540145 0
0  -1.053016 -2.431296 1.264004  -0.948460 -0.174716 0.264381  0.298042 0.540175 0
painted_wood_01.png
0  -0.680549 -3.074650 0.713768  -0.888410 -0.163655 -0.428887  0.298056 0.540147 0
0  -0.799061 -2.431296 0.713768  -0.888410 -0.163655 -0.428887  0.298056 0.540148 0
0  -0.799061 -2.058985 0.571702  -0.888410 -0.163655 -0.428887  0.298056 0.540148 0
painted_wood_01.png
0  -0.934504 -3.074650 1.264004  -0.895520 -0.164964 -0.413317  0.298056 0.540147 0
0  -1.053016 -2.431296 1.264004  -0.895520 -0.164964 -0.413317  0.298056 0.540148 0
0  -0.799061 -2.431296 0.713768  -0.895520 -0.164964 -0.413317  0.298055 0.540146 0
end
