version 1
nodes
0 "bip_pelvis" -1
end
skeleton
time 0
0  -0.000000 0.000006 48.466885  -1.641949 -0.000000 -0.000000
end
triangles
c_invasion_wrangler_laser
0  -44.652912 18.857807 28.522106  0.421200 -0.272145 -0.865175  0.000000 0.000000 0
0  -28.822845 30.904278 32.439152  0.421189 -0.272154 -0.865178  0.000000 0.000000 0
0  -40.780884 17.475607 32.170708  0.421191 -0.272152 -0.865177  0.000000 0.000000 0
painted_wood_01
0  -42.072090 16.598612 36.323669  -0.692251 -0.217506 0.688098  0.298429 0.540159 0
0  -46.788570 16.836555 32.376755  -0.692236 -0.217502 0.688115  0.298429 0.540159 0
0  -46.328308 13.896694 30.464865  -0.692265 -0.217510 0.688083  0.298429 0.540159 0
painted_wood_01
0  -46.328308 13.896694 30.464865  0.498624 -0.589812 -0.635213  0.298429 0.540159 0
0  -44.652912 18.857807 28.522106  0.498633 -0.589810 -0.635208  0.298429 0.540159 0
0  -40.780884 17.475607 32.170708  0.498624 -0.589812 -0.635213  0.298429 0.540159 0
c_invasion_wrangler_laser
0  -28.589649 13.597291 42.528229  0.384991 -0.494656 -0.779164  0.000000 0.000000 0
0  -36.908855 16.093409 35.819305  0.384992 -0.494658 -0.779163  0.000000 0.000000 0
0  -28.822845 30.904278 32.439152  0.384995 -0.494666 -0.779156  0.000000 0.000000 0
painted_wood_01
0  -11.775143 7.853165 56.133884  -0.392787 -0.030668 0.919118  0.298429 0.540159 0
0  -11.003320 13.272536 57.008007  -0.392786 -0.030669 0.919119  0.298429 0.540159 0
0  -15.913757 13.734756 54.743217  -0.392788 -0.030667 0.919118  0.298429 0.540159 0
painted_wood_01
0  -37.245232 12.205578 40.514442  0.218243 -0.820352 -0.528575  0.298429 0.540159 0
0  -36.908855 16.093409 35.819305  0.218250 -0.820353 -0.528572  0.298429 0.540159 0
0  -28.589649 13.597291 42.528229  0.218242 -0.820352 -0.528576  0.298429 0.540159 0
c_invasion_wrangler_laser
0  -15.913757 13.734756 54.743217  -0.261132 0.726522 0.635591  0.000000 0.000000 0
0  -11.003320 13.272536 57.008007  -0.261133 0.726521 0.635592  0.000000 0.000000 0
0  -5.440245 25.043697 46.400433  -0.261132 0.726522 0.635591  0.000000 0.000000 0
gold_player
0  -44.652912 18.857807 28.522106  0.461163 -0.396434 -0.793832  3.441954 4.155121 0
0  -48.831146 13.038713 29.000862  0.461159 -0.396440 -0.793831  3.876100 3.780605 0
0  -50.900394 16.630054 26.443401  0.461161 -0.396437 -0.793831  3.718564 4.221788 0
c_invasion_wrangler_laser
0  -48.118973 33.451916 24.902870  -0.376372 0.477068 0.794198  0.000000 0.000000 0
0  -46.788570 16.836555 32.376755  -0.376381 0.477083 0.794184  0.000000 0.000000 0
0  -42.072090 16.598612 36.323669  -0.376373 0.477069 0.794197  0.000000 0.000000 0
c_invasion_wrangler_laser
0  -5.440245 25.043697 46.400433  0.255995 -0.446725 -0.857265  0.000000 0.000000 0
0  -8.268824 9.918773 51.819668  0.256004 -0.446717 -0.857267  0.000000 0.000000 0
0  -14.269634 10.509974 50.528408  0.255995 -0.446726 -0.857265  0.000000 0.000000 0
painted_wood_01
0  -14.269634 10.509974 50.528408  0.011468 -0.899115 -0.437562  0.298429 0.540159 0
0  -8.268824 9.918773 51.819668  0.011466 -0.899115 -0.437563  0.298429 0.540159 0
0  -11.775143 7.853165 56.133884  0.011466 -0.899115 -0.437563  0.298429 0.540159 0
c_invasion_wrangler_laser
0  -28.822845 30.904278 32.439152  -0.300322 0.670224 0.678680  0.000000 0.000000 0
0  -37.355610 16.360670 40.270580  -0.300329 0.670238 0.678663  0.000000 0.000000 0
0  -29.089903 15.278824 46.374504  -0.300330 0.670241 0.678659  0.000000 0.000000 0
painted_wood_01
0  -21.729578 9.513700 52.298977  -0.592503 0.059158 0.803393  0.298429 0.540159 0
0  -20.824196 14.196979 52.478424  -0.592504 0.059158 0.803393  0.298429 0.540159 0
0  -29.089903 15.278824 46.374504  -0.592505 0.059159 0.803392  0.298429 0.540159 0
gold_player
0  -46.328308 13.896694 30.464865  -0.500304 -0.409150 0.763080  -0.003852 -3.318090 0
0  -50.903370 16.067690 28.629309  -0.500323 -0.409141 0.763073  -0.189926 -3.531826 0
0  -48.831146 13.038713 29.000862  -0.500309 -0.409148 0.763078  -0.002219 -3.436736 0
painted_wood_01
0  -7.417726 9.809801 51.960892  -0.120243 -0.834467 -0.537779  0.298429 0.540159 0
0  -6.566628 9.700830 52.102119  -0.120244 -0.834472 -0.537770  0.298429 0.540159 0
0  -8.725719 6.002857 57.998249  -0.120243 -0.834465 -0.537782  0.298429 0.540159 0
c_invasion_wrangler_laser
0  -7.417726 9.809801 51.960892  0.023045 -0.349785 -0.936547  0.000000 0.000000 0
0  -8.268824 9.918773 51.819668  0.023071 -0.349777 -0.936549  0.000000 0.000000 0
0  -4.960615 10.622146 51.717968  0.023045 -0.349784 -0.936547  0.000000 0.000000 0
painted_wood_01
0  -8.725719 6.002857 57.998249  -0.416281 -0.006581 0.909212  0.298429 0.540159 0
0  -7.373915 13.250590 58.188358  -0.416284 -0.006571 0.909211  0.298429 0.540159 0
0  -9.188618 13.261563 57.598183  -0.416285 -0.006569 0.909211  0.298429 0.540159 0
painted_wood_01
0  -4.004126 8.125338 54.641491  0.642777 -0.102724 0.759135  0.298429 0.540159 0
0  -3.362944 15.471939 54.739033  0.642779 -0.102727 0.759133  0.298429 0.540159 0
0  -5.368429 14.361264 56.463696  0.642781 -0.102729 0.759131  0.298429 0.540159 0
painted_wood_01
0  -6.566628 9.700830 52.102119  0.093158 -0.801197 -0.591106  0.298429 0.540159 0
0  -4.960615 10.622146 51.717968  0.093170 -0.801204 -0.591093  0.298429 0.540159 0
0  -4.004126 8.125338 54.641491  0.093174 -0.801207 -0.591089  0.298429 0.540159 0
c_invasion_wrangler_laser
0  -11.003320 13.272536 57.008007  0.006806 0.706398 0.707782  0.000000 0.000000 0
0  -9.188618 13.261563 57.598183  0.006832 0.706405 0.707775  0.000000 0.000000 0
0  -5.368429 14.361264 56.463696  0.006845 0.706409 0.707771  0.000000 0.000000 0
gold_player
0  -6.566628 9.700830 52.102119  0.170862 0.925251 -0.338699  0.000000 0.000000 0
0  -7.417726 9.809801 51.960892  0.170845 0.925254 -0.338700  0.000000 0.000000 0
0  -5.368429 14.361264 56.463696  0.170882 0.925249 -0.338695  0.000000 0.000000 0
painted_wood_01
0  -3.354603 11.543461 51.333817  0.990715 -0.087843 0.103768  0.298429 0.540159 0
0  -3.362944 15.471939 54.739033  0.990715 -0.087843 0.103768  0.298429 0.540159 0
0  -4.004126 8.125338 54.641491  0.990715 -0.087843 0.103768  0.298429 0.540159 0
c_invasion_wrangler_laser
0  -5.440245 25.043697 46.400433  0.986654 0.107845 -0.122000  0.000000 0.000000 0
0  -3.358773 13.507700 53.036423  0.986654 0.107845 -0.122000  0.000000 0.000000 0
0  -3.354603 11.543461 51.333817  0.986654 0.107845 -0.122000  0.000000 0.000000 0
gold_player
0  -52.391792 27.253431 22.333591  -0.987142 -0.154478 -0.041086  -12.808151 3.228555 0
0  -50.900394 16.630054 26.443401  -0.987142 -0.154478 -0.041086  -9.521410 3.032341 0
0  -50.903370 16.067690 28.629309  -0.987142 -0.154478 -0.041086  -9.438991 2.895647 0
gold_player
0  -48.831146 13.038713 29.000862  -0.807706 -0.570726 -0.147928  -0.320075 9.673038 0
0  -50.903370 16.067690 28.629309  -0.807706 -0.570726 -0.147928  -0.393049 9.893789 0
0  -50.900394 16.630054 26.443401  -0.807706 -0.570726 -0.147928  -0.435161 11.007252 0
gold_player
0  -46.788570 16.836555 32.376755  -0.707762 0.254622 0.658969  -3.050128 4.016712 0
0  -52.391792 27.253431 22.333591  -0.707761 0.254619 0.658971  -2.797620 5.471533 0
0  -50.903370 16.067690 28.629309  -0.707763 0.254624 0.658967  -3.248398 4.360678 0
gold_player
0  -48.118973 33.451916 24.902870  0.503946 -0.161023 -0.848593  -2.141698 4.734364 0
0  -50.900394 16.630054 26.443401  0.503943 -0.161039 -0.848591  -0.960896 4.948784 0
0  -52.391792 27.253431 22.333591  0.503942 -0.161046 -0.848591  -1.849099 5.047280 0
gold_player
0  -48.118973 33.451916 24.902870  0.746575 0.321724 0.582339  0.000000 0.000000 0
0  -45.720741 17.847181 30.449430  0.746575 0.321724 0.582339  0.000000 0.000000 0
0  -44.652912 18.857807 28.522106  0.746575 0.321724 0.582339  0.000000 0.000000 0
painted_wood_01
0  -9.488556 14.777483 73.341957  0.399941 0.260203 0.878829  0.298429 0.540159 0
0  -24.974482 31.814743 75.344337  0.399901 0.260247 0.878835  0.298429 0.540159 0
0  -23.489086 26.949884 74.762367  0.399903 0.260245 0.878835  0.298429 0.540159 0
painted_wood_01
0  -6.446497 17.754208 69.729675  0.363177 0.771924 -0.521762  0.298429 0.540159 0
0  -27.259045 28.061480 70.492332  0.363178 0.771923 -0.521762  0.298429 0.540159 0
0  -24.974482 31.814743 75.344337  0.363170 0.771927 -0.521762  0.298429 0.540159 0
painted_wood_01
0  -27.752537 27.112703 70.953491  -0.227374 0.180174 -0.956994  0.298429 0.540159 0
0  -34.309769 31.911221 73.414711  -0.227355 0.180160 -0.957002  0.298429 0.540159 0
0  -34.745842 29.552355 72.310600  -0.227362 0.180165 -0.956999  0.298429 0.540159 0
gold_player
0  -23.489086 26.949884 74.762367  0.423959 0.596691 0.681336  -1.522172 -1.793799 0
0  -32.547867 33.556274 74.613609  0.423972 0.596683 0.681335  -1.896720 -2.414035 0
0  -23.832930 26.288811 75.083672  0.423974 0.596681 0.681336  -1.474412 -1.809136 0
gold_player
0  -7.370350 14.121333 61.419346  -0.287976 0.230380 -0.929513  -0.363197 1.633885 0
0  -27.752537 27.112703 70.953491  -0.287938 0.230354 -0.929531  -1.872487 3.671999 0
0  -27.259045 28.061480 70.492332  -0.287947 0.230360 -0.929527  -1.969413 3.618958 0
gold_player
0  -10.371796 12.682323 71.941689  -0.133764 -0.309051 0.941592  -0.193015 -0.978127 0
0  -23.489086 26.949884 74.762367  -0.133679 -0.309147 0.941572  -1.628578 -1.843102 0
0  -23.832930 26.288811 75.083672  -0.133710 -0.309115 0.941578  -1.576452 -1.858028 0
painted_wood_01
0  -10.863907 7.774724 65.524628  -0.348925 -0.611212 0.710402  0.298429 0.540159 0
0  -23.832930 26.288811 75.083672  -0.348929 -0.611206 0.710405  0.298429 0.540159 0
0  -30.762156 22.000561 69.942703  -0.348932 -0.611201 0.710408  0.298429 0.540159 0
painted_wood_01
0  -8.211290 12.230281 60.667789  -0.419594 -0.113655 -0.900568  0.298429 0.540159 0
0  -30.762156 22.000561 69.942703  -0.419614 -0.113646 -0.900560  0.298429 0.540159 0
0  -27.752537 27.112703 70.953491  -0.419624 -0.113642 -0.900556  0.298429 0.540159 0
gold_player
0  -34.745842 29.552355 72.310600  -0.950740 0.256935 -0.173430  -2.623693 1.895274 0
0  -34.004234 32.340828 72.376221  -0.950740 0.256935 -0.173430  -2.968188 1.891095 0
0  -34.440300 29.981960 71.272087  -0.950740 0.256935 -0.173430  -2.675982 1.797641 0
gold_player
0  -34.309769 31.911221 73.414711  -0.709134 0.700393 0.081106  -2.411629 0.804373 0
0  -32.242332 33.985882 73.575127  -0.709134 0.700393 0.081106  -2.751538 0.839032 0
0  -34.004234 32.340828 72.376221  -0.709134 0.700393 0.081106  -2.484681 0.745485 0
gold_player
0  -27.259045 28.061480 70.492332  0.196875 0.638041 -0.744408  -3.220839 -1.005998 0
0  -34.004234 32.340828 72.376221  0.196886 0.638035 -0.744411  -3.983524 -1.390444 0
0  -24.974482 31.814743 75.344337  0.196894 0.638030 -0.744413  -3.085077 -1.467398 0
painted_wood_01
0  -30.762156 22.000561 69.942703  -0.348309 -0.397047 0.849137  0.298429 0.540159 0
0  -32.547867 33.556274 74.613609  -0.348308 -0.397053 0.849135  0.298429 0.540159 0
0  -34.309769 31.911221 73.414711  -0.348309 -0.397048 0.849137  0.298429 0.540159 0
gold_player
0  -27.259045 28.061480 70.492332  -0.299574 -0.617578 -0.727223  -1.589647 3.470214 0
0  -34.745842 29.552355 72.310600  -0.299592 -0.617574 -0.727219  -1.678492 4.133949 0
0  -34.440300 29.981960 71.272087  -0.299570 -0.617579 -0.727224  -1.757803 4.071571 0
gold_player
0  -23.489086 26.949884 74.762367  -0.256783 -0.074356 0.963604  -303267.375000 -1093206.500000 0
0  -34.004234 32.340828 72.376221  -0.256783 -0.074352 0.963605  -2648698.250000 -9547984.000000 0
0  -32.242332 33.985882 73.575127  -0.256792 -0.074349 0.963603  -8549915.000000 -30820622.000000 0
painted_wood_01
0  -6.446497 17.754208 69.729675  0.180145 0.679255 0.711449  0.298429 0.540159 0
0  -7.569712 13.854488 73.737328  0.180145 0.679255 0.711449  0.298429 0.540159 0
0  -4.527653 16.831215 70.125046  0.180145 0.679255 0.711449  0.298429 0.540159 0
gold_player
0  -9.488556 14.777483 73.341957  -0.367269 -0.404831 0.837392  -0.453286 -0.958055 0
0  -8.452950 11.759327 72.337059  -0.367269 -0.404831 0.837392  -0.157880 -0.874204 0
0  -7.569712 13.854488 73.737328  -0.367269 -0.404831 0.837392  -0.392940 -0.829887 0
painted_wood_01
0  -10.863907 7.774724 65.524628  0.319658 -0.874456 -0.364890  0.298429 0.540159 0
0  -6.292448 11.307284 61.063160  0.319660 -0.874455 -0.364893  0.298429 0.540159 0
0  -7.634211 9.787906 67.026512  0.319646 -0.874466 -0.364878  0.298429 0.540159 0
painted_wood_01
0  -7.370350 14.121333 61.419346  0.462975 0.792119 -0.397745  0.298429 0.540159 0
0  -4.527653 16.831215 70.125046  0.462975 0.792119 -0.397745  0.298429 0.540159 0
0  -5.451508 13.198339 61.814709  0.462975 0.792119 -0.397745  0.298429 0.540159 0
painted_wood_01
0  -10.371796 12.682323 71.941689  -0.003744 -0.862617 0.505843  0.298429 0.540159 0
0  -7.634211 9.787906 67.026512  -0.003779 -0.862580 0.505906  0.298429 0.540159 0
0  -8.452950 11.759327 72.337059  -0.003760 -0.862600 0.505872  0.298429 0.540159 0
gold_player
0  -8.211290 12.230281 60.667789  0.302443 0.232839 -0.924291  -0.312931 1.645782 0
0  -5.451508 13.198339 61.814709  0.302443 0.232839 -0.924291  -0.441298 1.440874 0
0  -6.292448 11.307284 61.063160  0.302443 0.232839 -0.924291  -0.233861 1.478761 0
gold_player
0  -6.292448 11.307284 61.063160  0.922898 -0.334877 -0.190046  -0.295113 1.398249 0
0  -5.264883 12.865579 63.307354  0.922898 -0.334877 -0.190046  -0.529061 1.391064 0
0  -5.897882 11.442128 62.741634  0.922898 -0.334877 -0.190046  -0.365253 1.373116 0
gold_player
0  -8.452950 11.759327 72.337059  0.462323 -0.805661 0.370362  1.937990 -0.706488 0
0  -6.907867 10.298448 67.230431  0.462323 -0.805661 0.370362  1.839383 -0.142650 0
0  -7.524157 11.782393 71.227821  0.462323 -0.805661 0.370362  1.874075 -0.590317 0
gold_player
0  -7.634211 9.787906 67.026512  0.587191 -0.806126 -0.073271  1.855730 -0.179404 0
0  -5.897882 11.442128 62.741634  0.587191 -0.806126 -0.073271  1.840041 0.313098 0
0  -6.907867 10.298448 67.230431  0.587191 -0.806126 -0.073271  1.813582 -0.174012 0
gold_player
0  -5.451508 13.198339 61.814709  0.992620 0.020843 -0.119460  -0.545392 0.329031 0
0  -4.569473 15.600147 69.562775  0.992620 0.020843 -0.119460  -0.668491 -0.322389 0
0  -5.264883 12.865579 63.307354  0.992620 0.020843 -0.119460  -0.529227 0.232365 0
gold_player
0  -4.527653 16.831215 70.125046  0.832644 -0.253237 0.492520  -0.543765 -1.044556 0
0  -6.859318 13.359480 72.281845  0.832644 -0.253237 0.492520  -0.529309 -1.137797 0
0  -4.569473 15.600147 69.562775  0.832644 -0.253237 0.492520  -0.497292 -1.050221 0
gold_player
0  -7.569712 13.854488 73.737328  0.619654 -0.599664 0.506391  -0.328371 -0.769856 0
0  -7.524157 11.782393 71.227821  0.619654 -0.599664 0.506391  -0.033947 -0.730052 0
0  -6.859318 13.359480 72.281845  0.619654 -0.599664 0.506391  -0.216350 -0.726539 0
black.001
0  -7.524157 11.782393 71.227821  0.865128 -0.467117 0.182635  2.646999 -0.491638 0
0  -6.907867 10.298448 67.230431  0.865126 -0.467121 0.182633  3.353564 0.158116 0
0  -4.569473 15.600147 69.562775  0.865123 -0.467127 0.182631  0.249621 -0.239198 0
gold_player
0  -20.270445 11.101173 49.237148  0.171095 0.925217 -0.338675  0.000000 0.000000 0
0  -28.589649 13.597291 42.528229  0.171094 0.925221 -0.338665  0.000000 0.000000 0
0  -29.089903 15.278824 46.374504  0.171094 0.925213 -0.338684  0.000000 0.000000 0
gold_player
0  -28.589649 13.597291 42.528229  0.170964 0.925317 -0.338466  0.000000 0.000000 0
0  -36.908855 16.093409 35.819305  0.170991 0.925308 -0.338477  0.000000 0.000000 0
0  -37.355610 16.360670 40.270580  0.170965 0.925317 -0.338466  0.000000 0.000000 0
gold_player
0  -29.089903 15.278824 46.374504  0.171085 0.925217 -0.338679  0.000000 0.000000 0
0  -28.589649 13.597291 42.528229  0.171080 0.925197 -0.338735  0.000000 0.000000 0
0  -37.355610 16.360670 40.270580  0.171084 0.925215 -0.338685  0.000000 0.000000 0
gold_player
0  -40.780884 17.475607 32.170708  0.170849 0.925171 -0.338924  0.000000 0.000000 0
0  -44.652912 18.857807 28.522106  0.170984 0.925162 -0.338880  0.000000 0.000000 0
0  -45.720741 17.847181 30.449430  0.170893 0.925168 -0.338909  0.000000 0.000000 0
gold_player
0  -36.908855 16.093409 35.819305  0.170895 0.925252 -0.338679  0.000000 0.000000 0
0  -40.780884 17.475607 32.170708  0.170868 0.925256 -0.338682  0.000000 0.000000 0
0  -42.072090 16.598612 36.323669  0.170876 0.925255 -0.338681  0.000000 0.000000 0
gold_player
0  -40.780884 17.475607 32.170708  0.170907 0.925167 -0.338905  0.000000 0.000000 0
0  -45.720741 17.847181 30.449430  0.170946 0.925164 -0.338893  0.000000 0.000000 0
0  -46.788570 16.836555 32.376755  0.170904 0.925167 -0.338906  0.000000 0.000000 0
gold_player
0  -42.072090 16.598612 36.323669  0.170817 0.925246 -0.338734  0.000000 0.000000 0
0  -40.780884 17.475607 32.170708  0.170893 0.925247 -0.338694  0.000000 0.000000 0
0  -46.788570 16.836555 32.376755  0.170843 0.925246 -0.338721  0.000000 0.000000 0
gold_player
0  -42.072090 16.598612 36.323669  0.170786 0.925348 -0.338471  0.000000 0.000000 0
0  -37.355610 16.360670 40.270580  0.170791 0.925348 -0.338470  0.000000 0.000000 0
0  -36.908855 16.093409 35.819305  0.170815 0.925346 -0.338463  0.000000 0.000000 0
gold_player
0  -29.089903 15.278824 46.374504  0.170855 0.925245 -0.338719  0.000000 0.000000 0
0  -20.824196 14.196979 52.478424  0.170865 0.925247 -0.338707  0.000000 0.000000 0
0  -20.270445 11.101173 49.237148  0.170941 0.925267 -0.338615  0.000000 0.000000 0
gold_player
0  -20.824196 14.196979 52.478424  0.171000 0.925173 -0.338841  0.000000 0.000000 0
0  -15.913757 13.734756 54.743217  0.170977 0.925172 -0.338855  0.000000 0.000000 0
0  -20.270445 11.101173 49.237148  0.171009 0.925174 -0.338836  0.000000 0.000000 0
gold_player
0  -15.913757 13.734756 54.743217  0.170988 0.925175 -0.338844  0.000000 0.000000 0
0  -11.003320 13.272536 57.008007  0.170998 0.925176 -0.338836  0.000000 0.000000 0
0  -14.269634 10.509974 50.528408  0.170987 0.925175 -0.338845  0.000000 0.000000 0
gold_player
0  -11.003320 13.272536 57.008007  0.170850 0.925183 -0.338889  0.000000 0.000000 0
0  -9.188618 13.261563 57.598183  0.170848 0.925184 -0.338890  0.000000 0.000000 0
0  -8.268824 9.918773 51.819668  0.170845 0.925184 -0.338890  0.000000 0.000000 0
gold_player
0  -14.269634 10.509974 50.528408  0.170891 0.925177 -0.338887  0.000000 0.000000 0
0  -11.003320 13.272536 57.008007  0.170877 0.925178 -0.338890  0.000000 0.000000 0
0  -8.268824 9.918773 51.819668  0.170880 0.925178 -0.338889  0.000000 0.000000 0
gold_player
0  -9.188618 13.261563 57.598183  0.170930 0.925160 -0.338912  0.000000 0.000000 0
0  -7.373915 13.250590 58.188358  0.170966 0.925159 -0.338898  0.000000 0.000000 0
0  -5.368429 14.361264 56.463696  0.170900 0.925161 -0.338924  0.000000 0.000000 0
gold_player
0  -5.368429 14.361264 56.463696  0.170834 0.925260 -0.338689  0.000000 0.000000 0
0  -3.362944 15.471939 54.739033  0.170830 0.925263 -0.338681  0.000000 0.000000 0
0  -3.358773 13.507700 53.036423  0.170820 0.925273 -0.338659  0.000000 0.000000 0
gold_player
0  -3.358773 13.507700 53.036423  0.171071 0.925262 -0.338564  0.000000 0.000000 0
0  -3.354603 11.543461 51.333817  0.171076 0.925257 -0.338574  0.000000 0.000000 0
0  -4.960615 10.622146 51.717968  0.170961 0.925335 -0.338418  0.000000 0.000000 0
gold_player
0  -3.358773 13.507700 53.036423  0.171072 0.925264 -0.338556  0.000000 0.000000 0
0  -4.960615 10.622146 51.717968  0.171045 0.925282 -0.338521  0.000000 0.000000 0
0  -6.566628 9.700830 52.102119  0.171026 0.925293 -0.338499  0.000000 0.000000 0
gold_player
0  -9.188618 13.261563 57.598183  0.171056 0.925268 -0.338553  0.000000 0.000000 0
0  -5.368429 14.361264 56.463696  0.171078 0.925251 -0.338590  0.000000 0.000000 0
0  -7.417726 9.809801 51.960892  0.171042 0.925280 -0.338529  0.000000 0.000000 0
gold_player
0  -5.368429 14.361264 56.463696  0.171107 0.925221 -0.338657  0.000000 0.000000 0
0  -3.358773 13.507700 53.036423  0.171075 0.925258 -0.338573  0.000000 0.000000 0
0  -6.566628 9.700830 52.102119  0.171081 0.925250 -0.338590  0.000000 0.000000 0
gold_player
0  -9.188618 13.261563 57.598183  0.170877 0.925175 -0.338898  0.000000 0.000000 0
0  -7.417726 9.809801 51.960892  0.170892 0.925174 -0.338895  0.000000 0.000000 0
0  -8.268824 9.918773 51.819668  0.170892 0.925174 -0.338895  0.000000 0.000000 0
gold_player
0  -20.270445 11.101173 49.237148  0.170870 0.925179 -0.338892  0.000000 0.000000 0
0  -15.913757 13.734756 54.743217  0.170901 0.925175 -0.338886  0.000000 0.000000 0
0  -14.269634 10.509974 50.528408  0.170881 0.925178 -0.338890  0.000000 0.000000 0
gold_player
0  -23.489086 26.949884 74.762367  0.424135 0.596903 0.681041  -1.522172 -1.793799 0
0  -32.242332 33.985882 73.575127  0.424117 0.596915 0.681041  -1.964453 -2.382535 0
0  -32.547867 33.556274 74.613609  0.424136 0.596900 0.681042  -1.896720 -2.414035 0
gold_player
0  -27.259045 28.061480 70.492332  0.196670 0.637834 -0.744640  -3.220839 -1.005998 0
0  -34.440300 29.981960 71.272087  0.196676 0.637830 -0.744642  -3.969346 -1.193811 0
0  -34.004234 32.340828 72.376221  0.196698 0.637816 -0.744648  -3.983524 -1.390444 0
gold_player
0  -23.489086 26.949884 74.762367  -0.256860 -0.074516 0.963572  -303267.375000 -1093206.500000 0
0  -24.974482 31.814743 75.344337  -0.256856 -0.074518 0.963573  1981324.750000 7142264.500000 0
0  -34.004234 32.340828 72.376221  -0.256854 -0.074519 0.963573  -2648698.250000 -9547984.000000 0
gold_player
0  -34.745842 29.552355 72.310600  -0.950739 0.256939 -0.173429  -2.623693 1.895274 0
0  -34.309769 31.911221 73.414711  -0.950739 0.256939 -0.173429  -2.915900 1.988726 0
0  -34.004234 32.340828 72.376221  -0.950739 0.256939 -0.173429  -2.968188 1.891095 0
gold_player
0  -34.309769 31.911221 73.414711  -0.709132 0.700395 0.081105  -2.411629 0.804373 0
0  -32.547867 33.556274 74.613609  -0.709132 0.700395 0.081105  -2.678486 0.897920 0
0  -32.242332 33.985882 73.575127  -0.709132 0.700395 0.081105  -2.751538 0.839032 0
black.001
0  -5.897882 11.442128 62.741634  0.865181 -0.467079 0.182478  2.786426 0.843441 0
0  -5.264883 12.865579 63.307354  0.865179 -0.467084 0.182475  1.948023 0.746919 0
0  -6.907867 10.298448 67.230431  0.865185 -0.467072 0.182481  3.353564 0.158116 0
black.001
0  -5.264883 12.865579 63.307354  0.865187 -0.467078 0.182454  1.948023 0.746919 0
0  -4.569473 15.600147 69.562775  0.865192 -0.467068 0.182459  0.249621 -0.239198 0
0  -6.907867 10.298448 67.230431  0.865188 -0.467077 0.182454  3.353564 0.158116 0
black.001
0  -4.569473 15.600147 69.562775  0.865125 -0.467140 0.182589  0.249621 -0.239198 0
0  -6.859318 13.359480 72.281845  0.865125 -0.467142 0.182588  1.713737 -0.665190 0
0  -7.524157 11.782393 71.227821  0.865127 -0.467134 0.182594  2.646999 -0.491638 0
c_invasion_wrangler_laser
0  40.780884 17.475607 32.170708  -0.421195 -0.272149 -0.865176  0.000000 0.000000 0
0  28.822845 30.904278 32.439152  -0.421198 -0.272147 -0.865175  0.000000 0.000000 0
0  44.652912 18.857807 28.522106  -0.421201 -0.272144 -0.865175  0.000000 0.000000 0
painted_wood_01
0  46.328308 13.896694 30.464865  0.692259 -0.217508 0.688090  0.298429 0.540159 0
0  46.788570 16.836555 32.376755  0.692264 -0.217509 0.688085  0.298429 0.540159 0
0  42.072090 16.598612 36.323669  0.692255 -0.217507 0.688095  0.298429 0.540159 0
painted_wood_01
0  40.780884 17.475607 32.170708  -0.498660 -0.589830 -0.635168  0.298429 0.540159 0
0  46.328308 13.896694 30.464865  -0.498661 -0.589827 -0.635171  0.298429 0.540159 0
0  37.245232 12.205578 40.514442  -0.498660 -0.589830 -0.635168  0.298429 0.540159 0
c_invasion_wrangler_laser
0  28.822845 30.904278 32.439152  -0.384990 -0.494653 -0.779167  0.000000 0.000000 0
0  36.908855 16.093409 35.819305  -0.384993 -0.494661 -0.779160  0.000000 0.000000 0
0  28.589649 13.597291 42.528229  -0.384996 -0.494668 -0.779154  0.000000 0.000000 0
painted_wood_01
0  15.913757 13.734756 54.743217  0.392764 -0.030648 0.919128  0.298429 0.540159 0
0  11.775143 7.853165 56.133884  0.392764 -0.030647 0.919128  0.298429 0.540159 0
0  21.729578 9.513700 52.298977  0.392764 -0.030648 0.919128  0.298429 0.540159 0
painted_wood_01
0  28.589649 13.597291 42.528229  -0.218256 -0.820369 -0.528544  0.298429 0.540159 0
0  37.245232 12.205578 40.514442  -0.218256 -0.820369 -0.528545  0.298429 0.540159 0
0  21.729578 9.513700 52.298977  -0.218255 -0.820371 -0.528542  0.298429 0.540159 0
c_invasion_wrangler_laser
0  5.440245 25.043697 46.400433  0.261133 0.726521 0.635592  0.000000 0.000000 0
0  11.003320 13.272536 57.008007  0.261133 0.726521 0.635591  0.000000 0.000000 0
0  15.913757 13.734756 54.743217  0.261133 0.726521 0.635592  0.000000 0.000000 0
gold_player
0  44.652912 18.857807 28.522106  -0.461220 -0.396487 -0.793772  3.441954 4.155121 0
0  48.831146 13.038713 29.000862  -0.461224 -0.396480 -0.793773  3.876100 3.780605 0
0  46.328308 13.896694 30.464865  -0.461229 -0.396474 -0.793773  3.773409 3.719884 0
c_invasion_wrangler_laser
0  42.072090 16.598612 36.323669  0.376302 0.477107 0.794208  0.000000 0.000000 0
0  48.118973 33.451916 24.902870  0.376302 0.477107 0.794208  0.000000 0.000000 0
0  28.822845 30.904278 32.439152  0.376303 0.477099 0.794211  0.000000 0.000000 0
c_invasion_wrangler_laser
0  14.269634 10.509974 50.528408  -0.256059 -0.446748 -0.857234  0.000000 0.000000 0
0  5.440245 25.043697 46.400433  -0.256061 -0.446745 -0.857235  0.000000 0.000000 0
0  9.494507 26.011047 43.067265  -0.256062 -0.446743 -0.857236  0.000000 0.000000 0
painted_wood_01
0  11.775143 7.853165 56.133884  -0.011466 -0.899115 -0.437563  0.298429 0.540159 0
0  8.268824 9.918773 51.819668  -0.011468 -0.899115 -0.437562  0.298429 0.540159 0
0  14.269634 10.509974 50.528408  -0.011466 -0.899115 -0.437563  0.298429 0.540159 0
c_invasion_wrangler_laser
0  29.089903 15.278824 46.374504  0.300264 0.670251 0.678680  0.000000 0.000000 0
0  28.822845 30.904278 32.439152  0.300268 0.670245 0.678683  0.000000 0.000000 0
0  9.494507 26.011047 43.067265  0.300268 0.670245 0.678683  0.000000 0.000000 0
painted_wood_01
0  29.089903 15.278824 46.374504  0.592526 0.059152 0.803376  0.298429 0.540159 0
0  21.729578 9.513700 52.298977  0.592526 0.059151 0.803376  0.298429 0.540159 0
0  37.245232 12.205578 40.514442  0.592526 0.059152 0.803376  0.298429 0.540159 0
gold_player
0  46.328308 13.896694 30.464865  0.500322 -0.409222 0.763031  -0.003852 -3.318090 0
0  50.903370 16.067690 28.629309  0.500322 -0.409221 0.763031  -0.189926 -3.531826 0
0  46.788570 16.836555 32.376755  0.500331 -0.409217 0.763027  -0.177036 -3.305247 0
painted_wood_01
0  8.725719 6.002857 57.998249  0.120244 -0.834473 -0.537769  0.298429 0.540159 0
0  6.566628 9.700830 52.102119  0.120244 -0.834470 -0.537775  0.298429 0.540159 0
0  7.417726 9.809801 51.960892  0.120244 -0.834468 -0.537777  0.298429 0.540159 0
c_invasion_wrangler_laser
0  8.268824 9.918773 51.819668  -0.023047 -0.349785 -0.936547  0.000000 0.000000 0
0  7.417726 9.809801 51.960892  -0.023058 -0.349780 -0.936548  0.000000 0.000000 0
0  4.960615 10.622146 51.717968  -0.023050 -0.349782 -0.936547  0.000000 0.000000 0
painted_wood_01
0  9.188618 13.261563 57.598183  0.416355 -0.006579 0.909178  0.298429 0.540159 0
0  8.725719 6.002857 57.998249  0.416357 -0.006593 0.909177  0.298429 0.540159 0
0  11.775143 7.853165 56.133884  0.416355 -0.006579 0.909179  0.298429 0.540159 0
painted_wood_01
0  5.368429 14.361264 56.463696  -0.642778 -0.102726 0.759133  0.298429 0.540159 0
0  3.362944 15.471939 54.739033  -0.642778 -0.102726 0.759133  0.298429 0.540159 0
0  4.004126 8.125338 54.641491  -0.642782 -0.102731 0.759130  0.298429 0.540159 0
painted_wood_01
0  4.004126 8.125338 54.641491  -0.093171 -0.801206 -0.591091  0.298429 0.540159 0
0  4.960615 10.622146 51.717968  -0.093156 -0.801196 -0.591106  0.298429 0.540159 0
0  6.566628 9.700830 52.102119  -0.093155 -0.801196 -0.591107  0.298429 0.540159 0
c_invasion_wrangler_laser
0  5.368429 14.361264 56.463696  -0.006823 0.706401 0.707779  0.000000 0.000000 0
0  11.003320 13.272536 57.008007  -0.006839 0.706405 0.707775  0.000000 0.000000 0
0  3.362944 15.471939 54.739033  -0.006840 0.706406 0.707773  0.000000 0.000000 0
gold_player
0  6.566628 9.700830 52.102119  -0.170914 0.925245 -0.338690  0.000000 0.000000 0
0  5.368429 14.361264 56.463696  -0.170897 0.925247 -0.338693  0.000000 0.000000 0
0  7.417726 9.809801 51.960892  -0.170864 0.925251 -0.338696  0.000000 0.000000 0
painted_wood_01
0  3.354603 11.543461 51.333817  0.075015 -0.000134 0.997182  0.298429 0.540159 0
0  3.362944 15.471939 54.739033  0.198936 -0.000375 0.980013  0.298429 0.540159 0
0  3.358773 13.507700 53.036423  0.137244 -0.000258 0.990537  0.298429 0.540159 0
c_invasion_wrangler_laser
0  5.440245 25.043697 46.400433  -0.986654 0.107845 -0.122000  0.000000 0.000000 0
0  3.358773 13.507700 53.036423  -0.986654 0.107845 -0.122000  0.000000 0.000000 0
0  3.362944 15.471939 54.739033  -0.986654 0.107845 -0.122000  0.000000 0.000000 0
gold_player
0  52.391792 27.253431 22.333591  0.987142 -0.154478 -0.041086  -12.808151 3.228555 0
0  50.903370 16.067690 28.629309  0.987142 -0.154478 -0.041086  -9.438991 2.895647 0
0  50.900394 16.630054 26.443401  0.987142 -0.154478 -0.041086  -9.521410 3.032341 0
gold_player
0  48.831146 13.038713 29.000862  0.807706 -0.570726 -0.147928  -0.320075 9.673038 0
0  50.900394 16.630054 26.443401  0.807706 -0.570726 -0.147928  -0.435161 11.007252 0
0  50.903370 16.067690 28.629309  0.807706 -0.570726 -0.147928  -0.393049 9.893789 0
gold_player
0  46.788570 16.836555 32.376755  0.707766 0.254620 0.658965  -3.050128 4.016712 0
0  52.391792 27.253431 22.333591  0.707766 0.254620 0.658966  -2.797620 5.471533 0
0  48.118973 33.451916 24.902870  0.707766 0.254619 0.658966  -2.332964 5.510339 0
gold_player
0  48.118973 33.451916 24.902870  -0.503856 -0.161029 -0.848645  -2.141698 4.734364 0
0  50.900394 16.630054 26.443401  -0.503858 -0.161022 -0.848646  -0.960896 4.948784 0
0  44.652912 18.857807 28.522106  -0.503855 -0.161035 -0.848644  -0.950574 4.597000 0
gold_player
0  48.118973 33.451916 24.902870  -0.746573 0.321728 0.582340  0.000000 0.000000 0
0  45.720741 17.847181 30.449430  -0.746573 0.321728 0.582340  0.000000 0.000000 0
0  46.788570 16.836555 32.376755  -0.746573 0.321728 0.582340  0.000000 0.000000 0
painted_wood_01
0  9.488556 14.777483 73.341957  -0.399947 0.260235 0.878817  0.298429 0.540159 0
0  24.974482 31.814743 75.344337  -0.399937 0.260246 0.878819  0.298429 0.540159 0
0  6.446497 17.754208 69.729675  -0.399940 0.260243 0.878818  0.298429 0.540159 0
painted_wood_01
0  6.446497 17.754208 69.729675  -0.363191 0.771964 -0.521693  0.298429 0.540159 0
0  27.259045 28.061480 70.492332  -0.363197 0.771961 -0.521693  0.298429 0.540159 0
0  7.370350 14.121333 61.419346  -0.363196 0.771962 -0.521693  0.298429 0.540159 0
painted_wood_01
0  27.752537 27.112703 70.953491  0.227388 0.180126 -0.957000  0.298429 0.540159 0
0  34.309769 31.911221 73.414711  0.227397 0.180132 -0.956997  0.298429 0.540159 0
0  30.762156 22.000561 69.942703  0.227381 0.180120 -0.957003  0.298429 0.540159 0
gold_player
0  23.489086 26.949884 74.762367  -0.423930 0.596672 0.681371  -1.522172 -1.793799 0
0  23.832930 26.288811 75.083672  -0.423953 0.596655 0.681371  -1.474412 -1.809136 0
0  32.547867 33.556274 74.613609  -0.423946 0.596661 0.681370  -1.896720 -2.414035 0
gold_player
0  7.370350 14.121333 61.419346  0.287950 0.230400 -0.929517  -0.363197 1.633885 0
0  27.752537 27.112703 70.953491  0.287960 0.230406 -0.929512  -1.872487 3.671999 0
0  8.211290 12.230281 60.667789  0.287944 0.230396 -0.929519  -0.141949 1.678676 0
gold_player
0  10.371796 12.682323 71.941689  0.133739 -0.309103 0.941578  -0.193015 -0.978127 0
0  23.489086 26.949884 74.762367  0.133751 -0.309090 0.941581  -1.628578 -1.843102 0
0  9.488556 14.777483 73.341957  0.133733 -0.309109 0.941577  -0.430105 -0.931283 0
painted_wood_01
0  10.863907 7.774724 65.524628  0.348991 -0.611221 0.710362  0.298429 0.540159 0
0  23.832930 26.288811 75.083672  0.348980 -0.611237 0.710353  0.298429 0.540159 0
0  10.371796 12.682323 71.941689  0.348979 -0.611238 0.710353  0.298429 0.540159 0
painted_wood_01
0  8.211290 12.230281 60.667789  0.419611 -0.113677 -0.900558  0.298429 0.540159 0
0  30.762156 22.000561 69.942703  0.419664 -0.113654 -0.900536  0.298429 0.540159 0
0  10.863907 7.774724 65.524628  0.419612 -0.113677 -0.900557  0.298429 0.540159 0
gold_player
0  34.745842 29.552355 72.310600  0.950740 0.256935 -0.173430  -2.623693 1.895274 0
0  34.440300 29.981960 71.272087  0.950740 0.256935 -0.173430  -2.675982 1.797641 0
0  34.004234 32.340828 72.376221  0.950740 0.256935 -0.173430  -2.968188 1.891095 0
gold_player
0  34.309769 31.911221 73.414711  0.709134 0.700393 0.081106  -2.411629 0.804373 0
0  34.004234 32.340828 72.376221  0.709134 0.700393 0.081106  -2.484681 0.745485 0
0  32.242332 33.985882 73.575127  0.709134 0.700393 0.081106  -2.751538 0.839032 0
gold_player
0  27.259045 28.061480 70.492332  -0.196902 0.638068 -0.744378  -3.220839 -1.005998 0
0  24.974482 31.814743 75.344337  -0.196925 0.638054 -0.744384  -3.085077 -1.467398 0
0  34.004234 32.340828 72.376221  -0.196916 0.638059 -0.744382  -3.983524 -1.390444 0
painted_wood_01
0  30.762156 22.000561 69.942703  0.348352 -0.397049 0.849119  0.298429 0.540159 0
0  32.547867 33.556274 74.613609  0.348352 -0.397049 0.849119  0.298429 0.540159 0
0  23.832930 26.288811 75.083672  0.348352 -0.397050 0.849119  0.298429 0.540159 0
gold_player
0  27.259045 28.061480 70.492332  0.299596 -0.617521 -0.727262  -1.589647 3.470214 0
0  34.745842 29.552355 72.310600  0.299628 -0.617515 -0.727254  -1.678492 4.133949 0
0  27.752537 27.112703 70.953491  0.299612 -0.617518 -0.727258  -1.507813 3.528608 0
gold_player
0  23.489086 26.949884 74.762367  0.256774 -0.074361 0.963606  -303267.375000 -1093206.500000 0
0  32.242332 33.985882 73.575127  0.256788 -0.074351 0.963603  -8549915.000000 -30820622.000000 0
0  34.004234 32.340828 72.376221  0.256774 -0.074357 0.963607  -2648698.250000 -9547984.000000 0
painted_wood_01
0  6.446497 17.754208 69.729675  -0.180135 0.679256 0.711451  0.298429 0.540159 0
0  7.569712 13.854488 73.737328  -0.180135 0.679256 0.711451  0.298429 0.540159 0
0  9.488556 14.777483 73.341957  -0.180135 0.679256 0.711451  0.298429 0.540159 0
gold_player
0  9.488556 14.777483 73.341957  0.367271 -0.404830 0.837392  -0.453286 -0.958055 0
0  8.452950 11.759327 72.337059  0.367271 -0.404830 0.837392  -0.157880 -0.874204 0
0  10.371796 12.682323 71.941689  0.367271 -0.404830 0.837392  -0.218226 -1.002372 0
painted_wood_01
0  10.863907 7.774724 65.524628  -0.319683 -0.874450 -0.364884  0.298429 0.540159 0
0  6.292448 11.307284 61.063160  -0.319689 -0.874446 -0.364889  0.298429 0.540159 0
0  8.211290 12.230281 60.667789  -0.319643 -0.874481 -0.364845  0.298429 0.540159 0
painted_wood_01
0  7.370350 14.121333 61.419346  -0.462975 0.792120 -0.397745  0.298429 0.540159 0
0  4.527653 16.831215 70.125046  -0.462975 0.792120 -0.397745  0.298429 0.540159 0
0  6.446497 17.754208 69.729675  -0.462975 0.792120 -0.397745  0.298429 0.540159 0
painted_wood_01
0  10.371796 12.682323 71.941689  0.003707 -0.862587 0.505895  0.298429 0.540159 0
0  7.634211 9.787906 67.026512  0.003701 -0.862594 0.505883  0.298429 0.540159 0
0  10.863907 7.774724 65.524628  0.003695 -0.862600 0.505873  0.298429 0.540159 0
gold_player
0  8.211290 12.230281 60.667789  -0.302443 0.232843 -0.924290  -0.312931 1.645782 0
0  5.451508 13.198339 61.814709  -0.302443 0.232843 -0.924290  -0.441298 1.440874 0
0  7.370350 14.121333 61.419346  -0.302443 0.232843 -0.924290  -0.520368 1.607895 0
gold_player
0  6.292448 11.307284 61.063160  -0.922898 -0.334878 -0.190045  -0.295113 1.398249 0
0  5.264883 12.865579 63.307354  -0.922898 -0.334878 -0.190045  -0.529061 1.391064 0
0  5.451508 13.198339 61.814709  -0.922898 -0.334878 -0.190045  -0.512731 1.422093 0
gold_player
0  8.452950 11.759327 72.337059  -0.462315 -0.805666 0.370361  1.937990 -0.706488 0
0  6.907867 10.298448 67.230431  -0.462315 -0.805666 0.370361  1.839383 -0.142650 0
0  7.634211 9.787906 67.026512  -0.462315 -0.805666 0.370361  1.891900 -0.111761 0
gold_player
0  7.634211 9.787906 67.026512  -0.587189 -0.806127 -0.073271  1.855730 -0.179404 0
0  5.897882 11.442128 62.741634  -0.587189 -0.806127 -0.073271  1.840041 0.313098 0
0  6.292448 11.307284 61.063160  -0.587189 -0.806127 -0.073271  1.890880 0.467719 0
gold_player
0  5.451508 13.198339 61.814709  -0.992620 0.020841 -0.119459  -0.545392 0.329031 0
0  4.569473 15.600147 69.562775  -0.992620 0.020841 -0.119459  -0.668491 -0.322389 0
0  4.527653 16.831215 70.125046  -0.992620 0.020841 -0.119459  -0.730405 -0.407961 0
gold_player
0  4.527653 16.831215 70.125046  -0.832641 -0.253237 0.492524  -0.543765 -1.044556 0
0  6.859318 13.359480 72.281845  -0.832641 -0.253237 0.492524  -0.529309 -1.137797 0
0  7.569712 13.854488 73.737328  -0.832641 -0.253237 0.492524  -0.586300 -1.160901 0
gold_player
0  7.569712 13.854488 73.737328  -0.619658 -0.599662 0.506388  -0.328371 -0.769856 0
0  7.524157 11.782393 71.227821  -0.619658 -0.599662 0.506388  -0.033947 -0.730052 0
0  8.452950 11.759327 72.337059  -0.619658 -0.599662 0.506388  -0.086049 -0.774523 0
black.001
0  7.524157 11.782393 71.227821  -0.865108 -0.467138 0.182675  2.646999 -0.491638 0
0  4.569473 15.600147 69.562775  -0.865106 -0.467144 0.182673  0.249621 -0.239198 0
0  6.907867 10.298448 67.230431  -0.865110 -0.467133 0.182677  3.353564 0.158116 0
gold_player
0  20.270445 11.101173 49.237148  -0.171142 0.925213 -0.338662  0.000000 0.000000 0
0  29.089903 15.278824 46.374504  -0.171142 0.925205 -0.338684  0.000000 0.000000 0
0  28.589649 13.597291 42.528229  -0.171141 0.925218 -0.338648  0.000000 0.000000 0
gold_player
0  28.589649 13.597291 42.528229  -0.170977 0.925331 -0.338421  0.000000 0.000000 0
0  37.355610 16.360670 40.270580  -0.170975 0.925332 -0.338420  0.000000 0.000000 0
0  36.908855 16.093409 35.819305  -0.171009 0.925321 -0.338434  0.000000 0.000000 0
gold_player
0  29.089903 15.278824 46.374504  -0.171132 0.925211 -0.338672  0.000000 0.000000 0
0  37.355610 16.360670 40.270580  -0.171132 0.925208 -0.338681  0.000000 0.000000 0
0  28.589649 13.597291 42.528229  -0.171128 0.925191 -0.338728  0.000000 0.000000 0
gold_player
0  40.780884 17.475607 32.170708  -0.170849 0.925154 -0.338970  0.000000 0.000000 0
0  45.720741 17.847181 30.449430  -0.170932 0.925149 -0.338943  0.000000 0.000000 0
0  44.652912 18.857807 28.522106  -0.170968 0.925146 -0.338932  0.000000 0.000000 0
gold_player
0  36.908855 16.093409 35.819305  -0.170915 0.925249 -0.338677  0.000000 0.000000 0
0  42.072090 16.598612 36.323669  -0.170937 0.925246 -0.338675  0.000000 0.000000 0
0  40.780884 17.475607 32.170708  -0.170852 0.925258 -0.338683  0.000000 0.000000 0
gold_player
0  40.780884 17.475607 32.170708  -0.170900 0.925151 -0.338954  0.000000 0.000000 0
0  46.788570 16.836555 32.376755  -0.170906 0.925150 -0.338952  0.000000 0.000000 0
0  45.720741 17.847181 30.449430  -0.170933 0.925148 -0.338944  0.000000 0.000000 0
gold_player
0  42.072090 16.598612 36.323669  -0.170796 0.925246 -0.338746  0.000000 0.000000 0
0  46.788570 16.836555 32.376755  -0.170865 0.925247 -0.338709  0.000000 0.000000 0
0  40.780884 17.475607 32.170708  -0.170871 0.925247 -0.338706  0.000000 0.000000 0
gold_player
0  42.072090 16.598612 36.323669  -0.170787 0.925365 -0.338424  0.000000 0.000000 0
0  36.908855 16.093409 35.819305  -0.170804 0.925364 -0.338419  0.000000 0.000000 0
0  37.355610 16.360670 40.270580  -0.170781 0.925366 -0.338426  0.000000 0.000000 0
gold_player
0  29.089903 15.278824 46.374504  -0.170861 0.925246 -0.338712  0.000000 0.000000 0
0  20.270445 11.101173 49.237148  -0.170914 0.925260 -0.338648  0.000000 0.000000 0
0  20.824196 14.196979 52.478424  -0.170871 0.925249 -0.338700  0.000000 0.000000 0
gold_player
0  20.824196 14.196979 52.478424  -0.171035 0.925156 -0.338871  0.000000 0.000000 0
0  20.270445 11.101173 49.237148  -0.171018 0.925155 -0.338882  0.000000 0.000000 0
0  15.913757 13.734756 54.743217  -0.170991 0.925154 -0.338899  0.000000 0.000000 0
gold_player
0  15.913757 13.734756 54.743217  -0.171016 0.925157 -0.338878  0.000000 0.000000 0
0  14.269634 10.509974 50.528408  -0.171006 0.925156 -0.338886  0.000000 0.000000 0
0  11.003320 13.272536 57.008007  -0.171018 0.925157 -0.338877  0.000000 0.000000 0
gold_player
0  11.003320 13.272536 57.008007  -0.170844 0.925168 -0.338935  0.000000 0.000000 0
0  8.268824 9.918773 51.819668  -0.170849 0.925167 -0.338935  0.000000 0.000000 0
0  9.188618 13.261563 57.598183  -0.170862 0.925165 -0.338935  0.000000 0.000000 0
gold_player
0  14.269634 10.509974 50.528408  -0.170896 0.925159 -0.338932  0.000000 0.000000 0
0  8.268824 9.918773 51.819668  -0.170890 0.925160 -0.338933  0.000000 0.000000 0
0  11.003320 13.272536 57.008007  -0.170877 0.925162 -0.338935  0.000000 0.000000 0
gold_player
0  9.188618 13.261563 57.598183  -0.170970 0.925141 -0.338944  0.000000 0.000000 0
0  5.368429 14.361264 56.463696  -0.170897 0.925144 -0.338973  0.000000 0.000000 0
0  7.373915 13.250590 58.188358  -0.170912 0.925144 -0.338967  0.000000 0.000000 0
gold_player
0  5.368429 14.361264 56.463696  -0.170821 0.925273 -0.338660  0.000000 0.000000 0
0  3.358773 13.507700 53.036423  -0.170805 0.925288 -0.338627  0.000000 0.000000 0
0  3.362944 15.471939 54.739033  -0.170797 0.925296 -0.338609  0.000000 0.000000 0
gold_player
0  3.358773 13.507700 53.036423  -0.171107 0.925266 -0.338533  0.000000 0.000000 0
0  4.960615 10.622146 51.717968  -0.171032 0.925317 -0.338432  0.000000 0.000000 0
0  3.354603 11.543461 51.333817  -0.171110 0.925264 -0.338539  0.000000 0.000000 0
gold_player
0  3.358773 13.507700 53.036423  -0.171130 0.925255 -0.338553  0.000000 0.000000 0
0  6.566628 9.700830 52.102119  -0.171085 0.925283 -0.338497  0.000000 0.000000 0
0  4.960615 10.622146 51.717968  -0.171052 0.925306 -0.338452  0.000000 0.000000 0
gold_player
0  9.188618 13.261563 57.598183  -0.171109 0.925260 -0.338549  0.000000 0.000000 0
0  7.417726 9.809801 51.960892  -0.171077 0.925287 -0.338493  0.000000 0.000000 0
0  5.368429 14.361264 56.463696  -0.171128 0.925245 -0.338580  0.000000 0.000000 0
gold_player
0  5.368429 14.361264 56.463696  -0.171144 0.925228 -0.338620  0.000000 0.000000 0
0  6.566628 9.700830 52.102119  -0.171116 0.925259 -0.338548  0.000000 0.000000 0
0  3.358773 13.507700 53.036423  -0.171119 0.925256 -0.338555  0.000000 0.000000 0
gold_player
0  9.188618 13.261563 57.598183  -0.170888 0.925157 -0.338941  0.000000 0.000000 0
0  8.268824 9.918773 51.819668  -0.170911 0.925155 -0.338937  0.000000 0.000000 0
0  7.417726 9.809801 51.960892  -0.170896 0.925156 -0.338940  0.000000 0.000000 0
gold_player
0  20.270445 11.101173 49.237148  -0.170867 0.925162 -0.338938  0.000000 0.000000 0
0  14.269634 10.509974 50.528408  -0.170885 0.925160 -0.338934  0.000000 0.000000 0
0  15.913757 13.734756 54.743217  -0.170903 0.925158 -0.338931  0.000000 0.000000 0
gold_player
0  23.489086 26.949884 74.762367  -0.424160 0.596924 0.681006  -1.522172 -1.793799 0
0  32.547867 33.556274 74.613609  -0.424160 0.596923 0.681008  -1.896720 -2.414035 0
0  32.242332 33.985882 73.575127  -0.424128 0.596947 0.681006  -1.964453 -2.382535 0
gold_player
0  27.259045 28.061480 70.492332  -0.196656 0.637800 -0.744673  -3.220839 -1.005998 0
0  34.004234 32.340828 72.376221  -0.196682 0.637782 -0.744681  -3.983524 -1.390444 0
0  34.440300 29.981960 71.272087  -0.196674 0.637787 -0.744679  -3.969346 -1.193811 0
gold_player
0  23.489086 26.949884 74.762367  0.256876 -0.074561 0.963564  -303267.375000 -1093206.500000 0
0  34.004234 32.340828 72.376221  0.256877 -0.074560 0.963564  -2648698.250000 -9547984.000000 0
0  24.974482 31.814743 75.344337  0.256871 -0.074563 0.963565  1981324.750000 7142264.500000 0
gold_player
0  34.745842 29.552355 72.310600  0.950739 0.256939 -0.173429  -2.623693 1.895274 0
0  34.004234 32.340828 72.376221  0.950739 0.256939 -0.173429  -2.968188 1.891095 0
0  34.309769 31.911221 73.414711  0.950739 0.256939 -0.173429  -2.915900 1.988726 0
gold_player
0  34.309769 31.911221 73.414711  0.709132 0.700395 0.081105  -2.411629 0.804373 0
0  32.242332 33.985882 73.575127  0.709132 0.700395 0.081105  -2.751538 0.839032 0
0  32.547867 33.556274 74.613609  0.709132 0.700395 0.081105  -2.678486 0.897920 0
black.001
0  5.897882 11.442128 62.741634  -0.865199 -0.467062 0.182436  2.786426 0.843441 0
0  6.907867 10.298448 67.230431  -0.865200 -0.467061 0.182437  3.353564 0.158116 0
0  5.264883 12.865579 63.307354  -0.865184 -0.467074 0.182480  1.948023 0.746919 0
black.001
0  5.264883 12.865579 63.307354  -0.865202 -0.467069 0.182408  1.948023 0.746919 0
0  6.907867 10.298448 67.230431  -0.865203 -0.467065 0.182410  3.353564 0.158116 0
0  4.569473 15.600147 69.562775  -0.865210 -0.467050 0.182418  0.249621 -0.239198 0
black.001
0  4.569473 15.600147 69.562775  -0.865106 -0.467161 0.182627  0.249621 -0.239198 0
0  7.524157 11.782393 71.227821  -0.865106 -0.467160 0.182629  2.646999 -0.491638 0
0  6.859318 13.359480 72.281845  -0.865108 -0.467155 0.182633  1.713737 -0.665190 0
c_invasion_wrangler_laser
0  -48.118973 33.451916 24.902870  0.421147 -0.272104 -0.865214  0.000000 0.000000 0
0  -28.822845 30.904278 32.439152  0.421153 -0.272099 -0.865212  0.000000 0.000000 0
0  -44.652912 18.857807 28.522106  0.421152 -0.272100 -0.865213  0.000000 0.000000 0
c_invasion_wrangler_laser
0  -28.822845 30.904278 32.439152  0.421199 -0.272145 -0.865175  0.000000 0.000000 0
0  -36.908855 16.093409 35.819305  0.421190 -0.272152 -0.865177  0.000000 0.000000 0
0  -40.780884 17.475607 32.170708  0.421185 -0.272156 -0.865179  0.000000 0.000000 0
painted_wood_01
0  -46.328308 13.896694 30.464865  -0.692267 -0.217744 0.688007  0.298429 0.540159 0
0  -37.245232 12.205578 40.514442  -0.692291 -0.217451 0.688076  0.298429 0.540159 0
0  -42.072090 16.598612 36.323669  -0.692291 -0.217443 0.688078  0.298429 0.540159 0
painted_wood_01
0  -37.245232 12.205578 40.514442  -0.692251 -0.217424 0.688124  0.298429 0.540159 0
0  -37.355610 16.360670 40.270580  -0.692269 -0.217415 0.688109  0.298429 0.540159 0
0  -42.072090 16.598612 36.323669  -0.692253 -0.217423 0.688123  0.298429 0.540159 0
painted_wood_01
0  -40.780884 17.475607 32.170708  0.498581 -0.589889 -0.635176  0.298429 0.540159 0
0  -36.908855 16.093409 35.819305  0.498581 -0.589889 -0.635176  0.298429 0.540159 0
0  -37.245232 12.205578 40.514442  0.498586 -0.589893 -0.635167  0.298429 0.540159 0
painted_wood_01
0  -37.245232 12.205578 40.514442  0.498660 -0.589830 -0.635168  0.298429 0.540159 0
0  -46.328308 13.896694 30.464865  0.498659 -0.589834 -0.635166  0.298429 0.540159 0
0  -40.780884 17.475607 32.170708  0.498660 -0.589830 -0.635168  0.298429 0.540159 0
c_invasion_wrangler_laser
0  -28.822845 30.904278 32.439152  0.384953 -0.494673 -0.779173  0.000000 0.000000 0
0  -9.494507 26.011047 43.067265  0.384950 -0.494677 -0.779171  0.000000 0.000000 0
0  -28.589649 13.597291 42.528229  0.384952 -0.494675 -0.779172  0.000000 0.000000 0
c_invasion_wrangler_laser
0  -9.494507 26.011047 43.067265  0.384969 -0.494708 -0.779142  0.000000 0.000000 0
0  -20.270445 11.101173 49.237148  0.384969 -0.494708 -0.779142  0.000000 0.000000 0
0  -28.589649 13.597291 42.528229  0.384961 -0.494711 -0.779144  0.000000 0.000000 0
painted_wood_01
0  -15.913757 13.734756 54.743217  -0.392765 -0.030639 0.919129  0.298429 0.540159 0
0  -20.824196 14.196979 52.478424  -0.392775 -0.030642 0.919124  0.298429 0.540159 0
0  -21.729578 9.513700 52.298977  -0.392777 -0.030643 0.919123  0.298429 0.540159 0
painted_wood_01
0  -21.729578 9.513700 52.298977  -0.392764 -0.030649 0.919128  0.298429 0.540159 0
0  -11.775143 7.853165 56.133884  -0.392764 -0.030649 0.919128  0.298429 0.540159 0
0  -15.913757 13.734756 54.743217  -0.392764 -0.030647 0.919129  0.298429 0.540159 0
painted_wood_01
0  -28.589649 13.597291 42.528229  0.218179 -0.820397 -0.528532  0.298429 0.540159 0
0  -20.270445 11.101173 49.237148  0.218182 -0.820399 -0.528529  0.298429 0.540159 0
0  -21.729578 9.513700 52.298977  0.218188 -0.820401 -0.528523  0.298429 0.540159 0
painted_wood_01
0  -21.729578 9.513700 52.298977  0.218256 -0.820368 -0.528546  0.298429 0.540159 0
0  -37.245232 12.205578 40.514442  0.218256 -0.820369 -0.528545  0.298429 0.540159 0
0  -28.589649 13.597291 42.528229  0.218256 -0.820370 -0.528544  0.298429 0.540159 0
c_invasion_wrangler_laser
0  -5.440245 25.043697 46.400433  -0.261151 0.726521 0.635585  0.000000 0.000000 0
0  -9.494507 26.011047 43.067265  -0.261148 0.726526 0.635580  0.000000 0.000000 0
0  -15.913757 13.734756 54.743217  -0.261151 0.726522 0.635584  0.000000 0.000000 0
c_invasion_wrangler_laser
0  -9.494507 26.011047 43.067265  -0.261138 0.726514 0.635597  0.000000 0.000000 0
0  -20.824196 14.196979 52.478424  -0.261138 0.726514 0.635598  0.000000 0.000000 0
0  -15.913757 13.734756 54.743217  -0.261138 0.726513 0.635598  0.000000 0.000000 0
gold_player
0  -44.652912 18.857807 28.522106  0.461233 -0.396468 -0.793774  3.441954 4.155121 0
0  -46.328308 13.896694 30.464865  0.461233 -0.396469 -0.793774  3.773409 3.719884 0
0  -48.831146 13.038713 29.000862  0.461228 -0.396475 -0.793773  3.876100 3.780605 0
c_invasion_wrangler_laser
0  -42.072090 16.598612 36.323669  -0.376388 0.477131 0.794153  0.000000 0.000000 0
0  -37.355610 16.360670 40.270580  -0.376369 0.477146 0.794153  0.000000 0.000000 0
0  -28.822845 30.904278 32.439152  -0.376375 0.477141 0.794153  0.000000 0.000000 0
c_invasion_wrangler_laser
0  -28.822845 30.904278 32.439152  -0.376303 0.477103 0.794210  0.000000 0.000000 0
0  -48.118973 33.451916 24.902870  -0.376302 0.477107 0.794208  0.000000 0.000000 0
0  -42.072090 16.598612 36.323669  -0.376305 0.477092 0.794215  0.000000 0.000000 0
c_invasion_wrangler_laser
0  -14.269634 10.509974 50.528408  0.255989 -0.446759 -0.857249  0.000000 0.000000 0
0  -20.270445 11.101173 49.237148  0.255989 -0.446755 -0.857251  0.000000 0.000000 0
0  -9.494507 26.011047 43.067265  0.255988 -0.446738 -0.857260  0.000000 0.000000 0
c_invasion_wrangler_laser
0  -9.494507 26.011047 43.067265  0.256062 -0.446744 -0.857235  0.000000 0.000000 0
0  -5.440245 25.043697 46.400433  0.256061 -0.446745 -0.857235  0.000000 0.000000 0
0  -14.269634 10.509974 50.528408  0.256056 -0.446758 -0.857230  0.000000 0.000000 0
painted_wood_01
0  -11.775143 7.853165 56.133884  0.011446 -0.899103 -0.437587  0.298429 0.540159 0
0  -21.729578 9.513700 52.298977  0.011446 -0.899103 -0.437587  0.298429 0.540159 0
0  -14.269634 10.509974 50.528408  0.011446 -0.899103 -0.437587  0.298429 0.540159 0
painted_wood_01
0  -21.729578 9.513700 52.298977  0.011476 -0.899109 -0.437575  0.298429 0.540159 0
0  -20.270445 11.101173 49.237148  0.011477 -0.899109 -0.437575  0.298429 0.540159 0
0  -14.269634 10.509974 50.528408  0.011476 -0.899109 -0.437575  0.298429 0.540159 0
c_invasion_wrangler_laser
0  -29.089903 15.278824 46.374504  -0.300307 0.670286 0.678625  0.000000 0.000000 0
0  -20.824196 14.196979 52.478424  -0.300286 0.670294 0.678627  0.000000 0.000000 0
0  -9.494507 26.011047 43.067265  -0.300299 0.670289 0.678626  0.000000 0.000000 0
c_invasion_wrangler_laser
0  -9.494507 26.011047 43.067265  -0.300268 0.670245 0.678683  0.000000 0.000000 0
0  -28.822845 30.904278 32.439152  -0.300267 0.670246 0.678682  0.000000 0.000000 0
0  -29.089903 15.278824 46.374504  -0.300262 0.670252 0.678678  0.000000 0.000000 0
painted_wood_01
0  -29.089903 15.278824 46.374504  -0.592507 0.059150 0.803391  0.298429 0.540159 0
0  -37.355610 16.360670 40.270580  -0.592504 0.059150 0.803393  0.298429 0.540159 0
0  -37.245232 12.205578 40.514442  -0.592506 0.059150 0.803392  0.298429 0.540159 0
painted_wood_01
0  -37.245232 12.205578 40.514442  -0.592526 0.059151 0.803376  0.298429 0.540159 0
0  -21.729578 9.513700 52.298977  -0.592526 0.059151 0.803376  0.298429 0.540159 0
0  -29.089903 15.278824 46.374504  -0.592526 0.059151 0.803376  0.298429 0.540159 0
gold_player
0  -46.328308 13.896694 30.464865  -0.500319 -0.409223 0.763032  -0.003852 -3.318090 0
0  -46.788570 16.836555 32.376755  -0.500325 -0.409220 0.763029  -0.177036 -3.305247 0
0  -50.903370 16.067690 28.629309  -0.500326 -0.409219 0.763029  -0.189926 -3.531826 0
painted_wood_01
0  -8.725719 6.002857 57.998249  -0.120275 -0.834465 -0.537776  0.298429 0.540159 0
0  -11.775143 7.853165 56.133884  -0.120274 -0.834463 -0.537779  0.298429 0.540159 0
0  -7.417726 9.809801 51.960892  -0.120276 -0.834466 -0.537774  0.298429 0.540159 0
painted_wood_01
0  -11.775143 7.853165 56.133884  -0.120235 -0.834484 -0.537755  0.298429 0.540159 0
0  -8.268824 9.918773 51.819668  -0.120239 -0.834485 -0.537752  0.298429 0.540159 0
0  -7.417726 9.809801 51.960892  -0.120246 -0.834487 -0.537747  0.298429 0.540159 0
c_invasion_wrangler_laser
0  -8.268824 9.918773 51.819668  0.023033 -0.349736 -0.936565  0.000000 0.000000 0
0  -5.440245 25.043697 46.400433  0.023033 -0.349736 -0.936565  0.000000 0.000000 0
0  -3.354603 11.543461 51.333817  0.023032 -0.349736 -0.936565  0.000000 0.000000 0
c_invasion_wrangler_laser
0  -3.354603 11.543461 51.333817  0.023031 -0.349789 -0.936545  0.000000 0.000000 0
0  -4.960615 10.622146 51.717968  0.023056 -0.349781 -0.936548  0.000000 0.000000 0
0  -8.268824 9.918773 51.819668  0.023051 -0.349782 -0.936548  0.000000 0.000000 0
c_invasion_wrangler_laser
0  -4.960615 10.622146 51.717968  0.023035 -0.349793 -0.936544  0.000000 0.000000 0
0  -6.566628 9.700830 52.102119  0.023044 -0.349790 -0.936545  0.000000 0.000000 0
0  -7.417726 9.809801 51.960892  0.023057 -0.349785 -0.936546  0.000000 0.000000 0
painted_wood_01
0  -9.188618 13.261563 57.598183  -0.416305 -0.006602 0.909201  0.298429 0.540159 0
0  -11.003320 13.272536 57.008007  -0.416312 -0.006609 0.909198  0.298429 0.540159 0
0  -11.775143 7.853165 56.133884  -0.416312 -0.006609 0.909198  0.298429 0.540159 0
painted_wood_01
0  -11.775143 7.853165 56.133884  -0.416356 -0.006587 0.909178  0.298429 0.540159 0
0  -8.725719 6.002857 57.998249  -0.416358 -0.006594 0.909177  0.298429 0.540159 0
0  -9.188618 13.261563 57.598183  -0.416355 -0.006577 0.909178  0.298429 0.540159 0
painted_wood_01
0  -5.368429 14.361264 56.463696  0.642778 -0.102726 0.759133  0.298429 0.540159 0
0  -7.373915 13.250590 58.188358  0.642779 -0.102727 0.759133  0.298429 0.540159 0
0  -4.004126 8.125338 54.641491  0.642780 -0.102728 0.759132  0.298429 0.540159 0
painted_wood_01
0  -7.373915 13.250590 58.188358  0.642758 -0.102754 0.759147  0.298429 0.540159 0
0  -8.725719 6.002857 57.998249  0.642759 -0.102754 0.759146  0.298429 0.540159 0
0  -4.004126 8.125338 54.641491  0.642758 -0.102754 0.759146  0.298429 0.540159 0
painted_wood_01
0  -4.004126 8.125338 54.641491  0.093088 -0.801242 -0.591055  0.298429 0.540159 0
0  -8.725719 6.002857 57.998249  0.093092 -0.801244 -0.591051  0.298429 0.540159 0
0  -6.566628 9.700830 52.102119  0.093092 -0.801244 -0.591051  0.298429 0.540159 0
painted_wood_01
0  -4.960615 10.622146 51.717968  0.093154 -0.801195 -0.591109  0.298429 0.540159 0
0  -3.354603 11.543461 51.333817  0.093160 -0.801198 -0.591103  0.298429 0.540159 0
0  -4.004126 8.125338 54.641491  0.093163 -0.801200 -0.591100  0.298429 0.540159 0
c_invasion_wrangler_laser
0  -5.368429 14.361264 56.463696  0.006814 0.706398 0.707782  0.000000 0.000000 0
0  -3.362944 15.471939 54.739033  0.006831 0.706404 0.707776  0.000000 0.000000 0
0  -11.003320 13.272536 57.008007  0.006824 0.706401 0.707779  0.000000 0.000000 0
c_invasion_wrangler_laser
0  -3.362944 15.471939 54.739033  0.006874 0.706350 0.707829  0.000000 0.000000 0
0  -5.440245 25.043697 46.400433  0.006867 0.706348 0.707832  0.000000 0.000000 0
0  -11.003320 13.272536 57.008007  0.006874 0.706350 0.707830  0.000000 0.000000 0
painted_wood_01
0  -3.354603 11.543461 51.333817  -0.075041 -0.000163 0.997180  0.298429 0.540159 0
0  -3.358773 13.507700 53.036423  -0.137292 -0.000311 0.990531  0.298429 0.540159 0
0  -3.362944 15.471939 54.739033  -0.199004 -0.000451 0.979999  0.298429 0.540159 0
c_invasion_wrangler_laser
0  -5.440245 25.043697 46.400433  0.986654 0.107845 -0.122000  0.000000 0.000000 0
0  -3.362944 15.471939 54.739033  0.986654 0.107845 -0.122000  0.000000 0.000000 0
0  -3.358773 13.507700 53.036423  0.986654 0.107845 -0.122000  0.000000 0.000000 0
gold_player
0  -46.788570 16.836555 32.376755  -0.707766 0.254620 0.658966  -3.050128 4.016712 0
0  -48.118973 33.451916 24.902870  -0.707766 0.254619 0.658967  -2.332964 5.510339 0
0  -52.391792 27.253431 22.333591  -0.707765 0.254619 0.658967  -2.797620 5.471533 0
gold_player
0  -48.118973 33.451916 24.902870  0.503857 -0.161024 -0.848645  -2.141698 4.734364 0
0  -44.652912 18.857807 28.522106  0.503856 -0.161030 -0.848645  -0.950574 4.597000 0
0  -50.900394 16.630054 26.443401  0.503855 -0.161041 -0.848644  -0.960896 4.948784 0
gold_player
0  -48.118973 33.451916 24.902870  0.746573 0.321728 0.582340  0.000000 0.000000 0
0  -46.788570 16.836555 32.376755  0.746573 0.321728 0.582340  0.000000 0.000000 0
0  -45.720741 17.847181 30.449430  0.746573 0.321728 0.582340  0.000000 0.000000 0
painted_wood_01
0  -9.488556 14.777483 73.341957  0.399943 0.260239 0.878818  0.298429 0.540159 0
0  -6.446497 17.754208 69.729675  0.399937 0.260246 0.878819  0.298429 0.540159 0
0  -24.974482 31.814743 75.344337  0.399931 0.260253 0.878820  0.298429 0.540159 0
painted_wood_01
0  -6.446497 17.754208 69.729675  0.363195 0.771962 -0.521693  0.298429 0.540159 0
0  -7.370350 14.121333 61.419346  0.363200 0.771960 -0.521693  0.298429 0.540159 0
0  -27.259045 28.061480 70.492332  0.363202 0.771959 -0.521694  0.298429 0.540159 0
painted_wood_01
0  -27.752537 27.112703 70.953491  -0.227385 0.180124 -0.957001  0.298429 0.540159 0
0  -30.762156 22.000561 69.942703  -0.227384 0.180123 -0.957002  0.298429 0.540159 0
0  -34.309769 31.911221 73.414711  -0.227398 0.180133 -0.956997  0.298429 0.540159 0
gold_player
0  -7.370350 14.121333 61.419346  -0.287943 0.230395 -0.929520  -0.363197 1.633885 0
0  -8.211290 12.230281 60.667789  -0.287965 0.230409 -0.929510  -0.141949 1.678676 0
0  -27.752537 27.112703 70.953491  -0.287956 0.230403 -0.929514  -1.872487 3.671999 0
gold_player
0  -10.371796 12.682323 71.941689  -0.133733 -0.309109 0.941577  -0.193015 -0.978127 0
0  -9.488556 14.777483 73.341957  -0.133738 -0.309103 0.941578  -0.430105 -0.931283 0
0  -23.489086 26.949884 74.762367  -0.133746 -0.309095 0.941580  -1.628578 -1.843102 0
painted_wood_01
0  -10.863907 7.774724 65.524628  -0.348974 -0.611245 0.710350  0.298429 0.540159 0
0  -10.371796 12.682323 71.941689  -0.348981 -0.611235 0.710355  0.298429 0.540159 0
0  -23.832930 26.288811 75.083672  -0.348974 -0.611246 0.710349  0.298429 0.540159 0
painted_wood_01
0  -8.211290 12.230281 60.667789  -0.419626 -0.113671 -0.900551  0.298429 0.540159 0
0  -10.863907 7.774724 65.524628  -0.419645 -0.113663 -0.900544  0.298429 0.540159 0
0  -30.762156 22.000561 69.942703  -0.419615 -0.113675 -0.900556  0.298429 0.540159 0
painted_wood_01
0  -30.762156 22.000561 69.942703  -0.348352 -0.397049 0.849119  0.298429 0.540159 0
0  -23.832930 26.288811 75.083672  -0.348352 -0.397050 0.849118  0.298429 0.540159 0
0  -32.547867 33.556274 74.613609  -0.348352 -0.397053 0.849117  0.298429 0.540159 0
gold_player
0  -27.259045 28.061480 70.492332  -0.299581 -0.617524 -0.727266  -1.589647 3.470214 0
0  -27.752537 27.112703 70.953491  -0.299611 -0.617518 -0.727258  -1.507813 3.528608 0
0  -34.745842 29.552355 72.310600  -0.299616 -0.617517 -0.727257  -1.678492 4.133949 0
painted_wood_01
0  -6.446497 17.754208 69.729675  0.180135 0.679256 0.711451  0.298429 0.540159 0
0  -9.488556 14.777483 73.341957  0.180135 0.679256 0.711451  0.298429 0.540159 0
0  -7.569712 13.854488 73.737328  0.180135 0.679256 0.711451  0.298429 0.540159 0
gold_player
0  -9.488556 14.777483 73.341957  -0.367271 -0.404830 0.837392  -0.453286 -0.958055 0
0  -10.371796 12.682323 71.941689  -0.367271 -0.404830 0.837392  -0.218226 -1.002372 0
0  -8.452950 11.759327 72.337059  -0.367271 -0.404830 0.837392  -0.157880 -0.874204 0
painted_wood_01
0  -10.863907 7.774724 65.524628  0.319631 -0.874490 -0.364833  0.298429 0.540159 0
0  -8.211290 12.230281 60.667789  0.319679 -0.874453 -0.364880  0.298429 0.540159 0
0  -6.292448 11.307284 61.063160  0.319637 -0.874486 -0.364838  0.298429 0.540159 0
painted_wood_01
0  -7.370350 14.121333 61.419346  0.462975 0.792120 -0.397745  0.298429 0.540159 0
0  -6.446497 17.754208 69.729675  0.462975 0.792120 -0.397745  0.298429 0.540159 0
0  -4.527653 16.831215 70.125046  0.462975 0.792120 -0.397745  0.298429 0.540159 0
painted_wood_01
0  -10.371796 12.682323 71.941689  -0.003707 -0.862587 0.505895  0.298429 0.540159 0
0  -10.863907 7.774724 65.524628  -0.003710 -0.862585 0.505899  0.298429 0.540159 0
0  -7.634211 9.787906 67.026512  -0.003708 -0.862586 0.505897  0.298429 0.540159 0
gold_player
0  -8.211290 12.230281 60.667789  0.302443 0.232843 -0.924290  -0.312931 1.645782 0
0  -7.370350 14.121333 61.419346  0.302443 0.232843 -0.924290  -0.520368 1.607895 0
0  -5.451508 13.198339 61.814709  0.302443 0.232843 -0.924290  -0.441298 1.440874 0
gold_player
0  -6.292448 11.307284 61.063160  0.922898 -0.334878 -0.190045  -0.295113 1.398249 0
0  -5.451508 13.198339 61.814709  0.922898 -0.334878 -0.190045  -0.512731 1.422093 0
0  -5.264883 12.865579 63.307354  0.922898 -0.334878 -0.190045  -0.529061 1.391064 0
gold_player
0  -8.452950 11.759327 72.337059  0.462315 -0.805666 0.370361  1.937990 -0.706488 0
0  -7.634211 9.787906 67.026512  0.462315 -0.805666 0.370361  1.891900 -0.111761 0
0  -6.907867 10.298448 67.230431  0.462315 -0.805666 0.370361  1.839383 -0.142650 0
gold_player
0  -7.634211 9.787906 67.026512  0.587189 -0.806127 -0.073271  1.855730 -0.179404 0
0  -6.292448 11.307284 61.063160  0.587189 -0.806127 -0.073271  1.890880 0.467719 0
0  -5.897882 11.442128 62.741634  0.587189 -0.806127 -0.073271  1.840041 0.313098 0
gold_player
0  -5.451508 13.198339 61.814709  0.992620 0.020841 -0.119459  -0.545392 0.329031 0
0  -4.527653 16.831215 70.125046  0.992620 0.020841 -0.119459  -0.730405 -0.407961 0
0  -4.569473 15.600147 69.562775  0.992620 0.020841 -0.119459  -0.668491 -0.322389 0
gold_player
0  -4.527653 16.831215 70.125046  0.832641 -0.253237 0.492524  -0.543765 -1.044556 0
0  -7.569712 13.854488 73.737328  0.832641 -0.253237 0.492524  -0.586300 -1.160901 0
0  -6.859318 13.359480 72.281845  0.832641 -0.253237 0.492524  -0.529309 -1.137797 0
gold_player
0  -7.569712 13.854488 73.737328  0.619658 -0.599662 0.506388  -0.328371 -0.769856 0
0  -8.452950 11.759327 72.337059  0.619658 -0.599662 0.506388  -0.086049 -0.774523 0
0  -7.524157 11.782393 71.227821  0.619658 -0.599662 0.506388  -0.033947 -0.730052 0
c_invasion_wrangler_laser
0  36.908855 16.093409 35.819305  -0.421187 -0.272155 -0.865178  0.000000 0.000000 0
0  28.822845 30.904278 32.439152  -0.421208 -0.272139 -0.865173  0.000000 0.000000 0
0  40.780884 17.475607 32.170708  -0.421191 -0.272152 -0.865177  0.000000 0.000000 0
c_invasion_wrangler_laser
0  28.822845 30.904278 32.439152  -0.421158 -0.272095 -0.865211  0.000000 0.000000 0
0  48.118973 33.451916 24.902870  -0.421150 -0.272101 -0.865213  0.000000 0.000000 0
0  44.652912 18.857807 28.522106  -0.421146 -0.272104 -0.865214  0.000000 0.000000 0
painted_wood_01
0  37.355610 16.360670 40.270580  0.692261 -0.217419 0.688116  0.298429 0.540159 0
0  37.245232 12.205578 40.514442  0.692256 -0.217422 0.688121  0.298429 0.540159 0
0  42.072090 16.598612 36.323669  0.692255 -0.217422 0.688121  0.298429 0.540159 0
painted_wood_01
0  37.245232 12.205578 40.514442  0.692291 -0.217450 0.688076  0.298429 0.540159 0
0  46.328308 13.896694 30.464865  0.692291 -0.217447 0.688077  0.298429 0.540159 0
0  42.072090 16.598612 36.323669  0.692290 -0.217452 0.688076  0.298429 0.540159 0
painted_wood_01
0  37.245232 12.205578 40.514442  -0.498568 -0.589876 -0.635197  0.298429 0.540159 0
0  36.908855 16.093409 35.819305  -0.498585 -0.589892 -0.635170  0.298429 0.540159 0
0  40.780884 17.475607 32.170708  -0.498583 -0.589890 -0.635173  0.298429 0.540159 0
painted_wood_01
0  40.780884 17.475607 32.170708  -0.498627 -0.589812 -0.635211  0.298429 0.540159 0
0  44.652912 18.857807 28.522106  -0.498626 -0.589812 -0.635212  0.298429 0.540159 0
0  46.328308 13.896694 30.464865  -0.498628 -0.589811 -0.635211  0.298429 0.540159 0
c_invasion_wrangler_laser
0  20.270445 11.101173 49.237148  -0.384963 -0.494710 -0.779144  0.000000 0.000000 0
0  9.494507 26.011047 43.067265  -0.384970 -0.494708 -0.779142  0.000000 0.000000 0
0  28.589649 13.597291 42.528229  -0.384962 -0.494711 -0.779144  0.000000 0.000000 0
c_invasion_wrangler_laser
0  9.494507 26.011047 43.067265  -0.384951 -0.494676 -0.779172  0.000000 0.000000 0
0  28.822845 30.904278 32.439152  -0.384953 -0.494673 -0.779173  0.000000 0.000000 0
0  28.589649 13.597291 42.528229  -0.384951 -0.494677 -0.779171  0.000000 0.000000 0
painted_wood_01
0  21.729578 9.513700 52.298977  0.392769 -0.030640 0.919127  0.298429 0.540159 0
0  20.824196 14.196979 52.478424  0.392772 -0.030641 0.919125  0.298429 0.540159 0
0  15.913757 13.734756 54.743217  0.392779 -0.030644 0.919122  0.298429 0.540159 0
painted_wood_01
0  15.913757 13.734756 54.743217  0.392786 -0.030669 0.919118  0.298429 0.540159 0
0  11.003320 13.272536 57.008007  0.392791 -0.030665 0.919116  0.298429 0.540159 0
0  11.775143 7.853165 56.133884  0.392786 -0.030669 0.919119  0.298429 0.540159 0
painted_wood_01
0  21.729578 9.513700 52.298977  -0.218187 -0.820401 -0.528523  0.298429 0.540159 0
0  20.270445 11.101173 49.237148  -0.218177 -0.820397 -0.528534  0.298429 0.540159 0
0  28.589649 13.597291 42.528229  -0.218184 -0.820400 -0.528526  0.298429 0.540159 0
painted_wood_01
0  28.589649 13.597291 42.528229  -0.218244 -0.820352 -0.528575  0.298429 0.540159 0
0  36.908855 16.093409 35.819305  -0.218251 -0.820353 -0.528571  0.298429 0.540159 0
0  37.245232 12.205578 40.514442  -0.218241 -0.820352 -0.528576  0.298429 0.540159 0
c_invasion_wrangler_laser
0  20.824196 14.196979 52.478424  0.261139 0.726513 0.635598  0.000000 0.000000 0
0  9.494507 26.011047 43.067265  0.261139 0.726513 0.635598  0.000000 0.000000 0
0  15.913757 13.734756 54.743217  0.261138 0.726514 0.635598  0.000000 0.000000 0
c_invasion_wrangler_laser
0  9.494507 26.011047 43.067265  0.261152 0.726520 0.635585  0.000000 0.000000 0
0  5.440245 25.043697 46.400433  0.261153 0.726519 0.635586  0.000000 0.000000 0
0  15.913757 13.734756 54.743217  0.261149 0.726524 0.635582  0.000000 0.000000 0
gold_player
0  44.652912 18.857807 28.522106  -0.461157 -0.396442 -0.793831  3.441954 4.155121 0
0  50.900394 16.630054 26.443401  -0.461161 -0.396437 -0.793831  3.718564 4.221788 0
0  48.831146 13.038713 29.000862  -0.461164 -0.396433 -0.793832  3.876100 3.780605 0
c_invasion_wrangler_laser
0  28.822845 30.904278 32.439152  0.376367 0.477147 0.794153  0.000000 0.000000 0
0  37.355610 16.360670 40.270580  0.376389 0.477130 0.794153  0.000000 0.000000 0
0  42.072090 16.598612 36.323669  0.376379 0.477137 0.794153  0.000000 0.000000 0
c_invasion_wrangler_laser
0  42.072090 16.598612 36.323669  0.376392 0.477099 0.794170  0.000000 0.000000 0
0  46.788570 16.836555 32.376755  0.376383 0.477086 0.794181  0.000000 0.000000 0
0  48.118973 33.451916 24.902870  0.376378 0.477077 0.794190  0.000000 0.000000 0
c_invasion_wrangler_laser
0  9.494507 26.011047 43.067265  -0.255989 -0.446761 -0.857248  0.000000 0.000000 0
0  20.270445 11.101173 49.237148  -0.255989 -0.446756 -0.857251  0.000000 0.000000 0
0  14.269634 10.509974 50.528408  -0.255988 -0.446749 -0.857254  0.000000 0.000000 0
c_invasion_wrangler_laser
0  14.269634 10.509974 50.528408  -0.256006 -0.446715 -0.857267  0.000000 0.000000 0
0  8.268824 9.918773 51.819668  -0.256003 -0.446718 -0.857266  0.000000 0.000000 0
0  5.440245 25.043697 46.400433  -0.255991 -0.446729 -0.857264  0.000000 0.000000 0
painted_wood_01
0  20.270445 11.101173 49.237148  -0.011475 -0.899108 -0.437576  0.298429 0.540159 0
0  21.729578 9.513700 52.298977  -0.011476 -0.899108 -0.437576  0.298429 0.540159 0
0  14.269634 10.509974 50.528408  -0.011476 -0.899108 -0.437576  0.298429 0.540159 0
painted_wood_01
0  21.729578 9.513700 52.298977  -0.011487 -0.899114 -0.437564  0.298429 0.540159 0
0  11.775143 7.853165 56.133884  -0.011487 -0.899114 -0.437564  0.298429 0.540159 0
0  14.269634 10.509974 50.528408  -0.011488 -0.899114 -0.437565  0.298429 0.540159 0
c_invasion_wrangler_laser
0  9.494507 26.011047 43.067265  0.300297 0.670290 0.678626  0.000000 0.000000 0
0  20.824196 14.196979 52.478424  0.300299 0.670289 0.678626  0.000000 0.000000 0
0  29.089903 15.278824 46.374504  0.300307 0.670286 0.678625  0.000000 0.000000 0
c_invasion_wrangler_laser
0  29.089903 15.278824 46.374504  0.300331 0.670244 0.678657  0.000000 0.000000 0
0  37.355610 16.360670 40.270580  0.300325 0.670231 0.678671  0.000000 0.000000 0
0  28.822845 30.904278 32.439152  0.300329 0.670238 0.678663  0.000000 0.000000 0
painted_wood_01
0  37.245232 12.205578 40.514442  0.592506 0.059150 0.803392  0.298429 0.540159 0
0  37.355610 16.360670 40.270580  0.592504 0.059150 0.803393  0.298429 0.540159 0
0  29.089903 15.278824 46.374504  0.592504 0.059150 0.803393  0.298429 0.540159 0
painted_wood_01
0  29.089903 15.278824 46.374504  0.592505 0.059159 0.803392  0.298429 0.540159 0
0  20.824196 14.196979 52.478424  0.592503 0.059158 0.803393  0.298429 0.540159 0
0  21.729578 9.513700 52.298977  0.592502 0.059158 0.803394  0.298429 0.540159 0
gold_player
0  46.328308 13.896694 30.464865  0.500313 -0.409146 0.763077  -0.003852 -3.318090 0
0  48.831146 13.038713 29.000862  0.500316 -0.409145 0.763076  -0.002219 -3.436736 0
0  50.903370 16.067690 28.629309  0.500290 -0.409157 0.763086  -0.189926 -3.531826 0
painted_wood_01
0  8.268824 9.918773 51.819668  0.120231 -0.834481 -0.537760  0.298429 0.540159 0
0  11.775143 7.853165 56.133884  0.120233 -0.834482 -0.537758  0.298429 0.540159 0
0  7.417726 9.809801 51.960892  0.120231 -0.834481 -0.537760  0.298429 0.540159 0
painted_wood_01
0  11.775143 7.853165 56.133884  0.120275 -0.834465 -0.537776  0.298429 0.540159 0
0  8.725719 6.002857 57.998249  0.120276 -0.834465 -0.537775  0.298429 0.540159 0
0  7.417726 9.809801 51.960892  0.120273 -0.834462 -0.537781  0.298429 0.540159 0
c_invasion_wrangler_laser
0  3.354603 11.543461 51.333817  -0.023032 -0.349736 -0.936565  0.000000 0.000000 0
0  5.440245 25.043697 46.400433  -0.023033 -0.349736 -0.936565  0.000000 0.000000 0
0  8.268824 9.918773 51.819668  -0.023032 -0.349736 -0.936565  0.000000 0.000000 0
c_invasion_wrangler_laser
0  7.417726 9.809801 51.960892  -0.023058 -0.349785 -0.936546  0.000000 0.000000 0
0  6.566628 9.700830 52.102119  -0.023051 -0.349787 -0.936545  0.000000 0.000000 0
0  4.960615 10.622146 51.717968  -0.023042 -0.349791 -0.936544  0.000000 0.000000 0
c_invasion_wrangler_laser
0  3.354603 11.543461 51.333817  -0.023039 -0.349787 -0.936546  0.000000 0.000000 0
0  8.268824 9.918773 51.819668  -0.023056 -0.349780 -0.936548  0.000000 0.000000 0
0  4.960615 10.622146 51.717968  -0.023050 -0.349783 -0.936547  0.000000 0.000000 0
painted_wood_01
0  11.775143 7.853165 56.133884  0.416316 -0.006614 0.909196  0.298429 0.540159 0
0  11.003320 13.272536 57.008007  0.416301 -0.006595 0.909203  0.298429 0.540159 0
0  9.188618 13.261563 57.598183  0.416308 -0.006605 0.909199  0.298429 0.540159 0
painted_wood_01
0  9.188618 13.261563 57.598183  0.416285 -0.006563 0.909210  0.298429 0.540159 0
0  7.373915 13.250590 58.188358  0.416282 -0.006574 0.909212  0.298429 0.540159 0
0  8.725719 6.002857 57.998249  0.416278 -0.006586 0.909214  0.298429 0.540159 0
painted_wood_01
0  8.725719 6.002857 57.998249  -0.642759 -0.102754 0.759146  0.298429 0.540159 0
0  7.373915 13.250590 58.188358  -0.642759 -0.102755 0.759146  0.298429 0.540159 0
0  4.004126 8.125338 54.641491  -0.642758 -0.102753 0.759147  0.298429 0.540159 0
painted_wood_01
0  7.373915 13.250590 58.188358  -0.642780 -0.102728 0.759132  0.298429 0.540159 0
0  5.368429 14.361264 56.463696  -0.642781 -0.102730 0.759131  0.298429 0.540159 0
0  4.004126 8.125338 54.641491  -0.642781 -0.102729 0.759131  0.298429 0.540159 0
painted_wood_01
0  6.566628 9.700830 52.102119  -0.093092 -0.801244 -0.591051  0.298429 0.540159 0
0  8.725719 6.002857 57.998249  -0.093813 -0.801691 -0.590330  0.298429 0.540159 0
0  4.004126 8.125338 54.641491  -0.093087 -0.801241 -0.591056  0.298429 0.540159 0
painted_wood_01
0  4.004126 8.125338 54.641491  -0.093159 -0.801197 -0.591104  0.298429 0.540159 0
0  3.354603 11.543461 51.333817  -0.093159 -0.801198 -0.591104  0.298429 0.540159 0
0  4.960615 10.622146 51.717968  -0.093174 -0.801207 -0.591089  0.298429 0.540159 0
c_invasion_wrangler_laser
0  9.188618 13.261563 57.598183  -0.006843 0.706408 0.707772  0.000000 0.000000 0
0  11.003320 13.272536 57.008007  -0.006812 0.706399 0.707781  0.000000 0.000000 0
0  5.368429 14.361264 56.463696  -0.006860 0.706412 0.707767  0.000000 0.000000 0
c_invasion_wrangler_laser
0  11.003320 13.272536 57.008007  -0.006866 0.706347 0.707832  0.000000 0.000000 0
0  5.440245 25.043697 46.400433  -0.006878 0.706351 0.707828  0.000000 0.000000 0
0  3.362944 15.471939 54.739033  -0.006872 0.706349 0.707830  0.000000 0.000000 0
painted_wood_01
0  3.354603 11.543461 51.333817  -0.990715 -0.087843 0.103768  0.298429 0.540159 0
0  4.004126 8.125338 54.641491  -0.990715 -0.087843 0.103768  0.298429 0.540159 0
0  3.362944 15.471939 54.739033  -0.990715 -0.087843 0.103768  0.298429 0.540159 0
c_invasion_wrangler_laser
0  5.440245 25.043697 46.400433  -0.986654 0.107845 -0.122000  0.000000 0.000000 0
0  3.354603 11.543461 51.333817  -0.986654 0.107845 -0.122000  0.000000 0.000000 0
0  3.358773 13.507700 53.036423  -0.986654 0.107845 -0.122000  0.000000 0.000000 0
gold_player
0  46.788570 16.836555 32.376755  0.707763 0.254622 0.658968  -3.050128 4.016712 0
0  50.903370 16.067690 28.629309  0.707761 0.254620 0.658971  -3.248398 4.360678 0
0  52.391792 27.253431 22.333591  0.707764 0.254625 0.658966  -2.797620 5.471533 0
gold_player
0  48.118973 33.451916 24.902870  -0.503945 -0.161028 -0.848592  -2.141698 4.734364 0
0  52.391792 27.253431 22.333591  -0.503947 -0.161019 -0.848593  -1.849099 5.047280 0
0  50.900394 16.630054 26.443401  -0.503944 -0.161033 -0.848592  -0.960896 4.948784 0
gold_player
0  48.118973 33.451916 24.902870  -0.746575 0.321724 0.582339  0.000000 0.000000 0
0  44.652912 18.857807 28.522106  -0.746575 0.321724 0.582339  0.000000 0.000000 0
0  45.720741 17.847181 30.449430  -0.746575 0.321724 0.582339  0.000000 0.000000 0
painted_wood_01
0  9.488556 14.777483 73.341957  -0.399930 0.260215 0.878831  0.298429 0.540159 0
0  23.489086 26.949884 74.762367  -0.399899 0.260249 0.878835  0.298429 0.540159 0
0  24.974482 31.814743 75.344337  -0.399894 0.260255 0.878836  0.298429 0.540159 0
painted_wood_01
0  6.446497 17.754208 69.729675  -0.363155 0.771935 -0.521762  0.298429 0.540159 0
0  24.974482 31.814743 75.344337  -0.363172 0.771926 -0.521762  0.298429 0.540159 0
0  27.259045 28.061480 70.492332  -0.363173 0.771926 -0.521762  0.298429 0.540159 0
painted_wood_01
0  27.752537 27.112703 70.953491  0.227363 0.180166 -0.956999  0.298429 0.540159 0
0  34.745842 29.552355 72.310600  0.227362 0.180165 -0.956999  0.298429 0.540159 0
0  34.309769 31.911221 73.414711  0.227350 0.180157 -0.957003  0.298429 0.540159 0
gold_player
0  7.370350 14.121333 61.419346  0.287971 0.230377 -0.929515  -0.363197 1.633885 0
0  27.259045 28.061480 70.492332  0.287938 0.230354 -0.929532  -1.969413 3.618958 0
0  27.752537 27.112703 70.953491  0.287954 0.230364 -0.929524  -1.872487 3.671999 0
gold_player
0  10.371796 12.682323 71.941689  0.133667 -0.309156 0.941571  -0.193015 -0.978127 0
0  23.832930 26.288811 75.083672  0.133712 -0.309114 0.941578  -1.576452 -1.858028 0
0  23.489086 26.949884 74.762367  0.133741 -0.309079 0.941585  -1.628578 -1.843102 0
painted_wood_01
0  10.863907 7.774724 65.524628  0.348936 -0.611196 0.710410  0.298429 0.540159 0
0  30.762156 22.000561 69.942703  0.348920 -0.611219 0.710398  0.298429 0.540159 0
0  23.832930 26.288811 75.083672  0.348931 -0.611204 0.710406  0.298429 0.540159 0
painted_wood_01
0  8.211290 12.230281 60.667789  0.419612 -0.113647 -0.900561  0.298429 0.540159 0
0  27.752537 27.112703 70.953491  0.419635 -0.113637 -0.900552  0.298429 0.540159 0
0  30.762156 22.000561 69.942703  0.419598 -0.113653 -0.900567  0.298429 0.540159 0
painted_wood_01
0  30.762156 22.000561 69.942703  0.348309 -0.397051 0.849136  0.298429 0.540159 0
0  34.309769 31.911221 73.414711  0.348309 -0.397045 0.849138  0.298429 0.540159 0
0  32.547867 33.556274 74.613609  0.348309 -0.397050 0.849136  0.298429 0.540159 0
gold_player
0  27.259045 28.061480 70.492332  0.299561 -0.617580 -0.727226  -1.589647 3.470214 0
0  34.440300 29.981960 71.272087  0.299577 -0.617577 -0.727222  -1.757803 4.071571 0
0  34.745842 29.552355 72.310600  0.299576 -0.617577 -0.727222  -1.678492 4.133949 0
painted_wood_01
0  6.446497 17.754208 69.729675  -0.180145 0.679255 0.711449  0.298429 0.540159 0
0  4.527653 16.831215 70.125046  -0.180145 0.679255 0.711449  0.298429 0.540159 0
0  7.569712 13.854488 73.737328  -0.180145 0.679255 0.711449  0.298429 0.540159 0
gold_player
0  9.488556 14.777483 73.341957  0.367269 -0.404831 0.837392  -0.453286 -0.958055 0
0  7.569712 13.854488 73.737328  0.367269 -0.404831 0.837392  -0.392940 -0.829887 0
0  8.452950 11.759327 72.337059  0.367269 -0.404831 0.837392  -0.157880 -0.874204 0
painted_wood_01
0  10.863907 7.774724 65.524628  -0.319662 -0.874454 -0.364893  0.298429 0.540159 0
0  7.634211 9.787906 67.026512  -0.319647 -0.874465 -0.364879  0.298429 0.540159 0
0  6.292448 11.307284 61.063160  -0.319656 -0.874458 -0.364888  0.298429 0.540159 0
painted_wood_01
0  7.370350 14.121333 61.419346  -0.462975 0.792119 -0.397745  0.298429 0.540159 0
0  5.451508 13.198339 61.814709  -0.462975 0.792119 -0.397745  0.298429 0.540159 0
0  4.527653 16.831215 70.125046  -0.462975 0.792119 -0.397745  0.298429 0.540159 0
painted_wood_01
0  10.371796 12.682323 71.941689  0.003752 -0.862609 0.505858  0.298429 0.540159 0
0  8.452950 11.759327 72.337059  0.003769 -0.862590 0.505889  0.298429 0.540159 0
0  7.634211 9.787906 67.026512  0.003748 -0.862613 0.505850  0.298429 0.540159 0
gold_player
0  8.211290 12.230281 60.667789  -0.302443 0.232839 -0.924291  -0.312931 1.645782 0
0  6.292448 11.307284 61.063160  -0.302443 0.232839 -0.924291  -0.233861 1.478761 0
0  5.451508 13.198339 61.814709  -0.302443 0.232839 -0.924291  -0.441298 1.440874 0
gold_player
0  6.292448 11.307284 61.063160  -0.922898 -0.334877 -0.190046  -0.295113 1.398249 0
0  5.897882 11.442128 62.741634  -0.922898 -0.334877 -0.190046  -0.365253 1.373116 0
0  5.264883 12.865579 63.307354  -0.922898 -0.334877 -0.190046  -0.529061 1.391064 0
gold_player
0  8.452950 11.759327 72.337059  -0.462323 -0.805661 0.370362  1.937990 -0.706488 0
0  7.524157 11.782393 71.227821  -0.462323 -0.805661 0.370362  1.874075 -0.590317 0
0  6.907867 10.298448 67.230431  -0.462323 -0.805661 0.370362  1.839383 -0.142650 0
gold_player
0  7.634211 9.787906 67.026512  -0.587191 -0.806126 -0.073271  1.855730 -0.179404 0
0  6.907867 10.298448 67.230431  -0.587191 -0.806126 -0.073271  1.813582 -0.174012 0
0  5.897882 11.442128 62.741634  -0.587191 -0.806126 -0.073271  1.840041 0.313098 0
gold_player
0  5.451508 13.198339 61.814709  -0.992620 0.020843 -0.119460  -0.545392 0.329031 0
0  5.264883 12.865579 63.307354  -0.992620 0.020843 -0.119460  -0.529227 0.232365 0
0  4.569473 15.600147 69.562775  -0.992620 0.020843 -0.119460  -0.668491 -0.322389 0
gold_player
0  4.527653 16.831215 70.125046  -0.832644 -0.253237 0.492520  -0.543765 -1.044556 0
0  4.569473 15.600147 69.562775  -0.832644 -0.253237 0.492520  -0.497292 -1.050221 0
0  6.859318 13.359480 72.281845  -0.832644 -0.253237 0.492520  -0.529309 -1.137797 0
gold_player
0  7.569712 13.854488 73.737328  -0.619654 -0.599664 0.506391  -0.328371 -0.769856 0
0  6.859318 13.359480 72.281845  -0.619654 -0.599664 0.506391  -0.216350 -0.726539 0
0  7.524157 11.782393 71.227821  -0.619654 -0.599664 0.506391  -0.033947 -0.730052 0
end
